%TF.GenerationSoftware,KiCad,Pcbnew,8.0.1*%
%TF.CreationDate,2024-04-25T12:31:50+02:00*%
%TF.ProjectId,Schrittmotortreiber_Traegerboard,53636872-6974-4746-9d6f-746f72747265,rev?*%
%TF.SameCoordinates,Original*%
%TF.FileFunction,Soldermask,Bot*%
%TF.FilePolarity,Negative*%
%FSLAX46Y46*%
G04 Gerber Fmt 4.6, Leading zero omitted, Abs format (unit mm)*
G04 Created by KiCad (PCBNEW 8.0.1) date 2024-04-25 12:31:50*
%MOMM*%
%LPD*%
G01*
G04 APERTURE LIST*
G04 Aperture macros list*
%AMRoundRect*
0 Rectangle with rounded corners*
0 $1 Rounding radius*
0 $2 $3 $4 $5 $6 $7 $8 $9 X,Y pos of 4 corners*
0 Add a 4 corners polygon primitive as box body*
4,1,4,$2,$3,$4,$5,$6,$7,$8,$9,$2,$3,0*
0 Add four circle primitives for the rounded corners*
1,1,$1+$1,$2,$3*
1,1,$1+$1,$4,$5*
1,1,$1+$1,$6,$7*
1,1,$1+$1,$8,$9*
0 Add four rect primitives between the rounded corners*
20,1,$1+$1,$2,$3,$4,$5,0*
20,1,$1+$1,$4,$5,$6,$7,0*
20,1,$1+$1,$6,$7,$8,$9,0*
20,1,$1+$1,$8,$9,$2,$3,0*%
G04 Aperture macros list end*
%ADD10C,3.200000*%
%ADD11R,1.700000X1.700000*%
%ADD12O,1.700000X1.700000*%
%ADD13RoundRect,0.102000X-0.754000X0.754000X-0.754000X-0.754000X0.754000X-0.754000X0.754000X0.754000X0*%
%ADD14C,1.712000*%
%ADD15RoundRect,0.250000X-0.600000X-0.750000X0.600000X-0.750000X0.600000X0.750000X-0.600000X0.750000X0*%
%ADD16O,1.700000X2.000000*%
%ADD17O,2.604000X1.404000*%
%ADD18RoundRect,1.025000X1.025000X-1.025000X1.025000X1.025000X-1.025000X1.025000X-1.025000X-1.025000X0*%
%ADD19C,4.100000*%
%ADD20RoundRect,0.250000X-0.600000X-0.725000X0.600000X-0.725000X0.600000X0.725000X-0.600000X0.725000X0*%
%ADD21O,1.700000X1.950000*%
G04 APERTURE END LIST*
D10*
%TO.C,H1*%
X87311222Y-70274168D03*
%TD*%
D11*
%TO.C,J17*%
X124998000Y-89931000D03*
D12*
X124998000Y-92471000D03*
X124998000Y-95011000D03*
%TD*%
D10*
%TO.C,H3*%
X87311222Y-120058168D03*
%TD*%
D13*
%TO.C,U2*%
X150622000Y-85080000D03*
D14*
X148082000Y-85080000D03*
X145542000Y-85080000D03*
X143002000Y-85080000D03*
X140462000Y-85080000D03*
X137922000Y-85080000D03*
X135382000Y-85080000D03*
X132842000Y-85080000D03*
X150622000Y-97780000D03*
X148082000Y-97780000D03*
X145542000Y-97780000D03*
X143002000Y-97780000D03*
X140462000Y-97780000D03*
X137922000Y-97780000D03*
X135382000Y-97780000D03*
X132842000Y-97780000D03*
X132842000Y-92700000D03*
X132842000Y-95240000D03*
%TD*%
D15*
%TO.C,J14*%
X146832000Y-79602000D03*
D16*
X149332000Y-79602000D03*
%TD*%
D11*
%TO.C,J8*%
X164947600Y-89931000D03*
D12*
X164947600Y-92471000D03*
X164947600Y-95011000D03*
%TD*%
D11*
%TO.C,J6*%
X171450000Y-89931000D03*
D12*
X171450000Y-92471000D03*
X171450000Y-95011000D03*
%TD*%
D17*
%TO.C,J5*%
X95498400Y-114896400D03*
D18*
X101498400Y-111746400D03*
D17*
X95498400Y-101396400D03*
D19*
X101498400Y-104546400D03*
%TD*%
D11*
%TO.C,J18*%
X121746800Y-89931000D03*
D12*
X121746800Y-92471000D03*
X121746800Y-95011000D03*
%TD*%
D11*
%TO.C,J7*%
X168198800Y-89931000D03*
D12*
X168198800Y-92471000D03*
X168198800Y-95011000D03*
%TD*%
D11*
%TO.C,J11*%
X149961600Y-89931000D03*
D12*
X149961600Y-92471000D03*
X149961600Y-95011000D03*
%TD*%
D15*
%TO.C,J24*%
X103632000Y-79619000D03*
D16*
X106132000Y-79619000D03*
%TD*%
D20*
%TO.C,J20*%
X112455000Y-79602000D03*
D21*
X114955000Y-79602000D03*
X117455000Y-79602000D03*
X119955000Y-79602000D03*
%TD*%
D11*
%TO.C,J16*%
X128270000Y-89931000D03*
D12*
X128270000Y-92471000D03*
X128270000Y-95011000D03*
%TD*%
D11*
%TO.C,J21*%
X106680000Y-89931000D03*
D12*
X106680000Y-92471000D03*
X106680000Y-95011000D03*
%TD*%
D11*
%TO.C,J23*%
X100177600Y-89931000D03*
D12*
X100177600Y-92471000D03*
X100177600Y-95011000D03*
%TD*%
D20*
%TO.C,J10*%
X155635000Y-79602000D03*
D21*
X158135000Y-79602000D03*
X160635000Y-79602000D03*
X163135000Y-79602000D03*
%TD*%
D20*
%TO.C,J25*%
X90865000Y-79602000D03*
D21*
X93365000Y-79602000D03*
X95865000Y-79602000D03*
X98365000Y-79602000D03*
%TD*%
D13*
%TO.C,U1*%
X172212000Y-85080000D03*
D14*
X169672000Y-85080000D03*
X167132000Y-85080000D03*
X164592000Y-85080000D03*
X162052000Y-85080000D03*
X159512000Y-85080000D03*
X156972000Y-85080000D03*
X154432000Y-85080000D03*
X172212000Y-97780000D03*
X169672000Y-97780000D03*
X167132000Y-97780000D03*
X164592000Y-97780000D03*
X162052000Y-97780000D03*
X159512000Y-97780000D03*
X156972000Y-97780000D03*
X154432000Y-97780000D03*
X154432000Y-92700000D03*
X154432000Y-95240000D03*
%TD*%
D11*
%TO.C,J13*%
X143357600Y-89931000D03*
D12*
X143357600Y-92471000D03*
X143357600Y-95011000D03*
%TD*%
D20*
%TO.C,J15*%
X134039600Y-79610400D03*
D21*
X136539600Y-79610400D03*
X139039600Y-79610400D03*
X141539600Y-79610400D03*
%TD*%
D10*
%TO.C,H2*%
X174306222Y-70274168D03*
%TD*%
D13*
%TO.C,U4*%
X107442000Y-85085000D03*
D14*
X104902000Y-85085000D03*
X102362000Y-85085000D03*
X99822000Y-85085000D03*
X97282000Y-85085000D03*
X94742000Y-85085000D03*
X92202000Y-85085000D03*
X89662000Y-85085000D03*
X107442000Y-97785000D03*
X104902000Y-97785000D03*
X102362000Y-97785000D03*
X99822000Y-97785000D03*
X97282000Y-97785000D03*
X94742000Y-97785000D03*
X92202000Y-97785000D03*
X89662000Y-97785000D03*
X89662000Y-92705000D03*
X89662000Y-95245000D03*
%TD*%
D10*
%TO.C,H4*%
X174306222Y-120058168D03*
%TD*%
D15*
%TO.C,J9*%
X168422000Y-79602000D03*
D16*
X170922000Y-79602000D03*
%TD*%
D15*
%TO.C,J19*%
X125242000Y-79602000D03*
D16*
X127742000Y-79602000D03*
%TD*%
D13*
%TO.C,U3*%
X129032000Y-85090000D03*
D14*
X126492000Y-85090000D03*
X123952000Y-85090000D03*
X121412000Y-85090000D03*
X118872000Y-85090000D03*
X116332000Y-85090000D03*
X113792000Y-85090000D03*
X111252000Y-85090000D03*
X129032000Y-97790000D03*
X126492000Y-97790000D03*
X123952000Y-97790000D03*
X121412000Y-97790000D03*
X118872000Y-97790000D03*
X116332000Y-97790000D03*
X113792000Y-97790000D03*
X111252000Y-97790000D03*
X111252000Y-92710000D03*
X111252000Y-95250000D03*
%TD*%
D11*
%TO.C,J12*%
X146659600Y-89931000D03*
D12*
X146659600Y-92471000D03*
X146659600Y-95011000D03*
%TD*%
D11*
%TO.C,J22*%
X103428800Y-89931000D03*
D12*
X103428800Y-92471000D03*
X103428800Y-95011000D03*
%TD*%
D11*
%TO.C,J4*%
X144843222Y-117005168D03*
D12*
X144843222Y-119545168D03*
X147383222Y-117005168D03*
X147383222Y-119545168D03*
X149923222Y-117005168D03*
X149923222Y-119545168D03*
X152463222Y-117005168D03*
X152463222Y-119545168D03*
X155003222Y-117005168D03*
X155003222Y-119545168D03*
X157543222Y-117005168D03*
X157543222Y-119545168D03*
%TD*%
D11*
%TO.C,J2*%
X135693222Y-73835168D03*
D12*
X135693222Y-71295168D03*
X133153222Y-73835168D03*
X133153222Y-71295168D03*
X130613222Y-73835168D03*
X130613222Y-71295168D03*
X128073222Y-73835168D03*
X128073222Y-71295168D03*
X125533222Y-73835168D03*
X125533222Y-71295168D03*
X122993222Y-73835168D03*
X122993222Y-71295168D03*
X120453222Y-73835168D03*
X120453222Y-71295168D03*
X117913222Y-73835168D03*
X117913222Y-71295168D03*
X115373222Y-73835168D03*
X115373222Y-71295168D03*
X112833222Y-73835168D03*
X112833222Y-71295168D03*
%TD*%
D11*
%TO.C,J1*%
X157517222Y-73810168D03*
D12*
X157517222Y-71270168D03*
X154977222Y-73810168D03*
X154977222Y-71270168D03*
X152437222Y-73810168D03*
X152437222Y-71270168D03*
X149897222Y-73810168D03*
X149897222Y-71270168D03*
X147357222Y-73810168D03*
X147357222Y-71270168D03*
X144817222Y-73810168D03*
X144817222Y-71270168D03*
X142277222Y-73810168D03*
X142277222Y-71270168D03*
X139737222Y-73810168D03*
X139737222Y-71270168D03*
%TD*%
D11*
%TO.C,J3*%
X121997222Y-117005168D03*
D12*
X121997222Y-119545168D03*
X124537222Y-117005168D03*
X124537222Y-119545168D03*
X127077222Y-117005168D03*
X127077222Y-119545168D03*
X129617222Y-117005168D03*
X129617222Y-119545168D03*
X132157222Y-117005168D03*
X132157222Y-119545168D03*
X134697222Y-117005168D03*
X134697222Y-119545168D03*
X137237222Y-117005168D03*
X137237222Y-119545168D03*
X139777222Y-117005168D03*
X139777222Y-119545168D03*
%TD*%
M02*
