%TF.GenerationSoftware,KiCad,Pcbnew,8.0.1*%
%TF.CreationDate,2024-04-25T12:31:50+02:00*%
%TF.ProjectId,Schrittmotortreiber_Traegerboard,53636872-6974-4746-9d6f-746f72747265,rev?*%
%TF.SameCoordinates,Original*%
%TF.FileFunction,Legend,Top*%
%TF.FilePolarity,Positive*%
%FSLAX46Y46*%
G04 Gerber Fmt 4.6, Leading zero omitted, Abs format (unit mm)*
G04 Created by KiCad (PCBNEW 8.0.1) date 2024-04-25 12:31:50*
%MOMM*%
%LPD*%
G01*
G04 APERTURE LIST*
%ADD10C,0.300000*%
%ADD11C,0.250000*%
%ADD12C,0.150000*%
%ADD13C,0.206375*%
%ADD14C,0.100000*%
%ADD15C,0.120000*%
%ADD16C,0.127000*%
%ADD17C,0.350000*%
%ADD18O,1.700000X0.600000*%
G04 APERTURE END LIST*
D10*
X148848028Y-112983489D02*
X147348028Y-112983489D01*
X148062314Y-112983489D02*
X148062314Y-112126346D01*
X148848028Y-112126346D02*
X147348028Y-112126346D01*
X147348028Y-111126345D02*
X147348028Y-110840631D01*
X147348028Y-110840631D02*
X147419457Y-110697774D01*
X147419457Y-110697774D02*
X147562314Y-110554917D01*
X147562314Y-110554917D02*
X147848028Y-110483488D01*
X147848028Y-110483488D02*
X148348028Y-110483488D01*
X148348028Y-110483488D02*
X148633742Y-110554917D01*
X148633742Y-110554917D02*
X148776600Y-110697774D01*
X148776600Y-110697774D02*
X148848028Y-110840631D01*
X148848028Y-110840631D02*
X148848028Y-111126345D01*
X148848028Y-111126345D02*
X148776600Y-111269203D01*
X148776600Y-111269203D02*
X148633742Y-111412060D01*
X148633742Y-111412060D02*
X148348028Y-111483488D01*
X148348028Y-111483488D02*
X147848028Y-111483488D01*
X147848028Y-111483488D02*
X147562314Y-111412060D01*
X147562314Y-111412060D02*
X147419457Y-111269203D01*
X147419457Y-111269203D02*
X147348028Y-111126345D01*
X148848028Y-109840631D02*
X147348028Y-109840631D01*
X147348028Y-109840631D02*
X148419457Y-109340631D01*
X148419457Y-109340631D02*
X147348028Y-108840631D01*
X147348028Y-108840631D02*
X148848028Y-108840631D01*
X148062314Y-108126345D02*
X148062314Y-107626345D01*
X148848028Y-107412059D02*
X148848028Y-108126345D01*
X148848028Y-108126345D02*
X147348028Y-108126345D01*
X147348028Y-108126345D02*
X147348028Y-107412059D01*
X106269310Y-115651914D02*
X106769310Y-115651914D01*
X106983596Y-116437628D02*
X106269310Y-116437628D01*
X106269310Y-116437628D02*
X106269310Y-114937628D01*
X106269310Y-114937628D02*
X106983596Y-114937628D01*
X107626453Y-116437628D02*
X107626453Y-114937628D01*
X107626453Y-114937628D02*
X108483596Y-116437628D01*
X108483596Y-116437628D02*
X108483596Y-114937628D01*
D11*
X97010219Y-112646517D02*
X97724504Y-112646517D01*
X97724504Y-112646517D02*
X97867361Y-112694136D01*
X97867361Y-112694136D02*
X97962600Y-112789374D01*
X97962600Y-112789374D02*
X98010219Y-112932231D01*
X98010219Y-112932231D02*
X98010219Y-113027469D01*
X98010219Y-111694136D02*
X98010219Y-112170326D01*
X98010219Y-112170326D02*
X97010219Y-112170326D01*
X97914980Y-110789374D02*
X97962600Y-110836993D01*
X97962600Y-110836993D02*
X98010219Y-110979850D01*
X98010219Y-110979850D02*
X98010219Y-111075088D01*
X98010219Y-111075088D02*
X97962600Y-111217945D01*
X97962600Y-111217945D02*
X97867361Y-111313183D01*
X97867361Y-111313183D02*
X97772123Y-111360802D01*
X97772123Y-111360802D02*
X97581647Y-111408421D01*
X97581647Y-111408421D02*
X97438790Y-111408421D01*
X97438790Y-111408421D02*
X97248314Y-111360802D01*
X97248314Y-111360802D02*
X97153076Y-111313183D01*
X97153076Y-111313183D02*
X97057838Y-111217945D01*
X97057838Y-111217945D02*
X97010219Y-111075088D01*
X97010219Y-111075088D02*
X97010219Y-110979850D01*
X97010219Y-110979850D02*
X97057838Y-110836993D01*
X97057838Y-110836993D02*
X97105457Y-110789374D01*
X97010219Y-110075088D02*
X97724504Y-110075088D01*
X97724504Y-110075088D02*
X97867361Y-110122707D01*
X97867361Y-110122707D02*
X97962600Y-110217945D01*
X97962600Y-110217945D02*
X98010219Y-110360802D01*
X98010219Y-110360802D02*
X98010219Y-110456040D01*
X98010219Y-109122707D02*
X98010219Y-109598897D01*
X98010219Y-109598897D02*
X97010219Y-109598897D01*
X97914980Y-108217945D02*
X97962600Y-108265564D01*
X97962600Y-108265564D02*
X98010219Y-108408421D01*
X98010219Y-108408421D02*
X98010219Y-108503659D01*
X98010219Y-108503659D02*
X97962600Y-108646516D01*
X97962600Y-108646516D02*
X97867361Y-108741754D01*
X97867361Y-108741754D02*
X97772123Y-108789373D01*
X97772123Y-108789373D02*
X97581647Y-108836992D01*
X97581647Y-108836992D02*
X97438790Y-108836992D01*
X97438790Y-108836992D02*
X97248314Y-108789373D01*
X97248314Y-108789373D02*
X97153076Y-108741754D01*
X97153076Y-108741754D02*
X97057838Y-108646516D01*
X97057838Y-108646516D02*
X97010219Y-108503659D01*
X97010219Y-108503659D02*
X97010219Y-108408421D01*
X97010219Y-108408421D02*
X97057838Y-108265564D01*
X97057838Y-108265564D02*
X97105457Y-108217945D01*
X97010219Y-107503659D02*
X97724504Y-107503659D01*
X97724504Y-107503659D02*
X97867361Y-107551278D01*
X97867361Y-107551278D02*
X97962600Y-107646516D01*
X97962600Y-107646516D02*
X98010219Y-107789373D01*
X98010219Y-107789373D02*
X98010219Y-107884611D01*
X98010219Y-106551278D02*
X98010219Y-107027468D01*
X98010219Y-107027468D02*
X97010219Y-107027468D01*
X97914980Y-105646516D02*
X97962600Y-105694135D01*
X97962600Y-105694135D02*
X98010219Y-105836992D01*
X98010219Y-105836992D02*
X98010219Y-105932230D01*
X98010219Y-105932230D02*
X97962600Y-106075087D01*
X97962600Y-106075087D02*
X97867361Y-106170325D01*
X97867361Y-106170325D02*
X97772123Y-106217944D01*
X97772123Y-106217944D02*
X97581647Y-106265563D01*
X97581647Y-106265563D02*
X97438790Y-106265563D01*
X97438790Y-106265563D02*
X97248314Y-106217944D01*
X97248314Y-106217944D02*
X97153076Y-106170325D01*
X97153076Y-106170325D02*
X97057838Y-106075087D01*
X97057838Y-106075087D02*
X97010219Y-105932230D01*
X97010219Y-105932230D02*
X97010219Y-105836992D01*
X97010219Y-105836992D02*
X97057838Y-105694135D01*
X97057838Y-105694135D02*
X97105457Y-105646516D01*
X97010219Y-104932230D02*
X97724504Y-104932230D01*
X97724504Y-104932230D02*
X97867361Y-104979849D01*
X97867361Y-104979849D02*
X97962600Y-105075087D01*
X97962600Y-105075087D02*
X98010219Y-105217944D01*
X98010219Y-105217944D02*
X98010219Y-105313182D01*
X98010219Y-103979849D02*
X98010219Y-104456039D01*
X98010219Y-104456039D02*
X97010219Y-104456039D01*
X97914980Y-103075087D02*
X97962600Y-103122706D01*
X97962600Y-103122706D02*
X98010219Y-103265563D01*
X98010219Y-103265563D02*
X98010219Y-103360801D01*
X98010219Y-103360801D02*
X97962600Y-103503658D01*
X97962600Y-103503658D02*
X97867361Y-103598896D01*
X97867361Y-103598896D02*
X97772123Y-103646515D01*
X97772123Y-103646515D02*
X97581647Y-103694134D01*
X97581647Y-103694134D02*
X97438790Y-103694134D01*
X97438790Y-103694134D02*
X97248314Y-103646515D01*
X97248314Y-103646515D02*
X97153076Y-103598896D01*
X97153076Y-103598896D02*
X97057838Y-103503658D01*
X97057838Y-103503658D02*
X97010219Y-103360801D01*
X97010219Y-103360801D02*
X97010219Y-103265563D01*
X97010219Y-103265563D02*
X97057838Y-103122706D01*
X97057838Y-103122706D02*
X97105457Y-103075087D01*
D10*
X158987400Y-114477317D02*
X159058828Y-114263032D01*
X159058828Y-114263032D02*
X159058828Y-113905889D01*
X159058828Y-113905889D02*
X158987400Y-113763032D01*
X158987400Y-113763032D02*
X158915971Y-113691603D01*
X158915971Y-113691603D02*
X158773114Y-113620174D01*
X158773114Y-113620174D02*
X158630257Y-113620174D01*
X158630257Y-113620174D02*
X158487400Y-113691603D01*
X158487400Y-113691603D02*
X158415971Y-113763032D01*
X158415971Y-113763032D02*
X158344542Y-113905889D01*
X158344542Y-113905889D02*
X158273114Y-114191603D01*
X158273114Y-114191603D02*
X158201685Y-114334460D01*
X158201685Y-114334460D02*
X158130257Y-114405889D01*
X158130257Y-114405889D02*
X157987400Y-114477317D01*
X157987400Y-114477317D02*
X157844542Y-114477317D01*
X157844542Y-114477317D02*
X157701685Y-114405889D01*
X157701685Y-114405889D02*
X157630257Y-114334460D01*
X157630257Y-114334460D02*
X157558828Y-114191603D01*
X157558828Y-114191603D02*
X157558828Y-113834460D01*
X157558828Y-113834460D02*
X157630257Y-113620174D01*
X158058828Y-113120175D02*
X159058828Y-112834461D01*
X159058828Y-112834461D02*
X158344542Y-112548746D01*
X158344542Y-112548746D02*
X159058828Y-112263032D01*
X159058828Y-112263032D02*
X158058828Y-111977318D01*
X159058828Y-111405889D02*
X158058828Y-111405889D01*
X157558828Y-111405889D02*
X157630257Y-111477317D01*
X157630257Y-111477317D02*
X157701685Y-111405889D01*
X157701685Y-111405889D02*
X157630257Y-111334460D01*
X157630257Y-111334460D02*
X157558828Y-111405889D01*
X157558828Y-111405889D02*
X157701685Y-111405889D01*
X158058828Y-110905888D02*
X158058828Y-110334460D01*
X157558828Y-110691603D02*
X158844542Y-110691603D01*
X158844542Y-110691603D02*
X158987400Y-110620174D01*
X158987400Y-110620174D02*
X159058828Y-110477317D01*
X159058828Y-110477317D02*
X159058828Y-110334460D01*
X158987400Y-109191603D02*
X159058828Y-109334460D01*
X159058828Y-109334460D02*
X159058828Y-109620174D01*
X159058828Y-109620174D02*
X158987400Y-109763031D01*
X158987400Y-109763031D02*
X158915971Y-109834460D01*
X158915971Y-109834460D02*
X158773114Y-109905888D01*
X158773114Y-109905888D02*
X158344542Y-109905888D01*
X158344542Y-109905888D02*
X158201685Y-109834460D01*
X158201685Y-109834460D02*
X158130257Y-109763031D01*
X158130257Y-109763031D02*
X158058828Y-109620174D01*
X158058828Y-109620174D02*
X158058828Y-109334460D01*
X158058828Y-109334460D02*
X158130257Y-109191603D01*
X159058828Y-108548746D02*
X157558828Y-108548746D01*
X159058828Y-107905889D02*
X158273114Y-107905889D01*
X158273114Y-107905889D02*
X158130257Y-107977317D01*
X158130257Y-107977317D02*
X158058828Y-108120174D01*
X158058828Y-108120174D02*
X158058828Y-108334460D01*
X158058828Y-108334460D02*
X158130257Y-108477317D01*
X158130257Y-108477317D02*
X158201685Y-108548746D01*
X159058828Y-106405888D02*
X159058828Y-107263031D01*
X159058828Y-106834460D02*
X157558828Y-106834460D01*
X157558828Y-106834460D02*
X157773114Y-106977317D01*
X157773114Y-106977317D02*
X157915971Y-107120174D01*
X157915971Y-107120174D02*
X157987400Y-107263031D01*
D12*
X105273407Y-87977472D02*
X105401750Y-88020252D01*
X105401750Y-88020252D02*
X105615655Y-88020252D01*
X105615655Y-88020252D02*
X105701217Y-87977472D01*
X105701217Y-87977472D02*
X105743998Y-87934691D01*
X105743998Y-87934691D02*
X105786779Y-87849129D01*
X105786779Y-87849129D02*
X105786779Y-87763567D01*
X105786779Y-87763567D02*
X105743998Y-87678005D01*
X105743998Y-87678005D02*
X105701217Y-87635224D01*
X105701217Y-87635224D02*
X105615655Y-87592443D01*
X105615655Y-87592443D02*
X105444531Y-87549662D01*
X105444531Y-87549662D02*
X105358969Y-87506881D01*
X105358969Y-87506881D02*
X105316188Y-87464100D01*
X105316188Y-87464100D02*
X105273407Y-87378538D01*
X105273407Y-87378538D02*
X105273407Y-87292976D01*
X105273407Y-87292976D02*
X105316188Y-87207414D01*
X105316188Y-87207414D02*
X105358969Y-87164633D01*
X105358969Y-87164633D02*
X105444531Y-87121852D01*
X105444531Y-87121852D02*
X105658436Y-87121852D01*
X105658436Y-87121852D02*
X105786779Y-87164633D01*
X106171807Y-88020252D02*
X106171807Y-87121852D01*
X106171807Y-87121852D02*
X106514055Y-87121852D01*
X106514055Y-87121852D02*
X106599617Y-87164633D01*
X106599617Y-87164633D02*
X106642398Y-87207414D01*
X106642398Y-87207414D02*
X106685179Y-87292976D01*
X106685179Y-87292976D02*
X106685179Y-87421319D01*
X106685179Y-87421319D02*
X106642398Y-87506881D01*
X106642398Y-87506881D02*
X106599617Y-87549662D01*
X106599617Y-87549662D02*
X106514055Y-87592443D01*
X106514055Y-87592443D02*
X106171807Y-87592443D01*
X107583579Y-88020252D02*
X107284112Y-87592443D01*
X107070207Y-88020252D02*
X107070207Y-87121852D01*
X107070207Y-87121852D02*
X107412455Y-87121852D01*
X107412455Y-87121852D02*
X107498017Y-87164633D01*
X107498017Y-87164633D02*
X107540798Y-87207414D01*
X107540798Y-87207414D02*
X107583579Y-87292976D01*
X107583579Y-87292976D02*
X107583579Y-87421319D01*
X107583579Y-87421319D02*
X107540798Y-87506881D01*
X107540798Y-87506881D02*
X107498017Y-87549662D01*
X107498017Y-87549662D02*
X107412455Y-87592443D01*
X107412455Y-87592443D02*
X107070207Y-87592443D01*
X107968607Y-88020252D02*
X107968607Y-87121852D01*
X107968607Y-87121852D02*
X108182512Y-87121852D01*
X108182512Y-87121852D02*
X108310855Y-87164633D01*
X108310855Y-87164633D02*
X108396417Y-87250195D01*
X108396417Y-87250195D02*
X108439198Y-87335757D01*
X108439198Y-87335757D02*
X108481979Y-87506881D01*
X108481979Y-87506881D02*
X108481979Y-87635224D01*
X108481979Y-87635224D02*
X108439198Y-87806348D01*
X108439198Y-87806348D02*
X108396417Y-87891910D01*
X108396417Y-87891910D02*
X108310855Y-87977472D01*
X108310855Y-87977472D02*
X108182512Y-88020252D01*
X108182512Y-88020252D02*
X107968607Y-88020252D01*
X145370779Y-88058619D02*
X145370779Y-87058619D01*
X145370779Y-87058619D02*
X145704112Y-87772904D01*
X145704112Y-87772904D02*
X146037445Y-87058619D01*
X146037445Y-87058619D02*
X146037445Y-88058619D01*
X146466017Y-88011000D02*
X146608874Y-88058619D01*
X146608874Y-88058619D02*
X146846969Y-88058619D01*
X146846969Y-88058619D02*
X146942207Y-88011000D01*
X146942207Y-88011000D02*
X146989826Y-87963380D01*
X146989826Y-87963380D02*
X147037445Y-87868142D01*
X147037445Y-87868142D02*
X147037445Y-87772904D01*
X147037445Y-87772904D02*
X146989826Y-87677666D01*
X146989826Y-87677666D02*
X146942207Y-87630047D01*
X146942207Y-87630047D02*
X146846969Y-87582428D01*
X146846969Y-87582428D02*
X146656493Y-87534809D01*
X146656493Y-87534809D02*
X146561255Y-87487190D01*
X146561255Y-87487190D02*
X146513636Y-87439571D01*
X146513636Y-87439571D02*
X146466017Y-87344333D01*
X146466017Y-87344333D02*
X146466017Y-87249095D01*
X146466017Y-87249095D02*
X146513636Y-87153857D01*
X146513636Y-87153857D02*
X146561255Y-87106238D01*
X146561255Y-87106238D02*
X146656493Y-87058619D01*
X146656493Y-87058619D02*
X146894588Y-87058619D01*
X146894588Y-87058619D02*
X147037445Y-87106238D01*
X147418398Y-87153857D02*
X147466017Y-87106238D01*
X147466017Y-87106238D02*
X147561255Y-87058619D01*
X147561255Y-87058619D02*
X147799350Y-87058619D01*
X147799350Y-87058619D02*
X147894588Y-87106238D01*
X147894588Y-87106238D02*
X147942207Y-87153857D01*
X147942207Y-87153857D02*
X147989826Y-87249095D01*
X147989826Y-87249095D02*
X147989826Y-87344333D01*
X147989826Y-87344333D02*
X147942207Y-87487190D01*
X147942207Y-87487190D02*
X147370779Y-88058619D01*
X147370779Y-88058619D02*
X147989826Y-88058619D01*
X126838007Y-87977472D02*
X126966350Y-88020252D01*
X126966350Y-88020252D02*
X127180255Y-88020252D01*
X127180255Y-88020252D02*
X127265817Y-87977472D01*
X127265817Y-87977472D02*
X127308598Y-87934691D01*
X127308598Y-87934691D02*
X127351379Y-87849129D01*
X127351379Y-87849129D02*
X127351379Y-87763567D01*
X127351379Y-87763567D02*
X127308598Y-87678005D01*
X127308598Y-87678005D02*
X127265817Y-87635224D01*
X127265817Y-87635224D02*
X127180255Y-87592443D01*
X127180255Y-87592443D02*
X127009131Y-87549662D01*
X127009131Y-87549662D02*
X126923569Y-87506881D01*
X126923569Y-87506881D02*
X126880788Y-87464100D01*
X126880788Y-87464100D02*
X126838007Y-87378538D01*
X126838007Y-87378538D02*
X126838007Y-87292976D01*
X126838007Y-87292976D02*
X126880788Y-87207414D01*
X126880788Y-87207414D02*
X126923569Y-87164633D01*
X126923569Y-87164633D02*
X127009131Y-87121852D01*
X127009131Y-87121852D02*
X127223036Y-87121852D01*
X127223036Y-87121852D02*
X127351379Y-87164633D01*
X127736407Y-88020252D02*
X127736407Y-87121852D01*
X127736407Y-87121852D02*
X128078655Y-87121852D01*
X128078655Y-87121852D02*
X128164217Y-87164633D01*
X128164217Y-87164633D02*
X128206998Y-87207414D01*
X128206998Y-87207414D02*
X128249779Y-87292976D01*
X128249779Y-87292976D02*
X128249779Y-87421319D01*
X128249779Y-87421319D02*
X128206998Y-87506881D01*
X128206998Y-87506881D02*
X128164217Y-87549662D01*
X128164217Y-87549662D02*
X128078655Y-87592443D01*
X128078655Y-87592443D02*
X127736407Y-87592443D01*
X129148179Y-88020252D02*
X128848712Y-87592443D01*
X128634807Y-88020252D02*
X128634807Y-87121852D01*
X128634807Y-87121852D02*
X128977055Y-87121852D01*
X128977055Y-87121852D02*
X129062617Y-87164633D01*
X129062617Y-87164633D02*
X129105398Y-87207414D01*
X129105398Y-87207414D02*
X129148179Y-87292976D01*
X129148179Y-87292976D02*
X129148179Y-87421319D01*
X129148179Y-87421319D02*
X129105398Y-87506881D01*
X129105398Y-87506881D02*
X129062617Y-87549662D01*
X129062617Y-87549662D02*
X128977055Y-87592443D01*
X128977055Y-87592443D02*
X128634807Y-87592443D01*
X129533207Y-88020252D02*
X129533207Y-87121852D01*
X129533207Y-87121852D02*
X129747112Y-87121852D01*
X129747112Y-87121852D02*
X129875455Y-87164633D01*
X129875455Y-87164633D02*
X129961017Y-87250195D01*
X129961017Y-87250195D02*
X130003798Y-87335757D01*
X130003798Y-87335757D02*
X130046579Y-87506881D01*
X130046579Y-87506881D02*
X130046579Y-87635224D01*
X130046579Y-87635224D02*
X130003798Y-87806348D01*
X130003798Y-87806348D02*
X129961017Y-87891910D01*
X129961017Y-87891910D02*
X129875455Y-87977472D01*
X129875455Y-87977472D02*
X129747112Y-88020252D01*
X129747112Y-88020252D02*
X129533207Y-88020252D01*
X108337579Y-94992866D02*
X109099484Y-94992866D01*
X108718531Y-95373819D02*
X108718531Y-94611914D01*
X102139979Y-88058619D02*
X102139979Y-87058619D01*
X102139979Y-87058619D02*
X102473312Y-87772904D01*
X102473312Y-87772904D02*
X102806645Y-87058619D01*
X102806645Y-87058619D02*
X102806645Y-88058619D01*
X103235217Y-88011000D02*
X103378074Y-88058619D01*
X103378074Y-88058619D02*
X103616169Y-88058619D01*
X103616169Y-88058619D02*
X103711407Y-88011000D01*
X103711407Y-88011000D02*
X103759026Y-87963380D01*
X103759026Y-87963380D02*
X103806645Y-87868142D01*
X103806645Y-87868142D02*
X103806645Y-87772904D01*
X103806645Y-87772904D02*
X103759026Y-87677666D01*
X103759026Y-87677666D02*
X103711407Y-87630047D01*
X103711407Y-87630047D02*
X103616169Y-87582428D01*
X103616169Y-87582428D02*
X103425693Y-87534809D01*
X103425693Y-87534809D02*
X103330455Y-87487190D01*
X103330455Y-87487190D02*
X103282836Y-87439571D01*
X103282836Y-87439571D02*
X103235217Y-87344333D01*
X103235217Y-87344333D02*
X103235217Y-87249095D01*
X103235217Y-87249095D02*
X103282836Y-87153857D01*
X103282836Y-87153857D02*
X103330455Y-87106238D01*
X103330455Y-87106238D02*
X103425693Y-87058619D01*
X103425693Y-87058619D02*
X103663788Y-87058619D01*
X103663788Y-87058619D02*
X103806645Y-87106238D01*
X104187598Y-87153857D02*
X104235217Y-87106238D01*
X104235217Y-87106238D02*
X104330455Y-87058619D01*
X104330455Y-87058619D02*
X104568550Y-87058619D01*
X104568550Y-87058619D02*
X104663788Y-87106238D01*
X104663788Y-87106238D02*
X104711407Y-87153857D01*
X104711407Y-87153857D02*
X104759026Y-87249095D01*
X104759026Y-87249095D02*
X104759026Y-87344333D01*
X104759026Y-87344333D02*
X104711407Y-87487190D01*
X104711407Y-87487190D02*
X104139979Y-88058619D01*
X104139979Y-88058619D02*
X104759026Y-88058619D01*
D13*
X157766657Y-76571160D02*
X157294943Y-76571160D01*
X157530800Y-76571160D02*
X157530800Y-75745660D01*
X157530800Y-75745660D02*
X157452181Y-75863589D01*
X157452181Y-75863589D02*
X157373562Y-75942208D01*
X157373562Y-75942208D02*
X157294943Y-75981517D01*
D10*
X167826600Y-114477317D02*
X167898028Y-114263032D01*
X167898028Y-114263032D02*
X167898028Y-113905889D01*
X167898028Y-113905889D02*
X167826600Y-113763032D01*
X167826600Y-113763032D02*
X167755171Y-113691603D01*
X167755171Y-113691603D02*
X167612314Y-113620174D01*
X167612314Y-113620174D02*
X167469457Y-113620174D01*
X167469457Y-113620174D02*
X167326600Y-113691603D01*
X167326600Y-113691603D02*
X167255171Y-113763032D01*
X167255171Y-113763032D02*
X167183742Y-113905889D01*
X167183742Y-113905889D02*
X167112314Y-114191603D01*
X167112314Y-114191603D02*
X167040885Y-114334460D01*
X167040885Y-114334460D02*
X166969457Y-114405889D01*
X166969457Y-114405889D02*
X166826600Y-114477317D01*
X166826600Y-114477317D02*
X166683742Y-114477317D01*
X166683742Y-114477317D02*
X166540885Y-114405889D01*
X166540885Y-114405889D02*
X166469457Y-114334460D01*
X166469457Y-114334460D02*
X166398028Y-114191603D01*
X166398028Y-114191603D02*
X166398028Y-113834460D01*
X166398028Y-113834460D02*
X166469457Y-113620174D01*
X166898028Y-113120175D02*
X167898028Y-112834461D01*
X167898028Y-112834461D02*
X167183742Y-112548746D01*
X167183742Y-112548746D02*
X167898028Y-112263032D01*
X167898028Y-112263032D02*
X166898028Y-111977318D01*
X167898028Y-111405889D02*
X166898028Y-111405889D01*
X166398028Y-111405889D02*
X166469457Y-111477317D01*
X166469457Y-111477317D02*
X166540885Y-111405889D01*
X166540885Y-111405889D02*
X166469457Y-111334460D01*
X166469457Y-111334460D02*
X166398028Y-111405889D01*
X166398028Y-111405889D02*
X166540885Y-111405889D01*
X166898028Y-110905888D02*
X166898028Y-110334460D01*
X166398028Y-110691603D02*
X167683742Y-110691603D01*
X167683742Y-110691603D02*
X167826600Y-110620174D01*
X167826600Y-110620174D02*
X167898028Y-110477317D01*
X167898028Y-110477317D02*
X167898028Y-110334460D01*
X167826600Y-109191603D02*
X167898028Y-109334460D01*
X167898028Y-109334460D02*
X167898028Y-109620174D01*
X167898028Y-109620174D02*
X167826600Y-109763031D01*
X167826600Y-109763031D02*
X167755171Y-109834460D01*
X167755171Y-109834460D02*
X167612314Y-109905888D01*
X167612314Y-109905888D02*
X167183742Y-109905888D01*
X167183742Y-109905888D02*
X167040885Y-109834460D01*
X167040885Y-109834460D02*
X166969457Y-109763031D01*
X166969457Y-109763031D02*
X166898028Y-109620174D01*
X166898028Y-109620174D02*
X166898028Y-109334460D01*
X166898028Y-109334460D02*
X166969457Y-109191603D01*
X167898028Y-108548746D02*
X166398028Y-108548746D01*
X167898028Y-107905889D02*
X167112314Y-107905889D01*
X167112314Y-107905889D02*
X166969457Y-107977317D01*
X166969457Y-107977317D02*
X166898028Y-108120174D01*
X166898028Y-108120174D02*
X166898028Y-108334460D01*
X166898028Y-108334460D02*
X166969457Y-108477317D01*
X166969457Y-108477317D02*
X167040885Y-108548746D01*
X166540885Y-107263031D02*
X166469457Y-107191603D01*
X166469457Y-107191603D02*
X166398028Y-107048746D01*
X166398028Y-107048746D02*
X166398028Y-106691603D01*
X166398028Y-106691603D02*
X166469457Y-106548746D01*
X166469457Y-106548746D02*
X166540885Y-106477317D01*
X166540885Y-106477317D02*
X166683742Y-106405888D01*
X166683742Y-106405888D02*
X166826600Y-106405888D01*
X166826600Y-106405888D02*
X167040885Y-106477317D01*
X167040885Y-106477317D02*
X167898028Y-107334460D01*
X167898028Y-107334460D02*
X167898028Y-106405888D01*
D12*
X142119579Y-88058619D02*
X142119579Y-87058619D01*
X142119579Y-87058619D02*
X142452912Y-87772904D01*
X142452912Y-87772904D02*
X142786245Y-87058619D01*
X142786245Y-87058619D02*
X142786245Y-88058619D01*
X143214817Y-88011000D02*
X143357674Y-88058619D01*
X143357674Y-88058619D02*
X143595769Y-88058619D01*
X143595769Y-88058619D02*
X143691007Y-88011000D01*
X143691007Y-88011000D02*
X143738626Y-87963380D01*
X143738626Y-87963380D02*
X143786245Y-87868142D01*
X143786245Y-87868142D02*
X143786245Y-87772904D01*
X143786245Y-87772904D02*
X143738626Y-87677666D01*
X143738626Y-87677666D02*
X143691007Y-87630047D01*
X143691007Y-87630047D02*
X143595769Y-87582428D01*
X143595769Y-87582428D02*
X143405293Y-87534809D01*
X143405293Y-87534809D02*
X143310055Y-87487190D01*
X143310055Y-87487190D02*
X143262436Y-87439571D01*
X143262436Y-87439571D02*
X143214817Y-87344333D01*
X143214817Y-87344333D02*
X143214817Y-87249095D01*
X143214817Y-87249095D02*
X143262436Y-87153857D01*
X143262436Y-87153857D02*
X143310055Y-87106238D01*
X143310055Y-87106238D02*
X143405293Y-87058619D01*
X143405293Y-87058619D02*
X143643388Y-87058619D01*
X143643388Y-87058619D02*
X143786245Y-87106238D01*
X144738626Y-88058619D02*
X144167198Y-88058619D01*
X144452912Y-88058619D02*
X144452912Y-87058619D01*
X144452912Y-87058619D02*
X144357674Y-87201476D01*
X144357674Y-87201476D02*
X144262436Y-87296714D01*
X144262436Y-87296714D02*
X144167198Y-87344333D01*
X166909979Y-88058619D02*
X166909979Y-87058619D01*
X166909979Y-87058619D02*
X167243312Y-87772904D01*
X167243312Y-87772904D02*
X167576645Y-87058619D01*
X167576645Y-87058619D02*
X167576645Y-88058619D01*
X168005217Y-88011000D02*
X168148074Y-88058619D01*
X168148074Y-88058619D02*
X168386169Y-88058619D01*
X168386169Y-88058619D02*
X168481407Y-88011000D01*
X168481407Y-88011000D02*
X168529026Y-87963380D01*
X168529026Y-87963380D02*
X168576645Y-87868142D01*
X168576645Y-87868142D02*
X168576645Y-87772904D01*
X168576645Y-87772904D02*
X168529026Y-87677666D01*
X168529026Y-87677666D02*
X168481407Y-87630047D01*
X168481407Y-87630047D02*
X168386169Y-87582428D01*
X168386169Y-87582428D02*
X168195693Y-87534809D01*
X168195693Y-87534809D02*
X168100455Y-87487190D01*
X168100455Y-87487190D02*
X168052836Y-87439571D01*
X168052836Y-87439571D02*
X168005217Y-87344333D01*
X168005217Y-87344333D02*
X168005217Y-87249095D01*
X168005217Y-87249095D02*
X168052836Y-87153857D01*
X168052836Y-87153857D02*
X168100455Y-87106238D01*
X168100455Y-87106238D02*
X168195693Y-87058619D01*
X168195693Y-87058619D02*
X168433788Y-87058619D01*
X168433788Y-87058619D02*
X168576645Y-87106238D01*
X168957598Y-87153857D02*
X169005217Y-87106238D01*
X169005217Y-87106238D02*
X169100455Y-87058619D01*
X169100455Y-87058619D02*
X169338550Y-87058619D01*
X169338550Y-87058619D02*
X169433788Y-87106238D01*
X169433788Y-87106238D02*
X169481407Y-87153857D01*
X169481407Y-87153857D02*
X169529026Y-87249095D01*
X169529026Y-87249095D02*
X169529026Y-87344333D01*
X169529026Y-87344333D02*
X169481407Y-87487190D01*
X169481407Y-87487190D02*
X168909979Y-88058619D01*
X168909979Y-88058619D02*
X169529026Y-88058619D01*
X98888779Y-88058619D02*
X98888779Y-87058619D01*
X98888779Y-87058619D02*
X99222112Y-87772904D01*
X99222112Y-87772904D02*
X99555445Y-87058619D01*
X99555445Y-87058619D02*
X99555445Y-88058619D01*
X99984017Y-88011000D02*
X100126874Y-88058619D01*
X100126874Y-88058619D02*
X100364969Y-88058619D01*
X100364969Y-88058619D02*
X100460207Y-88011000D01*
X100460207Y-88011000D02*
X100507826Y-87963380D01*
X100507826Y-87963380D02*
X100555445Y-87868142D01*
X100555445Y-87868142D02*
X100555445Y-87772904D01*
X100555445Y-87772904D02*
X100507826Y-87677666D01*
X100507826Y-87677666D02*
X100460207Y-87630047D01*
X100460207Y-87630047D02*
X100364969Y-87582428D01*
X100364969Y-87582428D02*
X100174493Y-87534809D01*
X100174493Y-87534809D02*
X100079255Y-87487190D01*
X100079255Y-87487190D02*
X100031636Y-87439571D01*
X100031636Y-87439571D02*
X99984017Y-87344333D01*
X99984017Y-87344333D02*
X99984017Y-87249095D01*
X99984017Y-87249095D02*
X100031636Y-87153857D01*
X100031636Y-87153857D02*
X100079255Y-87106238D01*
X100079255Y-87106238D02*
X100174493Y-87058619D01*
X100174493Y-87058619D02*
X100412588Y-87058619D01*
X100412588Y-87058619D02*
X100555445Y-87106238D01*
X101507826Y-88058619D02*
X100936398Y-88058619D01*
X101222112Y-88058619D02*
X101222112Y-87058619D01*
X101222112Y-87058619D02*
X101126874Y-87201476D01*
X101126874Y-87201476D02*
X101031636Y-87296714D01*
X101031636Y-87296714D02*
X100936398Y-87344333D01*
X173132979Y-94992866D02*
X173894884Y-94992866D01*
X173513931Y-95373819D02*
X173513931Y-94611914D01*
X129927579Y-89912866D02*
X130689484Y-89912866D01*
X148504207Y-87977472D02*
X148632550Y-88020252D01*
X148632550Y-88020252D02*
X148846455Y-88020252D01*
X148846455Y-88020252D02*
X148932017Y-87977472D01*
X148932017Y-87977472D02*
X148974798Y-87934691D01*
X148974798Y-87934691D02*
X149017579Y-87849129D01*
X149017579Y-87849129D02*
X149017579Y-87763567D01*
X149017579Y-87763567D02*
X148974798Y-87678005D01*
X148974798Y-87678005D02*
X148932017Y-87635224D01*
X148932017Y-87635224D02*
X148846455Y-87592443D01*
X148846455Y-87592443D02*
X148675331Y-87549662D01*
X148675331Y-87549662D02*
X148589769Y-87506881D01*
X148589769Y-87506881D02*
X148546988Y-87464100D01*
X148546988Y-87464100D02*
X148504207Y-87378538D01*
X148504207Y-87378538D02*
X148504207Y-87292976D01*
X148504207Y-87292976D02*
X148546988Y-87207414D01*
X148546988Y-87207414D02*
X148589769Y-87164633D01*
X148589769Y-87164633D02*
X148675331Y-87121852D01*
X148675331Y-87121852D02*
X148889236Y-87121852D01*
X148889236Y-87121852D02*
X149017579Y-87164633D01*
X149402607Y-88020252D02*
X149402607Y-87121852D01*
X149402607Y-87121852D02*
X149744855Y-87121852D01*
X149744855Y-87121852D02*
X149830417Y-87164633D01*
X149830417Y-87164633D02*
X149873198Y-87207414D01*
X149873198Y-87207414D02*
X149915979Y-87292976D01*
X149915979Y-87292976D02*
X149915979Y-87421319D01*
X149915979Y-87421319D02*
X149873198Y-87506881D01*
X149873198Y-87506881D02*
X149830417Y-87549662D01*
X149830417Y-87549662D02*
X149744855Y-87592443D01*
X149744855Y-87592443D02*
X149402607Y-87592443D01*
X150814379Y-88020252D02*
X150514912Y-87592443D01*
X150301007Y-88020252D02*
X150301007Y-87121852D01*
X150301007Y-87121852D02*
X150643255Y-87121852D01*
X150643255Y-87121852D02*
X150728817Y-87164633D01*
X150728817Y-87164633D02*
X150771598Y-87207414D01*
X150771598Y-87207414D02*
X150814379Y-87292976D01*
X150814379Y-87292976D02*
X150814379Y-87421319D01*
X150814379Y-87421319D02*
X150771598Y-87506881D01*
X150771598Y-87506881D02*
X150728817Y-87549662D01*
X150728817Y-87549662D02*
X150643255Y-87592443D01*
X150643255Y-87592443D02*
X150301007Y-87592443D01*
X151199407Y-88020252D02*
X151199407Y-87121852D01*
X151199407Y-87121852D02*
X151413312Y-87121852D01*
X151413312Y-87121852D02*
X151541655Y-87164633D01*
X151541655Y-87164633D02*
X151627217Y-87250195D01*
X151627217Y-87250195D02*
X151669998Y-87335757D01*
X151669998Y-87335757D02*
X151712779Y-87506881D01*
X151712779Y-87506881D02*
X151712779Y-87635224D01*
X151712779Y-87635224D02*
X151669998Y-87806348D01*
X151669998Y-87806348D02*
X151627217Y-87891910D01*
X151627217Y-87891910D02*
X151541655Y-87977472D01*
X151541655Y-87977472D02*
X151413312Y-88020252D01*
X151413312Y-88020252D02*
X151199407Y-88020252D01*
D13*
X145066657Y-115077560D02*
X144594943Y-115077560D01*
X144830800Y-115077560D02*
X144830800Y-114252060D01*
X144830800Y-114252060D02*
X144752181Y-114369989D01*
X144752181Y-114369989D02*
X144673562Y-114448608D01*
X144673562Y-114448608D02*
X144594943Y-114487917D01*
D10*
X116327710Y-116488428D02*
X116327710Y-114988428D01*
X116327710Y-114988428D02*
X116684853Y-114988428D01*
X116684853Y-114988428D02*
X116899139Y-115059857D01*
X116899139Y-115059857D02*
X117041996Y-115202714D01*
X117041996Y-115202714D02*
X117113425Y-115345571D01*
X117113425Y-115345571D02*
X117184853Y-115631285D01*
X117184853Y-115631285D02*
X117184853Y-115845571D01*
X117184853Y-115845571D02*
X117113425Y-116131285D01*
X117113425Y-116131285D02*
X117041996Y-116274142D01*
X117041996Y-116274142D02*
X116899139Y-116417000D01*
X116899139Y-116417000D02*
X116684853Y-116488428D01*
X116684853Y-116488428D02*
X116327710Y-116488428D01*
X117827710Y-116488428D02*
X117827710Y-114988428D01*
X118470568Y-116417000D02*
X118684854Y-116488428D01*
X118684854Y-116488428D02*
X119041996Y-116488428D01*
X119041996Y-116488428D02*
X119184854Y-116417000D01*
X119184854Y-116417000D02*
X119256282Y-116345571D01*
X119256282Y-116345571D02*
X119327711Y-116202714D01*
X119327711Y-116202714D02*
X119327711Y-116059857D01*
X119327711Y-116059857D02*
X119256282Y-115917000D01*
X119256282Y-115917000D02*
X119184854Y-115845571D01*
X119184854Y-115845571D02*
X119041996Y-115774142D01*
X119041996Y-115774142D02*
X118756282Y-115702714D01*
X118756282Y-115702714D02*
X118613425Y-115631285D01*
X118613425Y-115631285D02*
X118541996Y-115559857D01*
X118541996Y-115559857D02*
X118470568Y-115417000D01*
X118470568Y-115417000D02*
X118470568Y-115274142D01*
X118470568Y-115274142D02*
X118541996Y-115131285D01*
X118541996Y-115131285D02*
X118613425Y-115059857D01*
X118613425Y-115059857D02*
X118756282Y-114988428D01*
X118756282Y-114988428D02*
X119113425Y-114988428D01*
X119113425Y-114988428D02*
X119327711Y-115059857D01*
D12*
X173132979Y-89912866D02*
X173894884Y-89912866D01*
X151542979Y-94992866D02*
X152304884Y-94992866D01*
X151923931Y-95373819D02*
X151923931Y-94611914D01*
X123704579Y-88058619D02*
X123704579Y-87058619D01*
X123704579Y-87058619D02*
X124037912Y-87772904D01*
X124037912Y-87772904D02*
X124371245Y-87058619D01*
X124371245Y-87058619D02*
X124371245Y-88058619D01*
X124799817Y-88011000D02*
X124942674Y-88058619D01*
X124942674Y-88058619D02*
X125180769Y-88058619D01*
X125180769Y-88058619D02*
X125276007Y-88011000D01*
X125276007Y-88011000D02*
X125323626Y-87963380D01*
X125323626Y-87963380D02*
X125371245Y-87868142D01*
X125371245Y-87868142D02*
X125371245Y-87772904D01*
X125371245Y-87772904D02*
X125323626Y-87677666D01*
X125323626Y-87677666D02*
X125276007Y-87630047D01*
X125276007Y-87630047D02*
X125180769Y-87582428D01*
X125180769Y-87582428D02*
X124990293Y-87534809D01*
X124990293Y-87534809D02*
X124895055Y-87487190D01*
X124895055Y-87487190D02*
X124847436Y-87439571D01*
X124847436Y-87439571D02*
X124799817Y-87344333D01*
X124799817Y-87344333D02*
X124799817Y-87249095D01*
X124799817Y-87249095D02*
X124847436Y-87153857D01*
X124847436Y-87153857D02*
X124895055Y-87106238D01*
X124895055Y-87106238D02*
X124990293Y-87058619D01*
X124990293Y-87058619D02*
X125228388Y-87058619D01*
X125228388Y-87058619D02*
X125371245Y-87106238D01*
X125752198Y-87153857D02*
X125799817Y-87106238D01*
X125799817Y-87106238D02*
X125895055Y-87058619D01*
X125895055Y-87058619D02*
X126133150Y-87058619D01*
X126133150Y-87058619D02*
X126228388Y-87106238D01*
X126228388Y-87106238D02*
X126276007Y-87153857D01*
X126276007Y-87153857D02*
X126323626Y-87249095D01*
X126323626Y-87249095D02*
X126323626Y-87344333D01*
X126323626Y-87344333D02*
X126276007Y-87487190D01*
X126276007Y-87487190D02*
X125704579Y-88058619D01*
X125704579Y-88058619D02*
X126323626Y-88058619D01*
D13*
X137607109Y-76636708D02*
X137135395Y-76636708D01*
X137371252Y-76636708D02*
X137371252Y-75811208D01*
X137371252Y-75811208D02*
X137292633Y-75929137D01*
X137292633Y-75929137D02*
X137214014Y-76007756D01*
X137214014Y-76007756D02*
X137135395Y-76047065D01*
D12*
X151542979Y-89912866D02*
X152304884Y-89912866D01*
X108337579Y-89912866D02*
X109099484Y-89912866D01*
X120453379Y-88058619D02*
X120453379Y-87058619D01*
X120453379Y-87058619D02*
X120786712Y-87772904D01*
X120786712Y-87772904D02*
X121120045Y-87058619D01*
X121120045Y-87058619D02*
X121120045Y-88058619D01*
X121548617Y-88011000D02*
X121691474Y-88058619D01*
X121691474Y-88058619D02*
X121929569Y-88058619D01*
X121929569Y-88058619D02*
X122024807Y-88011000D01*
X122024807Y-88011000D02*
X122072426Y-87963380D01*
X122072426Y-87963380D02*
X122120045Y-87868142D01*
X122120045Y-87868142D02*
X122120045Y-87772904D01*
X122120045Y-87772904D02*
X122072426Y-87677666D01*
X122072426Y-87677666D02*
X122024807Y-87630047D01*
X122024807Y-87630047D02*
X121929569Y-87582428D01*
X121929569Y-87582428D02*
X121739093Y-87534809D01*
X121739093Y-87534809D02*
X121643855Y-87487190D01*
X121643855Y-87487190D02*
X121596236Y-87439571D01*
X121596236Y-87439571D02*
X121548617Y-87344333D01*
X121548617Y-87344333D02*
X121548617Y-87249095D01*
X121548617Y-87249095D02*
X121596236Y-87153857D01*
X121596236Y-87153857D02*
X121643855Y-87106238D01*
X121643855Y-87106238D02*
X121739093Y-87058619D01*
X121739093Y-87058619D02*
X121977188Y-87058619D01*
X121977188Y-87058619D02*
X122120045Y-87106238D01*
X123072426Y-88058619D02*
X122500998Y-88058619D01*
X122786712Y-88058619D02*
X122786712Y-87058619D01*
X122786712Y-87058619D02*
X122691474Y-87201476D01*
X122691474Y-87201476D02*
X122596236Y-87296714D01*
X122596236Y-87296714D02*
X122500998Y-87344333D01*
X129927579Y-94992866D02*
X130689484Y-94992866D01*
X130308531Y-95373819D02*
X130308531Y-94611914D01*
X163658779Y-88058619D02*
X163658779Y-87058619D01*
X163658779Y-87058619D02*
X163992112Y-87772904D01*
X163992112Y-87772904D02*
X164325445Y-87058619D01*
X164325445Y-87058619D02*
X164325445Y-88058619D01*
X164754017Y-88011000D02*
X164896874Y-88058619D01*
X164896874Y-88058619D02*
X165134969Y-88058619D01*
X165134969Y-88058619D02*
X165230207Y-88011000D01*
X165230207Y-88011000D02*
X165277826Y-87963380D01*
X165277826Y-87963380D02*
X165325445Y-87868142D01*
X165325445Y-87868142D02*
X165325445Y-87772904D01*
X165325445Y-87772904D02*
X165277826Y-87677666D01*
X165277826Y-87677666D02*
X165230207Y-87630047D01*
X165230207Y-87630047D02*
X165134969Y-87582428D01*
X165134969Y-87582428D02*
X164944493Y-87534809D01*
X164944493Y-87534809D02*
X164849255Y-87487190D01*
X164849255Y-87487190D02*
X164801636Y-87439571D01*
X164801636Y-87439571D02*
X164754017Y-87344333D01*
X164754017Y-87344333D02*
X164754017Y-87249095D01*
X164754017Y-87249095D02*
X164801636Y-87153857D01*
X164801636Y-87153857D02*
X164849255Y-87106238D01*
X164849255Y-87106238D02*
X164944493Y-87058619D01*
X164944493Y-87058619D02*
X165182588Y-87058619D01*
X165182588Y-87058619D02*
X165325445Y-87106238D01*
X166277826Y-88058619D02*
X165706398Y-88058619D01*
X165992112Y-88058619D02*
X165992112Y-87058619D01*
X165992112Y-87058619D02*
X165896874Y-87201476D01*
X165896874Y-87201476D02*
X165801636Y-87296714D01*
X165801636Y-87296714D02*
X165706398Y-87344333D01*
D13*
X122257457Y-115077560D02*
X121785743Y-115077560D01*
X122021600Y-115077560D02*
X122021600Y-114252060D01*
X122021600Y-114252060D02*
X121942981Y-114369989D01*
X121942981Y-114369989D02*
X121864362Y-114448608D01*
X121864362Y-114448608D02*
X121785743Y-114487917D01*
D12*
X170043407Y-87977472D02*
X170171750Y-88020252D01*
X170171750Y-88020252D02*
X170385655Y-88020252D01*
X170385655Y-88020252D02*
X170471217Y-87977472D01*
X170471217Y-87977472D02*
X170513998Y-87934691D01*
X170513998Y-87934691D02*
X170556779Y-87849129D01*
X170556779Y-87849129D02*
X170556779Y-87763567D01*
X170556779Y-87763567D02*
X170513998Y-87678005D01*
X170513998Y-87678005D02*
X170471217Y-87635224D01*
X170471217Y-87635224D02*
X170385655Y-87592443D01*
X170385655Y-87592443D02*
X170214531Y-87549662D01*
X170214531Y-87549662D02*
X170128969Y-87506881D01*
X170128969Y-87506881D02*
X170086188Y-87464100D01*
X170086188Y-87464100D02*
X170043407Y-87378538D01*
X170043407Y-87378538D02*
X170043407Y-87292976D01*
X170043407Y-87292976D02*
X170086188Y-87207414D01*
X170086188Y-87207414D02*
X170128969Y-87164633D01*
X170128969Y-87164633D02*
X170214531Y-87121852D01*
X170214531Y-87121852D02*
X170428436Y-87121852D01*
X170428436Y-87121852D02*
X170556779Y-87164633D01*
X170941807Y-88020252D02*
X170941807Y-87121852D01*
X170941807Y-87121852D02*
X171284055Y-87121852D01*
X171284055Y-87121852D02*
X171369617Y-87164633D01*
X171369617Y-87164633D02*
X171412398Y-87207414D01*
X171412398Y-87207414D02*
X171455179Y-87292976D01*
X171455179Y-87292976D02*
X171455179Y-87421319D01*
X171455179Y-87421319D02*
X171412398Y-87506881D01*
X171412398Y-87506881D02*
X171369617Y-87549662D01*
X171369617Y-87549662D02*
X171284055Y-87592443D01*
X171284055Y-87592443D02*
X170941807Y-87592443D01*
X172353579Y-88020252D02*
X172054112Y-87592443D01*
X171840207Y-88020252D02*
X171840207Y-87121852D01*
X171840207Y-87121852D02*
X172182455Y-87121852D01*
X172182455Y-87121852D02*
X172268017Y-87164633D01*
X172268017Y-87164633D02*
X172310798Y-87207414D01*
X172310798Y-87207414D02*
X172353579Y-87292976D01*
X172353579Y-87292976D02*
X172353579Y-87421319D01*
X172353579Y-87421319D02*
X172310798Y-87506881D01*
X172310798Y-87506881D02*
X172268017Y-87549662D01*
X172268017Y-87549662D02*
X172182455Y-87592443D01*
X172182455Y-87592443D02*
X171840207Y-87592443D01*
X172738607Y-88020252D02*
X172738607Y-87121852D01*
X172738607Y-87121852D02*
X172952512Y-87121852D01*
X172952512Y-87121852D02*
X173080855Y-87164633D01*
X173080855Y-87164633D02*
X173166417Y-87250195D01*
X173166417Y-87250195D02*
X173209198Y-87335757D01*
X173209198Y-87335757D02*
X173251979Y-87506881D01*
X173251979Y-87506881D02*
X173251979Y-87635224D01*
X173251979Y-87635224D02*
X173209198Y-87806348D01*
X173209198Y-87806348D02*
X173166417Y-87891910D01*
X173166417Y-87891910D02*
X173080855Y-87977472D01*
X173080855Y-87977472D02*
X172952512Y-88020252D01*
X172952512Y-88020252D02*
X172738607Y-88020252D01*
X134877980Y-107405466D02*
X134925600Y-107453085D01*
X134925600Y-107453085D02*
X134973219Y-107595942D01*
X134973219Y-107595942D02*
X134973219Y-107691180D01*
X134973219Y-107691180D02*
X134925600Y-107834037D01*
X134925600Y-107834037D02*
X134830361Y-107929275D01*
X134830361Y-107929275D02*
X134735123Y-107976894D01*
X134735123Y-107976894D02*
X134544647Y-108024513D01*
X134544647Y-108024513D02*
X134401790Y-108024513D01*
X134401790Y-108024513D02*
X134211314Y-107976894D01*
X134211314Y-107976894D02*
X134116076Y-107929275D01*
X134116076Y-107929275D02*
X134020838Y-107834037D01*
X134020838Y-107834037D02*
X133973219Y-107691180D01*
X133973219Y-107691180D02*
X133973219Y-107595942D01*
X133973219Y-107595942D02*
X134020838Y-107453085D01*
X134020838Y-107453085D02*
X134068457Y-107405466D01*
X133973219Y-106500704D02*
X133973219Y-106976894D01*
X133973219Y-106976894D02*
X134449409Y-107024513D01*
X134449409Y-107024513D02*
X134401790Y-106976894D01*
X134401790Y-106976894D02*
X134354171Y-106881656D01*
X134354171Y-106881656D02*
X134354171Y-106643561D01*
X134354171Y-106643561D02*
X134401790Y-106548323D01*
X134401790Y-106548323D02*
X134449409Y-106500704D01*
X134449409Y-106500704D02*
X134544647Y-106453085D01*
X134544647Y-106453085D02*
X134782742Y-106453085D01*
X134782742Y-106453085D02*
X134877980Y-106500704D01*
X134877980Y-106500704D02*
X134925600Y-106548323D01*
X134925600Y-106548323D02*
X134973219Y-106643561D01*
X134973219Y-106643561D02*
X134973219Y-106881656D01*
X134973219Y-106881656D02*
X134925600Y-106976894D01*
X134925600Y-106976894D02*
X134877980Y-107024513D01*
X152284133Y-100683219D02*
X151950800Y-100207028D01*
X151712705Y-100683219D02*
X151712705Y-99683219D01*
X151712705Y-99683219D02*
X152093657Y-99683219D01*
X152093657Y-99683219D02*
X152188895Y-99730838D01*
X152188895Y-99730838D02*
X152236514Y-99778457D01*
X152236514Y-99778457D02*
X152284133Y-99873695D01*
X152284133Y-99873695D02*
X152284133Y-100016552D01*
X152284133Y-100016552D02*
X152236514Y-100111790D01*
X152236514Y-100111790D02*
X152188895Y-100159409D01*
X152188895Y-100159409D02*
X152093657Y-100207028D01*
X152093657Y-100207028D02*
X151712705Y-100207028D01*
X152617467Y-99683219D02*
X153284133Y-99683219D01*
X153284133Y-99683219D02*
X152855562Y-100683219D01*
X132992019Y-105443257D02*
X132515828Y-105776590D01*
X132992019Y-106014685D02*
X131992019Y-106014685D01*
X131992019Y-106014685D02*
X131992019Y-105633733D01*
X131992019Y-105633733D02*
X132039638Y-105538495D01*
X132039638Y-105538495D02*
X132087257Y-105490876D01*
X132087257Y-105490876D02*
X132182495Y-105443257D01*
X132182495Y-105443257D02*
X132325352Y-105443257D01*
X132325352Y-105443257D02*
X132420590Y-105490876D01*
X132420590Y-105490876D02*
X132468209Y-105538495D01*
X132468209Y-105538495D02*
X132515828Y-105633733D01*
X132515828Y-105633733D02*
X132515828Y-106014685D01*
X132992019Y-104490876D02*
X132992019Y-105062304D01*
X132992019Y-104776590D02*
X131992019Y-104776590D01*
X131992019Y-104776590D02*
X132134876Y-104871828D01*
X132134876Y-104871828D02*
X132230114Y-104967066D01*
X132230114Y-104967066D02*
X132277733Y-105062304D01*
X132087257Y-104109923D02*
X132039638Y-104062304D01*
X132039638Y-104062304D02*
X131992019Y-103967066D01*
X131992019Y-103967066D02*
X131992019Y-103728971D01*
X131992019Y-103728971D02*
X132039638Y-103633733D01*
X132039638Y-103633733D02*
X132087257Y-103586114D01*
X132087257Y-103586114D02*
X132182495Y-103538495D01*
X132182495Y-103538495D02*
X132277733Y-103538495D01*
X132277733Y-103538495D02*
X132420590Y-103586114D01*
X132420590Y-103586114D02*
X132992019Y-104157542D01*
X132992019Y-104157542D02*
X132992019Y-103538495D01*
X113538095Y-99393819D02*
X113538095Y-100203342D01*
X113538095Y-100203342D02*
X113585714Y-100298580D01*
X113585714Y-100298580D02*
X113633333Y-100346200D01*
X113633333Y-100346200D02*
X113728571Y-100393819D01*
X113728571Y-100393819D02*
X113919047Y-100393819D01*
X113919047Y-100393819D02*
X114014285Y-100346200D01*
X114014285Y-100346200D02*
X114061904Y-100298580D01*
X114061904Y-100298580D02*
X114109523Y-100203342D01*
X114109523Y-100203342D02*
X114109523Y-99393819D01*
X115061904Y-99393819D02*
X114585714Y-99393819D01*
X114585714Y-99393819D02*
X114538095Y-99870009D01*
X114538095Y-99870009D02*
X114585714Y-99822390D01*
X114585714Y-99822390D02*
X114680952Y-99774771D01*
X114680952Y-99774771D02*
X114919047Y-99774771D01*
X114919047Y-99774771D02*
X115014285Y-99822390D01*
X115014285Y-99822390D02*
X115061904Y-99870009D01*
X115061904Y-99870009D02*
X115109523Y-99965247D01*
X115109523Y-99965247D02*
X115109523Y-100203342D01*
X115109523Y-100203342D02*
X115061904Y-100298580D01*
X115061904Y-100298580D02*
X115014285Y-100346200D01*
X115014285Y-100346200D02*
X114919047Y-100393819D01*
X114919047Y-100393819D02*
X114680952Y-100393819D01*
X114680952Y-100393819D02*
X114585714Y-100346200D01*
X114585714Y-100346200D02*
X114538095Y-100298580D01*
X162393333Y-73351819D02*
X162060000Y-72875628D01*
X161821905Y-73351819D02*
X161821905Y-72351819D01*
X161821905Y-72351819D02*
X162202857Y-72351819D01*
X162202857Y-72351819D02*
X162298095Y-72399438D01*
X162298095Y-72399438D02*
X162345714Y-72447057D01*
X162345714Y-72447057D02*
X162393333Y-72542295D01*
X162393333Y-72542295D02*
X162393333Y-72685152D01*
X162393333Y-72685152D02*
X162345714Y-72780390D01*
X162345714Y-72780390D02*
X162298095Y-72828009D01*
X162298095Y-72828009D02*
X162202857Y-72875628D01*
X162202857Y-72875628D02*
X161821905Y-72875628D01*
X163250476Y-72685152D02*
X163250476Y-73351819D01*
X163012381Y-72304200D02*
X162774286Y-73018485D01*
X162774286Y-73018485D02*
X163393333Y-73018485D01*
X132080095Y-86780019D02*
X132080095Y-87589542D01*
X132080095Y-87589542D02*
X132127714Y-87684780D01*
X132127714Y-87684780D02*
X132175333Y-87732400D01*
X132175333Y-87732400D02*
X132270571Y-87780019D01*
X132270571Y-87780019D02*
X132461047Y-87780019D01*
X132461047Y-87780019D02*
X132556285Y-87732400D01*
X132556285Y-87732400D02*
X132603904Y-87684780D01*
X132603904Y-87684780D02*
X132651523Y-87589542D01*
X132651523Y-87589542D02*
X132651523Y-86780019D01*
X133080095Y-86875257D02*
X133127714Y-86827638D01*
X133127714Y-86827638D02*
X133222952Y-86780019D01*
X133222952Y-86780019D02*
X133461047Y-86780019D01*
X133461047Y-86780019D02*
X133556285Y-86827638D01*
X133556285Y-86827638D02*
X133603904Y-86875257D01*
X133603904Y-86875257D02*
X133651523Y-86970495D01*
X133651523Y-86970495D02*
X133651523Y-87065733D01*
X133651523Y-87065733D02*
X133603904Y-87208590D01*
X133603904Y-87208590D02*
X133032476Y-87780019D01*
X133032476Y-87780019D02*
X133651523Y-87780019D01*
X147196276Y-81039619D02*
X147196276Y-81753904D01*
X147196276Y-81753904D02*
X147148657Y-81896761D01*
X147148657Y-81896761D02*
X147053419Y-81992000D01*
X147053419Y-81992000D02*
X146910562Y-82039619D01*
X146910562Y-82039619D02*
X146815324Y-82039619D01*
X148196276Y-82039619D02*
X147624848Y-82039619D01*
X147910562Y-82039619D02*
X147910562Y-81039619D01*
X147910562Y-81039619D02*
X147815324Y-81182476D01*
X147815324Y-81182476D02*
X147720086Y-81277714D01*
X147720086Y-81277714D02*
X147624848Y-81325333D01*
X149053419Y-81372952D02*
X149053419Y-82039619D01*
X148815324Y-80992000D02*
X148577229Y-81706285D01*
X148577229Y-81706285D02*
X149196276Y-81706285D01*
D14*
X170116667Y-110899800D02*
X170259524Y-110947419D01*
X170259524Y-110947419D02*
X170497619Y-110947419D01*
X170497619Y-110947419D02*
X170592857Y-110899800D01*
X170592857Y-110899800D02*
X170640476Y-110852180D01*
X170640476Y-110852180D02*
X170688095Y-110756942D01*
X170688095Y-110756942D02*
X170688095Y-110661704D01*
X170688095Y-110661704D02*
X170640476Y-110566466D01*
X170640476Y-110566466D02*
X170592857Y-110518847D01*
X170592857Y-110518847D02*
X170497619Y-110471228D01*
X170497619Y-110471228D02*
X170307143Y-110423609D01*
X170307143Y-110423609D02*
X170211905Y-110375990D01*
X170211905Y-110375990D02*
X170164286Y-110328371D01*
X170164286Y-110328371D02*
X170116667Y-110233133D01*
X170116667Y-110233133D02*
X170116667Y-110137895D01*
X170116667Y-110137895D02*
X170164286Y-110042657D01*
X170164286Y-110042657D02*
X170211905Y-109995038D01*
X170211905Y-109995038D02*
X170307143Y-109947419D01*
X170307143Y-109947419D02*
X170545238Y-109947419D01*
X170545238Y-109947419D02*
X170688095Y-109995038D01*
X171021429Y-109947419D02*
X171259524Y-110947419D01*
X171259524Y-110947419D02*
X171450000Y-110233133D01*
X171450000Y-110233133D02*
X171640476Y-110947419D01*
X171640476Y-110947419D02*
X171878572Y-109947419D01*
X172164286Y-109947419D02*
X172783333Y-109947419D01*
X172783333Y-109947419D02*
X172450000Y-110328371D01*
X172450000Y-110328371D02*
X172592857Y-110328371D01*
X172592857Y-110328371D02*
X172688095Y-110375990D01*
X172688095Y-110375990D02*
X172735714Y-110423609D01*
X172735714Y-110423609D02*
X172783333Y-110518847D01*
X172783333Y-110518847D02*
X172783333Y-110756942D01*
X172783333Y-110756942D02*
X172735714Y-110852180D01*
X172735714Y-110852180D02*
X172688095Y-110899800D01*
X172688095Y-110899800D02*
X172592857Y-110947419D01*
X172592857Y-110947419D02*
X172307143Y-110947419D01*
X172307143Y-110947419D02*
X172211905Y-110899800D01*
X172211905Y-110899800D02*
X172164286Y-110852180D01*
D12*
X94814919Y-107556983D02*
X94814919Y-108271583D01*
X94814919Y-108271583D02*
X94767279Y-108414503D01*
X94767279Y-108414503D02*
X94671999Y-108509784D01*
X94671999Y-108509784D02*
X94529079Y-108557424D01*
X94529079Y-108557424D02*
X94433799Y-108557424D01*
X95767720Y-107556983D02*
X95291320Y-107556983D01*
X95291320Y-107556983D02*
X95243680Y-108033383D01*
X95243680Y-108033383D02*
X95291320Y-107985743D01*
X95291320Y-107985743D02*
X95386600Y-107938103D01*
X95386600Y-107938103D02*
X95624800Y-107938103D01*
X95624800Y-107938103D02*
X95720080Y-107985743D01*
X95720080Y-107985743D02*
X95767720Y-108033383D01*
X95767720Y-108033383D02*
X95815360Y-108128663D01*
X95815360Y-108128663D02*
X95815360Y-108366863D01*
X95815360Y-108366863D02*
X95767720Y-108462143D01*
X95767720Y-108462143D02*
X95720080Y-108509784D01*
X95720080Y-108509784D02*
X95624800Y-108557424D01*
X95624800Y-108557424D02*
X95386600Y-108557424D01*
X95386600Y-108557424D02*
X95291320Y-108509784D01*
X95291320Y-108509784D02*
X95243680Y-108462143D01*
X104113100Y-115117828D02*
X104113100Y-113974971D01*
X104113100Y-102817828D02*
X104113100Y-101674971D01*
X104684528Y-102246399D02*
X103541671Y-102246399D01*
X143964819Y-101461866D02*
X143488628Y-101795199D01*
X143964819Y-102033294D02*
X142964819Y-102033294D01*
X142964819Y-102033294D02*
X142964819Y-101652342D01*
X142964819Y-101652342D02*
X143012438Y-101557104D01*
X143012438Y-101557104D02*
X143060057Y-101509485D01*
X143060057Y-101509485D02*
X143155295Y-101461866D01*
X143155295Y-101461866D02*
X143298152Y-101461866D01*
X143298152Y-101461866D02*
X143393390Y-101509485D01*
X143393390Y-101509485D02*
X143441009Y-101557104D01*
X143441009Y-101557104D02*
X143488628Y-101652342D01*
X143488628Y-101652342D02*
X143488628Y-102033294D01*
X142964819Y-100557104D02*
X142964819Y-101033294D01*
X142964819Y-101033294D02*
X143441009Y-101080913D01*
X143441009Y-101080913D02*
X143393390Y-101033294D01*
X143393390Y-101033294D02*
X143345771Y-100938056D01*
X143345771Y-100938056D02*
X143345771Y-100699961D01*
X143345771Y-100699961D02*
X143393390Y-100604723D01*
X143393390Y-100604723D02*
X143441009Y-100557104D01*
X143441009Y-100557104D02*
X143536247Y-100509485D01*
X143536247Y-100509485D02*
X143774342Y-100509485D01*
X143774342Y-100509485D02*
X143869580Y-100557104D01*
X143869580Y-100557104D02*
X143917200Y-100604723D01*
X143917200Y-100604723D02*
X143964819Y-100699961D01*
X143964819Y-100699961D02*
X143964819Y-100938056D01*
X143964819Y-100938056D02*
X143917200Y-101033294D01*
X143917200Y-101033294D02*
X143869580Y-101080913D01*
X119784019Y-101684057D02*
X119307828Y-102017390D01*
X119784019Y-102255485D02*
X118784019Y-102255485D01*
X118784019Y-102255485D02*
X118784019Y-101874533D01*
X118784019Y-101874533D02*
X118831638Y-101779295D01*
X118831638Y-101779295D02*
X118879257Y-101731676D01*
X118879257Y-101731676D02*
X118974495Y-101684057D01*
X118974495Y-101684057D02*
X119117352Y-101684057D01*
X119117352Y-101684057D02*
X119212590Y-101731676D01*
X119212590Y-101731676D02*
X119260209Y-101779295D01*
X119260209Y-101779295D02*
X119307828Y-101874533D01*
X119307828Y-101874533D02*
X119307828Y-102255485D01*
X119784019Y-100731676D02*
X119784019Y-101303104D01*
X119784019Y-101017390D02*
X118784019Y-101017390D01*
X118784019Y-101017390D02*
X118926876Y-101112628D01*
X118926876Y-101112628D02*
X119022114Y-101207866D01*
X119022114Y-101207866D02*
X119069733Y-101303104D01*
X118784019Y-100398342D02*
X118784019Y-99731676D01*
X118784019Y-99731676D02*
X119784019Y-100160247D01*
X109725619Y-101684057D02*
X109249428Y-102017390D01*
X109725619Y-102255485D02*
X108725619Y-102255485D01*
X108725619Y-102255485D02*
X108725619Y-101874533D01*
X108725619Y-101874533D02*
X108773238Y-101779295D01*
X108773238Y-101779295D02*
X108820857Y-101731676D01*
X108820857Y-101731676D02*
X108916095Y-101684057D01*
X108916095Y-101684057D02*
X109058952Y-101684057D01*
X109058952Y-101684057D02*
X109154190Y-101731676D01*
X109154190Y-101731676D02*
X109201809Y-101779295D01*
X109201809Y-101779295D02*
X109249428Y-101874533D01*
X109249428Y-101874533D02*
X109249428Y-102255485D01*
X109725619Y-100731676D02*
X109725619Y-101303104D01*
X109725619Y-101017390D02*
X108725619Y-101017390D01*
X108725619Y-101017390D02*
X108868476Y-101112628D01*
X108868476Y-101112628D02*
X108963714Y-101207866D01*
X108963714Y-101207866D02*
X109011333Y-101303104D01*
X108725619Y-99874533D02*
X108725619Y-100065009D01*
X108725619Y-100065009D02*
X108773238Y-100160247D01*
X108773238Y-100160247D02*
X108820857Y-100207866D01*
X108820857Y-100207866D02*
X108963714Y-100303104D01*
X108963714Y-100303104D02*
X109154190Y-100350723D01*
X109154190Y-100350723D02*
X109535142Y-100350723D01*
X109535142Y-100350723D02*
X109630380Y-100303104D01*
X109630380Y-100303104D02*
X109678000Y-100255485D01*
X109678000Y-100255485D02*
X109725619Y-100160247D01*
X109725619Y-100160247D02*
X109725619Y-99969771D01*
X109725619Y-99969771D02*
X109678000Y-99874533D01*
X109678000Y-99874533D02*
X109630380Y-99826914D01*
X109630380Y-99826914D02*
X109535142Y-99779295D01*
X109535142Y-99779295D02*
X109297047Y-99779295D01*
X109297047Y-99779295D02*
X109201809Y-99826914D01*
X109201809Y-99826914D02*
X109154190Y-99874533D01*
X109154190Y-99874533D02*
X109106571Y-99969771D01*
X109106571Y-99969771D02*
X109106571Y-100160247D01*
X109106571Y-100160247D02*
X109154190Y-100255485D01*
X109154190Y-100255485D02*
X109201809Y-100303104D01*
X109201809Y-100303104D02*
X109297047Y-100350723D01*
X142904380Y-111215466D02*
X142952000Y-111263085D01*
X142952000Y-111263085D02*
X142999619Y-111405942D01*
X142999619Y-111405942D02*
X142999619Y-111501180D01*
X142999619Y-111501180D02*
X142952000Y-111644037D01*
X142952000Y-111644037D02*
X142856761Y-111739275D01*
X142856761Y-111739275D02*
X142761523Y-111786894D01*
X142761523Y-111786894D02*
X142571047Y-111834513D01*
X142571047Y-111834513D02*
X142428190Y-111834513D01*
X142428190Y-111834513D02*
X142237714Y-111786894D01*
X142237714Y-111786894D02*
X142142476Y-111739275D01*
X142142476Y-111739275D02*
X142047238Y-111644037D01*
X142047238Y-111644037D02*
X141999619Y-111501180D01*
X141999619Y-111501180D02*
X141999619Y-111405942D01*
X141999619Y-111405942D02*
X142047238Y-111263085D01*
X142047238Y-111263085D02*
X142094857Y-111215466D01*
X141999619Y-110882132D02*
X141999619Y-110263085D01*
X141999619Y-110263085D02*
X142380571Y-110596418D01*
X142380571Y-110596418D02*
X142380571Y-110453561D01*
X142380571Y-110453561D02*
X142428190Y-110358323D01*
X142428190Y-110358323D02*
X142475809Y-110310704D01*
X142475809Y-110310704D02*
X142571047Y-110263085D01*
X142571047Y-110263085D02*
X142809142Y-110263085D01*
X142809142Y-110263085D02*
X142904380Y-110310704D01*
X142904380Y-110310704D02*
X142952000Y-110358323D01*
X142952000Y-110358323D02*
X142999619Y-110453561D01*
X142999619Y-110453561D02*
X142999619Y-110739275D01*
X142999619Y-110739275D02*
X142952000Y-110834513D01*
X142952000Y-110834513D02*
X142904380Y-110882132D01*
X127261905Y-108520819D02*
X127261905Y-107520819D01*
X127261905Y-107520819D02*
X127500000Y-107520819D01*
X127500000Y-107520819D02*
X127642857Y-107568438D01*
X127642857Y-107568438D02*
X127738095Y-107663676D01*
X127738095Y-107663676D02*
X127785714Y-107758914D01*
X127785714Y-107758914D02*
X127833333Y-107949390D01*
X127833333Y-107949390D02*
X127833333Y-108092247D01*
X127833333Y-108092247D02*
X127785714Y-108282723D01*
X127785714Y-108282723D02*
X127738095Y-108377961D01*
X127738095Y-108377961D02*
X127642857Y-108473200D01*
X127642857Y-108473200D02*
X127500000Y-108520819D01*
X127500000Y-108520819D02*
X127261905Y-108520819D01*
X128690476Y-107854152D02*
X128690476Y-108520819D01*
X128452381Y-107473200D02*
X128214286Y-108187485D01*
X128214286Y-108187485D02*
X128833333Y-108187485D01*
X159345333Y-91799580D02*
X159297714Y-91847200D01*
X159297714Y-91847200D02*
X159154857Y-91894819D01*
X159154857Y-91894819D02*
X159059619Y-91894819D01*
X159059619Y-91894819D02*
X158916762Y-91847200D01*
X158916762Y-91847200D02*
X158821524Y-91751961D01*
X158821524Y-91751961D02*
X158773905Y-91656723D01*
X158773905Y-91656723D02*
X158726286Y-91466247D01*
X158726286Y-91466247D02*
X158726286Y-91323390D01*
X158726286Y-91323390D02*
X158773905Y-91132914D01*
X158773905Y-91132914D02*
X158821524Y-91037676D01*
X158821524Y-91037676D02*
X158916762Y-90942438D01*
X158916762Y-90942438D02*
X159059619Y-90894819D01*
X159059619Y-90894819D02*
X159154857Y-90894819D01*
X159154857Y-90894819D02*
X159297714Y-90942438D01*
X159297714Y-90942438D02*
X159345333Y-90990057D01*
X159726286Y-90990057D02*
X159773905Y-90942438D01*
X159773905Y-90942438D02*
X159869143Y-90894819D01*
X159869143Y-90894819D02*
X160107238Y-90894819D01*
X160107238Y-90894819D02*
X160202476Y-90942438D01*
X160202476Y-90942438D02*
X160250095Y-90990057D01*
X160250095Y-90990057D02*
X160297714Y-91085295D01*
X160297714Y-91085295D02*
X160297714Y-91180533D01*
X160297714Y-91180533D02*
X160250095Y-91323390D01*
X160250095Y-91323390D02*
X159678667Y-91894819D01*
X159678667Y-91894819D02*
X160297714Y-91894819D01*
D14*
X151066667Y-110693800D02*
X151209524Y-110741419D01*
X151209524Y-110741419D02*
X151447619Y-110741419D01*
X151447619Y-110741419D02*
X151542857Y-110693800D01*
X151542857Y-110693800D02*
X151590476Y-110646180D01*
X151590476Y-110646180D02*
X151638095Y-110550942D01*
X151638095Y-110550942D02*
X151638095Y-110455704D01*
X151638095Y-110455704D02*
X151590476Y-110360466D01*
X151590476Y-110360466D02*
X151542857Y-110312847D01*
X151542857Y-110312847D02*
X151447619Y-110265228D01*
X151447619Y-110265228D02*
X151257143Y-110217609D01*
X151257143Y-110217609D02*
X151161905Y-110169990D01*
X151161905Y-110169990D02*
X151114286Y-110122371D01*
X151114286Y-110122371D02*
X151066667Y-110027133D01*
X151066667Y-110027133D02*
X151066667Y-109931895D01*
X151066667Y-109931895D02*
X151114286Y-109836657D01*
X151114286Y-109836657D02*
X151161905Y-109789038D01*
X151161905Y-109789038D02*
X151257143Y-109741419D01*
X151257143Y-109741419D02*
X151495238Y-109741419D01*
X151495238Y-109741419D02*
X151638095Y-109789038D01*
X151971429Y-109741419D02*
X152209524Y-110741419D01*
X152209524Y-110741419D02*
X152400000Y-110027133D01*
X152400000Y-110027133D02*
X152590476Y-110741419D01*
X152590476Y-110741419D02*
X152828572Y-109741419D01*
X153733333Y-110741419D02*
X153161905Y-110741419D01*
X153447619Y-110741419D02*
X153447619Y-109741419D01*
X153447619Y-109741419D02*
X153352381Y-109884276D01*
X153352381Y-109884276D02*
X153257143Y-109979514D01*
X153257143Y-109979514D02*
X153161905Y-110027133D01*
D12*
X154316133Y-100683219D02*
X153982800Y-100207028D01*
X153744705Y-100683219D02*
X153744705Y-99683219D01*
X153744705Y-99683219D02*
X154125657Y-99683219D01*
X154125657Y-99683219D02*
X154220895Y-99730838D01*
X154220895Y-99730838D02*
X154268514Y-99778457D01*
X154268514Y-99778457D02*
X154316133Y-99873695D01*
X154316133Y-99873695D02*
X154316133Y-100016552D01*
X154316133Y-100016552D02*
X154268514Y-100111790D01*
X154268514Y-100111790D02*
X154220895Y-100159409D01*
X154220895Y-100159409D02*
X154125657Y-100207028D01*
X154125657Y-100207028D02*
X153744705Y-100207028D01*
X155268514Y-100683219D02*
X154697086Y-100683219D01*
X154982800Y-100683219D02*
X154982800Y-99683219D01*
X154982800Y-99683219D02*
X154887562Y-99826076D01*
X154887562Y-99826076D02*
X154792324Y-99921314D01*
X154792324Y-99921314D02*
X154697086Y-99968933D01*
X129436019Y-111234457D02*
X128959828Y-111567790D01*
X129436019Y-111805885D02*
X128436019Y-111805885D01*
X128436019Y-111805885D02*
X128436019Y-111424933D01*
X128436019Y-111424933D02*
X128483638Y-111329695D01*
X128483638Y-111329695D02*
X128531257Y-111282076D01*
X128531257Y-111282076D02*
X128626495Y-111234457D01*
X128626495Y-111234457D02*
X128769352Y-111234457D01*
X128769352Y-111234457D02*
X128864590Y-111282076D01*
X128864590Y-111282076D02*
X128912209Y-111329695D01*
X128912209Y-111329695D02*
X128959828Y-111424933D01*
X128959828Y-111424933D02*
X128959828Y-111805885D01*
X129436019Y-110282076D02*
X129436019Y-110853504D01*
X129436019Y-110567790D02*
X128436019Y-110567790D01*
X128436019Y-110567790D02*
X128578876Y-110663028D01*
X128578876Y-110663028D02*
X128674114Y-110758266D01*
X128674114Y-110758266D02*
X128721733Y-110853504D01*
X129436019Y-109329695D02*
X129436019Y-109901123D01*
X129436019Y-109615409D02*
X128436019Y-109615409D01*
X128436019Y-109615409D02*
X128578876Y-109710647D01*
X128578876Y-109710647D02*
X128674114Y-109805885D01*
X128674114Y-109805885D02*
X128721733Y-109901123D01*
X139392819Y-105475066D02*
X138916628Y-105808399D01*
X139392819Y-106046494D02*
X138392819Y-106046494D01*
X138392819Y-106046494D02*
X138392819Y-105665542D01*
X138392819Y-105665542D02*
X138440438Y-105570304D01*
X138440438Y-105570304D02*
X138488057Y-105522685D01*
X138488057Y-105522685D02*
X138583295Y-105475066D01*
X138583295Y-105475066D02*
X138726152Y-105475066D01*
X138726152Y-105475066D02*
X138821390Y-105522685D01*
X138821390Y-105522685D02*
X138869009Y-105570304D01*
X138869009Y-105570304D02*
X138916628Y-105665542D01*
X138916628Y-105665542D02*
X138916628Y-106046494D01*
X138821390Y-104903637D02*
X138773771Y-104998875D01*
X138773771Y-104998875D02*
X138726152Y-105046494D01*
X138726152Y-105046494D02*
X138630914Y-105094113D01*
X138630914Y-105094113D02*
X138583295Y-105094113D01*
X138583295Y-105094113D02*
X138488057Y-105046494D01*
X138488057Y-105046494D02*
X138440438Y-104998875D01*
X138440438Y-104998875D02*
X138392819Y-104903637D01*
X138392819Y-104903637D02*
X138392819Y-104713161D01*
X138392819Y-104713161D02*
X138440438Y-104617923D01*
X138440438Y-104617923D02*
X138488057Y-104570304D01*
X138488057Y-104570304D02*
X138583295Y-104522685D01*
X138583295Y-104522685D02*
X138630914Y-104522685D01*
X138630914Y-104522685D02*
X138726152Y-104570304D01*
X138726152Y-104570304D02*
X138773771Y-104617923D01*
X138773771Y-104617923D02*
X138821390Y-104713161D01*
X138821390Y-104713161D02*
X138821390Y-104903637D01*
X138821390Y-104903637D02*
X138869009Y-104998875D01*
X138869009Y-104998875D02*
X138916628Y-105046494D01*
X138916628Y-105046494D02*
X139011866Y-105094113D01*
X139011866Y-105094113D02*
X139202342Y-105094113D01*
X139202342Y-105094113D02*
X139297580Y-105046494D01*
X139297580Y-105046494D02*
X139345200Y-104998875D01*
X139345200Y-104998875D02*
X139392819Y-104903637D01*
X139392819Y-104903637D02*
X139392819Y-104713161D01*
X139392819Y-104713161D02*
X139345200Y-104617923D01*
X139345200Y-104617923D02*
X139297580Y-104570304D01*
X139297580Y-104570304D02*
X139202342Y-104522685D01*
X139202342Y-104522685D02*
X139011866Y-104522685D01*
X139011866Y-104522685D02*
X138916628Y-104570304D01*
X138916628Y-104570304D02*
X138869009Y-104617923D01*
X138869009Y-104617923D02*
X138821390Y-104713161D01*
D14*
X107886667Y-110665600D02*
X108029524Y-110713219D01*
X108029524Y-110713219D02*
X108267619Y-110713219D01*
X108267619Y-110713219D02*
X108362857Y-110665600D01*
X108362857Y-110665600D02*
X108410476Y-110617980D01*
X108410476Y-110617980D02*
X108458095Y-110522742D01*
X108458095Y-110522742D02*
X108458095Y-110427504D01*
X108458095Y-110427504D02*
X108410476Y-110332266D01*
X108410476Y-110332266D02*
X108362857Y-110284647D01*
X108362857Y-110284647D02*
X108267619Y-110237028D01*
X108267619Y-110237028D02*
X108077143Y-110189409D01*
X108077143Y-110189409D02*
X107981905Y-110141790D01*
X107981905Y-110141790D02*
X107934286Y-110094171D01*
X107934286Y-110094171D02*
X107886667Y-109998933D01*
X107886667Y-109998933D02*
X107886667Y-109903695D01*
X107886667Y-109903695D02*
X107934286Y-109808457D01*
X107934286Y-109808457D02*
X107981905Y-109760838D01*
X107981905Y-109760838D02*
X108077143Y-109713219D01*
X108077143Y-109713219D02*
X108315238Y-109713219D01*
X108315238Y-109713219D02*
X108458095Y-109760838D01*
X108791429Y-109713219D02*
X109029524Y-110713219D01*
X109029524Y-110713219D02*
X109220000Y-109998933D01*
X109220000Y-109998933D02*
X109410476Y-110713219D01*
X109410476Y-110713219D02*
X109648572Y-109713219D01*
X110505714Y-109713219D02*
X110029524Y-109713219D01*
X110029524Y-109713219D02*
X109981905Y-110189409D01*
X109981905Y-110189409D02*
X110029524Y-110141790D01*
X110029524Y-110141790D02*
X110124762Y-110094171D01*
X110124762Y-110094171D02*
X110362857Y-110094171D01*
X110362857Y-110094171D02*
X110458095Y-110141790D01*
X110458095Y-110141790D02*
X110505714Y-110189409D01*
X110505714Y-110189409D02*
X110553333Y-110284647D01*
X110553333Y-110284647D02*
X110553333Y-110522742D01*
X110553333Y-110522742D02*
X110505714Y-110617980D01*
X110505714Y-110617980D02*
X110458095Y-110665600D01*
X110458095Y-110665600D02*
X110362857Y-110713219D01*
X110362857Y-110713219D02*
X110124762Y-110713219D01*
X110124762Y-110713219D02*
X110029524Y-110665600D01*
X110029524Y-110665600D02*
X109981905Y-110617980D01*
D12*
X137740819Y-103258857D02*
X137264628Y-103592190D01*
X137740819Y-103830285D02*
X136740819Y-103830285D01*
X136740819Y-103830285D02*
X136740819Y-103449333D01*
X136740819Y-103449333D02*
X136788438Y-103354095D01*
X136788438Y-103354095D02*
X136836057Y-103306476D01*
X136836057Y-103306476D02*
X136931295Y-103258857D01*
X136931295Y-103258857D02*
X137074152Y-103258857D01*
X137074152Y-103258857D02*
X137169390Y-103306476D01*
X137169390Y-103306476D02*
X137217009Y-103354095D01*
X137217009Y-103354095D02*
X137264628Y-103449333D01*
X137264628Y-103449333D02*
X137264628Y-103830285D01*
X137740819Y-102306476D02*
X137740819Y-102877904D01*
X137740819Y-102592190D02*
X136740819Y-102592190D01*
X136740819Y-102592190D02*
X136883676Y-102687428D01*
X136883676Y-102687428D02*
X136978914Y-102782666D01*
X136978914Y-102782666D02*
X137026533Y-102877904D01*
X136740819Y-101687428D02*
X136740819Y-101592190D01*
X136740819Y-101592190D02*
X136788438Y-101496952D01*
X136788438Y-101496952D02*
X136836057Y-101449333D01*
X136836057Y-101449333D02*
X136931295Y-101401714D01*
X136931295Y-101401714D02*
X137121771Y-101354095D01*
X137121771Y-101354095D02*
X137359866Y-101354095D01*
X137359866Y-101354095D02*
X137550342Y-101401714D01*
X137550342Y-101401714D02*
X137645580Y-101449333D01*
X137645580Y-101449333D02*
X137693200Y-101496952D01*
X137693200Y-101496952D02*
X137740819Y-101592190D01*
X137740819Y-101592190D02*
X137740819Y-101687428D01*
X137740819Y-101687428D02*
X137693200Y-101782666D01*
X137693200Y-101782666D02*
X137645580Y-101830285D01*
X137645580Y-101830285D02*
X137550342Y-101877904D01*
X137550342Y-101877904D02*
X137359866Y-101925523D01*
X137359866Y-101925523D02*
X137121771Y-101925523D01*
X137121771Y-101925523D02*
X136931295Y-101877904D01*
X136931295Y-101877904D02*
X136836057Y-101830285D01*
X136836057Y-101830285D02*
X136788438Y-101782666D01*
X136788438Y-101782666D02*
X136740819Y-101687428D01*
X103996276Y-81056619D02*
X103996276Y-81770904D01*
X103996276Y-81770904D02*
X103948657Y-81913761D01*
X103948657Y-81913761D02*
X103853419Y-82009000D01*
X103853419Y-82009000D02*
X103710562Y-82056619D01*
X103710562Y-82056619D02*
X103615324Y-82056619D01*
X104424848Y-81151857D02*
X104472467Y-81104238D01*
X104472467Y-81104238D02*
X104567705Y-81056619D01*
X104567705Y-81056619D02*
X104805800Y-81056619D01*
X104805800Y-81056619D02*
X104901038Y-81104238D01*
X104901038Y-81104238D02*
X104948657Y-81151857D01*
X104948657Y-81151857D02*
X104996276Y-81247095D01*
X104996276Y-81247095D02*
X104996276Y-81342333D01*
X104996276Y-81342333D02*
X104948657Y-81485190D01*
X104948657Y-81485190D02*
X104377229Y-82056619D01*
X104377229Y-82056619D02*
X104996276Y-82056619D01*
X105853419Y-81389952D02*
X105853419Y-82056619D01*
X105615324Y-81009000D02*
X105377229Y-81723285D01*
X105377229Y-81723285D02*
X105996276Y-81723285D01*
X115319276Y-81039619D02*
X115319276Y-81753904D01*
X115319276Y-81753904D02*
X115271657Y-81896761D01*
X115271657Y-81896761D02*
X115176419Y-81992000D01*
X115176419Y-81992000D02*
X115033562Y-82039619D01*
X115033562Y-82039619D02*
X114938324Y-82039619D01*
X115747848Y-81134857D02*
X115795467Y-81087238D01*
X115795467Y-81087238D02*
X115890705Y-81039619D01*
X115890705Y-81039619D02*
X116128800Y-81039619D01*
X116128800Y-81039619D02*
X116224038Y-81087238D01*
X116224038Y-81087238D02*
X116271657Y-81134857D01*
X116271657Y-81134857D02*
X116319276Y-81230095D01*
X116319276Y-81230095D02*
X116319276Y-81325333D01*
X116319276Y-81325333D02*
X116271657Y-81468190D01*
X116271657Y-81468190D02*
X115700229Y-82039619D01*
X115700229Y-82039619D02*
X116319276Y-82039619D01*
X116938324Y-81039619D02*
X117033562Y-81039619D01*
X117033562Y-81039619D02*
X117128800Y-81087238D01*
X117128800Y-81087238D02*
X117176419Y-81134857D01*
X117176419Y-81134857D02*
X117224038Y-81230095D01*
X117224038Y-81230095D02*
X117271657Y-81420571D01*
X117271657Y-81420571D02*
X117271657Y-81658666D01*
X117271657Y-81658666D02*
X117224038Y-81849142D01*
X117224038Y-81849142D02*
X117176419Y-81944380D01*
X117176419Y-81944380D02*
X117128800Y-81992000D01*
X117128800Y-81992000D02*
X117033562Y-82039619D01*
X117033562Y-82039619D02*
X116938324Y-82039619D01*
X116938324Y-82039619D02*
X116843086Y-81992000D01*
X116843086Y-81992000D02*
X116795467Y-81944380D01*
X116795467Y-81944380D02*
X116747848Y-81849142D01*
X116747848Y-81849142D02*
X116700229Y-81658666D01*
X116700229Y-81658666D02*
X116700229Y-81420571D01*
X116700229Y-81420571D02*
X116747848Y-81230095D01*
X116747848Y-81230095D02*
X116795467Y-81134857D01*
X116795467Y-81134857D02*
X116843086Y-81087238D01*
X116843086Y-81087238D02*
X116938324Y-81039619D01*
X158499276Y-81039619D02*
X158499276Y-81753904D01*
X158499276Y-81753904D02*
X158451657Y-81896761D01*
X158451657Y-81896761D02*
X158356419Y-81992000D01*
X158356419Y-81992000D02*
X158213562Y-82039619D01*
X158213562Y-82039619D02*
X158118324Y-82039619D01*
X159499276Y-82039619D02*
X158927848Y-82039619D01*
X159213562Y-82039619D02*
X159213562Y-81039619D01*
X159213562Y-81039619D02*
X159118324Y-81182476D01*
X159118324Y-81182476D02*
X159023086Y-81277714D01*
X159023086Y-81277714D02*
X158927848Y-81325333D01*
X160118324Y-81039619D02*
X160213562Y-81039619D01*
X160213562Y-81039619D02*
X160308800Y-81087238D01*
X160308800Y-81087238D02*
X160356419Y-81134857D01*
X160356419Y-81134857D02*
X160404038Y-81230095D01*
X160404038Y-81230095D02*
X160451657Y-81420571D01*
X160451657Y-81420571D02*
X160451657Y-81658666D01*
X160451657Y-81658666D02*
X160404038Y-81849142D01*
X160404038Y-81849142D02*
X160356419Y-81944380D01*
X160356419Y-81944380D02*
X160308800Y-81992000D01*
X160308800Y-81992000D02*
X160213562Y-82039619D01*
X160213562Y-82039619D02*
X160118324Y-82039619D01*
X160118324Y-82039619D02*
X160023086Y-81992000D01*
X160023086Y-81992000D02*
X159975467Y-81944380D01*
X159975467Y-81944380D02*
X159927848Y-81849142D01*
X159927848Y-81849142D02*
X159880229Y-81658666D01*
X159880229Y-81658666D02*
X159880229Y-81420571D01*
X159880229Y-81420571D02*
X159927848Y-81230095D01*
X159927848Y-81230095D02*
X159975467Y-81134857D01*
X159975467Y-81134857D02*
X160023086Y-81087238D01*
X160023086Y-81087238D02*
X160118324Y-81039619D01*
X93729276Y-81039619D02*
X93729276Y-81753904D01*
X93729276Y-81753904D02*
X93681657Y-81896761D01*
X93681657Y-81896761D02*
X93586419Y-81992000D01*
X93586419Y-81992000D02*
X93443562Y-82039619D01*
X93443562Y-82039619D02*
X93348324Y-82039619D01*
X94157848Y-81134857D02*
X94205467Y-81087238D01*
X94205467Y-81087238D02*
X94300705Y-81039619D01*
X94300705Y-81039619D02*
X94538800Y-81039619D01*
X94538800Y-81039619D02*
X94634038Y-81087238D01*
X94634038Y-81087238D02*
X94681657Y-81134857D01*
X94681657Y-81134857D02*
X94729276Y-81230095D01*
X94729276Y-81230095D02*
X94729276Y-81325333D01*
X94729276Y-81325333D02*
X94681657Y-81468190D01*
X94681657Y-81468190D02*
X94110229Y-82039619D01*
X94110229Y-82039619D02*
X94729276Y-82039619D01*
X95634038Y-81039619D02*
X95157848Y-81039619D01*
X95157848Y-81039619D02*
X95110229Y-81515809D01*
X95110229Y-81515809D02*
X95157848Y-81468190D01*
X95157848Y-81468190D02*
X95253086Y-81420571D01*
X95253086Y-81420571D02*
X95491181Y-81420571D01*
X95491181Y-81420571D02*
X95586419Y-81468190D01*
X95586419Y-81468190D02*
X95634038Y-81515809D01*
X95634038Y-81515809D02*
X95681657Y-81611047D01*
X95681657Y-81611047D02*
X95681657Y-81849142D01*
X95681657Y-81849142D02*
X95634038Y-81944380D01*
X95634038Y-81944380D02*
X95586419Y-81992000D01*
X95586419Y-81992000D02*
X95491181Y-82039619D01*
X95491181Y-82039619D02*
X95253086Y-82039619D01*
X95253086Y-82039619D02*
X95157848Y-81992000D01*
X95157848Y-81992000D02*
X95110229Y-81944380D01*
X145901580Y-103443066D02*
X145949200Y-103490685D01*
X145949200Y-103490685D02*
X145996819Y-103633542D01*
X145996819Y-103633542D02*
X145996819Y-103728780D01*
X145996819Y-103728780D02*
X145949200Y-103871637D01*
X145949200Y-103871637D02*
X145853961Y-103966875D01*
X145853961Y-103966875D02*
X145758723Y-104014494D01*
X145758723Y-104014494D02*
X145568247Y-104062113D01*
X145568247Y-104062113D02*
X145425390Y-104062113D01*
X145425390Y-104062113D02*
X145234914Y-104014494D01*
X145234914Y-104014494D02*
X145139676Y-103966875D01*
X145139676Y-103966875D02*
X145044438Y-103871637D01*
X145044438Y-103871637D02*
X144996819Y-103728780D01*
X144996819Y-103728780D02*
X144996819Y-103633542D01*
X144996819Y-103633542D02*
X145044438Y-103490685D01*
X145044438Y-103490685D02*
X145092057Y-103443066D01*
X145996819Y-102490685D02*
X145996819Y-103062113D01*
X145996819Y-102776399D02*
X144996819Y-102776399D01*
X144996819Y-102776399D02*
X145139676Y-102871637D01*
X145139676Y-102871637D02*
X145234914Y-102966875D01*
X145234914Y-102966875D02*
X145282533Y-103062113D01*
X153720895Y-86729219D02*
X153720895Y-87538742D01*
X153720895Y-87538742D02*
X153768514Y-87633980D01*
X153768514Y-87633980D02*
X153816133Y-87681600D01*
X153816133Y-87681600D02*
X153911371Y-87729219D01*
X153911371Y-87729219D02*
X154101847Y-87729219D01*
X154101847Y-87729219D02*
X154197085Y-87681600D01*
X154197085Y-87681600D02*
X154244704Y-87633980D01*
X154244704Y-87633980D02*
X154292323Y-87538742D01*
X154292323Y-87538742D02*
X154292323Y-86729219D01*
X155292323Y-87729219D02*
X154720895Y-87729219D01*
X155006609Y-87729219D02*
X155006609Y-86729219D01*
X155006609Y-86729219D02*
X154911371Y-86872076D01*
X154911371Y-86872076D02*
X154816133Y-86967314D01*
X154816133Y-86967314D02*
X154720895Y-87014933D01*
X128521619Y-101480857D02*
X128045428Y-101814190D01*
X128521619Y-102052285D02*
X127521619Y-102052285D01*
X127521619Y-102052285D02*
X127521619Y-101671333D01*
X127521619Y-101671333D02*
X127569238Y-101576095D01*
X127569238Y-101576095D02*
X127616857Y-101528476D01*
X127616857Y-101528476D02*
X127712095Y-101480857D01*
X127712095Y-101480857D02*
X127854952Y-101480857D01*
X127854952Y-101480857D02*
X127950190Y-101528476D01*
X127950190Y-101528476D02*
X127997809Y-101576095D01*
X127997809Y-101576095D02*
X128045428Y-101671333D01*
X128045428Y-101671333D02*
X128045428Y-102052285D01*
X128521619Y-100528476D02*
X128521619Y-101099904D01*
X128521619Y-100814190D02*
X127521619Y-100814190D01*
X127521619Y-100814190D02*
X127664476Y-100909428D01*
X127664476Y-100909428D02*
X127759714Y-101004666D01*
X127759714Y-101004666D02*
X127807333Y-101099904D01*
X127854952Y-99671333D02*
X128521619Y-99671333D01*
X127474000Y-99909428D02*
X128188285Y-100147523D01*
X128188285Y-100147523D02*
X128188285Y-99528476D01*
X138197905Y-112520819D02*
X138197905Y-111520819D01*
X138197905Y-111520819D02*
X138436000Y-111520819D01*
X138436000Y-111520819D02*
X138578857Y-111568438D01*
X138578857Y-111568438D02*
X138674095Y-111663676D01*
X138674095Y-111663676D02*
X138721714Y-111758914D01*
X138721714Y-111758914D02*
X138769333Y-111949390D01*
X138769333Y-111949390D02*
X138769333Y-112092247D01*
X138769333Y-112092247D02*
X138721714Y-112282723D01*
X138721714Y-112282723D02*
X138674095Y-112377961D01*
X138674095Y-112377961D02*
X138578857Y-112473200D01*
X138578857Y-112473200D02*
X138436000Y-112520819D01*
X138436000Y-112520819D02*
X138197905Y-112520819D01*
X139150286Y-111616057D02*
X139197905Y-111568438D01*
X139197905Y-111568438D02*
X139293143Y-111520819D01*
X139293143Y-111520819D02*
X139531238Y-111520819D01*
X139531238Y-111520819D02*
X139626476Y-111568438D01*
X139626476Y-111568438D02*
X139674095Y-111616057D01*
X139674095Y-111616057D02*
X139721714Y-111711295D01*
X139721714Y-111711295D02*
X139721714Y-111806533D01*
X139721714Y-111806533D02*
X139674095Y-111949390D01*
X139674095Y-111949390D02*
X139102667Y-112520819D01*
X139102667Y-112520819D02*
X139721714Y-112520819D01*
X130458380Y-103443066D02*
X130506000Y-103490685D01*
X130506000Y-103490685D02*
X130553619Y-103633542D01*
X130553619Y-103633542D02*
X130553619Y-103728780D01*
X130553619Y-103728780D02*
X130506000Y-103871637D01*
X130506000Y-103871637D02*
X130410761Y-103966875D01*
X130410761Y-103966875D02*
X130315523Y-104014494D01*
X130315523Y-104014494D02*
X130125047Y-104062113D01*
X130125047Y-104062113D02*
X129982190Y-104062113D01*
X129982190Y-104062113D02*
X129791714Y-104014494D01*
X129791714Y-104014494D02*
X129696476Y-103966875D01*
X129696476Y-103966875D02*
X129601238Y-103871637D01*
X129601238Y-103871637D02*
X129553619Y-103728780D01*
X129553619Y-103728780D02*
X129553619Y-103633542D01*
X129553619Y-103633542D02*
X129601238Y-103490685D01*
X129601238Y-103490685D02*
X129648857Y-103443066D01*
X129553619Y-103109732D02*
X129553619Y-102443066D01*
X129553619Y-102443066D02*
X130553619Y-102871637D01*
X136903876Y-81048019D02*
X136903876Y-81762304D01*
X136903876Y-81762304D02*
X136856257Y-81905161D01*
X136856257Y-81905161D02*
X136761019Y-82000400D01*
X136761019Y-82000400D02*
X136618162Y-82048019D01*
X136618162Y-82048019D02*
X136522924Y-82048019D01*
X137903876Y-82048019D02*
X137332448Y-82048019D01*
X137618162Y-82048019D02*
X137618162Y-81048019D01*
X137618162Y-81048019D02*
X137522924Y-81190876D01*
X137522924Y-81190876D02*
X137427686Y-81286114D01*
X137427686Y-81286114D02*
X137332448Y-81333733D01*
X138808638Y-81048019D02*
X138332448Y-81048019D01*
X138332448Y-81048019D02*
X138284829Y-81524209D01*
X138284829Y-81524209D02*
X138332448Y-81476590D01*
X138332448Y-81476590D02*
X138427686Y-81428971D01*
X138427686Y-81428971D02*
X138665781Y-81428971D01*
X138665781Y-81428971D02*
X138761019Y-81476590D01*
X138761019Y-81476590D02*
X138808638Y-81524209D01*
X138808638Y-81524209D02*
X138856257Y-81619447D01*
X138856257Y-81619447D02*
X138856257Y-81857542D01*
X138856257Y-81857542D02*
X138808638Y-81952780D01*
X138808638Y-81952780D02*
X138761019Y-82000400D01*
X138761019Y-82000400D02*
X138665781Y-82048019D01*
X138665781Y-82048019D02*
X138427686Y-82048019D01*
X138427686Y-82048019D02*
X138332448Y-82000400D01*
X138332448Y-82000400D02*
X138284829Y-81952780D01*
D14*
X118046667Y-110693800D02*
X118189524Y-110741419D01*
X118189524Y-110741419D02*
X118427619Y-110741419D01*
X118427619Y-110741419D02*
X118522857Y-110693800D01*
X118522857Y-110693800D02*
X118570476Y-110646180D01*
X118570476Y-110646180D02*
X118618095Y-110550942D01*
X118618095Y-110550942D02*
X118618095Y-110455704D01*
X118618095Y-110455704D02*
X118570476Y-110360466D01*
X118570476Y-110360466D02*
X118522857Y-110312847D01*
X118522857Y-110312847D02*
X118427619Y-110265228D01*
X118427619Y-110265228D02*
X118237143Y-110217609D01*
X118237143Y-110217609D02*
X118141905Y-110169990D01*
X118141905Y-110169990D02*
X118094286Y-110122371D01*
X118094286Y-110122371D02*
X118046667Y-110027133D01*
X118046667Y-110027133D02*
X118046667Y-109931895D01*
X118046667Y-109931895D02*
X118094286Y-109836657D01*
X118094286Y-109836657D02*
X118141905Y-109789038D01*
X118141905Y-109789038D02*
X118237143Y-109741419D01*
X118237143Y-109741419D02*
X118475238Y-109741419D01*
X118475238Y-109741419D02*
X118618095Y-109789038D01*
X118951429Y-109741419D02*
X119189524Y-110741419D01*
X119189524Y-110741419D02*
X119380000Y-110027133D01*
X119380000Y-110027133D02*
X119570476Y-110741419D01*
X119570476Y-110741419D02*
X119808572Y-109741419D01*
X120618095Y-110074752D02*
X120618095Y-110741419D01*
X120380000Y-109693800D02*
X120141905Y-110408085D01*
X120141905Y-110408085D02*
X120760952Y-110408085D01*
D12*
X121816019Y-101684057D02*
X121339828Y-102017390D01*
X121816019Y-102255485D02*
X120816019Y-102255485D01*
X120816019Y-102255485D02*
X120816019Y-101874533D01*
X120816019Y-101874533D02*
X120863638Y-101779295D01*
X120863638Y-101779295D02*
X120911257Y-101731676D01*
X120911257Y-101731676D02*
X121006495Y-101684057D01*
X121006495Y-101684057D02*
X121149352Y-101684057D01*
X121149352Y-101684057D02*
X121244590Y-101731676D01*
X121244590Y-101731676D02*
X121292209Y-101779295D01*
X121292209Y-101779295D02*
X121339828Y-101874533D01*
X121339828Y-101874533D02*
X121339828Y-102255485D01*
X121816019Y-100731676D02*
X121816019Y-101303104D01*
X121816019Y-101017390D02*
X120816019Y-101017390D01*
X120816019Y-101017390D02*
X120958876Y-101112628D01*
X120958876Y-101112628D02*
X121054114Y-101207866D01*
X121054114Y-101207866D02*
X121101733Y-101303104D01*
X120816019Y-100398342D02*
X120816019Y-99779295D01*
X120816019Y-99779295D02*
X121196971Y-100112628D01*
X121196971Y-100112628D02*
X121196971Y-99969771D01*
X121196971Y-99969771D02*
X121244590Y-99874533D01*
X121244590Y-99874533D02*
X121292209Y-99826914D01*
X121292209Y-99826914D02*
X121387447Y-99779295D01*
X121387447Y-99779295D02*
X121625542Y-99779295D01*
X121625542Y-99779295D02*
X121720780Y-99826914D01*
X121720780Y-99826914D02*
X121768400Y-99874533D01*
X121768400Y-99874533D02*
X121816019Y-99969771D01*
X121816019Y-99969771D02*
X121816019Y-100255485D01*
X121816019Y-100255485D02*
X121768400Y-100350723D01*
X121768400Y-100350723D02*
X121720780Y-100398342D01*
D14*
X161226667Y-110693800D02*
X161369524Y-110741419D01*
X161369524Y-110741419D02*
X161607619Y-110741419D01*
X161607619Y-110741419D02*
X161702857Y-110693800D01*
X161702857Y-110693800D02*
X161750476Y-110646180D01*
X161750476Y-110646180D02*
X161798095Y-110550942D01*
X161798095Y-110550942D02*
X161798095Y-110455704D01*
X161798095Y-110455704D02*
X161750476Y-110360466D01*
X161750476Y-110360466D02*
X161702857Y-110312847D01*
X161702857Y-110312847D02*
X161607619Y-110265228D01*
X161607619Y-110265228D02*
X161417143Y-110217609D01*
X161417143Y-110217609D02*
X161321905Y-110169990D01*
X161321905Y-110169990D02*
X161274286Y-110122371D01*
X161274286Y-110122371D02*
X161226667Y-110027133D01*
X161226667Y-110027133D02*
X161226667Y-109931895D01*
X161226667Y-109931895D02*
X161274286Y-109836657D01*
X161274286Y-109836657D02*
X161321905Y-109789038D01*
X161321905Y-109789038D02*
X161417143Y-109741419D01*
X161417143Y-109741419D02*
X161655238Y-109741419D01*
X161655238Y-109741419D02*
X161798095Y-109789038D01*
X162131429Y-109741419D02*
X162369524Y-110741419D01*
X162369524Y-110741419D02*
X162560000Y-110027133D01*
X162560000Y-110027133D02*
X162750476Y-110741419D01*
X162750476Y-110741419D02*
X162988572Y-109741419D01*
X163321905Y-109836657D02*
X163369524Y-109789038D01*
X163369524Y-109789038D02*
X163464762Y-109741419D01*
X163464762Y-109741419D02*
X163702857Y-109741419D01*
X163702857Y-109741419D02*
X163798095Y-109789038D01*
X163798095Y-109789038D02*
X163845714Y-109836657D01*
X163845714Y-109836657D02*
X163893333Y-109931895D01*
X163893333Y-109931895D02*
X163893333Y-110027133D01*
X163893333Y-110027133D02*
X163845714Y-110169990D01*
X163845714Y-110169990D02*
X163274286Y-110741419D01*
X163274286Y-110741419D02*
X163893333Y-110741419D01*
D12*
X137755333Y-91799580D02*
X137707714Y-91847200D01*
X137707714Y-91847200D02*
X137564857Y-91894819D01*
X137564857Y-91894819D02*
X137469619Y-91894819D01*
X137469619Y-91894819D02*
X137326762Y-91847200D01*
X137326762Y-91847200D02*
X137231524Y-91751961D01*
X137231524Y-91751961D02*
X137183905Y-91656723D01*
X137183905Y-91656723D02*
X137136286Y-91466247D01*
X137136286Y-91466247D02*
X137136286Y-91323390D01*
X137136286Y-91323390D02*
X137183905Y-91132914D01*
X137183905Y-91132914D02*
X137231524Y-91037676D01*
X137231524Y-91037676D02*
X137326762Y-90942438D01*
X137326762Y-90942438D02*
X137469619Y-90894819D01*
X137469619Y-90894819D02*
X137564857Y-90894819D01*
X137564857Y-90894819D02*
X137707714Y-90942438D01*
X137707714Y-90942438D02*
X137755333Y-90990057D01*
X138612476Y-91228152D02*
X138612476Y-91894819D01*
X138374381Y-90847200D02*
X138136286Y-91561485D01*
X138136286Y-91561485D02*
X138755333Y-91561485D01*
X162393333Y-100683219D02*
X162060000Y-100207028D01*
X161821905Y-100683219D02*
X161821905Y-99683219D01*
X161821905Y-99683219D02*
X162202857Y-99683219D01*
X162202857Y-99683219D02*
X162298095Y-99730838D01*
X162298095Y-99730838D02*
X162345714Y-99778457D01*
X162345714Y-99778457D02*
X162393333Y-99873695D01*
X162393333Y-99873695D02*
X162393333Y-100016552D01*
X162393333Y-100016552D02*
X162345714Y-100111790D01*
X162345714Y-100111790D02*
X162298095Y-100159409D01*
X162298095Y-100159409D02*
X162202857Y-100207028D01*
X162202857Y-100207028D02*
X161821905Y-100207028D01*
X162774286Y-99778457D02*
X162821905Y-99730838D01*
X162821905Y-99730838D02*
X162917143Y-99683219D01*
X162917143Y-99683219D02*
X163155238Y-99683219D01*
X163155238Y-99683219D02*
X163250476Y-99730838D01*
X163250476Y-99730838D02*
X163298095Y-99778457D01*
X163298095Y-99778457D02*
X163345714Y-99873695D01*
X163345714Y-99873695D02*
X163345714Y-99968933D01*
X163345714Y-99968933D02*
X163298095Y-100111790D01*
X163298095Y-100111790D02*
X162726667Y-100683219D01*
X162726667Y-100683219D02*
X163345714Y-100683219D01*
X137411619Y-107507066D02*
X136935428Y-107840399D01*
X137411619Y-108078494D02*
X136411619Y-108078494D01*
X136411619Y-108078494D02*
X136411619Y-107697542D01*
X136411619Y-107697542D02*
X136459238Y-107602304D01*
X136459238Y-107602304D02*
X136506857Y-107554685D01*
X136506857Y-107554685D02*
X136602095Y-107507066D01*
X136602095Y-107507066D02*
X136744952Y-107507066D01*
X136744952Y-107507066D02*
X136840190Y-107554685D01*
X136840190Y-107554685D02*
X136887809Y-107602304D01*
X136887809Y-107602304D02*
X136935428Y-107697542D01*
X136935428Y-107697542D02*
X136935428Y-108078494D01*
X137411619Y-107030875D02*
X137411619Y-106840399D01*
X137411619Y-106840399D02*
X137364000Y-106745161D01*
X137364000Y-106745161D02*
X137316380Y-106697542D01*
X137316380Y-106697542D02*
X137173523Y-106602304D01*
X137173523Y-106602304D02*
X136983047Y-106554685D01*
X136983047Y-106554685D02*
X136602095Y-106554685D01*
X136602095Y-106554685D02*
X136506857Y-106602304D01*
X136506857Y-106602304D02*
X136459238Y-106649923D01*
X136459238Y-106649923D02*
X136411619Y-106745161D01*
X136411619Y-106745161D02*
X136411619Y-106935637D01*
X136411619Y-106935637D02*
X136459238Y-107030875D01*
X136459238Y-107030875D02*
X136506857Y-107078494D01*
X136506857Y-107078494D02*
X136602095Y-107126113D01*
X136602095Y-107126113D02*
X136840190Y-107126113D01*
X136840190Y-107126113D02*
X136935428Y-107078494D01*
X136935428Y-107078494D02*
X136983047Y-107030875D01*
X136983047Y-107030875D02*
X137030666Y-106935637D01*
X137030666Y-106935637D02*
X137030666Y-106745161D01*
X137030666Y-106745161D02*
X136983047Y-106649923D01*
X136983047Y-106649923D02*
X136935428Y-106602304D01*
X136935428Y-106602304D02*
X136840190Y-106554685D01*
X88900095Y-86729219D02*
X88900095Y-87538742D01*
X88900095Y-87538742D02*
X88947714Y-87633980D01*
X88947714Y-87633980D02*
X88995333Y-87681600D01*
X88995333Y-87681600D02*
X89090571Y-87729219D01*
X89090571Y-87729219D02*
X89281047Y-87729219D01*
X89281047Y-87729219D02*
X89376285Y-87681600D01*
X89376285Y-87681600D02*
X89423904Y-87633980D01*
X89423904Y-87633980D02*
X89471523Y-87538742D01*
X89471523Y-87538742D02*
X89471523Y-86729219D01*
X90376285Y-87062552D02*
X90376285Y-87729219D01*
X90138190Y-86681600D02*
X89900095Y-87395885D01*
X89900095Y-87395885D02*
X90519142Y-87395885D01*
X107693619Y-101633257D02*
X107217428Y-101966590D01*
X107693619Y-102204685D02*
X106693619Y-102204685D01*
X106693619Y-102204685D02*
X106693619Y-101823733D01*
X106693619Y-101823733D02*
X106741238Y-101728495D01*
X106741238Y-101728495D02*
X106788857Y-101680876D01*
X106788857Y-101680876D02*
X106884095Y-101633257D01*
X106884095Y-101633257D02*
X107026952Y-101633257D01*
X107026952Y-101633257D02*
X107122190Y-101680876D01*
X107122190Y-101680876D02*
X107169809Y-101728495D01*
X107169809Y-101728495D02*
X107217428Y-101823733D01*
X107217428Y-101823733D02*
X107217428Y-102204685D01*
X107693619Y-100680876D02*
X107693619Y-101252304D01*
X107693619Y-100966590D02*
X106693619Y-100966590D01*
X106693619Y-100966590D02*
X106836476Y-101061828D01*
X106836476Y-101061828D02*
X106931714Y-101157066D01*
X106931714Y-101157066D02*
X106979333Y-101252304D01*
X107122190Y-100109447D02*
X107074571Y-100204685D01*
X107074571Y-100204685D02*
X107026952Y-100252304D01*
X107026952Y-100252304D02*
X106931714Y-100299923D01*
X106931714Y-100299923D02*
X106884095Y-100299923D01*
X106884095Y-100299923D02*
X106788857Y-100252304D01*
X106788857Y-100252304D02*
X106741238Y-100204685D01*
X106741238Y-100204685D02*
X106693619Y-100109447D01*
X106693619Y-100109447D02*
X106693619Y-99918971D01*
X106693619Y-99918971D02*
X106741238Y-99823733D01*
X106741238Y-99823733D02*
X106788857Y-99776114D01*
X106788857Y-99776114D02*
X106884095Y-99728495D01*
X106884095Y-99728495D02*
X106931714Y-99728495D01*
X106931714Y-99728495D02*
X107026952Y-99776114D01*
X107026952Y-99776114D02*
X107074571Y-99823733D01*
X107074571Y-99823733D02*
X107122190Y-99918971D01*
X107122190Y-99918971D02*
X107122190Y-100109447D01*
X107122190Y-100109447D02*
X107169809Y-100204685D01*
X107169809Y-100204685D02*
X107217428Y-100252304D01*
X107217428Y-100252304D02*
X107312666Y-100299923D01*
X107312666Y-100299923D02*
X107503142Y-100299923D01*
X107503142Y-100299923D02*
X107598380Y-100252304D01*
X107598380Y-100252304D02*
X107646000Y-100204685D01*
X107646000Y-100204685D02*
X107693619Y-100109447D01*
X107693619Y-100109447D02*
X107693619Y-99918971D01*
X107693619Y-99918971D02*
X107646000Y-99823733D01*
X107646000Y-99823733D02*
X107598380Y-99776114D01*
X107598380Y-99776114D02*
X107503142Y-99728495D01*
X107503142Y-99728495D02*
X107312666Y-99728495D01*
X107312666Y-99728495D02*
X107217428Y-99776114D01*
X107217428Y-99776114D02*
X107169809Y-99823733D01*
X107169809Y-99823733D02*
X107122190Y-99918971D01*
X131761905Y-112520819D02*
X131761905Y-111520819D01*
X131761905Y-111520819D02*
X132000000Y-111520819D01*
X132000000Y-111520819D02*
X132142857Y-111568438D01*
X132142857Y-111568438D02*
X132238095Y-111663676D01*
X132238095Y-111663676D02*
X132285714Y-111758914D01*
X132285714Y-111758914D02*
X132333333Y-111949390D01*
X132333333Y-111949390D02*
X132333333Y-112092247D01*
X132333333Y-112092247D02*
X132285714Y-112282723D01*
X132285714Y-112282723D02*
X132238095Y-112377961D01*
X132238095Y-112377961D02*
X132142857Y-112473200D01*
X132142857Y-112473200D02*
X132000000Y-112520819D01*
X132000000Y-112520819D02*
X131761905Y-112520819D01*
X132666667Y-111520819D02*
X133285714Y-111520819D01*
X133285714Y-111520819D02*
X132952381Y-111901771D01*
X132952381Y-111901771D02*
X133095238Y-111901771D01*
X133095238Y-111901771D02*
X133190476Y-111949390D01*
X133190476Y-111949390D02*
X133238095Y-111997009D01*
X133238095Y-111997009D02*
X133285714Y-112092247D01*
X133285714Y-112092247D02*
X133285714Y-112330342D01*
X133285714Y-112330342D02*
X133238095Y-112425580D01*
X133238095Y-112425580D02*
X133190476Y-112473200D01*
X133190476Y-112473200D02*
X133095238Y-112520819D01*
X133095238Y-112520819D02*
X132809524Y-112520819D01*
X132809524Y-112520819D02*
X132714286Y-112473200D01*
X132714286Y-112473200D02*
X132666667Y-112425580D01*
X126388019Y-103512857D02*
X125911828Y-103846190D01*
X126388019Y-104084285D02*
X125388019Y-104084285D01*
X125388019Y-104084285D02*
X125388019Y-103703333D01*
X125388019Y-103703333D02*
X125435638Y-103608095D01*
X125435638Y-103608095D02*
X125483257Y-103560476D01*
X125483257Y-103560476D02*
X125578495Y-103512857D01*
X125578495Y-103512857D02*
X125721352Y-103512857D01*
X125721352Y-103512857D02*
X125816590Y-103560476D01*
X125816590Y-103560476D02*
X125864209Y-103608095D01*
X125864209Y-103608095D02*
X125911828Y-103703333D01*
X125911828Y-103703333D02*
X125911828Y-104084285D01*
X126388019Y-102560476D02*
X126388019Y-103131904D01*
X126388019Y-102846190D02*
X125388019Y-102846190D01*
X125388019Y-102846190D02*
X125530876Y-102941428D01*
X125530876Y-102941428D02*
X125626114Y-103036666D01*
X125626114Y-103036666D02*
X125673733Y-103131904D01*
X125388019Y-101655714D02*
X125388019Y-102131904D01*
X125388019Y-102131904D02*
X125864209Y-102179523D01*
X125864209Y-102179523D02*
X125816590Y-102131904D01*
X125816590Y-102131904D02*
X125768971Y-102036666D01*
X125768971Y-102036666D02*
X125768971Y-101798571D01*
X125768971Y-101798571D02*
X125816590Y-101703333D01*
X125816590Y-101703333D02*
X125864209Y-101655714D01*
X125864209Y-101655714D02*
X125959447Y-101608095D01*
X125959447Y-101608095D02*
X126197542Y-101608095D01*
X126197542Y-101608095D02*
X126292780Y-101655714D01*
X126292780Y-101655714D02*
X126340400Y-101703333D01*
X126340400Y-101703333D02*
X126388019Y-101798571D01*
X126388019Y-101798571D02*
X126388019Y-102036666D01*
X126388019Y-102036666D02*
X126340400Y-102131904D01*
X126340400Y-102131904D02*
X126292780Y-102179523D01*
X169262466Y-81039619D02*
X169262466Y-81753904D01*
X169262466Y-81753904D02*
X169214847Y-81896761D01*
X169214847Y-81896761D02*
X169119609Y-81992000D01*
X169119609Y-81992000D02*
X168976752Y-82039619D01*
X168976752Y-82039619D02*
X168881514Y-82039619D01*
X169786276Y-82039619D02*
X169976752Y-82039619D01*
X169976752Y-82039619D02*
X170071990Y-81992000D01*
X170071990Y-81992000D02*
X170119609Y-81944380D01*
X170119609Y-81944380D02*
X170214847Y-81801523D01*
X170214847Y-81801523D02*
X170262466Y-81611047D01*
X170262466Y-81611047D02*
X170262466Y-81230095D01*
X170262466Y-81230095D02*
X170214847Y-81134857D01*
X170214847Y-81134857D02*
X170167228Y-81087238D01*
X170167228Y-81087238D02*
X170071990Y-81039619D01*
X170071990Y-81039619D02*
X169881514Y-81039619D01*
X169881514Y-81039619D02*
X169786276Y-81087238D01*
X169786276Y-81087238D02*
X169738657Y-81134857D01*
X169738657Y-81134857D02*
X169691038Y-81230095D01*
X169691038Y-81230095D02*
X169691038Y-81468190D01*
X169691038Y-81468190D02*
X169738657Y-81563428D01*
X169738657Y-81563428D02*
X169786276Y-81611047D01*
X169786276Y-81611047D02*
X169881514Y-81658666D01*
X169881514Y-81658666D02*
X170071990Y-81658666D01*
X170071990Y-81658666D02*
X170167228Y-81611047D01*
X170167228Y-81611047D02*
X170214847Y-81563428D01*
X170214847Y-81563428D02*
X170262466Y-81468190D01*
X142761905Y-108520819D02*
X142761905Y-107520819D01*
X142761905Y-107520819D02*
X143000000Y-107520819D01*
X143000000Y-107520819D02*
X143142857Y-107568438D01*
X143142857Y-107568438D02*
X143238095Y-107663676D01*
X143238095Y-107663676D02*
X143285714Y-107758914D01*
X143285714Y-107758914D02*
X143333333Y-107949390D01*
X143333333Y-107949390D02*
X143333333Y-108092247D01*
X143333333Y-108092247D02*
X143285714Y-108282723D01*
X143285714Y-108282723D02*
X143238095Y-108377961D01*
X143238095Y-108377961D02*
X143142857Y-108473200D01*
X143142857Y-108473200D02*
X143000000Y-108520819D01*
X143000000Y-108520819D02*
X142761905Y-108520819D01*
X144285714Y-108520819D02*
X143714286Y-108520819D01*
X144000000Y-108520819D02*
X144000000Y-107520819D01*
X144000000Y-107520819D02*
X143904762Y-107663676D01*
X143904762Y-107663676D02*
X143809524Y-107758914D01*
X143809524Y-107758914D02*
X143714286Y-107806533D01*
X125606276Y-81039619D02*
X125606276Y-81753904D01*
X125606276Y-81753904D02*
X125558657Y-81896761D01*
X125558657Y-81896761D02*
X125463419Y-81992000D01*
X125463419Y-81992000D02*
X125320562Y-82039619D01*
X125320562Y-82039619D02*
X125225324Y-82039619D01*
X126606276Y-82039619D02*
X126034848Y-82039619D01*
X126320562Y-82039619D02*
X126320562Y-81039619D01*
X126320562Y-81039619D02*
X126225324Y-81182476D01*
X126225324Y-81182476D02*
X126130086Y-81277714D01*
X126130086Y-81277714D02*
X126034848Y-81325333D01*
X127082467Y-82039619D02*
X127272943Y-82039619D01*
X127272943Y-82039619D02*
X127368181Y-81992000D01*
X127368181Y-81992000D02*
X127415800Y-81944380D01*
X127415800Y-81944380D02*
X127511038Y-81801523D01*
X127511038Y-81801523D02*
X127558657Y-81611047D01*
X127558657Y-81611047D02*
X127558657Y-81230095D01*
X127558657Y-81230095D02*
X127511038Y-81134857D01*
X127511038Y-81134857D02*
X127463419Y-81087238D01*
X127463419Y-81087238D02*
X127368181Y-81039619D01*
X127368181Y-81039619D02*
X127177705Y-81039619D01*
X127177705Y-81039619D02*
X127082467Y-81087238D01*
X127082467Y-81087238D02*
X127034848Y-81134857D01*
X127034848Y-81134857D02*
X126987229Y-81230095D01*
X126987229Y-81230095D02*
X126987229Y-81468190D01*
X126987229Y-81468190D02*
X127034848Y-81563428D01*
X127034848Y-81563428D02*
X127082467Y-81611047D01*
X127082467Y-81611047D02*
X127177705Y-81658666D01*
X127177705Y-81658666D02*
X127368181Y-81658666D01*
X127368181Y-81658666D02*
X127463419Y-81611047D01*
X127463419Y-81611047D02*
X127511038Y-81563428D01*
X127511038Y-81563428D02*
X127558657Y-81468190D01*
X116114533Y-91799580D02*
X116066914Y-91847200D01*
X116066914Y-91847200D02*
X115924057Y-91894819D01*
X115924057Y-91894819D02*
X115828819Y-91894819D01*
X115828819Y-91894819D02*
X115685962Y-91847200D01*
X115685962Y-91847200D02*
X115590724Y-91751961D01*
X115590724Y-91751961D02*
X115543105Y-91656723D01*
X115543105Y-91656723D02*
X115495486Y-91466247D01*
X115495486Y-91466247D02*
X115495486Y-91323390D01*
X115495486Y-91323390D02*
X115543105Y-91132914D01*
X115543105Y-91132914D02*
X115590724Y-91037676D01*
X115590724Y-91037676D02*
X115685962Y-90942438D01*
X115685962Y-90942438D02*
X115828819Y-90894819D01*
X115828819Y-90894819D02*
X115924057Y-90894819D01*
X115924057Y-90894819D02*
X116066914Y-90942438D01*
X116066914Y-90942438D02*
X116114533Y-90990057D01*
X116971676Y-90894819D02*
X116781200Y-90894819D01*
X116781200Y-90894819D02*
X116685962Y-90942438D01*
X116685962Y-90942438D02*
X116638343Y-90990057D01*
X116638343Y-90990057D02*
X116543105Y-91132914D01*
X116543105Y-91132914D02*
X116495486Y-91323390D01*
X116495486Y-91323390D02*
X116495486Y-91704342D01*
X116495486Y-91704342D02*
X116543105Y-91799580D01*
X116543105Y-91799580D02*
X116590724Y-91847200D01*
X116590724Y-91847200D02*
X116685962Y-91894819D01*
X116685962Y-91894819D02*
X116876438Y-91894819D01*
X116876438Y-91894819D02*
X116971676Y-91847200D01*
X116971676Y-91847200D02*
X117019295Y-91799580D01*
X117019295Y-91799580D02*
X117066914Y-91704342D01*
X117066914Y-91704342D02*
X117066914Y-91466247D01*
X117066914Y-91466247D02*
X117019295Y-91371009D01*
X117019295Y-91371009D02*
X116971676Y-91323390D01*
X116971676Y-91323390D02*
X116876438Y-91275771D01*
X116876438Y-91275771D02*
X116685962Y-91275771D01*
X116685962Y-91275771D02*
X116590724Y-91323390D01*
X116590724Y-91323390D02*
X116543105Y-91371009D01*
X116543105Y-91371009D02*
X116495486Y-91466247D01*
X94575333Y-91799580D02*
X94527714Y-91847200D01*
X94527714Y-91847200D02*
X94384857Y-91894819D01*
X94384857Y-91894819D02*
X94289619Y-91894819D01*
X94289619Y-91894819D02*
X94146762Y-91847200D01*
X94146762Y-91847200D02*
X94051524Y-91751961D01*
X94051524Y-91751961D02*
X94003905Y-91656723D01*
X94003905Y-91656723D02*
X93956286Y-91466247D01*
X93956286Y-91466247D02*
X93956286Y-91323390D01*
X93956286Y-91323390D02*
X94003905Y-91132914D01*
X94003905Y-91132914D02*
X94051524Y-91037676D01*
X94051524Y-91037676D02*
X94146762Y-90942438D01*
X94146762Y-90942438D02*
X94289619Y-90894819D01*
X94289619Y-90894819D02*
X94384857Y-90894819D01*
X94384857Y-90894819D02*
X94527714Y-90942438D01*
X94527714Y-90942438D02*
X94575333Y-90990057D01*
X95146762Y-91323390D02*
X95051524Y-91275771D01*
X95051524Y-91275771D02*
X95003905Y-91228152D01*
X95003905Y-91228152D02*
X94956286Y-91132914D01*
X94956286Y-91132914D02*
X94956286Y-91085295D01*
X94956286Y-91085295D02*
X95003905Y-90990057D01*
X95003905Y-90990057D02*
X95051524Y-90942438D01*
X95051524Y-90942438D02*
X95146762Y-90894819D01*
X95146762Y-90894819D02*
X95337238Y-90894819D01*
X95337238Y-90894819D02*
X95432476Y-90942438D01*
X95432476Y-90942438D02*
X95480095Y-90990057D01*
X95480095Y-90990057D02*
X95527714Y-91085295D01*
X95527714Y-91085295D02*
X95527714Y-91132914D01*
X95527714Y-91132914D02*
X95480095Y-91228152D01*
X95480095Y-91228152D02*
X95432476Y-91275771D01*
X95432476Y-91275771D02*
X95337238Y-91323390D01*
X95337238Y-91323390D02*
X95146762Y-91323390D01*
X95146762Y-91323390D02*
X95051524Y-91371009D01*
X95051524Y-91371009D02*
X95003905Y-91418628D01*
X95003905Y-91418628D02*
X94956286Y-91513866D01*
X94956286Y-91513866D02*
X94956286Y-91704342D01*
X94956286Y-91704342D02*
X95003905Y-91799580D01*
X95003905Y-91799580D02*
X95051524Y-91847200D01*
X95051524Y-91847200D02*
X95146762Y-91894819D01*
X95146762Y-91894819D02*
X95337238Y-91894819D01*
X95337238Y-91894819D02*
X95432476Y-91847200D01*
X95432476Y-91847200D02*
X95480095Y-91799580D01*
X95480095Y-91799580D02*
X95527714Y-91704342D01*
X95527714Y-91704342D02*
X95527714Y-91513866D01*
X95527714Y-91513866D02*
X95480095Y-91418628D01*
X95480095Y-91418628D02*
X95432476Y-91371009D01*
X95432476Y-91371009D02*
X95337238Y-91323390D01*
X110490095Y-86830819D02*
X110490095Y-87640342D01*
X110490095Y-87640342D02*
X110537714Y-87735580D01*
X110537714Y-87735580D02*
X110585333Y-87783200D01*
X110585333Y-87783200D02*
X110680571Y-87830819D01*
X110680571Y-87830819D02*
X110871047Y-87830819D01*
X110871047Y-87830819D02*
X110966285Y-87783200D01*
X110966285Y-87783200D02*
X111013904Y-87735580D01*
X111013904Y-87735580D02*
X111061523Y-87640342D01*
X111061523Y-87640342D02*
X111061523Y-86830819D01*
X111442476Y-86830819D02*
X112061523Y-86830819D01*
X112061523Y-86830819D02*
X111728190Y-87211771D01*
X111728190Y-87211771D02*
X111871047Y-87211771D01*
X111871047Y-87211771D02*
X111966285Y-87259390D01*
X111966285Y-87259390D02*
X112013904Y-87307009D01*
X112013904Y-87307009D02*
X112061523Y-87402247D01*
X112061523Y-87402247D02*
X112061523Y-87640342D01*
X112061523Y-87640342D02*
X112013904Y-87735580D01*
X112013904Y-87735580D02*
X111966285Y-87783200D01*
X111966285Y-87783200D02*
X111871047Y-87830819D01*
X111871047Y-87830819D02*
X111585333Y-87830819D01*
X111585333Y-87830819D02*
X111490095Y-87783200D01*
X111490095Y-87783200D02*
X111442476Y-87735580D01*
X141932819Y-103493866D02*
X141456628Y-103827199D01*
X141932819Y-104065294D02*
X140932819Y-104065294D01*
X140932819Y-104065294D02*
X140932819Y-103684342D01*
X140932819Y-103684342D02*
X140980438Y-103589104D01*
X140980438Y-103589104D02*
X141028057Y-103541485D01*
X141028057Y-103541485D02*
X141123295Y-103493866D01*
X141123295Y-103493866D02*
X141266152Y-103493866D01*
X141266152Y-103493866D02*
X141361390Y-103541485D01*
X141361390Y-103541485D02*
X141409009Y-103589104D01*
X141409009Y-103589104D02*
X141456628Y-103684342D01*
X141456628Y-103684342D02*
X141456628Y-104065294D01*
X140932819Y-102636723D02*
X140932819Y-102827199D01*
X140932819Y-102827199D02*
X140980438Y-102922437D01*
X140980438Y-102922437D02*
X141028057Y-102970056D01*
X141028057Y-102970056D02*
X141170914Y-103065294D01*
X141170914Y-103065294D02*
X141361390Y-103112913D01*
X141361390Y-103112913D02*
X141742342Y-103112913D01*
X141742342Y-103112913D02*
X141837580Y-103065294D01*
X141837580Y-103065294D02*
X141885200Y-103017675D01*
X141885200Y-103017675D02*
X141932819Y-102922437D01*
X141932819Y-102922437D02*
X141932819Y-102731961D01*
X141932819Y-102731961D02*
X141885200Y-102636723D01*
X141885200Y-102636723D02*
X141837580Y-102589104D01*
X141837580Y-102589104D02*
X141742342Y-102541485D01*
X141742342Y-102541485D02*
X141504247Y-102541485D01*
X141504247Y-102541485D02*
X141409009Y-102589104D01*
X141409009Y-102589104D02*
X141361390Y-102636723D01*
X141361390Y-102636723D02*
X141313771Y-102731961D01*
X141313771Y-102731961D02*
X141313771Y-102922437D01*
X141313771Y-102922437D02*
X141361390Y-103017675D01*
X141361390Y-103017675D02*
X141409009Y-103065294D01*
X141409009Y-103065294D02*
X141504247Y-103112913D01*
X171283333Y-100683219D02*
X170950000Y-100207028D01*
X170711905Y-100683219D02*
X170711905Y-99683219D01*
X170711905Y-99683219D02*
X171092857Y-99683219D01*
X171092857Y-99683219D02*
X171188095Y-99730838D01*
X171188095Y-99730838D02*
X171235714Y-99778457D01*
X171235714Y-99778457D02*
X171283333Y-99873695D01*
X171283333Y-99873695D02*
X171283333Y-100016552D01*
X171283333Y-100016552D02*
X171235714Y-100111790D01*
X171235714Y-100111790D02*
X171188095Y-100159409D01*
X171188095Y-100159409D02*
X171092857Y-100207028D01*
X171092857Y-100207028D02*
X170711905Y-100207028D01*
X171616667Y-99683219D02*
X172235714Y-99683219D01*
X172235714Y-99683219D02*
X171902381Y-100064171D01*
X171902381Y-100064171D02*
X172045238Y-100064171D01*
X172045238Y-100064171D02*
X172140476Y-100111790D01*
X172140476Y-100111790D02*
X172188095Y-100159409D01*
X172188095Y-100159409D02*
X172235714Y-100254647D01*
X172235714Y-100254647D02*
X172235714Y-100492742D01*
X172235714Y-100492742D02*
X172188095Y-100587980D01*
X172188095Y-100587980D02*
X172140476Y-100635600D01*
X172140476Y-100635600D02*
X172045238Y-100683219D01*
X172045238Y-100683219D02*
X171759524Y-100683219D01*
X171759524Y-100683219D02*
X171664286Y-100635600D01*
X171664286Y-100635600D02*
X171616667Y-100587980D01*
X160042266Y-118987219D02*
X160042266Y-119701504D01*
X160042266Y-119701504D02*
X159994647Y-119844361D01*
X159994647Y-119844361D02*
X159899409Y-119939600D01*
X159899409Y-119939600D02*
X159756552Y-119987219D01*
X159756552Y-119987219D02*
X159661314Y-119987219D01*
X160947028Y-119320552D02*
X160947028Y-119987219D01*
X160708933Y-118939600D02*
X160470838Y-119653885D01*
X160470838Y-119653885D02*
X161089885Y-119653885D01*
X109597866Y-73267219D02*
X109597866Y-73981504D01*
X109597866Y-73981504D02*
X109550247Y-74124361D01*
X109550247Y-74124361D02*
X109455009Y-74219600D01*
X109455009Y-74219600D02*
X109312152Y-74267219D01*
X109312152Y-74267219D02*
X109216914Y-74267219D01*
X110026438Y-73362457D02*
X110074057Y-73314838D01*
X110074057Y-73314838D02*
X110169295Y-73267219D01*
X110169295Y-73267219D02*
X110407390Y-73267219D01*
X110407390Y-73267219D02*
X110502628Y-73314838D01*
X110502628Y-73314838D02*
X110550247Y-73362457D01*
X110550247Y-73362457D02*
X110597866Y-73457695D01*
X110597866Y-73457695D02*
X110597866Y-73552933D01*
X110597866Y-73552933D02*
X110550247Y-73695790D01*
X110550247Y-73695790D02*
X109978819Y-74267219D01*
X109978819Y-74267219D02*
X110597866Y-74267219D01*
X159991466Y-73216419D02*
X159991466Y-73930704D01*
X159991466Y-73930704D02*
X159943847Y-74073561D01*
X159943847Y-74073561D02*
X159848609Y-74168800D01*
X159848609Y-74168800D02*
X159705752Y-74216419D01*
X159705752Y-74216419D02*
X159610514Y-74216419D01*
X160991466Y-74216419D02*
X160420038Y-74216419D01*
X160705752Y-74216419D02*
X160705752Y-73216419D01*
X160705752Y-73216419D02*
X160610514Y-73359276D01*
X160610514Y-73359276D02*
X160515276Y-73454514D01*
X160515276Y-73454514D02*
X160420038Y-73502133D01*
X118640266Y-119038019D02*
X118640266Y-119752304D01*
X118640266Y-119752304D02*
X118592647Y-119895161D01*
X118592647Y-119895161D02*
X118497409Y-119990400D01*
X118497409Y-119990400D02*
X118354552Y-120038019D01*
X118354552Y-120038019D02*
X118259314Y-120038019D01*
X119021219Y-119038019D02*
X119640266Y-119038019D01*
X119640266Y-119038019D02*
X119306933Y-119418971D01*
X119306933Y-119418971D02*
X119449790Y-119418971D01*
X119449790Y-119418971D02*
X119545028Y-119466590D01*
X119545028Y-119466590D02*
X119592647Y-119514209D01*
X119592647Y-119514209D02*
X119640266Y-119609447D01*
X119640266Y-119609447D02*
X119640266Y-119847542D01*
X119640266Y-119847542D02*
X119592647Y-119942780D01*
X119592647Y-119942780D02*
X119545028Y-119990400D01*
X119545028Y-119990400D02*
X119449790Y-120038019D01*
X119449790Y-120038019D02*
X119164076Y-120038019D01*
X119164076Y-120038019D02*
X119068838Y-119990400D01*
X119068838Y-119990400D02*
X119021219Y-119942780D01*
D15*
%TO.C,C5*%
X133765000Y-109722748D02*
X133765000Y-110245252D01*
X135235000Y-109722748D02*
X135235000Y-110245252D01*
%TO.C,J17*%
X123668000Y-88601000D02*
X124998000Y-88601000D01*
X123668000Y-89931000D02*
X123668000Y-88601000D01*
X123668000Y-91201000D02*
X123668000Y-96341000D01*
X123668000Y-91201000D02*
X126328000Y-91201000D01*
X123668000Y-96341000D02*
X126328000Y-96341000D01*
X126328000Y-91201000D02*
X126328000Y-96341000D01*
%TO.C,R7*%
X153697000Y-102388936D02*
X153697000Y-102843064D01*
X155167000Y-102388936D02*
X155167000Y-102843064D01*
%TO.C,R12*%
X129733000Y-109772936D02*
X129733000Y-110227064D01*
X131203000Y-109772936D02*
X131203000Y-110227064D01*
D12*
%TO.C,U5*%
X112675000Y-100864000D02*
X112675000Y-101039000D01*
X112675000Y-100864000D02*
X115925000Y-100864000D01*
X112675000Y-103939000D02*
X112675000Y-104114000D01*
X112675000Y-104114000D02*
X115925000Y-104114000D01*
X115925000Y-100864000D02*
X115925000Y-101039000D01*
X115925000Y-103939000D02*
X115925000Y-104114000D01*
D15*
X112200000Y-101039000D02*
X111960000Y-100709000D01*
X112440000Y-100709000D01*
X112200000Y-101039000D01*
G36*
X112200000Y-101039000D02*
G01*
X111960000Y-100709000D01*
X112440000Y-100709000D01*
X112200000Y-101039000D01*
G37*
%TO.C,R4*%
X162787064Y-70512000D02*
X162332936Y-70512000D01*
X162787064Y-71982000D02*
X162332936Y-71982000D01*
D16*
%TO.C,U2*%
X131572000Y-83810000D02*
X151892000Y-83810000D01*
X131572000Y-99050000D02*
X131572000Y-83810000D01*
X151892000Y-83810000D02*
X151892000Y-86350000D01*
X151892000Y-99050000D02*
X131572000Y-99050000D01*
X151892000Y-99050000D02*
X151892000Y-96510000D01*
D15*
%TO.C,J14*%
X143982000Y-76852000D02*
X143982000Y-78102000D01*
X144272000Y-77142000D02*
X144272000Y-83112000D01*
X144272000Y-83112000D02*
X151892000Y-83112000D01*
X144282000Y-77152000D02*
X144282000Y-77902000D01*
X144282000Y-77902000D02*
X146082000Y-77902000D01*
X144282000Y-79402000D02*
X145032000Y-79402000D01*
X145032000Y-79402000D02*
X145032000Y-82352000D01*
X145032000Y-82352000D02*
X148082000Y-82352000D01*
X145232000Y-76852000D02*
X143982000Y-76852000D01*
X146082000Y-77152000D02*
X144282000Y-77152000D01*
X146082000Y-77902000D02*
X146082000Y-77152000D01*
X147582000Y-77152000D02*
X147582000Y-77902000D01*
X147582000Y-77902000D02*
X148582000Y-77902000D01*
X148582000Y-77152000D02*
X147582000Y-77152000D01*
X148582000Y-77902000D02*
X148582000Y-77152000D01*
X150082000Y-77152000D02*
X150082000Y-77902000D01*
X150082000Y-77902000D02*
X151882000Y-77902000D01*
X151132000Y-79402000D02*
X151132000Y-82352000D01*
X151132000Y-82352000D02*
X148082000Y-82352000D01*
X151882000Y-77152000D02*
X150082000Y-77152000D01*
X151882000Y-77902000D02*
X151882000Y-77152000D01*
X151882000Y-79402000D02*
X151132000Y-79402000D01*
X151892000Y-77142000D02*
X144272000Y-77142000D01*
X151892000Y-83112000D02*
X151892000Y-77142000D01*
D14*
%TO.C,SW3*%
X168450000Y-107490000D02*
X170383200Y-107490000D01*
X168450000Y-113490000D02*
X168450000Y-107490000D01*
X170383200Y-113490000D02*
X168450000Y-113490000D01*
X172516800Y-107490000D02*
X174450000Y-107490000D01*
X174450000Y-107490000D02*
X174450000Y-113490000D01*
X174450000Y-113490000D02*
X172516800Y-113490000D01*
D15*
%TO.C,J8*%
X163617600Y-88601000D02*
X164947600Y-88601000D01*
X163617600Y-89931000D02*
X163617600Y-88601000D01*
X163617600Y-91201000D02*
X163617600Y-96341000D01*
X163617600Y-91201000D02*
X166277600Y-91201000D01*
X163617600Y-96341000D02*
X166277600Y-96341000D01*
X166277600Y-91201000D02*
X166277600Y-96341000D01*
%TO.C,J6*%
X170120000Y-88601000D02*
X171450000Y-88601000D01*
X170120000Y-89931000D02*
X170120000Y-88601000D01*
X170120000Y-91201000D02*
X170120000Y-96341000D01*
X170120000Y-91201000D02*
X172780000Y-91201000D01*
X170120000Y-96341000D02*
X172780000Y-96341000D01*
X172780000Y-91201000D02*
X172780000Y-96341000D01*
%TO.C,J5*%
X85038400Y-100286400D02*
X99348400Y-100286400D01*
X85038400Y-116006400D02*
X85038400Y-100286400D01*
X85038400Y-116006400D02*
X99348400Y-116006400D01*
X103458400Y-109436400D02*
X103458400Y-105696400D01*
X99348400Y-100286400D02*
G75*
G02*
X103278813Y-103194752I0J-4110000D01*
G01*
X102871357Y-114013206D02*
G75*
G02*
X99348400Y-116006399I-3522956J2116805D01*
G01*
%TO.C,J18*%
X120416800Y-88601000D02*
X121746800Y-88601000D01*
X120416800Y-89931000D02*
X120416800Y-88601000D01*
X120416800Y-91201000D02*
X120416800Y-96341000D01*
X120416800Y-91201000D02*
X123076800Y-91201000D01*
X120416800Y-96341000D02*
X123076800Y-96341000D01*
X123076800Y-91201000D02*
X123076800Y-96341000D01*
%TO.C,R5*%
X142765000Y-104195064D02*
X142765000Y-103740936D01*
X144235000Y-104195064D02*
X144235000Y-103740936D01*
%TO.C,R17*%
X118645000Y-104367064D02*
X118645000Y-103912936D01*
X120115000Y-104367064D02*
X120115000Y-103912936D01*
%TO.C,J7*%
X166868800Y-88601000D02*
X168198800Y-88601000D01*
X166868800Y-89931000D02*
X166868800Y-88601000D01*
X166868800Y-91201000D02*
X166868800Y-96341000D01*
X166868800Y-91201000D02*
X169528800Y-91201000D01*
X166868800Y-96341000D02*
X169528800Y-96341000D01*
X169528800Y-91201000D02*
X169528800Y-96341000D01*
%TO.C,R16*%
X106453000Y-103912936D02*
X106453000Y-104367064D01*
X107923000Y-103912936D02*
X107923000Y-104367064D01*
%TO.C,C3*%
X140233000Y-109738748D02*
X140233000Y-110261252D01*
X141703000Y-109738748D02*
X141703000Y-110261252D01*
%TO.C,J11*%
X148631600Y-88601000D02*
X149961600Y-88601000D01*
X148631600Y-89931000D02*
X148631600Y-88601000D01*
X148631600Y-91201000D02*
X148631600Y-96341000D01*
X148631600Y-91201000D02*
X151291600Y-91201000D01*
X148631600Y-96341000D02*
X151291600Y-96341000D01*
X151291600Y-91201000D02*
X151291600Y-96341000D01*
D14*
%TO.C,D4*%
X129085000Y-107016000D02*
G75*
G02*
X128985000Y-107016000I-50000J0D01*
G01*
X128985000Y-107016000D02*
G75*
G02*
X129085000Y-107016000I50000J0D01*
G01*
D15*
%TO.C,C2*%
X156102000Y-89094437D02*
X156102000Y-94850000D01*
X156102000Y-94850000D02*
X158452000Y-94850000D01*
X157166437Y-88030000D02*
X156102000Y-89094437D01*
X157166437Y-88030000D02*
X158452000Y-88030000D01*
X161359500Y-87002500D02*
X161359500Y-87790000D01*
X161753250Y-87396250D02*
X160965750Y-87396250D01*
X161857563Y-88030000D02*
X160572000Y-88030000D01*
X161857563Y-88030000D02*
X162922000Y-89094437D01*
X162922000Y-89094437D02*
X162922000Y-94850000D01*
X162922000Y-94850000D02*
X160572000Y-94850000D01*
D14*
%TO.C,SW1*%
X149400000Y-107490000D02*
X151333200Y-107490000D01*
X149400000Y-113490000D02*
X149400000Y-107490000D01*
X151333200Y-113490000D02*
X149400000Y-113490000D01*
X153466800Y-107490000D02*
X155400000Y-107490000D01*
X155400000Y-107490000D02*
X155400000Y-113490000D01*
X155400000Y-113490000D02*
X153466800Y-113490000D01*
D15*
%TO.C,R1*%
X151665000Y-102843064D02*
X151665000Y-102388936D01*
X153135000Y-102843064D02*
X153135000Y-102388936D01*
%TO.C,R11*%
X131733000Y-108179064D02*
X131733000Y-107724936D01*
X133203000Y-108179064D02*
X133203000Y-107724936D01*
%TO.C,R8*%
X138201000Y-108195064D02*
X138201000Y-107740936D01*
X139671000Y-108195064D02*
X139671000Y-107740936D01*
D14*
%TO.C,SW5*%
X106220000Y-107461800D02*
X108153200Y-107461800D01*
X106220000Y-113461800D02*
X106220000Y-107461800D01*
X108153200Y-113461800D02*
X106220000Y-113461800D01*
X110286800Y-107461800D02*
X112220000Y-107461800D01*
X112220000Y-107461800D02*
X112220000Y-113461800D01*
X112220000Y-113461800D02*
X110286800Y-113461800D01*
D15*
%TO.C,R10*%
X134901000Y-102388936D02*
X134901000Y-102843064D01*
X136371000Y-102388936D02*
X136371000Y-102843064D01*
%TO.C,J24*%
X100782000Y-76869000D02*
X100782000Y-78119000D01*
X101072000Y-77159000D02*
X101072000Y-83129000D01*
X101072000Y-83129000D02*
X108692000Y-83129000D01*
X101082000Y-77169000D02*
X101082000Y-77919000D01*
X101082000Y-77919000D02*
X102882000Y-77919000D01*
X101082000Y-79419000D02*
X101832000Y-79419000D01*
X101832000Y-79419000D02*
X101832000Y-82369000D01*
X101832000Y-82369000D02*
X104882000Y-82369000D01*
X102032000Y-76869000D02*
X100782000Y-76869000D01*
X102882000Y-77169000D02*
X101082000Y-77169000D01*
X102882000Y-77919000D02*
X102882000Y-77169000D01*
X104382000Y-77169000D02*
X104382000Y-77919000D01*
X104382000Y-77919000D02*
X105382000Y-77919000D01*
X105382000Y-77169000D02*
X104382000Y-77169000D01*
X105382000Y-77919000D02*
X105382000Y-77169000D01*
X106882000Y-77169000D02*
X106882000Y-77919000D01*
X106882000Y-77919000D02*
X108682000Y-77919000D01*
X107932000Y-79419000D02*
X107932000Y-82369000D01*
X107932000Y-82369000D02*
X104882000Y-82369000D01*
X108682000Y-77169000D02*
X106882000Y-77169000D01*
X108682000Y-77919000D02*
X108682000Y-77169000D01*
X108682000Y-79419000D02*
X107932000Y-79419000D01*
X108692000Y-77159000D02*
X101072000Y-77159000D01*
X108692000Y-83129000D02*
X108692000Y-77159000D01*
%TO.C,J20*%
X109605000Y-76852000D02*
X109605000Y-78102000D01*
X109895000Y-77142000D02*
X109895000Y-83112000D01*
X109895000Y-83112000D02*
X122515000Y-83112000D01*
X109905000Y-77152000D02*
X109905000Y-77902000D01*
X109905000Y-77902000D02*
X111705000Y-77902000D01*
X109905000Y-79402000D02*
X110655000Y-79402000D01*
X110655000Y-79402000D02*
X110655000Y-82352000D01*
X110655000Y-82352000D02*
X116205000Y-82352000D01*
X110855000Y-76852000D02*
X109605000Y-76852000D01*
X111705000Y-77152000D02*
X109905000Y-77152000D01*
X111705000Y-77902000D02*
X111705000Y-77152000D01*
X113205000Y-77152000D02*
X113205000Y-77902000D01*
X113205000Y-77902000D02*
X119205000Y-77902000D01*
X119205000Y-77152000D02*
X113205000Y-77152000D01*
X119205000Y-77902000D02*
X119205000Y-77152000D01*
X120705000Y-77152000D02*
X120705000Y-77902000D01*
X120705000Y-77902000D02*
X122505000Y-77902000D01*
X121755000Y-79402000D02*
X121755000Y-82352000D01*
X121755000Y-82352000D02*
X116205000Y-82352000D01*
X122505000Y-77152000D02*
X120705000Y-77152000D01*
X122505000Y-77902000D02*
X122505000Y-77152000D01*
X122505000Y-79402000D02*
X121755000Y-79402000D01*
X122515000Y-77142000D02*
X109895000Y-77142000D01*
X122515000Y-83112000D02*
X122515000Y-77142000D01*
%TO.C,J16*%
X126940000Y-88601000D02*
X128270000Y-88601000D01*
X126940000Y-89931000D02*
X126940000Y-88601000D01*
X126940000Y-91201000D02*
X126940000Y-96341000D01*
X126940000Y-91201000D02*
X129600000Y-91201000D01*
X126940000Y-96341000D02*
X129600000Y-96341000D01*
X129600000Y-91201000D02*
X129600000Y-96341000D01*
%TO.C,J21*%
X105350000Y-88601000D02*
X106680000Y-88601000D01*
X105350000Y-89931000D02*
X105350000Y-88601000D01*
X105350000Y-91201000D02*
X105350000Y-96341000D01*
X105350000Y-91201000D02*
X108010000Y-91201000D01*
X105350000Y-96341000D02*
X108010000Y-96341000D01*
X108010000Y-91201000D02*
X108010000Y-96341000D01*
%TO.C,J23*%
X98847600Y-88601000D02*
X100177600Y-88601000D01*
X98847600Y-89931000D02*
X98847600Y-88601000D01*
X98847600Y-91201000D02*
X98847600Y-96341000D01*
X98847600Y-91201000D02*
X101507600Y-91201000D01*
X98847600Y-96341000D02*
X101507600Y-96341000D01*
X101507600Y-91201000D02*
X101507600Y-96341000D01*
%TO.C,J10*%
X152785000Y-76852000D02*
X152785000Y-78102000D01*
X153075000Y-77142000D02*
X153075000Y-83112000D01*
X153075000Y-83112000D02*
X165695000Y-83112000D01*
X153085000Y-77152000D02*
X153085000Y-77902000D01*
X153085000Y-77902000D02*
X154885000Y-77902000D01*
X153085000Y-79402000D02*
X153835000Y-79402000D01*
X153835000Y-79402000D02*
X153835000Y-82352000D01*
X153835000Y-82352000D02*
X159385000Y-82352000D01*
X154035000Y-76852000D02*
X152785000Y-76852000D01*
X154885000Y-77152000D02*
X153085000Y-77152000D01*
X154885000Y-77902000D02*
X154885000Y-77152000D01*
X156385000Y-77152000D02*
X156385000Y-77902000D01*
X156385000Y-77902000D02*
X162385000Y-77902000D01*
X162385000Y-77152000D02*
X156385000Y-77152000D01*
X162385000Y-77902000D02*
X162385000Y-77152000D01*
X163885000Y-77152000D02*
X163885000Y-77902000D01*
X163885000Y-77902000D02*
X165685000Y-77902000D01*
X164935000Y-79402000D02*
X164935000Y-82352000D01*
X164935000Y-82352000D02*
X159385000Y-82352000D01*
X165685000Y-77152000D02*
X163885000Y-77152000D01*
X165685000Y-77902000D02*
X165685000Y-77152000D01*
X165685000Y-79402000D02*
X164935000Y-79402000D01*
X165695000Y-77142000D02*
X153075000Y-77142000D01*
X165695000Y-83112000D02*
X165695000Y-77142000D01*
%TO.C,J25*%
X88015000Y-76852000D02*
X88015000Y-78102000D01*
X88305000Y-77142000D02*
X88305000Y-83112000D01*
X88305000Y-83112000D02*
X100925000Y-83112000D01*
X88315000Y-77152000D02*
X88315000Y-77902000D01*
X88315000Y-77902000D02*
X90115000Y-77902000D01*
X88315000Y-79402000D02*
X89065000Y-79402000D01*
X89065000Y-79402000D02*
X89065000Y-82352000D01*
X89065000Y-82352000D02*
X94615000Y-82352000D01*
X89265000Y-76852000D02*
X88015000Y-76852000D01*
X90115000Y-77152000D02*
X88315000Y-77152000D01*
X90115000Y-77902000D02*
X90115000Y-77152000D01*
X91615000Y-77152000D02*
X91615000Y-77902000D01*
X91615000Y-77902000D02*
X97615000Y-77902000D01*
X97615000Y-77152000D02*
X91615000Y-77152000D01*
X97615000Y-77902000D02*
X97615000Y-77152000D01*
X99115000Y-77152000D02*
X99115000Y-77902000D01*
X99115000Y-77902000D02*
X100915000Y-77902000D01*
X100165000Y-79402000D02*
X100165000Y-82352000D01*
X100165000Y-82352000D02*
X94615000Y-82352000D01*
X100915000Y-77152000D02*
X99115000Y-77152000D01*
X100915000Y-77902000D02*
X100915000Y-77152000D01*
X100915000Y-79402000D02*
X100165000Y-79402000D01*
X100925000Y-77142000D02*
X88305000Y-77142000D01*
X100925000Y-83112000D02*
X100925000Y-77142000D01*
%TO.C,C1*%
X144797000Y-105738748D02*
X144797000Y-106261252D01*
X146267000Y-105738748D02*
X146267000Y-106261252D01*
D16*
%TO.C,U1*%
X153162000Y-83810000D02*
X173482000Y-83810000D01*
X153162000Y-99050000D02*
X153162000Y-83810000D01*
X173482000Y-83810000D02*
X173482000Y-86350000D01*
X173482000Y-99050000D02*
X153162000Y-99050000D01*
X173482000Y-99050000D02*
X173482000Y-96510000D01*
D15*
%TO.C,R14*%
X127265000Y-104195064D02*
X127265000Y-103740936D01*
X128735000Y-104195064D02*
X128735000Y-103740936D01*
%TO.C,J13*%
X142027600Y-88601000D02*
X143357600Y-88601000D01*
X142027600Y-89931000D02*
X142027600Y-88601000D01*
X142027600Y-91201000D02*
X142027600Y-96341000D01*
X142027600Y-91201000D02*
X144687600Y-91201000D01*
X142027600Y-96341000D02*
X144687600Y-96341000D01*
X144687600Y-91201000D02*
X144687600Y-96341000D01*
D14*
%TO.C,D2*%
X140021000Y-111016000D02*
G75*
G02*
X139921000Y-111016000I-50000J0D01*
G01*
X139921000Y-111016000D02*
G75*
G02*
X140021000Y-111016000I50000J0D01*
G01*
D15*
%TO.C,C7*%
X129297000Y-105738748D02*
X129297000Y-106261252D01*
X130767000Y-105738748D02*
X130767000Y-106261252D01*
%TO.C,J15*%
X131189600Y-76860400D02*
X131189600Y-78110400D01*
X131479600Y-77150400D02*
X131479600Y-83120400D01*
X131479600Y-83120400D02*
X144099600Y-83120400D01*
X131489600Y-77160400D02*
X131489600Y-77910400D01*
X131489600Y-77910400D02*
X133289600Y-77910400D01*
X131489600Y-79410400D02*
X132239600Y-79410400D01*
X132239600Y-79410400D02*
X132239600Y-82360400D01*
X132239600Y-82360400D02*
X137789600Y-82360400D01*
X132439600Y-76860400D02*
X131189600Y-76860400D01*
X133289600Y-77160400D02*
X131489600Y-77160400D01*
X133289600Y-77910400D02*
X133289600Y-77160400D01*
X134789600Y-77160400D02*
X134789600Y-77910400D01*
X134789600Y-77910400D02*
X140789600Y-77910400D01*
X140789600Y-77160400D02*
X134789600Y-77160400D01*
X140789600Y-77910400D02*
X140789600Y-77160400D01*
X142289600Y-77160400D02*
X142289600Y-77910400D01*
X142289600Y-77910400D02*
X144089600Y-77910400D01*
X143339600Y-79410400D02*
X143339600Y-82360400D01*
X143339600Y-82360400D02*
X137789600Y-82360400D01*
X144089600Y-77160400D02*
X142289600Y-77160400D01*
X144089600Y-77910400D02*
X144089600Y-77160400D01*
X144089600Y-79410400D02*
X143339600Y-79410400D01*
X144099600Y-77150400D02*
X131479600Y-77150400D01*
X144099600Y-83120400D02*
X144099600Y-77150400D01*
D14*
%TO.C,SW4*%
X116380000Y-107490000D02*
X118313200Y-107490000D01*
X116380000Y-113490000D02*
X116380000Y-107490000D01*
X118313200Y-113490000D02*
X116380000Y-113490000D01*
X120446800Y-107490000D02*
X122380000Y-107490000D01*
X122380000Y-107490000D02*
X122380000Y-113490000D01*
X122380000Y-113490000D02*
X120446800Y-113490000D01*
D15*
%TO.C,R13*%
X120677000Y-103912936D02*
X120677000Y-104367064D01*
X122147000Y-103912936D02*
X122147000Y-104367064D01*
D14*
%TO.C,SW2*%
X159560000Y-107490000D02*
X161493200Y-107490000D01*
X159560000Y-113490000D02*
X159560000Y-107490000D01*
X161493200Y-113490000D02*
X159560000Y-113490000D01*
X163626800Y-107490000D02*
X165560000Y-107490000D01*
X165560000Y-107490000D02*
X165560000Y-113490000D01*
X165560000Y-113490000D02*
X163626800Y-113490000D01*
D15*
%TO.C,C4*%
X134512000Y-89094437D02*
X134512000Y-94850000D01*
X134512000Y-94850000D02*
X136862000Y-94850000D01*
X135576437Y-88030000D02*
X134512000Y-89094437D01*
X135576437Y-88030000D02*
X136862000Y-88030000D01*
X139769500Y-87002500D02*
X139769500Y-87790000D01*
X140163250Y-87396250D02*
X139375750Y-87396250D01*
X140267563Y-88030000D02*
X138982000Y-88030000D01*
X140267563Y-88030000D02*
X141332000Y-89094437D01*
X141332000Y-89094437D02*
X141332000Y-94850000D01*
X141332000Y-94850000D02*
X138982000Y-94850000D01*
%TO.C,R2*%
X161825000Y-102843064D02*
X161825000Y-102388936D01*
X163295000Y-102843064D02*
X163295000Y-102388936D01*
%TO.C,R9*%
X136169000Y-109772936D02*
X136169000Y-110227064D01*
X137639000Y-109772936D02*
X137639000Y-110227064D01*
D16*
%TO.C,U4*%
X88392000Y-83815000D02*
X108712000Y-83815000D01*
X88392000Y-99055000D02*
X88392000Y-83815000D01*
X108712000Y-83815000D02*
X108712000Y-86355000D01*
X108712000Y-99055000D02*
X88392000Y-99055000D01*
X108712000Y-99055000D02*
X108712000Y-96515000D01*
D15*
%TO.C,R18*%
X108485000Y-104367064D02*
X108485000Y-103912936D01*
X109955000Y-104367064D02*
X109955000Y-103912936D01*
D14*
%TO.C,D3*%
X133585000Y-111016000D02*
G75*
G02*
X133485000Y-111016000I-50000J0D01*
G01*
X133485000Y-111016000D02*
G75*
G02*
X133585000Y-111016000I50000J0D01*
G01*
D15*
%TO.C,R15*%
X125233000Y-105772936D02*
X125233000Y-106227064D01*
X126703000Y-105772936D02*
X126703000Y-106227064D01*
%TO.C,J9*%
X165572000Y-76852000D02*
X165572000Y-78102000D01*
X165862000Y-77142000D02*
X165862000Y-83112000D01*
X165862000Y-83112000D02*
X173482000Y-83112000D01*
X165872000Y-77152000D02*
X165872000Y-77902000D01*
X165872000Y-77902000D02*
X167672000Y-77902000D01*
X165872000Y-79402000D02*
X166622000Y-79402000D01*
X166622000Y-79402000D02*
X166622000Y-82352000D01*
X166622000Y-82352000D02*
X169672000Y-82352000D01*
X166822000Y-76852000D02*
X165572000Y-76852000D01*
X167672000Y-77152000D02*
X165872000Y-77152000D01*
X167672000Y-77902000D02*
X167672000Y-77152000D01*
X169172000Y-77152000D02*
X169172000Y-77902000D01*
X169172000Y-77902000D02*
X170172000Y-77902000D01*
X170172000Y-77152000D02*
X169172000Y-77152000D01*
X170172000Y-77902000D02*
X170172000Y-77152000D01*
X171672000Y-77152000D02*
X171672000Y-77902000D01*
X171672000Y-77902000D02*
X173472000Y-77902000D01*
X172722000Y-79402000D02*
X172722000Y-82352000D01*
X172722000Y-82352000D02*
X169672000Y-82352000D01*
X173472000Y-77152000D02*
X171672000Y-77152000D01*
X173472000Y-77902000D02*
X173472000Y-77152000D01*
X173472000Y-79402000D02*
X172722000Y-79402000D01*
X173482000Y-77142000D02*
X165862000Y-77142000D01*
X173482000Y-83112000D02*
X173482000Y-77142000D01*
D14*
%TO.C,D1*%
X144585000Y-107016000D02*
G75*
G02*
X144485000Y-107016000I-50000J0D01*
G01*
X144485000Y-107016000D02*
G75*
G02*
X144585000Y-107016000I50000J0D01*
G01*
D15*
%TO.C,J19*%
X122392000Y-76852000D02*
X122392000Y-78102000D01*
X122682000Y-77142000D02*
X122682000Y-83112000D01*
X122682000Y-83112000D02*
X130302000Y-83112000D01*
X122692000Y-77152000D02*
X122692000Y-77902000D01*
X122692000Y-77902000D02*
X124492000Y-77902000D01*
X122692000Y-79402000D02*
X123442000Y-79402000D01*
X123442000Y-79402000D02*
X123442000Y-82352000D01*
X123442000Y-82352000D02*
X126492000Y-82352000D01*
X123642000Y-76852000D02*
X122392000Y-76852000D01*
X124492000Y-77152000D02*
X122692000Y-77152000D01*
X124492000Y-77902000D02*
X124492000Y-77152000D01*
X125992000Y-77152000D02*
X125992000Y-77902000D01*
X125992000Y-77902000D02*
X126992000Y-77902000D01*
X126992000Y-77152000D02*
X125992000Y-77152000D01*
X126992000Y-77902000D02*
X126992000Y-77152000D01*
X128492000Y-77152000D02*
X128492000Y-77902000D01*
X128492000Y-77902000D02*
X130292000Y-77902000D01*
X129542000Y-79402000D02*
X129542000Y-82352000D01*
X129542000Y-82352000D02*
X126492000Y-82352000D01*
X130292000Y-77152000D02*
X128492000Y-77152000D01*
X130292000Y-77902000D02*
X130292000Y-77152000D01*
X130292000Y-79402000D02*
X129542000Y-79402000D01*
X130302000Y-77142000D02*
X122682000Y-77142000D01*
X130302000Y-83112000D02*
X130302000Y-77142000D01*
%TO.C,C6*%
X112871200Y-89094437D02*
X112871200Y-94850000D01*
X112871200Y-94850000D02*
X115221200Y-94850000D01*
X113935637Y-88030000D02*
X112871200Y-89094437D01*
X113935637Y-88030000D02*
X115221200Y-88030000D01*
X118128700Y-87002500D02*
X118128700Y-87790000D01*
X118522450Y-87396250D02*
X117734950Y-87396250D01*
X118626763Y-88030000D02*
X117341200Y-88030000D01*
X118626763Y-88030000D02*
X119691200Y-89094437D01*
X119691200Y-89094437D02*
X119691200Y-94850000D01*
X119691200Y-94850000D02*
X117341200Y-94850000D01*
%TO.C,C8*%
X91332000Y-89094437D02*
X91332000Y-94850000D01*
X91332000Y-94850000D02*
X93682000Y-94850000D01*
X92396437Y-88030000D02*
X91332000Y-89094437D01*
X92396437Y-88030000D02*
X93682000Y-88030000D01*
X96589500Y-87002500D02*
X96589500Y-87790000D01*
X96983250Y-87396250D02*
X96195750Y-87396250D01*
X97087563Y-88030000D02*
X95802000Y-88030000D01*
X97087563Y-88030000D02*
X98152000Y-89094437D01*
X98152000Y-89094437D02*
X98152000Y-94850000D01*
X98152000Y-94850000D02*
X95802000Y-94850000D01*
D16*
%TO.C,U3*%
X109982000Y-83820000D02*
X130302000Y-83820000D01*
X109982000Y-99060000D02*
X109982000Y-83820000D01*
X130302000Y-83820000D02*
X130302000Y-86360000D01*
X130302000Y-99060000D02*
X109982000Y-99060000D01*
X130302000Y-99060000D02*
X130302000Y-96520000D01*
D15*
%TO.C,J12*%
X145329600Y-88601000D02*
X146659600Y-88601000D01*
X145329600Y-89931000D02*
X145329600Y-88601000D01*
X145329600Y-91201000D02*
X145329600Y-96341000D01*
X145329600Y-91201000D02*
X147989600Y-91201000D01*
X145329600Y-96341000D02*
X147989600Y-96341000D01*
X147989600Y-91201000D02*
X147989600Y-96341000D01*
%TO.C,R6*%
X140733000Y-105772936D02*
X140733000Y-106227064D01*
X142203000Y-105772936D02*
X142203000Y-106227064D01*
%TO.C,J22*%
X102098800Y-88601000D02*
X103428800Y-88601000D01*
X102098800Y-89931000D02*
X102098800Y-88601000D01*
X102098800Y-91201000D02*
X102098800Y-96341000D01*
X102098800Y-91201000D02*
X104758800Y-91201000D01*
X102098800Y-96341000D02*
X104758800Y-96341000D01*
X104758800Y-91201000D02*
X104758800Y-96341000D01*
%TO.C,R3*%
X170715000Y-102843064D02*
X170715000Y-102388936D01*
X172185000Y-102843064D02*
X172185000Y-102388936D01*
%TD*%
D17*
X87311222Y-70274168D03*
X124998000Y-89931000D03*
X124998000Y-92471000D03*
X124998000Y-95011000D03*
X87311222Y-120058168D03*
X150622000Y-85080000D03*
X148082000Y-85080000D03*
X145542000Y-85080000D03*
X143002000Y-85080000D03*
X140462000Y-85080000D03*
X137922000Y-85080000D03*
X135382000Y-85080000D03*
X132842000Y-85080000D03*
X150622000Y-97780000D03*
X148082000Y-97780000D03*
X145542000Y-97780000D03*
X143002000Y-97780000D03*
X140462000Y-97780000D03*
X137922000Y-97780000D03*
X135382000Y-97780000D03*
X132842000Y-97780000D03*
X132842000Y-92700000D03*
X132842000Y-95240000D03*
X146832000Y-79602000D03*
X149332000Y-79602000D03*
X164947600Y-89931000D03*
X164947600Y-92471000D03*
X164947600Y-95011000D03*
X171450000Y-89931000D03*
X171450000Y-92471000D03*
X171450000Y-95011000D03*
D18*
X95498400Y-114896400D03*
D17*
X101498400Y-111746400D03*
D18*
X95498400Y-101396400D03*
D17*
X101498400Y-104546400D03*
X121746800Y-89931000D03*
X121746800Y-92471000D03*
X121746800Y-95011000D03*
X168198800Y-89931000D03*
X168198800Y-92471000D03*
X168198800Y-95011000D03*
X149961600Y-89931000D03*
X149961600Y-92471000D03*
X149961600Y-95011000D03*
X103632000Y-79619000D03*
X106132000Y-79619000D03*
X112455000Y-79602000D03*
X114955000Y-79602000D03*
X117455000Y-79602000D03*
X119955000Y-79602000D03*
X128270000Y-89931000D03*
X128270000Y-92471000D03*
X128270000Y-95011000D03*
X106680000Y-89931000D03*
X106680000Y-92471000D03*
X106680000Y-95011000D03*
X100177600Y-89931000D03*
X100177600Y-92471000D03*
X100177600Y-95011000D03*
X155635000Y-79602000D03*
X158135000Y-79602000D03*
X160635000Y-79602000D03*
X163135000Y-79602000D03*
X90865000Y-79602000D03*
X93365000Y-79602000D03*
X95865000Y-79602000D03*
X98365000Y-79602000D03*
X172212000Y-85080000D03*
X169672000Y-85080000D03*
X167132000Y-85080000D03*
X164592000Y-85080000D03*
X162052000Y-85080000D03*
X159512000Y-85080000D03*
X156972000Y-85080000D03*
X154432000Y-85080000D03*
X172212000Y-97780000D03*
X169672000Y-97780000D03*
X167132000Y-97780000D03*
X164592000Y-97780000D03*
X162052000Y-97780000D03*
X159512000Y-97780000D03*
X156972000Y-97780000D03*
X154432000Y-97780000D03*
X154432000Y-92700000D03*
X154432000Y-95240000D03*
X143357600Y-89931000D03*
X143357600Y-92471000D03*
X143357600Y-95011000D03*
X134039600Y-79610400D03*
X136539600Y-79610400D03*
X139039600Y-79610400D03*
X141539600Y-79610400D03*
X174306222Y-70274168D03*
X107442000Y-85085000D03*
X104902000Y-85085000D03*
X102362000Y-85085000D03*
X99822000Y-85085000D03*
X97282000Y-85085000D03*
X94742000Y-85085000D03*
X92202000Y-85085000D03*
X89662000Y-85085000D03*
X107442000Y-97785000D03*
X104902000Y-97785000D03*
X102362000Y-97785000D03*
X99822000Y-97785000D03*
X97282000Y-97785000D03*
X94742000Y-97785000D03*
X92202000Y-97785000D03*
X89662000Y-97785000D03*
X89662000Y-92705000D03*
X89662000Y-95245000D03*
X174306222Y-120058168D03*
X168422000Y-79602000D03*
X170922000Y-79602000D03*
X125242000Y-79602000D03*
X127742000Y-79602000D03*
X129032000Y-85090000D03*
X126492000Y-85090000D03*
X123952000Y-85090000D03*
X121412000Y-85090000D03*
X118872000Y-85090000D03*
X116332000Y-85090000D03*
X113792000Y-85090000D03*
X111252000Y-85090000D03*
X129032000Y-97790000D03*
X126492000Y-97790000D03*
X123952000Y-97790000D03*
X121412000Y-97790000D03*
X118872000Y-97790000D03*
X116332000Y-97790000D03*
X113792000Y-97790000D03*
X111252000Y-97790000D03*
X111252000Y-92710000D03*
X111252000Y-95250000D03*
X146659600Y-89931000D03*
X146659600Y-92471000D03*
X146659600Y-95011000D03*
X103428800Y-89931000D03*
X103428800Y-92471000D03*
X103428800Y-95011000D03*
X144843222Y-117005168D03*
X144843222Y-119545168D03*
X147383222Y-117005168D03*
X147383222Y-119545168D03*
X149923222Y-117005168D03*
X149923222Y-119545168D03*
X152463222Y-117005168D03*
X152463222Y-119545168D03*
X155003222Y-117005168D03*
X155003222Y-119545168D03*
X157543222Y-117005168D03*
X157543222Y-119545168D03*
X135693222Y-73835168D03*
X135693222Y-71295168D03*
X133153222Y-73835168D03*
X133153222Y-71295168D03*
X130613222Y-73835168D03*
X130613222Y-71295168D03*
X128073222Y-73835168D03*
X128073222Y-71295168D03*
X125533222Y-73835168D03*
X125533222Y-71295168D03*
X122993222Y-73835168D03*
X122993222Y-71295168D03*
X120453222Y-73835168D03*
X120453222Y-71295168D03*
X117913222Y-73835168D03*
X117913222Y-71295168D03*
X115373222Y-73835168D03*
X115373222Y-71295168D03*
X112833222Y-73835168D03*
X112833222Y-71295168D03*
X157517222Y-73810168D03*
X157517222Y-71270168D03*
X154977222Y-73810168D03*
X154977222Y-71270168D03*
X152437222Y-73810168D03*
X152437222Y-71270168D03*
X149897222Y-73810168D03*
X149897222Y-71270168D03*
X147357222Y-73810168D03*
X147357222Y-71270168D03*
X144817222Y-73810168D03*
X144817222Y-71270168D03*
X142277222Y-73810168D03*
X142277222Y-71270168D03*
X139737222Y-73810168D03*
X139737222Y-71270168D03*
X121997222Y-117005168D03*
X121997222Y-119545168D03*
X124537222Y-117005168D03*
X124537222Y-119545168D03*
X127077222Y-117005168D03*
X127077222Y-119545168D03*
X129617222Y-117005168D03*
X129617222Y-119545168D03*
X132157222Y-117005168D03*
X132157222Y-119545168D03*
X134697222Y-117005168D03*
X134697222Y-119545168D03*
X137237222Y-117005168D03*
X137237222Y-119545168D03*
X139777222Y-117005168D03*
X139777222Y-119545168D03*
M02*
