%TF.GenerationSoftware,KiCad,Pcbnew,8.0.3*%
%TF.CreationDate,2024-06-30T11:50:47+02:00*%
%TF.ProjectId,StepperDriver-Shield_FRDM-MCXA153,53746570-7065-4724-9472-697665722d53,rev?*%
%TF.SameCoordinates,Original*%
%TF.FileFunction,Legend,Top*%
%TF.FilePolarity,Positive*%
%FSLAX46Y46*%
G04 Gerber Fmt 4.6, Leading zero omitted, Abs format (unit mm)*
G04 Created by KiCad (PCBNEW 8.0.3) date 2024-06-30 11:50:47*
%MOMM*%
%LPD*%
G01*
G04 APERTURE LIST*
%ADD10C,0.300000*%
%ADD11C,0.250000*%
%ADD12C,0.150000*%
%ADD13C,0.206375*%
%ADD14C,0.100000*%
%ADD15C,0.127000*%
%ADD16C,0.120000*%
%ADD17C,0.350000*%
%ADD18O,1.700000X0.600000*%
G04 APERTURE END LIST*
D10*
X148848028Y-112983489D02*
X147348028Y-112983489D01*
X148062314Y-112983489D02*
X148062314Y-112126346D01*
X148848028Y-112126346D02*
X147348028Y-112126346D01*
X147348028Y-111126345D02*
X147348028Y-110840631D01*
X147348028Y-110840631D02*
X147419457Y-110697774D01*
X147419457Y-110697774D02*
X147562314Y-110554917D01*
X147562314Y-110554917D02*
X147848028Y-110483488D01*
X147848028Y-110483488D02*
X148348028Y-110483488D01*
X148348028Y-110483488D02*
X148633742Y-110554917D01*
X148633742Y-110554917D02*
X148776600Y-110697774D01*
X148776600Y-110697774D02*
X148848028Y-110840631D01*
X148848028Y-110840631D02*
X148848028Y-111126345D01*
X148848028Y-111126345D02*
X148776600Y-111269203D01*
X148776600Y-111269203D02*
X148633742Y-111412060D01*
X148633742Y-111412060D02*
X148348028Y-111483488D01*
X148348028Y-111483488D02*
X147848028Y-111483488D01*
X147848028Y-111483488D02*
X147562314Y-111412060D01*
X147562314Y-111412060D02*
X147419457Y-111269203D01*
X147419457Y-111269203D02*
X147348028Y-111126345D01*
X148848028Y-109840631D02*
X147348028Y-109840631D01*
X147348028Y-109840631D02*
X148419457Y-109340631D01*
X148419457Y-109340631D02*
X147348028Y-108840631D01*
X147348028Y-108840631D02*
X148848028Y-108840631D01*
X148062314Y-108126345D02*
X148062314Y-107626345D01*
X148848028Y-107412059D02*
X148848028Y-108126345D01*
X148848028Y-108126345D02*
X147348028Y-108126345D01*
X147348028Y-108126345D02*
X147348028Y-107412059D01*
X106269310Y-115651914D02*
X106769310Y-115651914D01*
X106983596Y-116437628D02*
X106269310Y-116437628D01*
X106269310Y-116437628D02*
X106269310Y-114937628D01*
X106269310Y-114937628D02*
X106983596Y-114937628D01*
X107626453Y-116437628D02*
X107626453Y-114937628D01*
X107626453Y-114937628D02*
X108483596Y-116437628D01*
X108483596Y-116437628D02*
X108483596Y-114937628D01*
D11*
X97010219Y-112646517D02*
X97724504Y-112646517D01*
X97724504Y-112646517D02*
X97867361Y-112694136D01*
X97867361Y-112694136D02*
X97962600Y-112789374D01*
X97962600Y-112789374D02*
X98010219Y-112932231D01*
X98010219Y-112932231D02*
X98010219Y-113027469D01*
X98010219Y-111694136D02*
X98010219Y-112170326D01*
X98010219Y-112170326D02*
X97010219Y-112170326D01*
X97914980Y-110789374D02*
X97962600Y-110836993D01*
X97962600Y-110836993D02*
X98010219Y-110979850D01*
X98010219Y-110979850D02*
X98010219Y-111075088D01*
X98010219Y-111075088D02*
X97962600Y-111217945D01*
X97962600Y-111217945D02*
X97867361Y-111313183D01*
X97867361Y-111313183D02*
X97772123Y-111360802D01*
X97772123Y-111360802D02*
X97581647Y-111408421D01*
X97581647Y-111408421D02*
X97438790Y-111408421D01*
X97438790Y-111408421D02*
X97248314Y-111360802D01*
X97248314Y-111360802D02*
X97153076Y-111313183D01*
X97153076Y-111313183D02*
X97057838Y-111217945D01*
X97057838Y-111217945D02*
X97010219Y-111075088D01*
X97010219Y-111075088D02*
X97010219Y-110979850D01*
X97010219Y-110979850D02*
X97057838Y-110836993D01*
X97057838Y-110836993D02*
X97105457Y-110789374D01*
X97010219Y-110075088D02*
X97724504Y-110075088D01*
X97724504Y-110075088D02*
X97867361Y-110122707D01*
X97867361Y-110122707D02*
X97962600Y-110217945D01*
X97962600Y-110217945D02*
X98010219Y-110360802D01*
X98010219Y-110360802D02*
X98010219Y-110456040D01*
X98010219Y-109122707D02*
X98010219Y-109598897D01*
X98010219Y-109598897D02*
X97010219Y-109598897D01*
X97914980Y-108217945D02*
X97962600Y-108265564D01*
X97962600Y-108265564D02*
X98010219Y-108408421D01*
X98010219Y-108408421D02*
X98010219Y-108503659D01*
X98010219Y-108503659D02*
X97962600Y-108646516D01*
X97962600Y-108646516D02*
X97867361Y-108741754D01*
X97867361Y-108741754D02*
X97772123Y-108789373D01*
X97772123Y-108789373D02*
X97581647Y-108836992D01*
X97581647Y-108836992D02*
X97438790Y-108836992D01*
X97438790Y-108836992D02*
X97248314Y-108789373D01*
X97248314Y-108789373D02*
X97153076Y-108741754D01*
X97153076Y-108741754D02*
X97057838Y-108646516D01*
X97057838Y-108646516D02*
X97010219Y-108503659D01*
X97010219Y-108503659D02*
X97010219Y-108408421D01*
X97010219Y-108408421D02*
X97057838Y-108265564D01*
X97057838Y-108265564D02*
X97105457Y-108217945D01*
X97010219Y-107503659D02*
X97724504Y-107503659D01*
X97724504Y-107503659D02*
X97867361Y-107551278D01*
X97867361Y-107551278D02*
X97962600Y-107646516D01*
X97962600Y-107646516D02*
X98010219Y-107789373D01*
X98010219Y-107789373D02*
X98010219Y-107884611D01*
X98010219Y-106551278D02*
X98010219Y-107027468D01*
X98010219Y-107027468D02*
X97010219Y-107027468D01*
X97914980Y-105646516D02*
X97962600Y-105694135D01*
X97962600Y-105694135D02*
X98010219Y-105836992D01*
X98010219Y-105836992D02*
X98010219Y-105932230D01*
X98010219Y-105932230D02*
X97962600Y-106075087D01*
X97962600Y-106075087D02*
X97867361Y-106170325D01*
X97867361Y-106170325D02*
X97772123Y-106217944D01*
X97772123Y-106217944D02*
X97581647Y-106265563D01*
X97581647Y-106265563D02*
X97438790Y-106265563D01*
X97438790Y-106265563D02*
X97248314Y-106217944D01*
X97248314Y-106217944D02*
X97153076Y-106170325D01*
X97153076Y-106170325D02*
X97057838Y-106075087D01*
X97057838Y-106075087D02*
X97010219Y-105932230D01*
X97010219Y-105932230D02*
X97010219Y-105836992D01*
X97010219Y-105836992D02*
X97057838Y-105694135D01*
X97057838Y-105694135D02*
X97105457Y-105646516D01*
X97010219Y-104932230D02*
X97724504Y-104932230D01*
X97724504Y-104932230D02*
X97867361Y-104979849D01*
X97867361Y-104979849D02*
X97962600Y-105075087D01*
X97962600Y-105075087D02*
X98010219Y-105217944D01*
X98010219Y-105217944D02*
X98010219Y-105313182D01*
X98010219Y-103979849D02*
X98010219Y-104456039D01*
X98010219Y-104456039D02*
X97010219Y-104456039D01*
X97914980Y-103075087D02*
X97962600Y-103122706D01*
X97962600Y-103122706D02*
X98010219Y-103265563D01*
X98010219Y-103265563D02*
X98010219Y-103360801D01*
X98010219Y-103360801D02*
X97962600Y-103503658D01*
X97962600Y-103503658D02*
X97867361Y-103598896D01*
X97867361Y-103598896D02*
X97772123Y-103646515D01*
X97772123Y-103646515D02*
X97581647Y-103694134D01*
X97581647Y-103694134D02*
X97438790Y-103694134D01*
X97438790Y-103694134D02*
X97248314Y-103646515D01*
X97248314Y-103646515D02*
X97153076Y-103598896D01*
X97153076Y-103598896D02*
X97057838Y-103503658D01*
X97057838Y-103503658D02*
X97010219Y-103360801D01*
X97010219Y-103360801D02*
X97010219Y-103265563D01*
X97010219Y-103265563D02*
X97057838Y-103122706D01*
X97057838Y-103122706D02*
X97105457Y-103075087D01*
D10*
X158987400Y-114477317D02*
X159058828Y-114263032D01*
X159058828Y-114263032D02*
X159058828Y-113905889D01*
X159058828Y-113905889D02*
X158987400Y-113763032D01*
X158987400Y-113763032D02*
X158915971Y-113691603D01*
X158915971Y-113691603D02*
X158773114Y-113620174D01*
X158773114Y-113620174D02*
X158630257Y-113620174D01*
X158630257Y-113620174D02*
X158487400Y-113691603D01*
X158487400Y-113691603D02*
X158415971Y-113763032D01*
X158415971Y-113763032D02*
X158344542Y-113905889D01*
X158344542Y-113905889D02*
X158273114Y-114191603D01*
X158273114Y-114191603D02*
X158201685Y-114334460D01*
X158201685Y-114334460D02*
X158130257Y-114405889D01*
X158130257Y-114405889D02*
X157987400Y-114477317D01*
X157987400Y-114477317D02*
X157844542Y-114477317D01*
X157844542Y-114477317D02*
X157701685Y-114405889D01*
X157701685Y-114405889D02*
X157630257Y-114334460D01*
X157630257Y-114334460D02*
X157558828Y-114191603D01*
X157558828Y-114191603D02*
X157558828Y-113834460D01*
X157558828Y-113834460D02*
X157630257Y-113620174D01*
X158058828Y-113120175D02*
X159058828Y-112834461D01*
X159058828Y-112834461D02*
X158344542Y-112548746D01*
X158344542Y-112548746D02*
X159058828Y-112263032D01*
X159058828Y-112263032D02*
X158058828Y-111977318D01*
X159058828Y-111405889D02*
X158058828Y-111405889D01*
X157558828Y-111405889D02*
X157630257Y-111477317D01*
X157630257Y-111477317D02*
X157701685Y-111405889D01*
X157701685Y-111405889D02*
X157630257Y-111334460D01*
X157630257Y-111334460D02*
X157558828Y-111405889D01*
X157558828Y-111405889D02*
X157701685Y-111405889D01*
X158058828Y-110905888D02*
X158058828Y-110334460D01*
X157558828Y-110691603D02*
X158844542Y-110691603D01*
X158844542Y-110691603D02*
X158987400Y-110620174D01*
X158987400Y-110620174D02*
X159058828Y-110477317D01*
X159058828Y-110477317D02*
X159058828Y-110334460D01*
X158987400Y-109191603D02*
X159058828Y-109334460D01*
X159058828Y-109334460D02*
X159058828Y-109620174D01*
X159058828Y-109620174D02*
X158987400Y-109763031D01*
X158987400Y-109763031D02*
X158915971Y-109834460D01*
X158915971Y-109834460D02*
X158773114Y-109905888D01*
X158773114Y-109905888D02*
X158344542Y-109905888D01*
X158344542Y-109905888D02*
X158201685Y-109834460D01*
X158201685Y-109834460D02*
X158130257Y-109763031D01*
X158130257Y-109763031D02*
X158058828Y-109620174D01*
X158058828Y-109620174D02*
X158058828Y-109334460D01*
X158058828Y-109334460D02*
X158130257Y-109191603D01*
X159058828Y-108548746D02*
X157558828Y-108548746D01*
X159058828Y-107905889D02*
X158273114Y-107905889D01*
X158273114Y-107905889D02*
X158130257Y-107977317D01*
X158130257Y-107977317D02*
X158058828Y-108120174D01*
X158058828Y-108120174D02*
X158058828Y-108334460D01*
X158058828Y-108334460D02*
X158130257Y-108477317D01*
X158130257Y-108477317D02*
X158201685Y-108548746D01*
X159058828Y-106405888D02*
X159058828Y-107263031D01*
X159058828Y-106834460D02*
X157558828Y-106834460D01*
X157558828Y-106834460D02*
X157773114Y-106977317D01*
X157773114Y-106977317D02*
X157915971Y-107120174D01*
X157915971Y-107120174D02*
X157987400Y-107263031D01*
D12*
X1989371Y-23198100D02*
X3132229Y-23198100D01*
X147301179Y-88109419D02*
X147301179Y-87109419D01*
X147301179Y-87109419D02*
X147634512Y-87823704D01*
X147634512Y-87823704D02*
X147967845Y-87109419D01*
X147967845Y-87109419D02*
X147967845Y-88109419D01*
X148396417Y-88061800D02*
X148539274Y-88109419D01*
X148539274Y-88109419D02*
X148777369Y-88109419D01*
X148777369Y-88109419D02*
X148872607Y-88061800D01*
X148872607Y-88061800D02*
X148920226Y-88014180D01*
X148920226Y-88014180D02*
X148967845Y-87918942D01*
X148967845Y-87918942D02*
X148967845Y-87823704D01*
X148967845Y-87823704D02*
X148920226Y-87728466D01*
X148920226Y-87728466D02*
X148872607Y-87680847D01*
X148872607Y-87680847D02*
X148777369Y-87633228D01*
X148777369Y-87633228D02*
X148586893Y-87585609D01*
X148586893Y-87585609D02*
X148491655Y-87537990D01*
X148491655Y-87537990D02*
X148444036Y-87490371D01*
X148444036Y-87490371D02*
X148396417Y-87395133D01*
X148396417Y-87395133D02*
X148396417Y-87299895D01*
X148396417Y-87299895D02*
X148444036Y-87204657D01*
X148444036Y-87204657D02*
X148491655Y-87157038D01*
X148491655Y-87157038D02*
X148586893Y-87109419D01*
X148586893Y-87109419D02*
X148824988Y-87109419D01*
X148824988Y-87109419D02*
X148967845Y-87157038D01*
X149348798Y-87204657D02*
X149396417Y-87157038D01*
X149396417Y-87157038D02*
X149491655Y-87109419D01*
X149491655Y-87109419D02*
X149729750Y-87109419D01*
X149729750Y-87109419D02*
X149824988Y-87157038D01*
X149824988Y-87157038D02*
X149872607Y-87204657D01*
X149872607Y-87204657D02*
X149920226Y-87299895D01*
X149920226Y-87299895D02*
X149920226Y-87395133D01*
X149920226Y-87395133D02*
X149872607Y-87537990D01*
X149872607Y-87537990D02*
X149301179Y-88109419D01*
X149301179Y-88109419D02*
X149920226Y-88109419D01*
X108337579Y-89912866D02*
X109099484Y-89912866D01*
X108718531Y-90293819D02*
X108718531Y-89531914D01*
X104070379Y-88109419D02*
X104070379Y-87109419D01*
X104070379Y-87109419D02*
X104403712Y-87823704D01*
X104403712Y-87823704D02*
X104737045Y-87109419D01*
X104737045Y-87109419D02*
X104737045Y-88109419D01*
X105165617Y-88061800D02*
X105308474Y-88109419D01*
X105308474Y-88109419D02*
X105546569Y-88109419D01*
X105546569Y-88109419D02*
X105641807Y-88061800D01*
X105641807Y-88061800D02*
X105689426Y-88014180D01*
X105689426Y-88014180D02*
X105737045Y-87918942D01*
X105737045Y-87918942D02*
X105737045Y-87823704D01*
X105737045Y-87823704D02*
X105689426Y-87728466D01*
X105689426Y-87728466D02*
X105641807Y-87680847D01*
X105641807Y-87680847D02*
X105546569Y-87633228D01*
X105546569Y-87633228D02*
X105356093Y-87585609D01*
X105356093Y-87585609D02*
X105260855Y-87537990D01*
X105260855Y-87537990D02*
X105213236Y-87490371D01*
X105213236Y-87490371D02*
X105165617Y-87395133D01*
X105165617Y-87395133D02*
X105165617Y-87299895D01*
X105165617Y-87299895D02*
X105213236Y-87204657D01*
X105213236Y-87204657D02*
X105260855Y-87157038D01*
X105260855Y-87157038D02*
X105356093Y-87109419D01*
X105356093Y-87109419D02*
X105594188Y-87109419D01*
X105594188Y-87109419D02*
X105737045Y-87157038D01*
X106117998Y-87204657D02*
X106165617Y-87157038D01*
X106165617Y-87157038D02*
X106260855Y-87109419D01*
X106260855Y-87109419D02*
X106498950Y-87109419D01*
X106498950Y-87109419D02*
X106594188Y-87157038D01*
X106594188Y-87157038D02*
X106641807Y-87204657D01*
X106641807Y-87204657D02*
X106689426Y-87299895D01*
X106689426Y-87299895D02*
X106689426Y-87395133D01*
X106689426Y-87395133D02*
X106641807Y-87537990D01*
X106641807Y-87537990D02*
X106070379Y-88109419D01*
X106070379Y-88109419D02*
X106689426Y-88109419D01*
D13*
X157766657Y-76571160D02*
X157294943Y-76571160D01*
X157530800Y-76571160D02*
X157530800Y-75745660D01*
X157530800Y-75745660D02*
X157452181Y-75863589D01*
X157452181Y-75863589D02*
X157373562Y-75942208D01*
X157373562Y-75942208D02*
X157294943Y-75981517D01*
D10*
X167826600Y-114477317D02*
X167898028Y-114263032D01*
X167898028Y-114263032D02*
X167898028Y-113905889D01*
X167898028Y-113905889D02*
X167826600Y-113763032D01*
X167826600Y-113763032D02*
X167755171Y-113691603D01*
X167755171Y-113691603D02*
X167612314Y-113620174D01*
X167612314Y-113620174D02*
X167469457Y-113620174D01*
X167469457Y-113620174D02*
X167326600Y-113691603D01*
X167326600Y-113691603D02*
X167255171Y-113763032D01*
X167255171Y-113763032D02*
X167183742Y-113905889D01*
X167183742Y-113905889D02*
X167112314Y-114191603D01*
X167112314Y-114191603D02*
X167040885Y-114334460D01*
X167040885Y-114334460D02*
X166969457Y-114405889D01*
X166969457Y-114405889D02*
X166826600Y-114477317D01*
X166826600Y-114477317D02*
X166683742Y-114477317D01*
X166683742Y-114477317D02*
X166540885Y-114405889D01*
X166540885Y-114405889D02*
X166469457Y-114334460D01*
X166469457Y-114334460D02*
X166398028Y-114191603D01*
X166398028Y-114191603D02*
X166398028Y-113834460D01*
X166398028Y-113834460D02*
X166469457Y-113620174D01*
X166898028Y-113120175D02*
X167898028Y-112834461D01*
X167898028Y-112834461D02*
X167183742Y-112548746D01*
X167183742Y-112548746D02*
X167898028Y-112263032D01*
X167898028Y-112263032D02*
X166898028Y-111977318D01*
X167898028Y-111405889D02*
X166898028Y-111405889D01*
X166398028Y-111405889D02*
X166469457Y-111477317D01*
X166469457Y-111477317D02*
X166540885Y-111405889D01*
X166540885Y-111405889D02*
X166469457Y-111334460D01*
X166469457Y-111334460D02*
X166398028Y-111405889D01*
X166398028Y-111405889D02*
X166540885Y-111405889D01*
X166898028Y-110905888D02*
X166898028Y-110334460D01*
X166398028Y-110691603D02*
X167683742Y-110691603D01*
X167683742Y-110691603D02*
X167826600Y-110620174D01*
X167826600Y-110620174D02*
X167898028Y-110477317D01*
X167898028Y-110477317D02*
X167898028Y-110334460D01*
X167826600Y-109191603D02*
X167898028Y-109334460D01*
X167898028Y-109334460D02*
X167898028Y-109620174D01*
X167898028Y-109620174D02*
X167826600Y-109763031D01*
X167826600Y-109763031D02*
X167755171Y-109834460D01*
X167755171Y-109834460D02*
X167612314Y-109905888D01*
X167612314Y-109905888D02*
X167183742Y-109905888D01*
X167183742Y-109905888D02*
X167040885Y-109834460D01*
X167040885Y-109834460D02*
X166969457Y-109763031D01*
X166969457Y-109763031D02*
X166898028Y-109620174D01*
X166898028Y-109620174D02*
X166898028Y-109334460D01*
X166898028Y-109334460D02*
X166969457Y-109191603D01*
X167898028Y-108548746D02*
X166398028Y-108548746D01*
X167898028Y-107905889D02*
X167112314Y-107905889D01*
X167112314Y-107905889D02*
X166969457Y-107977317D01*
X166969457Y-107977317D02*
X166898028Y-108120174D01*
X166898028Y-108120174D02*
X166898028Y-108334460D01*
X166898028Y-108334460D02*
X166969457Y-108477317D01*
X166969457Y-108477317D02*
X167040885Y-108548746D01*
X166540885Y-107263031D02*
X166469457Y-107191603D01*
X166469457Y-107191603D02*
X166398028Y-107048746D01*
X166398028Y-107048746D02*
X166398028Y-106691603D01*
X166398028Y-106691603D02*
X166469457Y-106548746D01*
X166469457Y-106548746D02*
X166540885Y-106477317D01*
X166540885Y-106477317D02*
X166683742Y-106405888D01*
X166683742Y-106405888D02*
X166826600Y-106405888D01*
X166826600Y-106405888D02*
X167040885Y-106477317D01*
X167040885Y-106477317D02*
X167898028Y-107334460D01*
X167898028Y-107334460D02*
X167898028Y-106405888D01*
D12*
X144049979Y-88109419D02*
X144049979Y-87109419D01*
X144049979Y-87109419D02*
X144383312Y-87823704D01*
X144383312Y-87823704D02*
X144716645Y-87109419D01*
X144716645Y-87109419D02*
X144716645Y-88109419D01*
X145145217Y-88061800D02*
X145288074Y-88109419D01*
X145288074Y-88109419D02*
X145526169Y-88109419D01*
X145526169Y-88109419D02*
X145621407Y-88061800D01*
X145621407Y-88061800D02*
X145669026Y-88014180D01*
X145669026Y-88014180D02*
X145716645Y-87918942D01*
X145716645Y-87918942D02*
X145716645Y-87823704D01*
X145716645Y-87823704D02*
X145669026Y-87728466D01*
X145669026Y-87728466D02*
X145621407Y-87680847D01*
X145621407Y-87680847D02*
X145526169Y-87633228D01*
X145526169Y-87633228D02*
X145335693Y-87585609D01*
X145335693Y-87585609D02*
X145240455Y-87537990D01*
X145240455Y-87537990D02*
X145192836Y-87490371D01*
X145192836Y-87490371D02*
X145145217Y-87395133D01*
X145145217Y-87395133D02*
X145145217Y-87299895D01*
X145145217Y-87299895D02*
X145192836Y-87204657D01*
X145192836Y-87204657D02*
X145240455Y-87157038D01*
X145240455Y-87157038D02*
X145335693Y-87109419D01*
X145335693Y-87109419D02*
X145573788Y-87109419D01*
X145573788Y-87109419D02*
X145716645Y-87157038D01*
X146669026Y-88109419D02*
X146097598Y-88109419D01*
X146383312Y-88109419D02*
X146383312Y-87109419D01*
X146383312Y-87109419D02*
X146288074Y-87252276D01*
X146288074Y-87252276D02*
X146192836Y-87347514D01*
X146192836Y-87347514D02*
X146097598Y-87395133D01*
X168840379Y-88109419D02*
X168840379Y-87109419D01*
X168840379Y-87109419D02*
X169173712Y-87823704D01*
X169173712Y-87823704D02*
X169507045Y-87109419D01*
X169507045Y-87109419D02*
X169507045Y-88109419D01*
X169935617Y-88061800D02*
X170078474Y-88109419D01*
X170078474Y-88109419D02*
X170316569Y-88109419D01*
X170316569Y-88109419D02*
X170411807Y-88061800D01*
X170411807Y-88061800D02*
X170459426Y-88014180D01*
X170459426Y-88014180D02*
X170507045Y-87918942D01*
X170507045Y-87918942D02*
X170507045Y-87823704D01*
X170507045Y-87823704D02*
X170459426Y-87728466D01*
X170459426Y-87728466D02*
X170411807Y-87680847D01*
X170411807Y-87680847D02*
X170316569Y-87633228D01*
X170316569Y-87633228D02*
X170126093Y-87585609D01*
X170126093Y-87585609D02*
X170030855Y-87537990D01*
X170030855Y-87537990D02*
X169983236Y-87490371D01*
X169983236Y-87490371D02*
X169935617Y-87395133D01*
X169935617Y-87395133D02*
X169935617Y-87299895D01*
X169935617Y-87299895D02*
X169983236Y-87204657D01*
X169983236Y-87204657D02*
X170030855Y-87157038D01*
X170030855Y-87157038D02*
X170126093Y-87109419D01*
X170126093Y-87109419D02*
X170364188Y-87109419D01*
X170364188Y-87109419D02*
X170507045Y-87157038D01*
X170887998Y-87204657D02*
X170935617Y-87157038D01*
X170935617Y-87157038D02*
X171030855Y-87109419D01*
X171030855Y-87109419D02*
X171268950Y-87109419D01*
X171268950Y-87109419D02*
X171364188Y-87157038D01*
X171364188Y-87157038D02*
X171411807Y-87204657D01*
X171411807Y-87204657D02*
X171459426Y-87299895D01*
X171459426Y-87299895D02*
X171459426Y-87395133D01*
X171459426Y-87395133D02*
X171411807Y-87537990D01*
X171411807Y-87537990D02*
X170840379Y-88109419D01*
X170840379Y-88109419D02*
X171459426Y-88109419D01*
X100819179Y-88109419D02*
X100819179Y-87109419D01*
X100819179Y-87109419D02*
X101152512Y-87823704D01*
X101152512Y-87823704D02*
X101485845Y-87109419D01*
X101485845Y-87109419D02*
X101485845Y-88109419D01*
X101914417Y-88061800D02*
X102057274Y-88109419D01*
X102057274Y-88109419D02*
X102295369Y-88109419D01*
X102295369Y-88109419D02*
X102390607Y-88061800D01*
X102390607Y-88061800D02*
X102438226Y-88014180D01*
X102438226Y-88014180D02*
X102485845Y-87918942D01*
X102485845Y-87918942D02*
X102485845Y-87823704D01*
X102485845Y-87823704D02*
X102438226Y-87728466D01*
X102438226Y-87728466D02*
X102390607Y-87680847D01*
X102390607Y-87680847D02*
X102295369Y-87633228D01*
X102295369Y-87633228D02*
X102104893Y-87585609D01*
X102104893Y-87585609D02*
X102009655Y-87537990D01*
X102009655Y-87537990D02*
X101962036Y-87490371D01*
X101962036Y-87490371D02*
X101914417Y-87395133D01*
X101914417Y-87395133D02*
X101914417Y-87299895D01*
X101914417Y-87299895D02*
X101962036Y-87204657D01*
X101962036Y-87204657D02*
X102009655Y-87157038D01*
X102009655Y-87157038D02*
X102104893Y-87109419D01*
X102104893Y-87109419D02*
X102342988Y-87109419D01*
X102342988Y-87109419D02*
X102485845Y-87157038D01*
X103438226Y-88109419D02*
X102866798Y-88109419D01*
X103152512Y-88109419D02*
X103152512Y-87109419D01*
X103152512Y-87109419D02*
X103057274Y-87252276D01*
X103057274Y-87252276D02*
X102962036Y-87347514D01*
X102962036Y-87347514D02*
X102866798Y-87395133D01*
X173132979Y-89912866D02*
X173894884Y-89912866D01*
X173513931Y-90293819D02*
X173513931Y-89531914D01*
X129927579Y-95119866D02*
X130689484Y-95119866D01*
D13*
X145066657Y-115077560D02*
X144594943Y-115077560D01*
X144830800Y-115077560D02*
X144830800Y-114252060D01*
X144830800Y-114252060D02*
X144752181Y-114369989D01*
X144752181Y-114369989D02*
X144673562Y-114448608D01*
X144673562Y-114448608D02*
X144594943Y-114487917D01*
D10*
X116327710Y-116488428D02*
X116327710Y-114988428D01*
X116327710Y-114988428D02*
X116684853Y-114988428D01*
X116684853Y-114988428D02*
X116899139Y-115059857D01*
X116899139Y-115059857D02*
X117041996Y-115202714D01*
X117041996Y-115202714D02*
X117113425Y-115345571D01*
X117113425Y-115345571D02*
X117184853Y-115631285D01*
X117184853Y-115631285D02*
X117184853Y-115845571D01*
X117184853Y-115845571D02*
X117113425Y-116131285D01*
X117113425Y-116131285D02*
X117041996Y-116274142D01*
X117041996Y-116274142D02*
X116899139Y-116417000D01*
X116899139Y-116417000D02*
X116684853Y-116488428D01*
X116684853Y-116488428D02*
X116327710Y-116488428D01*
X117827710Y-116488428D02*
X117827710Y-114988428D01*
X118470568Y-116417000D02*
X118684854Y-116488428D01*
X118684854Y-116488428D02*
X119041996Y-116488428D01*
X119041996Y-116488428D02*
X119184854Y-116417000D01*
X119184854Y-116417000D02*
X119256282Y-116345571D01*
X119256282Y-116345571D02*
X119327711Y-116202714D01*
X119327711Y-116202714D02*
X119327711Y-116059857D01*
X119327711Y-116059857D02*
X119256282Y-115917000D01*
X119256282Y-115917000D02*
X119184854Y-115845571D01*
X119184854Y-115845571D02*
X119041996Y-115774142D01*
X119041996Y-115774142D02*
X118756282Y-115702714D01*
X118756282Y-115702714D02*
X118613425Y-115631285D01*
X118613425Y-115631285D02*
X118541996Y-115559857D01*
X118541996Y-115559857D02*
X118470568Y-115417000D01*
X118470568Y-115417000D02*
X118470568Y-115274142D01*
X118470568Y-115274142D02*
X118541996Y-115131285D01*
X118541996Y-115131285D02*
X118613425Y-115059857D01*
X118613425Y-115059857D02*
X118756282Y-114988428D01*
X118756282Y-114988428D02*
X119113425Y-114988428D01*
X119113425Y-114988428D02*
X119327711Y-115059857D01*
D12*
X173132979Y-95119866D02*
X173894884Y-95119866D01*
X151542979Y-89912866D02*
X152304884Y-89912866D01*
X151923931Y-90293819D02*
X151923931Y-89531914D01*
X125634979Y-88109419D02*
X125634979Y-87109419D01*
X125634979Y-87109419D02*
X125968312Y-87823704D01*
X125968312Y-87823704D02*
X126301645Y-87109419D01*
X126301645Y-87109419D02*
X126301645Y-88109419D01*
X126730217Y-88061800D02*
X126873074Y-88109419D01*
X126873074Y-88109419D02*
X127111169Y-88109419D01*
X127111169Y-88109419D02*
X127206407Y-88061800D01*
X127206407Y-88061800D02*
X127254026Y-88014180D01*
X127254026Y-88014180D02*
X127301645Y-87918942D01*
X127301645Y-87918942D02*
X127301645Y-87823704D01*
X127301645Y-87823704D02*
X127254026Y-87728466D01*
X127254026Y-87728466D02*
X127206407Y-87680847D01*
X127206407Y-87680847D02*
X127111169Y-87633228D01*
X127111169Y-87633228D02*
X126920693Y-87585609D01*
X126920693Y-87585609D02*
X126825455Y-87537990D01*
X126825455Y-87537990D02*
X126777836Y-87490371D01*
X126777836Y-87490371D02*
X126730217Y-87395133D01*
X126730217Y-87395133D02*
X126730217Y-87299895D01*
X126730217Y-87299895D02*
X126777836Y-87204657D01*
X126777836Y-87204657D02*
X126825455Y-87157038D01*
X126825455Y-87157038D02*
X126920693Y-87109419D01*
X126920693Y-87109419D02*
X127158788Y-87109419D01*
X127158788Y-87109419D02*
X127301645Y-87157038D01*
X127682598Y-87204657D02*
X127730217Y-87157038D01*
X127730217Y-87157038D02*
X127825455Y-87109419D01*
X127825455Y-87109419D02*
X128063550Y-87109419D01*
X128063550Y-87109419D02*
X128158788Y-87157038D01*
X128158788Y-87157038D02*
X128206407Y-87204657D01*
X128206407Y-87204657D02*
X128254026Y-87299895D01*
X128254026Y-87299895D02*
X128254026Y-87395133D01*
X128254026Y-87395133D02*
X128206407Y-87537990D01*
X128206407Y-87537990D02*
X127634979Y-88109419D01*
X127634979Y-88109419D02*
X128254026Y-88109419D01*
X14289371Y-23198100D02*
X15432229Y-23198100D01*
X14860800Y-23769528D02*
X14860800Y-22626671D01*
D10*
X140406910Y-100615114D02*
X140906910Y-100615114D01*
X141121196Y-101400828D02*
X140406910Y-101400828D01*
X140406910Y-101400828D02*
X140406910Y-99900828D01*
X140406910Y-99900828D02*
X141121196Y-99900828D01*
X141764053Y-101400828D02*
X141764053Y-99900828D01*
X141764053Y-99900828D02*
X142335482Y-99900828D01*
X142335482Y-99900828D02*
X142478339Y-99972257D01*
X142478339Y-99972257D02*
X142549768Y-100043685D01*
X142549768Y-100043685D02*
X142621196Y-100186542D01*
X142621196Y-100186542D02*
X142621196Y-100400828D01*
X142621196Y-100400828D02*
X142549768Y-100543685D01*
X142549768Y-100543685D02*
X142478339Y-100615114D01*
X142478339Y-100615114D02*
X142335482Y-100686542D01*
X142335482Y-100686542D02*
X141764053Y-100686542D01*
X143192625Y-101329400D02*
X143406911Y-101400828D01*
X143406911Y-101400828D02*
X143764053Y-101400828D01*
X143764053Y-101400828D02*
X143906911Y-101329400D01*
X143906911Y-101329400D02*
X143978339Y-101257971D01*
X143978339Y-101257971D02*
X144049768Y-101115114D01*
X144049768Y-101115114D02*
X144049768Y-100972257D01*
X144049768Y-100972257D02*
X143978339Y-100829400D01*
X143978339Y-100829400D02*
X143906911Y-100757971D01*
X143906911Y-100757971D02*
X143764053Y-100686542D01*
X143764053Y-100686542D02*
X143478339Y-100615114D01*
X143478339Y-100615114D02*
X143335482Y-100543685D01*
X143335482Y-100543685D02*
X143264053Y-100472257D01*
X143264053Y-100472257D02*
X143192625Y-100329400D01*
X143192625Y-100329400D02*
X143192625Y-100186542D01*
X143192625Y-100186542D02*
X143264053Y-100043685D01*
X143264053Y-100043685D02*
X143335482Y-99972257D01*
X143335482Y-99972257D02*
X143478339Y-99900828D01*
X143478339Y-99900828D02*
X143835482Y-99900828D01*
X143835482Y-99900828D02*
X144049768Y-99972257D01*
X144692624Y-100829400D02*
X145835482Y-100829400D01*
X146478339Y-100043685D02*
X146549767Y-99972257D01*
X146549767Y-99972257D02*
X146692625Y-99900828D01*
X146692625Y-99900828D02*
X147049767Y-99900828D01*
X147049767Y-99900828D02*
X147192625Y-99972257D01*
X147192625Y-99972257D02*
X147264053Y-100043685D01*
X147264053Y-100043685D02*
X147335482Y-100186542D01*
X147335482Y-100186542D02*
X147335482Y-100329400D01*
X147335482Y-100329400D02*
X147264053Y-100543685D01*
X147264053Y-100543685D02*
X146406910Y-101400828D01*
X146406910Y-101400828D02*
X147335482Y-101400828D01*
X148621196Y-100400828D02*
X148621196Y-101400828D01*
X148264053Y-99829400D02*
X147906910Y-100900828D01*
X147906910Y-100900828D02*
X148835481Y-100900828D01*
X149192624Y-99900828D02*
X149692624Y-101400828D01*
X149692624Y-101400828D02*
X150192624Y-99900828D01*
D13*
X137607109Y-76636708D02*
X137135395Y-76636708D01*
X137371252Y-76636708D02*
X137371252Y-75811208D01*
X137371252Y-75811208D02*
X137292633Y-75929137D01*
X137292633Y-75929137D02*
X137214014Y-76007756D01*
X137214014Y-76007756D02*
X137135395Y-76047065D01*
D12*
X151542979Y-95119866D02*
X152304884Y-95119866D01*
X108337579Y-95119866D02*
X109099484Y-95119866D01*
X122383779Y-88109419D02*
X122383779Y-87109419D01*
X122383779Y-87109419D02*
X122717112Y-87823704D01*
X122717112Y-87823704D02*
X123050445Y-87109419D01*
X123050445Y-87109419D02*
X123050445Y-88109419D01*
X123479017Y-88061800D02*
X123621874Y-88109419D01*
X123621874Y-88109419D02*
X123859969Y-88109419D01*
X123859969Y-88109419D02*
X123955207Y-88061800D01*
X123955207Y-88061800D02*
X124002826Y-88014180D01*
X124002826Y-88014180D02*
X124050445Y-87918942D01*
X124050445Y-87918942D02*
X124050445Y-87823704D01*
X124050445Y-87823704D02*
X124002826Y-87728466D01*
X124002826Y-87728466D02*
X123955207Y-87680847D01*
X123955207Y-87680847D02*
X123859969Y-87633228D01*
X123859969Y-87633228D02*
X123669493Y-87585609D01*
X123669493Y-87585609D02*
X123574255Y-87537990D01*
X123574255Y-87537990D02*
X123526636Y-87490371D01*
X123526636Y-87490371D02*
X123479017Y-87395133D01*
X123479017Y-87395133D02*
X123479017Y-87299895D01*
X123479017Y-87299895D02*
X123526636Y-87204657D01*
X123526636Y-87204657D02*
X123574255Y-87157038D01*
X123574255Y-87157038D02*
X123669493Y-87109419D01*
X123669493Y-87109419D02*
X123907588Y-87109419D01*
X123907588Y-87109419D02*
X124050445Y-87157038D01*
X125002826Y-88109419D02*
X124431398Y-88109419D01*
X124717112Y-88109419D02*
X124717112Y-87109419D01*
X124717112Y-87109419D02*
X124621874Y-87252276D01*
X124621874Y-87252276D02*
X124526636Y-87347514D01*
X124526636Y-87347514D02*
X124431398Y-87395133D01*
X129927579Y-89912866D02*
X130689484Y-89912866D01*
X130308531Y-90293819D02*
X130308531Y-89531914D01*
X165589179Y-88109419D02*
X165589179Y-87109419D01*
X165589179Y-87109419D02*
X165922512Y-87823704D01*
X165922512Y-87823704D02*
X166255845Y-87109419D01*
X166255845Y-87109419D02*
X166255845Y-88109419D01*
X166684417Y-88061800D02*
X166827274Y-88109419D01*
X166827274Y-88109419D02*
X167065369Y-88109419D01*
X167065369Y-88109419D02*
X167160607Y-88061800D01*
X167160607Y-88061800D02*
X167208226Y-88014180D01*
X167208226Y-88014180D02*
X167255845Y-87918942D01*
X167255845Y-87918942D02*
X167255845Y-87823704D01*
X167255845Y-87823704D02*
X167208226Y-87728466D01*
X167208226Y-87728466D02*
X167160607Y-87680847D01*
X167160607Y-87680847D02*
X167065369Y-87633228D01*
X167065369Y-87633228D02*
X166874893Y-87585609D01*
X166874893Y-87585609D02*
X166779655Y-87537990D01*
X166779655Y-87537990D02*
X166732036Y-87490371D01*
X166732036Y-87490371D02*
X166684417Y-87395133D01*
X166684417Y-87395133D02*
X166684417Y-87299895D01*
X166684417Y-87299895D02*
X166732036Y-87204657D01*
X166732036Y-87204657D02*
X166779655Y-87157038D01*
X166779655Y-87157038D02*
X166874893Y-87109419D01*
X166874893Y-87109419D02*
X167112988Y-87109419D01*
X167112988Y-87109419D02*
X167255845Y-87157038D01*
X168208226Y-88109419D02*
X167636798Y-88109419D01*
X167922512Y-88109419D02*
X167922512Y-87109419D01*
X167922512Y-87109419D02*
X167827274Y-87252276D01*
X167827274Y-87252276D02*
X167732036Y-87347514D01*
X167732036Y-87347514D02*
X167636798Y-87395133D01*
D13*
X122257457Y-115077560D02*
X121785743Y-115077560D01*
X122021600Y-115077560D02*
X122021600Y-114252060D01*
X122021600Y-114252060D02*
X121942981Y-114369989D01*
X121942981Y-114369989D02*
X121864362Y-114448608D01*
X121864362Y-114448608D02*
X121785743Y-114487917D01*
D12*
X110706819Y-90733332D02*
X110706819Y-90161904D01*
X111706819Y-90447618D02*
X110706819Y-90447618D01*
X111706819Y-89828570D02*
X110706819Y-89828570D01*
X110706819Y-89828570D02*
X111421104Y-89495237D01*
X111421104Y-89495237D02*
X110706819Y-89161904D01*
X110706819Y-89161904D02*
X111706819Y-89161904D01*
X111611580Y-88114285D02*
X111659200Y-88161904D01*
X111659200Y-88161904D02*
X111706819Y-88304761D01*
X111706819Y-88304761D02*
X111706819Y-88399999D01*
X111706819Y-88399999D02*
X111659200Y-88542856D01*
X111659200Y-88542856D02*
X111563961Y-88638094D01*
X111563961Y-88638094D02*
X111468723Y-88685713D01*
X111468723Y-88685713D02*
X111278247Y-88733332D01*
X111278247Y-88733332D02*
X111135390Y-88733332D01*
X111135390Y-88733332D02*
X110944914Y-88685713D01*
X110944914Y-88685713D02*
X110849676Y-88638094D01*
X110849676Y-88638094D02*
X110754438Y-88542856D01*
X110754438Y-88542856D02*
X110706819Y-88399999D01*
X110706819Y-88399999D02*
X110706819Y-88304761D01*
X110706819Y-88304761D02*
X110754438Y-88161904D01*
X110754438Y-88161904D02*
X110802057Y-88114285D01*
X110706819Y-87780951D02*
X110706819Y-87161904D01*
X110706819Y-87161904D02*
X111087771Y-87495237D01*
X111087771Y-87495237D02*
X111087771Y-87352380D01*
X111087771Y-87352380D02*
X111135390Y-87257142D01*
X111135390Y-87257142D02*
X111183009Y-87209523D01*
X111183009Y-87209523D02*
X111278247Y-87161904D01*
X111278247Y-87161904D02*
X111516342Y-87161904D01*
X111516342Y-87161904D02*
X111611580Y-87209523D01*
X111611580Y-87209523D02*
X111659200Y-87257142D01*
X111659200Y-87257142D02*
X111706819Y-87352380D01*
X111706819Y-87352380D02*
X111706819Y-87638094D01*
X111706819Y-87638094D02*
X111659200Y-87733332D01*
X111659200Y-87733332D02*
X111611580Y-87780951D01*
X156536819Y-102782666D02*
X156060628Y-103115999D01*
X156536819Y-103354094D02*
X155536819Y-103354094D01*
X155536819Y-103354094D02*
X155536819Y-102973142D01*
X155536819Y-102973142D02*
X155584438Y-102877904D01*
X155584438Y-102877904D02*
X155632057Y-102830285D01*
X155632057Y-102830285D02*
X155727295Y-102782666D01*
X155727295Y-102782666D02*
X155870152Y-102782666D01*
X155870152Y-102782666D02*
X155965390Y-102830285D01*
X155965390Y-102830285D02*
X156013009Y-102877904D01*
X156013009Y-102877904D02*
X156060628Y-102973142D01*
X156060628Y-102973142D02*
X156060628Y-103354094D01*
X155536819Y-102449332D02*
X155536819Y-101782666D01*
X155536819Y-101782666D02*
X156536819Y-102211237D01*
X133734980Y-105449666D02*
X133782600Y-105497285D01*
X133782600Y-105497285D02*
X133830219Y-105640142D01*
X133830219Y-105640142D02*
X133830219Y-105735380D01*
X133830219Y-105735380D02*
X133782600Y-105878237D01*
X133782600Y-105878237D02*
X133687361Y-105973475D01*
X133687361Y-105973475D02*
X133592123Y-106021094D01*
X133592123Y-106021094D02*
X133401647Y-106068713D01*
X133401647Y-106068713D02*
X133258790Y-106068713D01*
X133258790Y-106068713D02*
X133068314Y-106021094D01*
X133068314Y-106021094D02*
X132973076Y-105973475D01*
X132973076Y-105973475D02*
X132877838Y-105878237D01*
X132877838Y-105878237D02*
X132830219Y-105735380D01*
X132830219Y-105735380D02*
X132830219Y-105640142D01*
X132830219Y-105640142D02*
X132877838Y-105497285D01*
X132877838Y-105497285D02*
X132925457Y-105449666D01*
X132830219Y-105116332D02*
X132830219Y-104497285D01*
X132830219Y-104497285D02*
X133211171Y-104830618D01*
X133211171Y-104830618D02*
X133211171Y-104687761D01*
X133211171Y-104687761D02*
X133258790Y-104592523D01*
X133258790Y-104592523D02*
X133306409Y-104544904D01*
X133306409Y-104544904D02*
X133401647Y-104497285D01*
X133401647Y-104497285D02*
X133639742Y-104497285D01*
X133639742Y-104497285D02*
X133734980Y-104544904D01*
X133734980Y-104544904D02*
X133782600Y-104592523D01*
X133782600Y-104592523D02*
X133830219Y-104687761D01*
X133830219Y-104687761D02*
X133830219Y-104973475D01*
X133830219Y-104973475D02*
X133782600Y-105068713D01*
X133782600Y-105068713D02*
X133734980Y-105116332D01*
X134598580Y-110148666D02*
X134646200Y-110196285D01*
X134646200Y-110196285D02*
X134693819Y-110339142D01*
X134693819Y-110339142D02*
X134693819Y-110434380D01*
X134693819Y-110434380D02*
X134646200Y-110577237D01*
X134646200Y-110577237D02*
X134550961Y-110672475D01*
X134550961Y-110672475D02*
X134455723Y-110720094D01*
X134455723Y-110720094D02*
X134265247Y-110767713D01*
X134265247Y-110767713D02*
X134122390Y-110767713D01*
X134122390Y-110767713D02*
X133931914Y-110720094D01*
X133931914Y-110720094D02*
X133836676Y-110672475D01*
X133836676Y-110672475D02*
X133741438Y-110577237D01*
X133741438Y-110577237D02*
X133693819Y-110434380D01*
X133693819Y-110434380D02*
X133693819Y-110339142D01*
X133693819Y-110339142D02*
X133741438Y-110196285D01*
X133741438Y-110196285D02*
X133789057Y-110148666D01*
X133693819Y-109243904D02*
X133693819Y-109720094D01*
X133693819Y-109720094D02*
X134170009Y-109767713D01*
X134170009Y-109767713D02*
X134122390Y-109720094D01*
X134122390Y-109720094D02*
X134074771Y-109624856D01*
X134074771Y-109624856D02*
X134074771Y-109386761D01*
X134074771Y-109386761D02*
X134122390Y-109291523D01*
X134122390Y-109291523D02*
X134170009Y-109243904D01*
X134170009Y-109243904D02*
X134265247Y-109196285D01*
X134265247Y-109196285D02*
X134503342Y-109196285D01*
X134503342Y-109196285D02*
X134598580Y-109243904D01*
X134598580Y-109243904D02*
X134646200Y-109291523D01*
X134646200Y-109291523D02*
X134693819Y-109386761D01*
X134693819Y-109386761D02*
X134693819Y-109624856D01*
X134693819Y-109624856D02*
X134646200Y-109720094D01*
X134646200Y-109720094D02*
X134598580Y-109767713D01*
X163536333Y-73351819D02*
X163203000Y-72875628D01*
X162964905Y-73351819D02*
X162964905Y-72351819D01*
X162964905Y-72351819D02*
X163345857Y-72351819D01*
X163345857Y-72351819D02*
X163441095Y-72399438D01*
X163441095Y-72399438D02*
X163488714Y-72447057D01*
X163488714Y-72447057D02*
X163536333Y-72542295D01*
X163536333Y-72542295D02*
X163536333Y-72685152D01*
X163536333Y-72685152D02*
X163488714Y-72780390D01*
X163488714Y-72780390D02*
X163441095Y-72828009D01*
X163441095Y-72828009D02*
X163345857Y-72875628D01*
X163345857Y-72875628D02*
X162964905Y-72875628D01*
X164393476Y-72685152D02*
X164393476Y-73351819D01*
X164155381Y-72304200D02*
X163917286Y-73018485D01*
X163917286Y-73018485D02*
X164536333Y-73018485D01*
X125682476Y-75515219D02*
X125682476Y-76229504D01*
X125682476Y-76229504D02*
X125634857Y-76372361D01*
X125634857Y-76372361D02*
X125539619Y-76467600D01*
X125539619Y-76467600D02*
X125396762Y-76515219D01*
X125396762Y-76515219D02*
X125301524Y-76515219D01*
X126682476Y-76515219D02*
X126111048Y-76515219D01*
X126396762Y-76515219D02*
X126396762Y-75515219D01*
X126396762Y-75515219D02*
X126301524Y-75658076D01*
X126301524Y-75658076D02*
X126206286Y-75753314D01*
X126206286Y-75753314D02*
X126111048Y-75800933D01*
X127539619Y-75515219D02*
X127349143Y-75515219D01*
X127349143Y-75515219D02*
X127253905Y-75562838D01*
X127253905Y-75562838D02*
X127206286Y-75610457D01*
X127206286Y-75610457D02*
X127111048Y-75753314D01*
X127111048Y-75753314D02*
X127063429Y-75943790D01*
X127063429Y-75943790D02*
X127063429Y-76324742D01*
X127063429Y-76324742D02*
X127111048Y-76419980D01*
X127111048Y-76419980D02*
X127158667Y-76467600D01*
X127158667Y-76467600D02*
X127253905Y-76515219D01*
X127253905Y-76515219D02*
X127444381Y-76515219D01*
X127444381Y-76515219D02*
X127539619Y-76467600D01*
X127539619Y-76467600D02*
X127587238Y-76419980D01*
X127587238Y-76419980D02*
X127634857Y-76324742D01*
X127634857Y-76324742D02*
X127634857Y-76086647D01*
X127634857Y-76086647D02*
X127587238Y-75991409D01*
X127587238Y-75991409D02*
X127539619Y-75943790D01*
X127539619Y-75943790D02*
X127444381Y-75896171D01*
X127444381Y-75896171D02*
X127253905Y-75896171D01*
X127253905Y-75896171D02*
X127158667Y-75943790D01*
X127158667Y-75943790D02*
X127111048Y-75991409D01*
X127111048Y-75991409D02*
X127063429Y-76086647D01*
X136980076Y-75515219D02*
X136980076Y-76229504D01*
X136980076Y-76229504D02*
X136932457Y-76372361D01*
X136932457Y-76372361D02*
X136837219Y-76467600D01*
X136837219Y-76467600D02*
X136694362Y-76515219D01*
X136694362Y-76515219D02*
X136599124Y-76515219D01*
X137980076Y-76515219D02*
X137408648Y-76515219D01*
X137694362Y-76515219D02*
X137694362Y-75515219D01*
X137694362Y-75515219D02*
X137599124Y-75658076D01*
X137599124Y-75658076D02*
X137503886Y-75753314D01*
X137503886Y-75753314D02*
X137408648Y-75800933D01*
X138313410Y-75515219D02*
X138932457Y-75515219D01*
X138932457Y-75515219D02*
X138599124Y-75896171D01*
X138599124Y-75896171D02*
X138741981Y-75896171D01*
X138741981Y-75896171D02*
X138837219Y-75943790D01*
X138837219Y-75943790D02*
X138884838Y-75991409D01*
X138884838Y-75991409D02*
X138932457Y-76086647D01*
X138932457Y-76086647D02*
X138932457Y-76324742D01*
X138932457Y-76324742D02*
X138884838Y-76419980D01*
X138884838Y-76419980D02*
X138837219Y-76467600D01*
X138837219Y-76467600D02*
X138741981Y-76515219D01*
X138741981Y-76515219D02*
X138456267Y-76515219D01*
X138456267Y-76515219D02*
X138361029Y-76467600D01*
X138361029Y-76467600D02*
X138313410Y-76419980D01*
X114300095Y-99393819D02*
X114300095Y-100203342D01*
X114300095Y-100203342D02*
X114347714Y-100298580D01*
X114347714Y-100298580D02*
X114395333Y-100346200D01*
X114395333Y-100346200D02*
X114490571Y-100393819D01*
X114490571Y-100393819D02*
X114681047Y-100393819D01*
X114681047Y-100393819D02*
X114776285Y-100346200D01*
X114776285Y-100346200D02*
X114823904Y-100298580D01*
X114823904Y-100298580D02*
X114871523Y-100203342D01*
X114871523Y-100203342D02*
X114871523Y-99393819D01*
X115871523Y-100393819D02*
X115300095Y-100393819D01*
X115585809Y-100393819D02*
X115585809Y-99393819D01*
X115585809Y-99393819D02*
X115490571Y-99536676D01*
X115490571Y-99536676D02*
X115395333Y-99631914D01*
X115395333Y-99631914D02*
X115300095Y-99679533D01*
X133779419Y-112860057D02*
X133303228Y-113193390D01*
X133779419Y-113431485D02*
X132779419Y-113431485D01*
X132779419Y-113431485D02*
X132779419Y-113050533D01*
X132779419Y-113050533D02*
X132827038Y-112955295D01*
X132827038Y-112955295D02*
X132874657Y-112907676D01*
X132874657Y-112907676D02*
X132969895Y-112860057D01*
X132969895Y-112860057D02*
X133112752Y-112860057D01*
X133112752Y-112860057D02*
X133207990Y-112907676D01*
X133207990Y-112907676D02*
X133255609Y-112955295D01*
X133255609Y-112955295D02*
X133303228Y-113050533D01*
X133303228Y-113050533D02*
X133303228Y-113431485D01*
X133779419Y-111907676D02*
X133779419Y-112479104D01*
X133779419Y-112193390D02*
X132779419Y-112193390D01*
X132779419Y-112193390D02*
X132922276Y-112288628D01*
X132922276Y-112288628D02*
X133017514Y-112383866D01*
X133017514Y-112383866D02*
X133065133Y-112479104D01*
X132779419Y-111002914D02*
X132779419Y-111479104D01*
X132779419Y-111479104D02*
X133255609Y-111526723D01*
X133255609Y-111526723D02*
X133207990Y-111479104D01*
X133207990Y-111479104D02*
X133160371Y-111383866D01*
X133160371Y-111383866D02*
X133160371Y-111145771D01*
X133160371Y-111145771D02*
X133207990Y-111050533D01*
X133207990Y-111050533D02*
X133255609Y-111002914D01*
X133255609Y-111002914D02*
X133350847Y-110955295D01*
X133350847Y-110955295D02*
X133588942Y-110955295D01*
X133588942Y-110955295D02*
X133684180Y-111002914D01*
X133684180Y-111002914D02*
X133731800Y-111050533D01*
X133731800Y-111050533D02*
X133779419Y-111145771D01*
X133779419Y-111145771D02*
X133779419Y-111383866D01*
X133779419Y-111383866D02*
X133731800Y-111479104D01*
X133731800Y-111479104D02*
X133684180Y-111526723D01*
X153886819Y-90723332D02*
X153886819Y-90151904D01*
X154886819Y-90437618D02*
X153886819Y-90437618D01*
X154886819Y-89818570D02*
X153886819Y-89818570D01*
X153886819Y-89818570D02*
X154601104Y-89485237D01*
X154601104Y-89485237D02*
X153886819Y-89151904D01*
X153886819Y-89151904D02*
X154886819Y-89151904D01*
X154791580Y-88104285D02*
X154839200Y-88151904D01*
X154839200Y-88151904D02*
X154886819Y-88294761D01*
X154886819Y-88294761D02*
X154886819Y-88389999D01*
X154886819Y-88389999D02*
X154839200Y-88532856D01*
X154839200Y-88532856D02*
X154743961Y-88628094D01*
X154743961Y-88628094D02*
X154648723Y-88675713D01*
X154648723Y-88675713D02*
X154458247Y-88723332D01*
X154458247Y-88723332D02*
X154315390Y-88723332D01*
X154315390Y-88723332D02*
X154124914Y-88675713D01*
X154124914Y-88675713D02*
X154029676Y-88628094D01*
X154029676Y-88628094D02*
X153934438Y-88532856D01*
X153934438Y-88532856D02*
X153886819Y-88389999D01*
X153886819Y-88389999D02*
X153886819Y-88294761D01*
X153886819Y-88294761D02*
X153934438Y-88151904D01*
X153934438Y-88151904D02*
X153982057Y-88104285D01*
X154886819Y-87151904D02*
X154886819Y-87723332D01*
X154886819Y-87437618D02*
X153886819Y-87437618D01*
X153886819Y-87437618D02*
X154029676Y-87532856D01*
X154029676Y-87532856D02*
X154124914Y-87628094D01*
X154124914Y-87628094D02*
X154172533Y-87723332D01*
X142631580Y-91606666D02*
X142679200Y-91654285D01*
X142679200Y-91654285D02*
X142726819Y-91797142D01*
X142726819Y-91797142D02*
X142726819Y-91892380D01*
X142726819Y-91892380D02*
X142679200Y-92035237D01*
X142679200Y-92035237D02*
X142583961Y-92130475D01*
X142583961Y-92130475D02*
X142488723Y-92178094D01*
X142488723Y-92178094D02*
X142298247Y-92225713D01*
X142298247Y-92225713D02*
X142155390Y-92225713D01*
X142155390Y-92225713D02*
X141964914Y-92178094D01*
X141964914Y-92178094D02*
X141869676Y-92130475D01*
X141869676Y-92130475D02*
X141774438Y-92035237D01*
X141774438Y-92035237D02*
X141726819Y-91892380D01*
X141726819Y-91892380D02*
X141726819Y-91797142D01*
X141726819Y-91797142D02*
X141774438Y-91654285D01*
X141774438Y-91654285D02*
X141822057Y-91606666D01*
X142060152Y-90749523D02*
X142726819Y-90749523D01*
X141679200Y-90987618D02*
X142393485Y-91225713D01*
X142393485Y-91225713D02*
X142393485Y-90606666D01*
D14*
X170116667Y-110899800D02*
X170259524Y-110947419D01*
X170259524Y-110947419D02*
X170497619Y-110947419D01*
X170497619Y-110947419D02*
X170592857Y-110899800D01*
X170592857Y-110899800D02*
X170640476Y-110852180D01*
X170640476Y-110852180D02*
X170688095Y-110756942D01*
X170688095Y-110756942D02*
X170688095Y-110661704D01*
X170688095Y-110661704D02*
X170640476Y-110566466D01*
X170640476Y-110566466D02*
X170592857Y-110518847D01*
X170592857Y-110518847D02*
X170497619Y-110471228D01*
X170497619Y-110471228D02*
X170307143Y-110423609D01*
X170307143Y-110423609D02*
X170211905Y-110375990D01*
X170211905Y-110375990D02*
X170164286Y-110328371D01*
X170164286Y-110328371D02*
X170116667Y-110233133D01*
X170116667Y-110233133D02*
X170116667Y-110137895D01*
X170116667Y-110137895D02*
X170164286Y-110042657D01*
X170164286Y-110042657D02*
X170211905Y-109995038D01*
X170211905Y-109995038D02*
X170307143Y-109947419D01*
X170307143Y-109947419D02*
X170545238Y-109947419D01*
X170545238Y-109947419D02*
X170688095Y-109995038D01*
X171021429Y-109947419D02*
X171259524Y-110947419D01*
X171259524Y-110947419D02*
X171450000Y-110233133D01*
X171450000Y-110233133D02*
X171640476Y-110947419D01*
X171640476Y-110947419D02*
X171878572Y-109947419D01*
X172164286Y-109947419D02*
X172783333Y-109947419D01*
X172783333Y-109947419D02*
X172450000Y-110328371D01*
X172450000Y-110328371D02*
X172592857Y-110328371D01*
X172592857Y-110328371D02*
X172688095Y-110375990D01*
X172688095Y-110375990D02*
X172735714Y-110423609D01*
X172735714Y-110423609D02*
X172783333Y-110518847D01*
X172783333Y-110518847D02*
X172783333Y-110756942D01*
X172783333Y-110756942D02*
X172735714Y-110852180D01*
X172735714Y-110852180D02*
X172688095Y-110899800D01*
X172688095Y-110899800D02*
X172592857Y-110947419D01*
X172592857Y-110947419D02*
X172307143Y-110947419D01*
X172307143Y-110947419D02*
X172211905Y-110899800D01*
X172211905Y-110899800D02*
X172164286Y-110852180D01*
D12*
X94814919Y-107556983D02*
X94814919Y-108271583D01*
X94814919Y-108271583D02*
X94767279Y-108414503D01*
X94767279Y-108414503D02*
X94671999Y-108509784D01*
X94671999Y-108509784D02*
X94529079Y-108557424D01*
X94529079Y-108557424D02*
X94433799Y-108557424D01*
X95815360Y-108557424D02*
X95243680Y-108557424D01*
X95529520Y-108557424D02*
X95529520Y-107556983D01*
X95529520Y-107556983D02*
X95434240Y-107699903D01*
X95434240Y-107699903D02*
X95338960Y-107795183D01*
X95338960Y-107795183D02*
X95243680Y-107842823D01*
X104113100Y-102817828D02*
X104113100Y-101674971D01*
X104684528Y-102246399D02*
X103541671Y-102246399D01*
X104113100Y-115117828D02*
X104113100Y-113974971D01*
X127430305Y-109319219D02*
X127430305Y-108319219D01*
X127430305Y-108319219D02*
X127668400Y-108319219D01*
X127668400Y-108319219D02*
X127811257Y-108366838D01*
X127811257Y-108366838D02*
X127906495Y-108462076D01*
X127906495Y-108462076D02*
X127954114Y-108557314D01*
X127954114Y-108557314D02*
X128001733Y-108747790D01*
X128001733Y-108747790D02*
X128001733Y-108890647D01*
X128001733Y-108890647D02*
X127954114Y-109081123D01*
X127954114Y-109081123D02*
X127906495Y-109176361D01*
X127906495Y-109176361D02*
X127811257Y-109271600D01*
X127811257Y-109271600D02*
X127668400Y-109319219D01*
X127668400Y-109319219D02*
X127430305Y-109319219D01*
X128858876Y-108652552D02*
X128858876Y-109319219D01*
X128620781Y-108271600D02*
X128382686Y-108985885D01*
X128382686Y-108985885D02*
X129001733Y-108985885D01*
X147272476Y-75506819D02*
X147272476Y-76221104D01*
X147272476Y-76221104D02*
X147224857Y-76363961D01*
X147224857Y-76363961D02*
X147129619Y-76459200D01*
X147129619Y-76459200D02*
X146986762Y-76506819D01*
X146986762Y-76506819D02*
X146891524Y-76506819D01*
X148272476Y-76506819D02*
X147701048Y-76506819D01*
X147986762Y-76506819D02*
X147986762Y-75506819D01*
X147986762Y-75506819D02*
X147891524Y-75649676D01*
X147891524Y-75649676D02*
X147796286Y-75744914D01*
X147796286Y-75744914D02*
X147701048Y-75792533D01*
X148653429Y-75602057D02*
X148701048Y-75554438D01*
X148701048Y-75554438D02*
X148796286Y-75506819D01*
X148796286Y-75506819D02*
X149034381Y-75506819D01*
X149034381Y-75506819D02*
X149129619Y-75554438D01*
X149129619Y-75554438D02*
X149177238Y-75602057D01*
X149177238Y-75602057D02*
X149224857Y-75697295D01*
X149224857Y-75697295D02*
X149224857Y-75792533D01*
X149224857Y-75792533D02*
X149177238Y-75935390D01*
X149177238Y-75935390D02*
X148605810Y-76506819D01*
X148605810Y-76506819D02*
X149224857Y-76506819D01*
X132296819Y-90723332D02*
X132296819Y-90151904D01*
X133296819Y-90437618D02*
X132296819Y-90437618D01*
X133296819Y-89818570D02*
X132296819Y-89818570D01*
X132296819Y-89818570D02*
X133011104Y-89485237D01*
X133011104Y-89485237D02*
X132296819Y-89151904D01*
X132296819Y-89151904D02*
X133296819Y-89151904D01*
X133201580Y-88104285D02*
X133249200Y-88151904D01*
X133249200Y-88151904D02*
X133296819Y-88294761D01*
X133296819Y-88294761D02*
X133296819Y-88389999D01*
X133296819Y-88389999D02*
X133249200Y-88532856D01*
X133249200Y-88532856D02*
X133153961Y-88628094D01*
X133153961Y-88628094D02*
X133058723Y-88675713D01*
X133058723Y-88675713D02*
X132868247Y-88723332D01*
X132868247Y-88723332D02*
X132725390Y-88723332D01*
X132725390Y-88723332D02*
X132534914Y-88675713D01*
X132534914Y-88675713D02*
X132439676Y-88628094D01*
X132439676Y-88628094D02*
X132344438Y-88532856D01*
X132344438Y-88532856D02*
X132296819Y-88389999D01*
X132296819Y-88389999D02*
X132296819Y-88294761D01*
X132296819Y-88294761D02*
X132344438Y-88151904D01*
X132344438Y-88151904D02*
X132392057Y-88104285D01*
X132392057Y-87723332D02*
X132344438Y-87675713D01*
X132344438Y-87675713D02*
X132296819Y-87580475D01*
X132296819Y-87580475D02*
X132296819Y-87342380D01*
X132296819Y-87342380D02*
X132344438Y-87247142D01*
X132344438Y-87247142D02*
X132392057Y-87199523D01*
X132392057Y-87199523D02*
X132487295Y-87151904D01*
X132487295Y-87151904D02*
X132582533Y-87151904D01*
X132582533Y-87151904D02*
X132725390Y-87199523D01*
X132725390Y-87199523D02*
X133296819Y-87770951D01*
X133296819Y-87770951D02*
X133296819Y-87151904D01*
D14*
X110807332Y-110334200D02*
X110664475Y-110286580D01*
X110664475Y-110286580D02*
X110426380Y-110286580D01*
X110426380Y-110286580D02*
X110331142Y-110334200D01*
X110331142Y-110334200D02*
X110283523Y-110381819D01*
X110283523Y-110381819D02*
X110235904Y-110477057D01*
X110235904Y-110477057D02*
X110235904Y-110572295D01*
X110235904Y-110572295D02*
X110283523Y-110667533D01*
X110283523Y-110667533D02*
X110331142Y-110715152D01*
X110331142Y-110715152D02*
X110426380Y-110762771D01*
X110426380Y-110762771D02*
X110616856Y-110810390D01*
X110616856Y-110810390D02*
X110712094Y-110858009D01*
X110712094Y-110858009D02*
X110759713Y-110905628D01*
X110759713Y-110905628D02*
X110807332Y-111000866D01*
X110807332Y-111000866D02*
X110807332Y-111096104D01*
X110807332Y-111096104D02*
X110759713Y-111191342D01*
X110759713Y-111191342D02*
X110712094Y-111238961D01*
X110712094Y-111238961D02*
X110616856Y-111286580D01*
X110616856Y-111286580D02*
X110378761Y-111286580D01*
X110378761Y-111286580D02*
X110235904Y-111238961D01*
X109902570Y-111286580D02*
X109664475Y-110286580D01*
X109664475Y-110286580D02*
X109473999Y-111000866D01*
X109473999Y-111000866D02*
X109283523Y-110286580D01*
X109283523Y-110286580D02*
X109045428Y-111286580D01*
X108188285Y-111286580D02*
X108664475Y-111286580D01*
X108664475Y-111286580D02*
X108712094Y-110810390D01*
X108712094Y-110810390D02*
X108664475Y-110858009D01*
X108664475Y-110858009D02*
X108569237Y-110905628D01*
X108569237Y-110905628D02*
X108331142Y-110905628D01*
X108331142Y-110905628D02*
X108235904Y-110858009D01*
X108235904Y-110858009D02*
X108188285Y-110810390D01*
X108188285Y-110810390D02*
X108140666Y-110715152D01*
X108140666Y-110715152D02*
X108140666Y-110477057D01*
X108140666Y-110477057D02*
X108188285Y-110381819D01*
X108188285Y-110381819D02*
X108235904Y-110334200D01*
X108235904Y-110334200D02*
X108331142Y-110286580D01*
X108331142Y-110286580D02*
X108569237Y-110286580D01*
X108569237Y-110286580D02*
X108664475Y-110334200D01*
X108664475Y-110334200D02*
X108712094Y-110381819D01*
D12*
X130802142Y-114678619D02*
X130468809Y-114202428D01*
X130230714Y-114678619D02*
X130230714Y-113678619D01*
X130230714Y-113678619D02*
X130611666Y-113678619D01*
X130611666Y-113678619D02*
X130706904Y-113726238D01*
X130706904Y-113726238D02*
X130754523Y-113773857D01*
X130754523Y-113773857D02*
X130802142Y-113869095D01*
X130802142Y-113869095D02*
X130802142Y-114011952D01*
X130802142Y-114011952D02*
X130754523Y-114107190D01*
X130754523Y-114107190D02*
X130706904Y-114154809D01*
X130706904Y-114154809D02*
X130611666Y-114202428D01*
X130611666Y-114202428D02*
X130230714Y-114202428D01*
X131754523Y-114678619D02*
X131183095Y-114678619D01*
X131468809Y-114678619D02*
X131468809Y-113678619D01*
X131468809Y-113678619D02*
X131373571Y-113821476D01*
X131373571Y-113821476D02*
X131278333Y-113916714D01*
X131278333Y-113916714D02*
X131183095Y-113964333D01*
X132611666Y-114011952D02*
X132611666Y-114678619D01*
X132373571Y-113631000D02*
X132135476Y-114345285D01*
X132135476Y-114345285D02*
X132754523Y-114345285D01*
D14*
X151066667Y-110693800D02*
X151209524Y-110741419D01*
X151209524Y-110741419D02*
X151447619Y-110741419D01*
X151447619Y-110741419D02*
X151542857Y-110693800D01*
X151542857Y-110693800D02*
X151590476Y-110646180D01*
X151590476Y-110646180D02*
X151638095Y-110550942D01*
X151638095Y-110550942D02*
X151638095Y-110455704D01*
X151638095Y-110455704D02*
X151590476Y-110360466D01*
X151590476Y-110360466D02*
X151542857Y-110312847D01*
X151542857Y-110312847D02*
X151447619Y-110265228D01*
X151447619Y-110265228D02*
X151257143Y-110217609D01*
X151257143Y-110217609D02*
X151161905Y-110169990D01*
X151161905Y-110169990D02*
X151114286Y-110122371D01*
X151114286Y-110122371D02*
X151066667Y-110027133D01*
X151066667Y-110027133D02*
X151066667Y-109931895D01*
X151066667Y-109931895D02*
X151114286Y-109836657D01*
X151114286Y-109836657D02*
X151161905Y-109789038D01*
X151161905Y-109789038D02*
X151257143Y-109741419D01*
X151257143Y-109741419D02*
X151495238Y-109741419D01*
X151495238Y-109741419D02*
X151638095Y-109789038D01*
X151971429Y-109741419D02*
X152209524Y-110741419D01*
X152209524Y-110741419D02*
X152400000Y-110027133D01*
X152400000Y-110027133D02*
X152590476Y-110741419D01*
X152590476Y-110741419D02*
X152828572Y-109741419D01*
X153733333Y-110741419D02*
X153161905Y-110741419D01*
X153447619Y-110741419D02*
X153447619Y-109741419D01*
X153447619Y-109741419D02*
X153352381Y-109884276D01*
X153352381Y-109884276D02*
X153257143Y-109979514D01*
X153257143Y-109979514D02*
X153161905Y-110027133D01*
D12*
X152233333Y-100530819D02*
X151900000Y-100054628D01*
X151661905Y-100530819D02*
X151661905Y-99530819D01*
X151661905Y-99530819D02*
X152042857Y-99530819D01*
X152042857Y-99530819D02*
X152138095Y-99578438D01*
X152138095Y-99578438D02*
X152185714Y-99626057D01*
X152185714Y-99626057D02*
X152233333Y-99721295D01*
X152233333Y-99721295D02*
X152233333Y-99864152D01*
X152233333Y-99864152D02*
X152185714Y-99959390D01*
X152185714Y-99959390D02*
X152138095Y-100007009D01*
X152138095Y-100007009D02*
X152042857Y-100054628D01*
X152042857Y-100054628D02*
X151661905Y-100054628D01*
X153185714Y-100530819D02*
X152614286Y-100530819D01*
X152900000Y-100530819D02*
X152900000Y-99530819D01*
X152900000Y-99530819D02*
X152804762Y-99673676D01*
X152804762Y-99673676D02*
X152709524Y-99768914D01*
X152709524Y-99768914D02*
X152614286Y-99816533D01*
X132687219Y-102141257D02*
X132211028Y-102474590D01*
X132687219Y-102712685D02*
X131687219Y-102712685D01*
X131687219Y-102712685D02*
X131687219Y-102331733D01*
X131687219Y-102331733D02*
X131734838Y-102236495D01*
X131734838Y-102236495D02*
X131782457Y-102188876D01*
X131782457Y-102188876D02*
X131877695Y-102141257D01*
X131877695Y-102141257D02*
X132020552Y-102141257D01*
X132020552Y-102141257D02*
X132115790Y-102188876D01*
X132115790Y-102188876D02*
X132163409Y-102236495D01*
X132163409Y-102236495D02*
X132211028Y-102331733D01*
X132211028Y-102331733D02*
X132211028Y-102712685D01*
X132687219Y-101188876D02*
X132687219Y-101760304D01*
X132687219Y-101474590D02*
X131687219Y-101474590D01*
X131687219Y-101474590D02*
X131830076Y-101569828D01*
X131830076Y-101569828D02*
X131925314Y-101665066D01*
X131925314Y-101665066D02*
X131972933Y-101760304D01*
X131687219Y-100569828D02*
X131687219Y-100474590D01*
X131687219Y-100474590D02*
X131734838Y-100379352D01*
X131734838Y-100379352D02*
X131782457Y-100331733D01*
X131782457Y-100331733D02*
X131877695Y-100284114D01*
X131877695Y-100284114D02*
X132068171Y-100236495D01*
X132068171Y-100236495D02*
X132306266Y-100236495D01*
X132306266Y-100236495D02*
X132496742Y-100284114D01*
X132496742Y-100284114D02*
X132591980Y-100331733D01*
X132591980Y-100331733D02*
X132639600Y-100379352D01*
X132639600Y-100379352D02*
X132687219Y-100474590D01*
X132687219Y-100474590D02*
X132687219Y-100569828D01*
X132687219Y-100569828D02*
X132639600Y-100665066D01*
X132639600Y-100665066D02*
X132591980Y-100712685D01*
X132591980Y-100712685D02*
X132496742Y-100760304D01*
X132496742Y-100760304D02*
X132306266Y-100807923D01*
X132306266Y-100807923D02*
X132068171Y-100807923D01*
X132068171Y-100807923D02*
X131877695Y-100760304D01*
X131877695Y-100760304D02*
X131782457Y-100712685D01*
X131782457Y-100712685D02*
X131734838Y-100665066D01*
X131734838Y-100665066D02*
X131687219Y-100569828D01*
X111578819Y-103385857D02*
X111102628Y-103719190D01*
X111578819Y-103957285D02*
X110578819Y-103957285D01*
X110578819Y-103957285D02*
X110578819Y-103576333D01*
X110578819Y-103576333D02*
X110626438Y-103481095D01*
X110626438Y-103481095D02*
X110674057Y-103433476D01*
X110674057Y-103433476D02*
X110769295Y-103385857D01*
X110769295Y-103385857D02*
X110912152Y-103385857D01*
X110912152Y-103385857D02*
X111007390Y-103433476D01*
X111007390Y-103433476D02*
X111055009Y-103481095D01*
X111055009Y-103481095D02*
X111102628Y-103576333D01*
X111102628Y-103576333D02*
X111102628Y-103957285D01*
X111578819Y-102433476D02*
X111578819Y-103004904D01*
X111578819Y-102719190D02*
X110578819Y-102719190D01*
X110578819Y-102719190D02*
X110721676Y-102814428D01*
X110721676Y-102814428D02*
X110816914Y-102909666D01*
X110816914Y-102909666D02*
X110864533Y-103004904D01*
X111007390Y-101862047D02*
X110959771Y-101957285D01*
X110959771Y-101957285D02*
X110912152Y-102004904D01*
X110912152Y-102004904D02*
X110816914Y-102052523D01*
X110816914Y-102052523D02*
X110769295Y-102052523D01*
X110769295Y-102052523D02*
X110674057Y-102004904D01*
X110674057Y-102004904D02*
X110626438Y-101957285D01*
X110626438Y-101957285D02*
X110578819Y-101862047D01*
X110578819Y-101862047D02*
X110578819Y-101671571D01*
X110578819Y-101671571D02*
X110626438Y-101576333D01*
X110626438Y-101576333D02*
X110674057Y-101528714D01*
X110674057Y-101528714D02*
X110769295Y-101481095D01*
X110769295Y-101481095D02*
X110816914Y-101481095D01*
X110816914Y-101481095D02*
X110912152Y-101528714D01*
X110912152Y-101528714D02*
X110959771Y-101576333D01*
X110959771Y-101576333D02*
X111007390Y-101671571D01*
X111007390Y-101671571D02*
X111007390Y-101862047D01*
X111007390Y-101862047D02*
X111055009Y-101957285D01*
X111055009Y-101957285D02*
X111102628Y-102004904D01*
X111102628Y-102004904D02*
X111197866Y-102052523D01*
X111197866Y-102052523D02*
X111388342Y-102052523D01*
X111388342Y-102052523D02*
X111483580Y-102004904D01*
X111483580Y-102004904D02*
X111531200Y-101957285D01*
X111531200Y-101957285D02*
X111578819Y-101862047D01*
X111578819Y-101862047D02*
X111578819Y-101671571D01*
X111578819Y-101671571D02*
X111531200Y-101576333D01*
X111531200Y-101576333D02*
X111483580Y-101528714D01*
X111483580Y-101528714D02*
X111388342Y-101481095D01*
X111388342Y-101481095D02*
X111197866Y-101481095D01*
X111197866Y-101481095D02*
X111102628Y-101528714D01*
X111102628Y-101528714D02*
X111055009Y-101576333D01*
X111055009Y-101576333D02*
X111007390Y-101671571D01*
X115395476Y-75515219D02*
X115395476Y-76229504D01*
X115395476Y-76229504D02*
X115347857Y-76372361D01*
X115347857Y-76372361D02*
X115252619Y-76467600D01*
X115252619Y-76467600D02*
X115109762Y-76515219D01*
X115109762Y-76515219D02*
X115014524Y-76515219D01*
X116395476Y-76515219D02*
X115824048Y-76515219D01*
X116109762Y-76515219D02*
X116109762Y-75515219D01*
X116109762Y-75515219D02*
X116014524Y-75658076D01*
X116014524Y-75658076D02*
X115919286Y-75753314D01*
X115919286Y-75753314D02*
X115824048Y-75800933D01*
X116728810Y-75515219D02*
X117395476Y-75515219D01*
X117395476Y-75515219D02*
X116966905Y-76515219D01*
X158975466Y-81039619D02*
X158975466Y-81753904D01*
X158975466Y-81753904D02*
X158927847Y-81896761D01*
X158927847Y-81896761D02*
X158832609Y-81992000D01*
X158832609Y-81992000D02*
X158689752Y-82039619D01*
X158689752Y-82039619D02*
X158594514Y-82039619D01*
X159499276Y-82039619D02*
X159689752Y-82039619D01*
X159689752Y-82039619D02*
X159784990Y-81992000D01*
X159784990Y-81992000D02*
X159832609Y-81944380D01*
X159832609Y-81944380D02*
X159927847Y-81801523D01*
X159927847Y-81801523D02*
X159975466Y-81611047D01*
X159975466Y-81611047D02*
X159975466Y-81230095D01*
X159975466Y-81230095D02*
X159927847Y-81134857D01*
X159927847Y-81134857D02*
X159880228Y-81087238D01*
X159880228Y-81087238D02*
X159784990Y-81039619D01*
X159784990Y-81039619D02*
X159594514Y-81039619D01*
X159594514Y-81039619D02*
X159499276Y-81087238D01*
X159499276Y-81087238D02*
X159451657Y-81134857D01*
X159451657Y-81134857D02*
X159404038Y-81230095D01*
X159404038Y-81230095D02*
X159404038Y-81468190D01*
X159404038Y-81468190D02*
X159451657Y-81563428D01*
X159451657Y-81563428D02*
X159499276Y-81611047D01*
X159499276Y-81611047D02*
X159594514Y-81658666D01*
X159594514Y-81658666D02*
X159784990Y-81658666D01*
X159784990Y-81658666D02*
X159880228Y-81611047D01*
X159880228Y-81611047D02*
X159927847Y-81563428D01*
X159927847Y-81563428D02*
X159975466Y-81468190D01*
X104072476Y-75515219D02*
X104072476Y-76229504D01*
X104072476Y-76229504D02*
X104024857Y-76372361D01*
X104024857Y-76372361D02*
X103929619Y-76467600D01*
X103929619Y-76467600D02*
X103786762Y-76515219D01*
X103786762Y-76515219D02*
X103691524Y-76515219D01*
X104501048Y-75610457D02*
X104548667Y-75562838D01*
X104548667Y-75562838D02*
X104643905Y-75515219D01*
X104643905Y-75515219D02*
X104882000Y-75515219D01*
X104882000Y-75515219D02*
X104977238Y-75562838D01*
X104977238Y-75562838D02*
X105024857Y-75610457D01*
X105024857Y-75610457D02*
X105072476Y-75705695D01*
X105072476Y-75705695D02*
X105072476Y-75800933D01*
X105072476Y-75800933D02*
X105024857Y-75943790D01*
X105024857Y-75943790D02*
X104453429Y-76515219D01*
X104453429Y-76515219D02*
X105072476Y-76515219D01*
X105691524Y-75515219D02*
X105786762Y-75515219D01*
X105786762Y-75515219D02*
X105882000Y-75562838D01*
X105882000Y-75562838D02*
X105929619Y-75610457D01*
X105929619Y-75610457D02*
X105977238Y-75705695D01*
X105977238Y-75705695D02*
X106024857Y-75896171D01*
X106024857Y-75896171D02*
X106024857Y-76134266D01*
X106024857Y-76134266D02*
X105977238Y-76324742D01*
X105977238Y-76324742D02*
X105929619Y-76419980D01*
X105929619Y-76419980D02*
X105882000Y-76467600D01*
X105882000Y-76467600D02*
X105786762Y-76515219D01*
X105786762Y-76515219D02*
X105691524Y-76515219D01*
X105691524Y-76515219D02*
X105596286Y-76467600D01*
X105596286Y-76467600D02*
X105548667Y-76419980D01*
X105548667Y-76419980D02*
X105501048Y-76324742D01*
X105501048Y-76324742D02*
X105453429Y-76134266D01*
X105453429Y-76134266D02*
X105453429Y-75896171D01*
X105453429Y-75896171D02*
X105501048Y-75705695D01*
X105501048Y-75705695D02*
X105548667Y-75610457D01*
X105548667Y-75610457D02*
X105596286Y-75562838D01*
X105596286Y-75562838D02*
X105691524Y-75515219D01*
X125098980Y-110275666D02*
X125146600Y-110323285D01*
X125146600Y-110323285D02*
X125194219Y-110466142D01*
X125194219Y-110466142D02*
X125194219Y-110561380D01*
X125194219Y-110561380D02*
X125146600Y-110704237D01*
X125146600Y-110704237D02*
X125051361Y-110799475D01*
X125051361Y-110799475D02*
X124956123Y-110847094D01*
X124956123Y-110847094D02*
X124765647Y-110894713D01*
X124765647Y-110894713D02*
X124622790Y-110894713D01*
X124622790Y-110894713D02*
X124432314Y-110847094D01*
X124432314Y-110847094D02*
X124337076Y-110799475D01*
X124337076Y-110799475D02*
X124241838Y-110704237D01*
X124241838Y-110704237D02*
X124194219Y-110561380D01*
X124194219Y-110561380D02*
X124194219Y-110466142D01*
X124194219Y-110466142D02*
X124241838Y-110323285D01*
X124241838Y-110323285D02*
X124289457Y-110275666D01*
X124194219Y-109942332D02*
X124194219Y-109275666D01*
X124194219Y-109275666D02*
X125194219Y-109704237D01*
D14*
X121729332Y-110286200D02*
X121586475Y-110238580D01*
X121586475Y-110238580D02*
X121348380Y-110238580D01*
X121348380Y-110238580D02*
X121253142Y-110286200D01*
X121253142Y-110286200D02*
X121205523Y-110333819D01*
X121205523Y-110333819D02*
X121157904Y-110429057D01*
X121157904Y-110429057D02*
X121157904Y-110524295D01*
X121157904Y-110524295D02*
X121205523Y-110619533D01*
X121205523Y-110619533D02*
X121253142Y-110667152D01*
X121253142Y-110667152D02*
X121348380Y-110714771D01*
X121348380Y-110714771D02*
X121538856Y-110762390D01*
X121538856Y-110762390D02*
X121634094Y-110810009D01*
X121634094Y-110810009D02*
X121681713Y-110857628D01*
X121681713Y-110857628D02*
X121729332Y-110952866D01*
X121729332Y-110952866D02*
X121729332Y-111048104D01*
X121729332Y-111048104D02*
X121681713Y-111143342D01*
X121681713Y-111143342D02*
X121634094Y-111190961D01*
X121634094Y-111190961D02*
X121538856Y-111238580D01*
X121538856Y-111238580D02*
X121300761Y-111238580D01*
X121300761Y-111238580D02*
X121157904Y-111190961D01*
X120824570Y-111238580D02*
X120586475Y-110238580D01*
X120586475Y-110238580D02*
X120395999Y-110952866D01*
X120395999Y-110952866D02*
X120205523Y-110238580D01*
X120205523Y-110238580D02*
X119967428Y-111238580D01*
X119157904Y-110905247D02*
X119157904Y-110238580D01*
X119395999Y-111286200D02*
X119634094Y-110571914D01*
X119634094Y-110571914D02*
X119015047Y-110571914D01*
D12*
X90046276Y-75515219D02*
X90046276Y-76229504D01*
X90046276Y-76229504D02*
X89998657Y-76372361D01*
X89998657Y-76372361D02*
X89903419Y-76467600D01*
X89903419Y-76467600D02*
X89760562Y-76515219D01*
X89760562Y-76515219D02*
X89665324Y-76515219D01*
X90474848Y-75610457D02*
X90522467Y-75562838D01*
X90522467Y-75562838D02*
X90617705Y-75515219D01*
X90617705Y-75515219D02*
X90855800Y-75515219D01*
X90855800Y-75515219D02*
X90951038Y-75562838D01*
X90951038Y-75562838D02*
X90998657Y-75610457D01*
X90998657Y-75610457D02*
X91046276Y-75705695D01*
X91046276Y-75705695D02*
X91046276Y-75800933D01*
X91046276Y-75800933D02*
X90998657Y-75943790D01*
X90998657Y-75943790D02*
X90427229Y-76515219D01*
X90427229Y-76515219D02*
X91046276Y-76515219D01*
X91998657Y-76515219D02*
X91427229Y-76515219D01*
X91712943Y-76515219D02*
X91712943Y-75515219D01*
X91712943Y-75515219D02*
X91617705Y-75658076D01*
X91617705Y-75658076D02*
X91522467Y-75753314D01*
X91522467Y-75753314D02*
X91427229Y-75800933D01*
X164221580Y-91606666D02*
X164269200Y-91654285D01*
X164269200Y-91654285D02*
X164316819Y-91797142D01*
X164316819Y-91797142D02*
X164316819Y-91892380D01*
X164316819Y-91892380D02*
X164269200Y-92035237D01*
X164269200Y-92035237D02*
X164173961Y-92130475D01*
X164173961Y-92130475D02*
X164078723Y-92178094D01*
X164078723Y-92178094D02*
X163888247Y-92225713D01*
X163888247Y-92225713D02*
X163745390Y-92225713D01*
X163745390Y-92225713D02*
X163554914Y-92178094D01*
X163554914Y-92178094D02*
X163459676Y-92130475D01*
X163459676Y-92130475D02*
X163364438Y-92035237D01*
X163364438Y-92035237D02*
X163316819Y-91892380D01*
X163316819Y-91892380D02*
X163316819Y-91797142D01*
X163316819Y-91797142D02*
X163364438Y-91654285D01*
X163364438Y-91654285D02*
X163412057Y-91606666D01*
X163412057Y-91225713D02*
X163364438Y-91178094D01*
X163364438Y-91178094D02*
X163316819Y-91082856D01*
X163316819Y-91082856D02*
X163316819Y-90844761D01*
X163316819Y-90844761D02*
X163364438Y-90749523D01*
X163364438Y-90749523D02*
X163412057Y-90701904D01*
X163412057Y-90701904D02*
X163507295Y-90654285D01*
X163507295Y-90654285D02*
X163602533Y-90654285D01*
X163602533Y-90654285D02*
X163745390Y-90701904D01*
X163745390Y-90701904D02*
X164316819Y-91273332D01*
X164316819Y-91273332D02*
X164316819Y-90654285D01*
X148908419Y-104238323D02*
X149622704Y-104238323D01*
X149622704Y-104238323D02*
X149765561Y-104285942D01*
X149765561Y-104285942D02*
X149860800Y-104381180D01*
X149860800Y-104381180D02*
X149908419Y-104524037D01*
X149908419Y-104524037D02*
X149908419Y-104619275D01*
X149003657Y-103809751D02*
X148956038Y-103762132D01*
X148956038Y-103762132D02*
X148908419Y-103666894D01*
X148908419Y-103666894D02*
X148908419Y-103428799D01*
X148908419Y-103428799D02*
X148956038Y-103333561D01*
X148956038Y-103333561D02*
X149003657Y-103285942D01*
X149003657Y-103285942D02*
X149098895Y-103238323D01*
X149098895Y-103238323D02*
X149194133Y-103238323D01*
X149194133Y-103238323D02*
X149336990Y-103285942D01*
X149336990Y-103285942D02*
X149908419Y-103857370D01*
X149908419Y-103857370D02*
X149908419Y-103238323D01*
X149003657Y-102857370D02*
X148956038Y-102809751D01*
X148956038Y-102809751D02*
X148908419Y-102714513D01*
X148908419Y-102714513D02*
X148908419Y-102476418D01*
X148908419Y-102476418D02*
X148956038Y-102381180D01*
X148956038Y-102381180D02*
X149003657Y-102333561D01*
X149003657Y-102333561D02*
X149098895Y-102285942D01*
X149098895Y-102285942D02*
X149194133Y-102285942D01*
X149194133Y-102285942D02*
X149336990Y-102333561D01*
X149336990Y-102333561D02*
X149908419Y-102904989D01*
X149908419Y-102904989D02*
X149908419Y-102285942D01*
X137310019Y-103290666D02*
X136833828Y-103623999D01*
X137310019Y-103862094D02*
X136310019Y-103862094D01*
X136310019Y-103862094D02*
X136310019Y-103481142D01*
X136310019Y-103481142D02*
X136357638Y-103385904D01*
X136357638Y-103385904D02*
X136405257Y-103338285D01*
X136405257Y-103338285D02*
X136500495Y-103290666D01*
X136500495Y-103290666D02*
X136643352Y-103290666D01*
X136643352Y-103290666D02*
X136738590Y-103338285D01*
X136738590Y-103338285D02*
X136786209Y-103385904D01*
X136786209Y-103385904D02*
X136833828Y-103481142D01*
X136833828Y-103481142D02*
X136833828Y-103862094D01*
X136310019Y-102385904D02*
X136310019Y-102862094D01*
X136310019Y-102862094D02*
X136786209Y-102909713D01*
X136786209Y-102909713D02*
X136738590Y-102862094D01*
X136738590Y-102862094D02*
X136690971Y-102766856D01*
X136690971Y-102766856D02*
X136690971Y-102528761D01*
X136690971Y-102528761D02*
X136738590Y-102433523D01*
X136738590Y-102433523D02*
X136786209Y-102385904D01*
X136786209Y-102385904D02*
X136881447Y-102338285D01*
X136881447Y-102338285D02*
X137119542Y-102338285D01*
X137119542Y-102338285D02*
X137214780Y-102385904D01*
X137214780Y-102385904D02*
X137262400Y-102433523D01*
X137262400Y-102433523D02*
X137310019Y-102528761D01*
X137310019Y-102528761D02*
X137310019Y-102766856D01*
X137310019Y-102766856D02*
X137262400Y-102862094D01*
X137262400Y-102862094D02*
X137214780Y-102909713D01*
X136828305Y-109293819D02*
X136828305Y-108293819D01*
X136828305Y-108293819D02*
X137066400Y-108293819D01*
X137066400Y-108293819D02*
X137209257Y-108341438D01*
X137209257Y-108341438D02*
X137304495Y-108436676D01*
X137304495Y-108436676D02*
X137352114Y-108531914D01*
X137352114Y-108531914D02*
X137399733Y-108722390D01*
X137399733Y-108722390D02*
X137399733Y-108865247D01*
X137399733Y-108865247D02*
X137352114Y-109055723D01*
X137352114Y-109055723D02*
X137304495Y-109150961D01*
X137304495Y-109150961D02*
X137209257Y-109246200D01*
X137209257Y-109246200D02*
X137066400Y-109293819D01*
X137066400Y-109293819D02*
X136828305Y-109293819D01*
X137733067Y-108293819D02*
X138352114Y-108293819D01*
X138352114Y-108293819D02*
X138018781Y-108674771D01*
X138018781Y-108674771D02*
X138161638Y-108674771D01*
X138161638Y-108674771D02*
X138256876Y-108722390D01*
X138256876Y-108722390D02*
X138304495Y-108770009D01*
X138304495Y-108770009D02*
X138352114Y-108865247D01*
X138352114Y-108865247D02*
X138352114Y-109103342D01*
X138352114Y-109103342D02*
X138304495Y-109198580D01*
X138304495Y-109198580D02*
X138256876Y-109246200D01*
X138256876Y-109246200D02*
X138161638Y-109293819D01*
X138161638Y-109293819D02*
X137875924Y-109293819D01*
X137875924Y-109293819D02*
X137780686Y-109246200D01*
X137780686Y-109246200D02*
X137733067Y-109198580D01*
X125118019Y-105373466D02*
X124641828Y-105706799D01*
X125118019Y-105944894D02*
X124118019Y-105944894D01*
X124118019Y-105944894D02*
X124118019Y-105563942D01*
X124118019Y-105563942D02*
X124165638Y-105468704D01*
X124165638Y-105468704D02*
X124213257Y-105421085D01*
X124213257Y-105421085D02*
X124308495Y-105373466D01*
X124308495Y-105373466D02*
X124451352Y-105373466D01*
X124451352Y-105373466D02*
X124546590Y-105421085D01*
X124546590Y-105421085D02*
X124594209Y-105468704D01*
X124594209Y-105468704D02*
X124641828Y-105563942D01*
X124641828Y-105563942D02*
X124641828Y-105944894D01*
X125118019Y-104897275D02*
X125118019Y-104706799D01*
X125118019Y-104706799D02*
X125070400Y-104611561D01*
X125070400Y-104611561D02*
X125022780Y-104563942D01*
X125022780Y-104563942D02*
X124879923Y-104468704D01*
X124879923Y-104468704D02*
X124689447Y-104421085D01*
X124689447Y-104421085D02*
X124308495Y-104421085D01*
X124308495Y-104421085D02*
X124213257Y-104468704D01*
X124213257Y-104468704D02*
X124165638Y-104516323D01*
X124165638Y-104516323D02*
X124118019Y-104611561D01*
X124118019Y-104611561D02*
X124118019Y-104802037D01*
X124118019Y-104802037D02*
X124165638Y-104897275D01*
X124165638Y-104897275D02*
X124213257Y-104944894D01*
X124213257Y-104944894D02*
X124308495Y-104992513D01*
X124308495Y-104992513D02*
X124546590Y-104992513D01*
X124546590Y-104992513D02*
X124641828Y-104944894D01*
X124641828Y-104944894D02*
X124689447Y-104897275D01*
X124689447Y-104897275D02*
X124737066Y-104802037D01*
X124737066Y-104802037D02*
X124737066Y-104611561D01*
X124737066Y-104611561D02*
X124689447Y-104516323D01*
X124689447Y-104516323D02*
X124641828Y-104468704D01*
X124641828Y-104468704D02*
X124546590Y-104421085D01*
D14*
X161226667Y-110693800D02*
X161369524Y-110741419D01*
X161369524Y-110741419D02*
X161607619Y-110741419D01*
X161607619Y-110741419D02*
X161702857Y-110693800D01*
X161702857Y-110693800D02*
X161750476Y-110646180D01*
X161750476Y-110646180D02*
X161798095Y-110550942D01*
X161798095Y-110550942D02*
X161798095Y-110455704D01*
X161798095Y-110455704D02*
X161750476Y-110360466D01*
X161750476Y-110360466D02*
X161702857Y-110312847D01*
X161702857Y-110312847D02*
X161607619Y-110265228D01*
X161607619Y-110265228D02*
X161417143Y-110217609D01*
X161417143Y-110217609D02*
X161321905Y-110169990D01*
X161321905Y-110169990D02*
X161274286Y-110122371D01*
X161274286Y-110122371D02*
X161226667Y-110027133D01*
X161226667Y-110027133D02*
X161226667Y-109931895D01*
X161226667Y-109931895D02*
X161274286Y-109836657D01*
X161274286Y-109836657D02*
X161321905Y-109789038D01*
X161321905Y-109789038D02*
X161417143Y-109741419D01*
X161417143Y-109741419D02*
X161655238Y-109741419D01*
X161655238Y-109741419D02*
X161798095Y-109789038D01*
X162131429Y-109741419D02*
X162369524Y-110741419D01*
X162369524Y-110741419D02*
X162560000Y-110027133D01*
X162560000Y-110027133D02*
X162750476Y-110741419D01*
X162750476Y-110741419D02*
X162988572Y-109741419D01*
X163321905Y-109836657D02*
X163369524Y-109789038D01*
X163369524Y-109789038D02*
X163464762Y-109741419D01*
X163464762Y-109741419D02*
X163702857Y-109741419D01*
X163702857Y-109741419D02*
X163798095Y-109789038D01*
X163798095Y-109789038D02*
X163845714Y-109836657D01*
X163845714Y-109836657D02*
X163893333Y-109931895D01*
X163893333Y-109931895D02*
X163893333Y-110027133D01*
X163893333Y-110027133D02*
X163845714Y-110169990D01*
X163845714Y-110169990D02*
X163274286Y-110741419D01*
X163274286Y-110741419D02*
X163893333Y-110741419D01*
D12*
X162393333Y-100683219D02*
X162060000Y-100207028D01*
X161821905Y-100683219D02*
X161821905Y-99683219D01*
X161821905Y-99683219D02*
X162202857Y-99683219D01*
X162202857Y-99683219D02*
X162298095Y-99730838D01*
X162298095Y-99730838D02*
X162345714Y-99778457D01*
X162345714Y-99778457D02*
X162393333Y-99873695D01*
X162393333Y-99873695D02*
X162393333Y-100016552D01*
X162393333Y-100016552D02*
X162345714Y-100111790D01*
X162345714Y-100111790D02*
X162298095Y-100159409D01*
X162298095Y-100159409D02*
X162202857Y-100207028D01*
X162202857Y-100207028D02*
X161821905Y-100207028D01*
X162774286Y-99778457D02*
X162821905Y-99730838D01*
X162821905Y-99730838D02*
X162917143Y-99683219D01*
X162917143Y-99683219D02*
X163155238Y-99683219D01*
X163155238Y-99683219D02*
X163250476Y-99730838D01*
X163250476Y-99730838D02*
X163298095Y-99778457D01*
X163298095Y-99778457D02*
X163345714Y-99873695D01*
X163345714Y-99873695D02*
X163345714Y-99968933D01*
X163345714Y-99968933D02*
X163298095Y-100111790D01*
X163298095Y-100111790D02*
X162726667Y-100683219D01*
X162726667Y-100683219D02*
X163345714Y-100683219D01*
X119199819Y-103464857D02*
X118723628Y-103798190D01*
X119199819Y-104036285D02*
X118199819Y-104036285D01*
X118199819Y-104036285D02*
X118199819Y-103655333D01*
X118199819Y-103655333D02*
X118247438Y-103560095D01*
X118247438Y-103560095D02*
X118295057Y-103512476D01*
X118295057Y-103512476D02*
X118390295Y-103464857D01*
X118390295Y-103464857D02*
X118533152Y-103464857D01*
X118533152Y-103464857D02*
X118628390Y-103512476D01*
X118628390Y-103512476D02*
X118676009Y-103560095D01*
X118676009Y-103560095D02*
X118723628Y-103655333D01*
X118723628Y-103655333D02*
X118723628Y-104036285D01*
X119199819Y-102512476D02*
X119199819Y-103083904D01*
X119199819Y-102798190D02*
X118199819Y-102798190D01*
X118199819Y-102798190D02*
X118342676Y-102893428D01*
X118342676Y-102893428D02*
X118437914Y-102988666D01*
X118437914Y-102988666D02*
X118485533Y-103083904D01*
X118199819Y-102179142D02*
X118199819Y-101512476D01*
X118199819Y-101512476D02*
X119199819Y-101941047D01*
X99451580Y-91606666D02*
X99499200Y-91654285D01*
X99499200Y-91654285D02*
X99546819Y-91797142D01*
X99546819Y-91797142D02*
X99546819Y-91892380D01*
X99546819Y-91892380D02*
X99499200Y-92035237D01*
X99499200Y-92035237D02*
X99403961Y-92130475D01*
X99403961Y-92130475D02*
X99308723Y-92178094D01*
X99308723Y-92178094D02*
X99118247Y-92225713D01*
X99118247Y-92225713D02*
X98975390Y-92225713D01*
X98975390Y-92225713D02*
X98784914Y-92178094D01*
X98784914Y-92178094D02*
X98689676Y-92130475D01*
X98689676Y-92130475D02*
X98594438Y-92035237D01*
X98594438Y-92035237D02*
X98546819Y-91892380D01*
X98546819Y-91892380D02*
X98546819Y-91797142D01*
X98546819Y-91797142D02*
X98594438Y-91654285D01*
X98594438Y-91654285D02*
X98642057Y-91606666D01*
X98975390Y-91035237D02*
X98927771Y-91130475D01*
X98927771Y-91130475D02*
X98880152Y-91178094D01*
X98880152Y-91178094D02*
X98784914Y-91225713D01*
X98784914Y-91225713D02*
X98737295Y-91225713D01*
X98737295Y-91225713D02*
X98642057Y-91178094D01*
X98642057Y-91178094D02*
X98594438Y-91130475D01*
X98594438Y-91130475D02*
X98546819Y-91035237D01*
X98546819Y-91035237D02*
X98546819Y-90844761D01*
X98546819Y-90844761D02*
X98594438Y-90749523D01*
X98594438Y-90749523D02*
X98642057Y-90701904D01*
X98642057Y-90701904D02*
X98737295Y-90654285D01*
X98737295Y-90654285D02*
X98784914Y-90654285D01*
X98784914Y-90654285D02*
X98880152Y-90701904D01*
X98880152Y-90701904D02*
X98927771Y-90749523D01*
X98927771Y-90749523D02*
X98975390Y-90844761D01*
X98975390Y-90844761D02*
X98975390Y-91035237D01*
X98975390Y-91035237D02*
X99023009Y-91130475D01*
X99023009Y-91130475D02*
X99070628Y-91178094D01*
X99070628Y-91178094D02*
X99165866Y-91225713D01*
X99165866Y-91225713D02*
X99356342Y-91225713D01*
X99356342Y-91225713D02*
X99451580Y-91178094D01*
X99451580Y-91178094D02*
X99499200Y-91130475D01*
X99499200Y-91130475D02*
X99546819Y-91035237D01*
X99546819Y-91035237D02*
X99546819Y-90844761D01*
X99546819Y-90844761D02*
X99499200Y-90749523D01*
X99499200Y-90749523D02*
X99451580Y-90701904D01*
X99451580Y-90701904D02*
X99356342Y-90654285D01*
X99356342Y-90654285D02*
X99165866Y-90654285D01*
X99165866Y-90654285D02*
X99070628Y-90701904D01*
X99070628Y-90701904D02*
X99023009Y-90749523D01*
X99023009Y-90749523D02*
X98975390Y-90844761D01*
X129360705Y-109141419D02*
X129360705Y-108141419D01*
X129360705Y-108141419D02*
X129598800Y-108141419D01*
X129598800Y-108141419D02*
X129741657Y-108189038D01*
X129741657Y-108189038D02*
X129836895Y-108284276D01*
X129836895Y-108284276D02*
X129884514Y-108379514D01*
X129884514Y-108379514D02*
X129932133Y-108569990D01*
X129932133Y-108569990D02*
X129932133Y-108712847D01*
X129932133Y-108712847D02*
X129884514Y-108903323D01*
X129884514Y-108903323D02*
X129836895Y-108998561D01*
X129836895Y-108998561D02*
X129741657Y-109093800D01*
X129741657Y-109093800D02*
X129598800Y-109141419D01*
X129598800Y-109141419D02*
X129360705Y-109141419D01*
X130313086Y-108236657D02*
X130360705Y-108189038D01*
X130360705Y-108189038D02*
X130455943Y-108141419D01*
X130455943Y-108141419D02*
X130694038Y-108141419D01*
X130694038Y-108141419D02*
X130789276Y-108189038D01*
X130789276Y-108189038D02*
X130836895Y-108236657D01*
X130836895Y-108236657D02*
X130884514Y-108331895D01*
X130884514Y-108331895D02*
X130884514Y-108427133D01*
X130884514Y-108427133D02*
X130836895Y-108569990D01*
X130836895Y-108569990D02*
X130265467Y-109141419D01*
X130265467Y-109141419D02*
X130884514Y-109141419D01*
X143136580Y-106237066D02*
X143184200Y-106284685D01*
X143184200Y-106284685D02*
X143231819Y-106427542D01*
X143231819Y-106427542D02*
X143231819Y-106522780D01*
X143231819Y-106522780D02*
X143184200Y-106665637D01*
X143184200Y-106665637D02*
X143088961Y-106760875D01*
X143088961Y-106760875D02*
X142993723Y-106808494D01*
X142993723Y-106808494D02*
X142803247Y-106856113D01*
X142803247Y-106856113D02*
X142660390Y-106856113D01*
X142660390Y-106856113D02*
X142469914Y-106808494D01*
X142469914Y-106808494D02*
X142374676Y-106760875D01*
X142374676Y-106760875D02*
X142279438Y-106665637D01*
X142279438Y-106665637D02*
X142231819Y-106522780D01*
X142231819Y-106522780D02*
X142231819Y-106427542D01*
X142231819Y-106427542D02*
X142279438Y-106284685D01*
X142279438Y-106284685D02*
X142327057Y-106237066D01*
X143231819Y-105284685D02*
X143231819Y-105856113D01*
X143231819Y-105570399D02*
X142231819Y-105570399D01*
X142231819Y-105570399D02*
X142374676Y-105665637D01*
X142374676Y-105665637D02*
X142469914Y-105760875D01*
X142469914Y-105760875D02*
X142517533Y-105856113D01*
X89116819Y-90728332D02*
X89116819Y-90156904D01*
X90116819Y-90442618D02*
X89116819Y-90442618D01*
X90116819Y-89823570D02*
X89116819Y-89823570D01*
X89116819Y-89823570D02*
X89831104Y-89490237D01*
X89831104Y-89490237D02*
X89116819Y-89156904D01*
X89116819Y-89156904D02*
X90116819Y-89156904D01*
X90021580Y-88109285D02*
X90069200Y-88156904D01*
X90069200Y-88156904D02*
X90116819Y-88299761D01*
X90116819Y-88299761D02*
X90116819Y-88394999D01*
X90116819Y-88394999D02*
X90069200Y-88537856D01*
X90069200Y-88537856D02*
X89973961Y-88633094D01*
X89973961Y-88633094D02*
X89878723Y-88680713D01*
X89878723Y-88680713D02*
X89688247Y-88728332D01*
X89688247Y-88728332D02*
X89545390Y-88728332D01*
X89545390Y-88728332D02*
X89354914Y-88680713D01*
X89354914Y-88680713D02*
X89259676Y-88633094D01*
X89259676Y-88633094D02*
X89164438Y-88537856D01*
X89164438Y-88537856D02*
X89116819Y-88394999D01*
X89116819Y-88394999D02*
X89116819Y-88299761D01*
X89116819Y-88299761D02*
X89164438Y-88156904D01*
X89164438Y-88156904D02*
X89212057Y-88109285D01*
X89450152Y-87252142D02*
X90116819Y-87252142D01*
X89069200Y-87490237D02*
X89783485Y-87728332D01*
X89783485Y-87728332D02*
X89783485Y-87109285D01*
X105890219Y-106764057D02*
X105414028Y-107097390D01*
X105890219Y-107335485D02*
X104890219Y-107335485D01*
X104890219Y-107335485D02*
X104890219Y-106954533D01*
X104890219Y-106954533D02*
X104937838Y-106859295D01*
X104937838Y-106859295D02*
X104985457Y-106811676D01*
X104985457Y-106811676D02*
X105080695Y-106764057D01*
X105080695Y-106764057D02*
X105223552Y-106764057D01*
X105223552Y-106764057D02*
X105318790Y-106811676D01*
X105318790Y-106811676D02*
X105366409Y-106859295D01*
X105366409Y-106859295D02*
X105414028Y-106954533D01*
X105414028Y-106954533D02*
X105414028Y-107335485D01*
X105890219Y-105811676D02*
X105890219Y-106383104D01*
X105890219Y-106097390D02*
X104890219Y-106097390D01*
X104890219Y-106097390D02*
X105033076Y-106192628D01*
X105033076Y-106192628D02*
X105128314Y-106287866D01*
X105128314Y-106287866D02*
X105175933Y-106383104D01*
X104890219Y-104954533D02*
X104890219Y-105145009D01*
X104890219Y-105145009D02*
X104937838Y-105240247D01*
X104937838Y-105240247D02*
X104985457Y-105287866D01*
X104985457Y-105287866D02*
X105128314Y-105383104D01*
X105128314Y-105383104D02*
X105318790Y-105430723D01*
X105318790Y-105430723D02*
X105699742Y-105430723D01*
X105699742Y-105430723D02*
X105794980Y-105383104D01*
X105794980Y-105383104D02*
X105842600Y-105335485D01*
X105842600Y-105335485D02*
X105890219Y-105240247D01*
X105890219Y-105240247D02*
X105890219Y-105049771D01*
X105890219Y-105049771D02*
X105842600Y-104954533D01*
X105842600Y-104954533D02*
X105794980Y-104906914D01*
X105794980Y-104906914D02*
X105699742Y-104859295D01*
X105699742Y-104859295D02*
X105461647Y-104859295D01*
X105461647Y-104859295D02*
X105366409Y-104906914D01*
X105366409Y-104906914D02*
X105318790Y-104954533D01*
X105318790Y-104954533D02*
X105271171Y-105049771D01*
X105271171Y-105049771D02*
X105271171Y-105240247D01*
X105271171Y-105240247D02*
X105318790Y-105335485D01*
X105318790Y-105335485D02*
X105366409Y-105383104D01*
X105366409Y-105383104D02*
X105461647Y-105430723D01*
X138834905Y-109065219D02*
X138834905Y-108065219D01*
X138834905Y-108065219D02*
X139073000Y-108065219D01*
X139073000Y-108065219D02*
X139215857Y-108112838D01*
X139215857Y-108112838D02*
X139311095Y-108208076D01*
X139311095Y-108208076D02*
X139358714Y-108303314D01*
X139358714Y-108303314D02*
X139406333Y-108493790D01*
X139406333Y-108493790D02*
X139406333Y-108636647D01*
X139406333Y-108636647D02*
X139358714Y-108827123D01*
X139358714Y-108827123D02*
X139311095Y-108922361D01*
X139311095Y-108922361D02*
X139215857Y-109017600D01*
X139215857Y-109017600D02*
X139073000Y-109065219D01*
X139073000Y-109065219D02*
X138834905Y-109065219D01*
X140358714Y-109065219D02*
X139787286Y-109065219D01*
X140073000Y-109065219D02*
X140073000Y-108065219D01*
X140073000Y-108065219D02*
X139977762Y-108208076D01*
X139977762Y-108208076D02*
X139882524Y-108303314D01*
X139882524Y-108303314D02*
X139787286Y-108350933D01*
X127912019Y-103341466D02*
X127435828Y-103674799D01*
X127912019Y-103912894D02*
X126912019Y-103912894D01*
X126912019Y-103912894D02*
X126912019Y-103531942D01*
X126912019Y-103531942D02*
X126959638Y-103436704D01*
X126959638Y-103436704D02*
X127007257Y-103389085D01*
X127007257Y-103389085D02*
X127102495Y-103341466D01*
X127102495Y-103341466D02*
X127245352Y-103341466D01*
X127245352Y-103341466D02*
X127340590Y-103389085D01*
X127340590Y-103389085D02*
X127388209Y-103436704D01*
X127388209Y-103436704D02*
X127435828Y-103531942D01*
X127435828Y-103531942D02*
X127435828Y-103912894D01*
X127340590Y-102770037D02*
X127292971Y-102865275D01*
X127292971Y-102865275D02*
X127245352Y-102912894D01*
X127245352Y-102912894D02*
X127150114Y-102960513D01*
X127150114Y-102960513D02*
X127102495Y-102960513D01*
X127102495Y-102960513D02*
X127007257Y-102912894D01*
X127007257Y-102912894D02*
X126959638Y-102865275D01*
X126959638Y-102865275D02*
X126912019Y-102770037D01*
X126912019Y-102770037D02*
X126912019Y-102579561D01*
X126912019Y-102579561D02*
X126959638Y-102484323D01*
X126959638Y-102484323D02*
X127007257Y-102436704D01*
X127007257Y-102436704D02*
X127102495Y-102389085D01*
X127102495Y-102389085D02*
X127150114Y-102389085D01*
X127150114Y-102389085D02*
X127245352Y-102436704D01*
X127245352Y-102436704D02*
X127292971Y-102484323D01*
X127292971Y-102484323D02*
X127340590Y-102579561D01*
X127340590Y-102579561D02*
X127340590Y-102770037D01*
X127340590Y-102770037D02*
X127388209Y-102865275D01*
X127388209Y-102865275D02*
X127435828Y-102912894D01*
X127435828Y-102912894D02*
X127531066Y-102960513D01*
X127531066Y-102960513D02*
X127721542Y-102960513D01*
X127721542Y-102960513D02*
X127816780Y-102912894D01*
X127816780Y-102912894D02*
X127864400Y-102865275D01*
X127864400Y-102865275D02*
X127912019Y-102770037D01*
X127912019Y-102770037D02*
X127912019Y-102579561D01*
X127912019Y-102579561D02*
X127864400Y-102484323D01*
X127864400Y-102484323D02*
X127816780Y-102436704D01*
X127816780Y-102436704D02*
X127721542Y-102389085D01*
X127721542Y-102389085D02*
X127531066Y-102389085D01*
X127531066Y-102389085D02*
X127435828Y-102436704D01*
X127435828Y-102436704D02*
X127388209Y-102484323D01*
X127388209Y-102484323D02*
X127340590Y-102579561D01*
X169262466Y-81039619D02*
X169262466Y-81753904D01*
X169262466Y-81753904D02*
X169214847Y-81896761D01*
X169214847Y-81896761D02*
X169119609Y-81992000D01*
X169119609Y-81992000D02*
X168976752Y-82039619D01*
X168976752Y-82039619D02*
X168881514Y-82039619D01*
X169881514Y-81468190D02*
X169786276Y-81420571D01*
X169786276Y-81420571D02*
X169738657Y-81372952D01*
X169738657Y-81372952D02*
X169691038Y-81277714D01*
X169691038Y-81277714D02*
X169691038Y-81230095D01*
X169691038Y-81230095D02*
X169738657Y-81134857D01*
X169738657Y-81134857D02*
X169786276Y-81087238D01*
X169786276Y-81087238D02*
X169881514Y-81039619D01*
X169881514Y-81039619D02*
X170071990Y-81039619D01*
X170071990Y-81039619D02*
X170167228Y-81087238D01*
X170167228Y-81087238D02*
X170214847Y-81134857D01*
X170214847Y-81134857D02*
X170262466Y-81230095D01*
X170262466Y-81230095D02*
X170262466Y-81277714D01*
X170262466Y-81277714D02*
X170214847Y-81372952D01*
X170214847Y-81372952D02*
X170167228Y-81420571D01*
X170167228Y-81420571D02*
X170071990Y-81468190D01*
X170071990Y-81468190D02*
X169881514Y-81468190D01*
X169881514Y-81468190D02*
X169786276Y-81515809D01*
X169786276Y-81515809D02*
X169738657Y-81563428D01*
X169738657Y-81563428D02*
X169691038Y-81658666D01*
X169691038Y-81658666D02*
X169691038Y-81849142D01*
X169691038Y-81849142D02*
X169738657Y-81944380D01*
X169738657Y-81944380D02*
X169786276Y-81992000D01*
X169786276Y-81992000D02*
X169881514Y-82039619D01*
X169881514Y-82039619D02*
X170071990Y-82039619D01*
X170071990Y-82039619D02*
X170167228Y-81992000D01*
X170167228Y-81992000D02*
X170214847Y-81944380D01*
X170214847Y-81944380D02*
X170262466Y-81849142D01*
X170262466Y-81849142D02*
X170262466Y-81658666D01*
X170262466Y-81658666D02*
X170214847Y-81563428D01*
X170214847Y-81563428D02*
X170167228Y-81515809D01*
X170167228Y-81515809D02*
X170071990Y-81468190D01*
X143329819Y-112606057D02*
X142853628Y-112939390D01*
X143329819Y-113177485D02*
X142329819Y-113177485D01*
X142329819Y-113177485D02*
X142329819Y-112796533D01*
X142329819Y-112796533D02*
X142377438Y-112701295D01*
X142377438Y-112701295D02*
X142425057Y-112653676D01*
X142425057Y-112653676D02*
X142520295Y-112606057D01*
X142520295Y-112606057D02*
X142663152Y-112606057D01*
X142663152Y-112606057D02*
X142758390Y-112653676D01*
X142758390Y-112653676D02*
X142806009Y-112701295D01*
X142806009Y-112701295D02*
X142853628Y-112796533D01*
X142853628Y-112796533D02*
X142853628Y-113177485D01*
X143329819Y-111653676D02*
X143329819Y-112225104D01*
X143329819Y-111939390D02*
X142329819Y-111939390D01*
X142329819Y-111939390D02*
X142472676Y-112034628D01*
X142472676Y-112034628D02*
X142567914Y-112129866D01*
X142567914Y-112129866D02*
X142615533Y-112225104D01*
X142425057Y-111272723D02*
X142377438Y-111225104D01*
X142377438Y-111225104D02*
X142329819Y-111129866D01*
X142329819Y-111129866D02*
X142329819Y-110891771D01*
X142329819Y-110891771D02*
X142377438Y-110796533D01*
X142377438Y-110796533D02*
X142425057Y-110748914D01*
X142425057Y-110748914D02*
X142520295Y-110701295D01*
X142520295Y-110701295D02*
X142615533Y-110701295D01*
X142615533Y-110701295D02*
X142758390Y-110748914D01*
X142758390Y-110748914D02*
X143329819Y-111320342D01*
X143329819Y-111320342D02*
X143329819Y-110701295D01*
X134693819Y-107278466D02*
X134217628Y-107611799D01*
X134693819Y-107849894D02*
X133693819Y-107849894D01*
X133693819Y-107849894D02*
X133693819Y-107468942D01*
X133693819Y-107468942D02*
X133741438Y-107373704D01*
X133741438Y-107373704D02*
X133789057Y-107326085D01*
X133789057Y-107326085D02*
X133884295Y-107278466D01*
X133884295Y-107278466D02*
X134027152Y-107278466D01*
X134027152Y-107278466D02*
X134122390Y-107326085D01*
X134122390Y-107326085D02*
X134170009Y-107373704D01*
X134170009Y-107373704D02*
X134217628Y-107468942D01*
X134217628Y-107468942D02*
X134217628Y-107849894D01*
X133693819Y-106421323D02*
X133693819Y-106611799D01*
X133693819Y-106611799D02*
X133741438Y-106707037D01*
X133741438Y-106707037D02*
X133789057Y-106754656D01*
X133789057Y-106754656D02*
X133931914Y-106849894D01*
X133931914Y-106849894D02*
X134122390Y-106897513D01*
X134122390Y-106897513D02*
X134503342Y-106897513D01*
X134503342Y-106897513D02*
X134598580Y-106849894D01*
X134598580Y-106849894D02*
X134646200Y-106802275D01*
X134646200Y-106802275D02*
X134693819Y-106707037D01*
X134693819Y-106707037D02*
X134693819Y-106516561D01*
X134693819Y-106516561D02*
X134646200Y-106421323D01*
X134646200Y-106421323D02*
X134598580Y-106373704D01*
X134598580Y-106373704D02*
X134503342Y-106326085D01*
X134503342Y-106326085D02*
X134265247Y-106326085D01*
X134265247Y-106326085D02*
X134170009Y-106373704D01*
X134170009Y-106373704D02*
X134122390Y-106421323D01*
X134122390Y-106421323D02*
X134074771Y-106516561D01*
X134074771Y-106516561D02*
X134074771Y-106707037D01*
X134074771Y-106707037D02*
X134122390Y-106802275D01*
X134122390Y-106802275D02*
X134170009Y-106849894D01*
X134170009Y-106849894D02*
X134265247Y-106897513D01*
X140200142Y-114704019D02*
X139866809Y-114227828D01*
X139628714Y-114704019D02*
X139628714Y-113704019D01*
X139628714Y-113704019D02*
X140009666Y-113704019D01*
X140009666Y-113704019D02*
X140104904Y-113751638D01*
X140104904Y-113751638D02*
X140152523Y-113799257D01*
X140152523Y-113799257D02*
X140200142Y-113894495D01*
X140200142Y-113894495D02*
X140200142Y-114037352D01*
X140200142Y-114037352D02*
X140152523Y-114132590D01*
X140152523Y-114132590D02*
X140104904Y-114180209D01*
X140104904Y-114180209D02*
X140009666Y-114227828D01*
X140009666Y-114227828D02*
X139628714Y-114227828D01*
X141152523Y-114704019D02*
X140581095Y-114704019D01*
X140866809Y-114704019D02*
X140866809Y-113704019D01*
X140866809Y-113704019D02*
X140771571Y-113846876D01*
X140771571Y-113846876D02*
X140676333Y-113942114D01*
X140676333Y-113942114D02*
X140581095Y-113989733D01*
X142104904Y-114704019D02*
X141533476Y-114704019D01*
X141819190Y-114704019D02*
X141819190Y-113704019D01*
X141819190Y-113704019D02*
X141723952Y-113846876D01*
X141723952Y-113846876D02*
X141628714Y-113942114D01*
X141628714Y-113942114D02*
X141533476Y-113989733D01*
X107846019Y-106713257D02*
X107369828Y-107046590D01*
X107846019Y-107284685D02*
X106846019Y-107284685D01*
X106846019Y-107284685D02*
X106846019Y-106903733D01*
X106846019Y-106903733D02*
X106893638Y-106808495D01*
X106893638Y-106808495D02*
X106941257Y-106760876D01*
X106941257Y-106760876D02*
X107036495Y-106713257D01*
X107036495Y-106713257D02*
X107179352Y-106713257D01*
X107179352Y-106713257D02*
X107274590Y-106760876D01*
X107274590Y-106760876D02*
X107322209Y-106808495D01*
X107322209Y-106808495D02*
X107369828Y-106903733D01*
X107369828Y-106903733D02*
X107369828Y-107284685D01*
X107846019Y-105760876D02*
X107846019Y-106332304D01*
X107846019Y-106046590D02*
X106846019Y-106046590D01*
X106846019Y-106046590D02*
X106988876Y-106141828D01*
X106988876Y-106141828D02*
X107084114Y-106237066D01*
X107084114Y-106237066D02*
X107131733Y-106332304D01*
X106846019Y-105427542D02*
X106846019Y-104808495D01*
X106846019Y-104808495D02*
X107226971Y-105141828D01*
X107226971Y-105141828D02*
X107226971Y-104998971D01*
X107226971Y-104998971D02*
X107274590Y-104903733D01*
X107274590Y-104903733D02*
X107322209Y-104856114D01*
X107322209Y-104856114D02*
X107417447Y-104808495D01*
X107417447Y-104808495D02*
X107655542Y-104808495D01*
X107655542Y-104808495D02*
X107750780Y-104856114D01*
X107750780Y-104856114D02*
X107798400Y-104903733D01*
X107798400Y-104903733D02*
X107846019Y-104998971D01*
X107846019Y-104998971D02*
X107846019Y-105284685D01*
X107846019Y-105284685D02*
X107798400Y-105379923D01*
X107798400Y-105379923D02*
X107750780Y-105427542D01*
X120990780Y-91606666D02*
X121038400Y-91654285D01*
X121038400Y-91654285D02*
X121086019Y-91797142D01*
X121086019Y-91797142D02*
X121086019Y-91892380D01*
X121086019Y-91892380D02*
X121038400Y-92035237D01*
X121038400Y-92035237D02*
X120943161Y-92130475D01*
X120943161Y-92130475D02*
X120847923Y-92178094D01*
X120847923Y-92178094D02*
X120657447Y-92225713D01*
X120657447Y-92225713D02*
X120514590Y-92225713D01*
X120514590Y-92225713D02*
X120324114Y-92178094D01*
X120324114Y-92178094D02*
X120228876Y-92130475D01*
X120228876Y-92130475D02*
X120133638Y-92035237D01*
X120133638Y-92035237D02*
X120086019Y-91892380D01*
X120086019Y-91892380D02*
X120086019Y-91797142D01*
X120086019Y-91797142D02*
X120133638Y-91654285D01*
X120133638Y-91654285D02*
X120181257Y-91606666D01*
X120086019Y-90749523D02*
X120086019Y-90939999D01*
X120086019Y-90939999D02*
X120133638Y-91035237D01*
X120133638Y-91035237D02*
X120181257Y-91082856D01*
X120181257Y-91082856D02*
X120324114Y-91178094D01*
X120324114Y-91178094D02*
X120514590Y-91225713D01*
X120514590Y-91225713D02*
X120895542Y-91225713D01*
X120895542Y-91225713D02*
X120990780Y-91178094D01*
X120990780Y-91178094D02*
X121038400Y-91130475D01*
X121038400Y-91130475D02*
X121086019Y-91035237D01*
X121086019Y-91035237D02*
X121086019Y-90844761D01*
X121086019Y-90844761D02*
X121038400Y-90749523D01*
X121038400Y-90749523D02*
X120990780Y-90701904D01*
X120990780Y-90701904D02*
X120895542Y-90654285D01*
X120895542Y-90654285D02*
X120657447Y-90654285D01*
X120657447Y-90654285D02*
X120562209Y-90701904D01*
X120562209Y-90701904D02*
X120514590Y-90749523D01*
X120514590Y-90749523D02*
X120466971Y-90844761D01*
X120466971Y-90844761D02*
X120466971Y-91035237D01*
X120466971Y-91035237D02*
X120514590Y-91130475D01*
X120514590Y-91130475D02*
X120562209Y-91178094D01*
X120562209Y-91178094D02*
X120657447Y-91225713D01*
X171283333Y-100683219D02*
X170950000Y-100207028D01*
X170711905Y-100683219D02*
X170711905Y-99683219D01*
X170711905Y-99683219D02*
X171092857Y-99683219D01*
X171092857Y-99683219D02*
X171188095Y-99730838D01*
X171188095Y-99730838D02*
X171235714Y-99778457D01*
X171235714Y-99778457D02*
X171283333Y-99873695D01*
X171283333Y-99873695D02*
X171283333Y-100016552D01*
X171283333Y-100016552D02*
X171235714Y-100111790D01*
X171235714Y-100111790D02*
X171188095Y-100159409D01*
X171188095Y-100159409D02*
X171092857Y-100207028D01*
X171092857Y-100207028D02*
X170711905Y-100207028D01*
X171616667Y-99683219D02*
X172235714Y-99683219D01*
X172235714Y-99683219D02*
X171902381Y-100064171D01*
X171902381Y-100064171D02*
X172045238Y-100064171D01*
X172045238Y-100064171D02*
X172140476Y-100111790D01*
X172140476Y-100111790D02*
X172188095Y-100159409D01*
X172188095Y-100159409D02*
X172235714Y-100254647D01*
X172235714Y-100254647D02*
X172235714Y-100492742D01*
X172235714Y-100492742D02*
X172188095Y-100587980D01*
X172188095Y-100587980D02*
X172140476Y-100635600D01*
X172140476Y-100635600D02*
X172045238Y-100683219D01*
X172045238Y-100683219D02*
X171759524Y-100683219D01*
X171759524Y-100683219D02*
X171664286Y-100635600D01*
X171664286Y-100635600D02*
X171616667Y-100587980D01*
X160042266Y-118987219D02*
X160042266Y-119701504D01*
X160042266Y-119701504D02*
X159994647Y-119844361D01*
X159994647Y-119844361D02*
X159899409Y-119939600D01*
X159899409Y-119939600D02*
X159756552Y-119987219D01*
X159756552Y-119987219D02*
X159661314Y-119987219D01*
X160470838Y-119082457D02*
X160518457Y-119034838D01*
X160518457Y-119034838D02*
X160613695Y-118987219D01*
X160613695Y-118987219D02*
X160851790Y-118987219D01*
X160851790Y-118987219D02*
X160947028Y-119034838D01*
X160947028Y-119034838D02*
X160994647Y-119082457D01*
X160994647Y-119082457D02*
X161042266Y-119177695D01*
X161042266Y-119177695D02*
X161042266Y-119272933D01*
X161042266Y-119272933D02*
X160994647Y-119415790D01*
X160994647Y-119415790D02*
X160423219Y-119987219D01*
X160423219Y-119987219D02*
X161042266Y-119987219D01*
X109597866Y-73267219D02*
X109597866Y-73981504D01*
X109597866Y-73981504D02*
X109550247Y-74124361D01*
X109550247Y-74124361D02*
X109455009Y-74219600D01*
X109455009Y-74219600D02*
X109312152Y-74267219D01*
X109312152Y-74267219D02*
X109216914Y-74267219D01*
X110550247Y-73267219D02*
X110074057Y-73267219D01*
X110074057Y-73267219D02*
X110026438Y-73743409D01*
X110026438Y-73743409D02*
X110074057Y-73695790D01*
X110074057Y-73695790D02*
X110169295Y-73648171D01*
X110169295Y-73648171D02*
X110407390Y-73648171D01*
X110407390Y-73648171D02*
X110502628Y-73695790D01*
X110502628Y-73695790D02*
X110550247Y-73743409D01*
X110550247Y-73743409D02*
X110597866Y-73838647D01*
X110597866Y-73838647D02*
X110597866Y-74076742D01*
X110597866Y-74076742D02*
X110550247Y-74171980D01*
X110550247Y-74171980D02*
X110502628Y-74219600D01*
X110502628Y-74219600D02*
X110407390Y-74267219D01*
X110407390Y-74267219D02*
X110169295Y-74267219D01*
X110169295Y-74267219D02*
X110074057Y-74219600D01*
X110074057Y-74219600D02*
X110026438Y-74171980D01*
X159991466Y-73216419D02*
X159991466Y-73930704D01*
X159991466Y-73930704D02*
X159943847Y-74073561D01*
X159943847Y-74073561D02*
X159848609Y-74168800D01*
X159848609Y-74168800D02*
X159705752Y-74216419D01*
X159705752Y-74216419D02*
X159610514Y-74216419D01*
X160896228Y-73549752D02*
X160896228Y-74216419D01*
X160658133Y-73168800D02*
X160420038Y-73883085D01*
X160420038Y-73883085D02*
X161039085Y-73883085D01*
X118640266Y-119038019D02*
X118640266Y-119752304D01*
X118640266Y-119752304D02*
X118592647Y-119895161D01*
X118592647Y-119895161D02*
X118497409Y-119990400D01*
X118497409Y-119990400D02*
X118354552Y-120038019D01*
X118354552Y-120038019D02*
X118259314Y-120038019D01*
X119021219Y-119038019D02*
X119640266Y-119038019D01*
X119640266Y-119038019D02*
X119306933Y-119418971D01*
X119306933Y-119418971D02*
X119449790Y-119418971D01*
X119449790Y-119418971D02*
X119545028Y-119466590D01*
X119545028Y-119466590D02*
X119592647Y-119514209D01*
X119592647Y-119514209D02*
X119640266Y-119609447D01*
X119640266Y-119609447D02*
X119640266Y-119847542D01*
X119640266Y-119847542D02*
X119592647Y-119942780D01*
X119592647Y-119942780D02*
X119545028Y-119990400D01*
X119545028Y-119990400D02*
X119449790Y-120038019D01*
X119449790Y-120038019D02*
X119164076Y-120038019D01*
X119164076Y-120038019D02*
X119068838Y-119990400D01*
X119068838Y-119990400D02*
X119021219Y-119942780D01*
D15*
%TO.C,TMC3*%
X109982000Y-83820000D02*
X130302000Y-83820000D01*
X109982000Y-99060000D02*
X109982000Y-83820000D01*
X130302000Y-83820000D02*
X130302000Y-86360000D01*
X130302000Y-99060000D02*
X109982000Y-99060000D01*
X130302000Y-99060000D02*
X130302000Y-96520000D01*
D16*
%TO.C,R7*%
X153697000Y-102388936D02*
X153697000Y-102843064D01*
X155167000Y-102388936D02*
X155167000Y-102843064D01*
%TO.C,C3*%
X131014800Y-105961548D02*
X131014800Y-106484052D01*
X132484800Y-105961548D02*
X132484800Y-106484052D01*
%TO.C,C5*%
X135046750Y-111462452D02*
X135046750Y-110939948D01*
X136516750Y-111462452D02*
X136516750Y-110939948D01*
%TO.C,R4*%
X163930064Y-70512000D02*
X163475936Y-70512000D01*
X163930064Y-71982000D02*
X163475936Y-71982000D01*
%TO.C,J16*%
X122392000Y-76860400D02*
X122392000Y-78110400D01*
X122682000Y-77150400D02*
X122682000Y-83120400D01*
X122682000Y-83120400D02*
X130302000Y-83120400D01*
X122692000Y-77160400D02*
X122692000Y-77910400D01*
X122692000Y-77910400D02*
X124492000Y-77910400D01*
X122692000Y-79410400D02*
X123442000Y-79410400D01*
X123442000Y-79410400D02*
X123442000Y-82360400D01*
X123442000Y-82360400D02*
X126492000Y-82360400D01*
X123642000Y-76860400D02*
X122392000Y-76860400D01*
X124492000Y-77160400D02*
X122692000Y-77160400D01*
X124492000Y-77910400D02*
X124492000Y-77160400D01*
X125992000Y-77160400D02*
X125992000Y-77910400D01*
X125992000Y-77910400D02*
X126992000Y-77910400D01*
X126992000Y-77160400D02*
X125992000Y-77160400D01*
X126992000Y-77910400D02*
X126992000Y-77160400D01*
X128492000Y-77160400D02*
X128492000Y-77910400D01*
X128492000Y-77910400D02*
X130292000Y-77910400D01*
X129542000Y-79410400D02*
X129542000Y-82360400D01*
X129542000Y-82360400D02*
X126492000Y-82360400D01*
X130292000Y-77160400D02*
X128492000Y-77160400D01*
X130292000Y-77910400D02*
X130292000Y-77160400D01*
X130292000Y-79410400D02*
X129542000Y-79410400D01*
X130302000Y-77150400D02*
X122682000Y-77150400D01*
X130302000Y-83120400D02*
X130302000Y-77150400D01*
%TO.C,J13*%
X131189600Y-76860400D02*
X131189600Y-78110400D01*
X131479600Y-77150400D02*
X131479600Y-83120400D01*
X131479600Y-83120400D02*
X144099600Y-83120400D01*
X131489600Y-77160400D02*
X131489600Y-77910400D01*
X131489600Y-77910400D02*
X133289600Y-77910400D01*
X131489600Y-79410400D02*
X132239600Y-79410400D01*
X132239600Y-79410400D02*
X132239600Y-82360400D01*
X132239600Y-82360400D02*
X137789600Y-82360400D01*
X132439600Y-76860400D02*
X131189600Y-76860400D01*
X133289600Y-77160400D02*
X131489600Y-77160400D01*
X133289600Y-77910400D02*
X133289600Y-77160400D01*
X134789600Y-77160400D02*
X134789600Y-77910400D01*
X134789600Y-77910400D02*
X140789600Y-77910400D01*
X140789600Y-77160400D02*
X134789600Y-77160400D01*
X140789600Y-77910400D02*
X140789600Y-77160400D01*
X142289600Y-77160400D02*
X142289600Y-77910400D01*
X142289600Y-77910400D02*
X144089600Y-77910400D01*
X143339600Y-79410400D02*
X143339600Y-82360400D01*
X143339600Y-82360400D02*
X137789600Y-82360400D01*
X144089600Y-77160400D02*
X142289600Y-77160400D01*
X144089600Y-77910400D02*
X144089600Y-77160400D01*
X144089600Y-79410400D02*
X143339600Y-79410400D01*
X144099600Y-77150400D02*
X131479600Y-77150400D01*
X144099600Y-83120400D02*
X144099600Y-77150400D01*
D12*
%TO.C,U1*%
X113437000Y-100864000D02*
X113437000Y-101039000D01*
X113437000Y-100864000D02*
X116687000Y-100864000D01*
X113437000Y-103939000D02*
X113437000Y-104114000D01*
X113437000Y-104114000D02*
X116687000Y-104114000D01*
X116687000Y-100864000D02*
X116687000Y-101039000D01*
X116687000Y-103939000D02*
X116687000Y-104114000D01*
D16*
X112962000Y-101039000D02*
X112722000Y-100709000D01*
X113202000Y-100709000D01*
X112962000Y-101039000D01*
G36*
X112962000Y-101039000D02*
G01*
X112722000Y-100709000D01*
X113202000Y-100709000D01*
X112962000Y-101039000D01*
G37*
%TO.C,R15*%
X130934150Y-111400164D02*
X130934150Y-110946036D01*
X132404150Y-111400164D02*
X132404150Y-110946036D01*
D15*
%TO.C,TMC1*%
X153162000Y-83810000D02*
X173482000Y-83810000D01*
X153162000Y-99050000D02*
X153162000Y-83810000D01*
X173482000Y-83810000D02*
X173482000Y-86350000D01*
X173482000Y-99050000D02*
X153162000Y-99050000D01*
X173482000Y-99050000D02*
X173482000Y-96510000D01*
D16*
%TO.C,C4*%
X134512000Y-89094437D02*
X134512000Y-94850000D01*
X134512000Y-94850000D02*
X136862000Y-94850000D01*
X135576437Y-88030000D02*
X134512000Y-89094437D01*
X135576437Y-88030000D02*
X136862000Y-88030000D01*
X139769500Y-87002500D02*
X139769500Y-87790000D01*
X140163250Y-87396250D02*
X139375750Y-87396250D01*
X140267563Y-88030000D02*
X138982000Y-88030000D01*
X140267563Y-88030000D02*
X141332000Y-89094437D01*
X141332000Y-89094437D02*
X141332000Y-94850000D01*
X141332000Y-94850000D02*
X138982000Y-94850000D01*
D14*
%TO.C,SW3*%
X168450000Y-107490000D02*
X170383200Y-107490000D01*
X168450000Y-113490000D02*
X168450000Y-107490000D01*
X170383200Y-113490000D02*
X168450000Y-113490000D01*
X172516800Y-107490000D02*
X174450000Y-107490000D01*
X174450000Y-107490000D02*
X174450000Y-113490000D01*
X174450000Y-113490000D02*
X172516800Y-113490000D01*
D16*
%TO.C,J7*%
X165598800Y-88601000D02*
X166928800Y-88601000D01*
X165598800Y-89931000D02*
X165598800Y-88601000D01*
X165598800Y-91201000D02*
X165598800Y-96341000D01*
X165598800Y-91201000D02*
X168258800Y-91201000D01*
X165598800Y-96341000D02*
X168258800Y-96341000D01*
X168258800Y-91201000D02*
X168258800Y-96341000D01*
%TO.C,J1*%
X85038400Y-100286400D02*
X99348400Y-100286400D01*
X85038400Y-116006400D02*
X85038400Y-100286400D01*
X85038400Y-116006400D02*
X99348400Y-116006400D01*
X103458400Y-109436400D02*
X103458400Y-105696400D01*
X99348400Y-100286400D02*
G75*
G02*
X103278813Y-103194752I0J-4110000D01*
G01*
X102871358Y-114013206D02*
G75*
G02*
X99348400Y-116006400I-3522957J2116805D01*
G01*
%TO.C,D4*%
X127377350Y-109463300D02*
X127377350Y-110933300D01*
X127377350Y-110933300D02*
X129837350Y-110933300D01*
X129837350Y-109463300D02*
X127377350Y-109463300D01*
%TO.C,J12*%
X143982000Y-76852000D02*
X143982000Y-78102000D01*
X144272000Y-77142000D02*
X144272000Y-83112000D01*
X144272000Y-83112000D02*
X151892000Y-83112000D01*
X144282000Y-77152000D02*
X144282000Y-77902000D01*
X144282000Y-77902000D02*
X146082000Y-77902000D01*
X144282000Y-79402000D02*
X145032000Y-79402000D01*
X145032000Y-79402000D02*
X145032000Y-82352000D01*
X145032000Y-82352000D02*
X148082000Y-82352000D01*
X145232000Y-76852000D02*
X143982000Y-76852000D01*
X146082000Y-77152000D02*
X144282000Y-77152000D01*
X146082000Y-77902000D02*
X146082000Y-77152000D01*
X147582000Y-77152000D02*
X147582000Y-77902000D01*
X147582000Y-77902000D02*
X148582000Y-77902000D01*
X148582000Y-77152000D02*
X147582000Y-77152000D01*
X148582000Y-77902000D02*
X148582000Y-77152000D01*
X150082000Y-77152000D02*
X150082000Y-77902000D01*
X150082000Y-77902000D02*
X151882000Y-77902000D01*
X151132000Y-79402000D02*
X151132000Y-82352000D01*
X151132000Y-82352000D02*
X148082000Y-82352000D01*
X151882000Y-77152000D02*
X150082000Y-77152000D01*
X151882000Y-77902000D02*
X151882000Y-77152000D01*
X151882000Y-79402000D02*
X151132000Y-79402000D01*
X151892000Y-77142000D02*
X144272000Y-77142000D01*
X151892000Y-83112000D02*
X151892000Y-77142000D01*
D15*
%TO.C,TMC2*%
X131572000Y-83810000D02*
X151892000Y-83810000D01*
X131572000Y-99050000D02*
X131572000Y-83810000D01*
X151892000Y-83810000D02*
X151892000Y-86350000D01*
X151892000Y-99050000D02*
X131572000Y-99050000D01*
X151892000Y-99050000D02*
X151892000Y-96510000D01*
D14*
%TO.C,SW5*%
X106474000Y-107538000D02*
X108407200Y-107538000D01*
X106474000Y-113538000D02*
X106474000Y-107538000D01*
X108407200Y-113538000D02*
X106474000Y-113538000D01*
X110540800Y-107538000D02*
X112474000Y-107538000D01*
X112474000Y-107538000D02*
X112474000Y-113538000D01*
X112474000Y-113538000D02*
X110540800Y-113538000D01*
D16*
%TO.C,R14*%
X128317950Y-112952636D02*
X128317950Y-113406764D01*
X129787950Y-112952636D02*
X129787950Y-113406764D01*
%TO.C,J6*%
X168850000Y-88601000D02*
X170180000Y-88601000D01*
X168850000Y-89931000D02*
X168850000Y-88601000D01*
X168850000Y-91201000D02*
X168850000Y-96341000D01*
X168850000Y-91201000D02*
X171510000Y-91201000D01*
X168850000Y-96341000D02*
X171510000Y-96341000D01*
X171510000Y-91201000D02*
X171510000Y-96341000D01*
D14*
%TO.C,SW1*%
X149400000Y-107490000D02*
X151333200Y-107490000D01*
X149400000Y-113490000D02*
X149400000Y-107490000D01*
X151333200Y-113490000D02*
X149400000Y-113490000D01*
X153466800Y-107490000D02*
X155400000Y-107490000D01*
X155400000Y-107490000D02*
X155400000Y-113490000D01*
X155400000Y-113490000D02*
X153466800Y-113490000D01*
D16*
%TO.C,R1*%
X151665000Y-102843064D02*
X151665000Y-102388936D01*
X153135000Y-102843064D02*
X153135000Y-102388936D01*
%TO.C,R10*%
X133097600Y-101550736D02*
X133097600Y-102004864D01*
X134567600Y-101550736D02*
X134567600Y-102004864D01*
%TO.C,R18*%
X108739000Y-102515936D02*
X108739000Y-102970064D01*
X110209000Y-102515936D02*
X110209000Y-102970064D01*
%TO.C,J17*%
X109605000Y-76860400D02*
X109605000Y-78110400D01*
X109895000Y-77150400D02*
X109895000Y-83120400D01*
X109895000Y-83120400D02*
X122515000Y-83120400D01*
X109905000Y-77160400D02*
X109905000Y-77910400D01*
X109905000Y-77910400D02*
X111705000Y-77910400D01*
X109905000Y-79410400D02*
X110655000Y-79410400D01*
X110655000Y-79410400D02*
X110655000Y-82360400D01*
X110655000Y-82360400D02*
X116205000Y-82360400D01*
X110855000Y-76860400D02*
X109605000Y-76860400D01*
X111705000Y-77160400D02*
X109905000Y-77160400D01*
X111705000Y-77910400D02*
X111705000Y-77160400D01*
X113205000Y-77160400D02*
X113205000Y-77910400D01*
X113205000Y-77910400D02*
X119205000Y-77910400D01*
X119205000Y-77160400D02*
X113205000Y-77160400D01*
X119205000Y-77910400D02*
X119205000Y-77160400D01*
X120705000Y-77160400D02*
X120705000Y-77910400D01*
X120705000Y-77910400D02*
X122505000Y-77910400D01*
X121755000Y-79410400D02*
X121755000Y-82360400D01*
X121755000Y-82360400D02*
X116205000Y-82360400D01*
X122505000Y-77160400D02*
X120705000Y-77160400D01*
X122505000Y-77910400D02*
X122505000Y-77160400D01*
X122505000Y-79410400D02*
X121755000Y-79410400D01*
X122515000Y-77150400D02*
X109895000Y-77150400D01*
X122515000Y-83120400D02*
X122515000Y-77150400D01*
%TO.C,J9*%
X152785000Y-76852000D02*
X152785000Y-78102000D01*
X153075000Y-77142000D02*
X153075000Y-83112000D01*
X153075000Y-83112000D02*
X165695000Y-83112000D01*
X153085000Y-77152000D02*
X153085000Y-77902000D01*
X153085000Y-77902000D02*
X154885000Y-77902000D01*
X153085000Y-79402000D02*
X153835000Y-79402000D01*
X153835000Y-79402000D02*
X153835000Y-82352000D01*
X153835000Y-82352000D02*
X159385000Y-82352000D01*
X154035000Y-76852000D02*
X152785000Y-76852000D01*
X154885000Y-77152000D02*
X153085000Y-77152000D01*
X154885000Y-77902000D02*
X154885000Y-77152000D01*
X156385000Y-77152000D02*
X156385000Y-77902000D01*
X156385000Y-77902000D02*
X162385000Y-77902000D01*
X162385000Y-77152000D02*
X156385000Y-77152000D01*
X162385000Y-77902000D02*
X162385000Y-77152000D01*
X163885000Y-77152000D02*
X163885000Y-77902000D01*
X163885000Y-77902000D02*
X165685000Y-77902000D01*
X164935000Y-79402000D02*
X164935000Y-82352000D01*
X164935000Y-82352000D02*
X159385000Y-82352000D01*
X165685000Y-77152000D02*
X163885000Y-77152000D01*
X165685000Y-77902000D02*
X165685000Y-77152000D01*
X165685000Y-79402000D02*
X164935000Y-79402000D01*
X165695000Y-77142000D02*
X153075000Y-77142000D01*
X165695000Y-83112000D02*
X165695000Y-77142000D01*
%TO.C,J10*%
X147310800Y-88601000D02*
X148640800Y-88601000D01*
X147310800Y-89931000D02*
X147310800Y-88601000D01*
X147310800Y-91201000D02*
X147310800Y-96341000D01*
X147310800Y-91201000D02*
X149970800Y-91201000D01*
X147310800Y-96341000D02*
X149970800Y-96341000D01*
X149970800Y-91201000D02*
X149970800Y-96341000D01*
%TO.C,J20*%
X100782000Y-76860400D02*
X100782000Y-78110400D01*
X101072000Y-77150400D02*
X101072000Y-83120400D01*
X101072000Y-83120400D02*
X108692000Y-83120400D01*
X101082000Y-77160400D02*
X101082000Y-77910400D01*
X101082000Y-77910400D02*
X102882000Y-77910400D01*
X101082000Y-79410400D02*
X101832000Y-79410400D01*
X101832000Y-79410400D02*
X101832000Y-82360400D01*
X101832000Y-82360400D02*
X104882000Y-82360400D01*
X102032000Y-76860400D02*
X100782000Y-76860400D01*
X102882000Y-77160400D02*
X101082000Y-77160400D01*
X102882000Y-77910400D02*
X102882000Y-77160400D01*
X104382000Y-77160400D02*
X104382000Y-77910400D01*
X104382000Y-77910400D02*
X105382000Y-77910400D01*
X105382000Y-77160400D02*
X104382000Y-77160400D01*
X105382000Y-77910400D02*
X105382000Y-77160400D01*
X106882000Y-77160400D02*
X106882000Y-77910400D01*
X106882000Y-77910400D02*
X108682000Y-77910400D01*
X107932000Y-79410400D02*
X107932000Y-82360400D01*
X107932000Y-82360400D02*
X104882000Y-82360400D01*
X108682000Y-77160400D02*
X106882000Y-77160400D01*
X108682000Y-77910400D02*
X108682000Y-77160400D01*
X108682000Y-79410400D02*
X107932000Y-79410400D01*
X108692000Y-77150400D02*
X101072000Y-77150400D01*
X108692000Y-83120400D02*
X108692000Y-77150400D01*
%TO.C,J14*%
X125649200Y-88601000D02*
X126979200Y-88601000D01*
X125649200Y-89931000D02*
X125649200Y-88601000D01*
X125649200Y-91201000D02*
X125649200Y-96341000D01*
X125649200Y-91201000D02*
X128309200Y-91201000D01*
X125649200Y-96341000D02*
X128309200Y-96341000D01*
X128309200Y-91201000D02*
X128309200Y-96341000D01*
%TO.C,C7*%
X125650950Y-111485152D02*
X125650950Y-110962648D01*
X127120950Y-111485152D02*
X127120950Y-110962648D01*
%TO.C,J11*%
X144008800Y-88601000D02*
X145338800Y-88601000D01*
X144008800Y-89931000D02*
X144008800Y-88601000D01*
X144008800Y-91201000D02*
X144008800Y-96341000D01*
X144008800Y-91201000D02*
X146668800Y-91201000D01*
X144008800Y-96341000D02*
X146668800Y-96341000D01*
X146668800Y-91201000D02*
X146668800Y-96341000D01*
D14*
%TO.C,SW4*%
X117396000Y-107490000D02*
X119329200Y-107490000D01*
X117396000Y-113490000D02*
X117396000Y-107490000D01*
X119329200Y-113490000D02*
X117396000Y-113490000D01*
X121462800Y-107490000D02*
X123396000Y-107490000D01*
X123396000Y-107490000D02*
X123396000Y-113490000D01*
X123396000Y-113490000D02*
X121462800Y-113490000D01*
D16*
%TO.C,J21*%
X88015000Y-76860400D02*
X88015000Y-78110400D01*
X88305000Y-77150400D02*
X88305000Y-83120400D01*
X88305000Y-83120400D02*
X100925000Y-83120400D01*
X88315000Y-77160400D02*
X88315000Y-77910400D01*
X88315000Y-77910400D02*
X90115000Y-77910400D01*
X88315000Y-79410400D02*
X89065000Y-79410400D01*
X89065000Y-79410400D02*
X89065000Y-82360400D01*
X89065000Y-82360400D02*
X94615000Y-82360400D01*
X89265000Y-76860400D02*
X88015000Y-76860400D01*
X90115000Y-77160400D02*
X88315000Y-77160400D01*
X90115000Y-77910400D02*
X90115000Y-77160400D01*
X91615000Y-77160400D02*
X91615000Y-77910400D01*
X91615000Y-77910400D02*
X97615000Y-77910400D01*
X97615000Y-77160400D02*
X91615000Y-77160400D01*
X97615000Y-77910400D02*
X97615000Y-77160400D01*
X99115000Y-77160400D02*
X99115000Y-77910400D01*
X99115000Y-77910400D02*
X100915000Y-77910400D01*
X100165000Y-79410400D02*
X100165000Y-82360400D01*
X100165000Y-82360400D02*
X94615000Y-82360400D01*
X100915000Y-77160400D02*
X99115000Y-77160400D01*
X100915000Y-77910400D02*
X100915000Y-77160400D01*
X100915000Y-79410400D02*
X100165000Y-79410400D01*
X100925000Y-77150400D02*
X88305000Y-77150400D01*
X100925000Y-83120400D02*
X100925000Y-77150400D01*
%TO.C,C2*%
X156102000Y-89094437D02*
X156102000Y-94850000D01*
X156102000Y-94850000D02*
X158452000Y-94850000D01*
X157166437Y-88030000D02*
X156102000Y-89094437D01*
X157166437Y-88030000D02*
X158452000Y-88030000D01*
X161359500Y-87002500D02*
X161359500Y-87790000D01*
X161753250Y-87396250D02*
X160965750Y-87396250D01*
X161857563Y-88030000D02*
X160572000Y-88030000D01*
X161857563Y-88030000D02*
X162922000Y-89094437D01*
X162922000Y-89094437D02*
X162922000Y-94850000D01*
X162922000Y-94850000D02*
X160572000Y-94850000D01*
%TO.C,J22*%
X143124800Y-102149600D02*
X143124800Y-104809600D01*
X145724800Y-102149600D02*
X143124800Y-102149600D01*
X145724800Y-102149600D02*
X145724800Y-104809600D01*
X145724800Y-104809600D02*
X143124800Y-104809600D01*
X146994800Y-102149600D02*
X148324800Y-102149600D01*
X148324800Y-102149600D02*
X148324800Y-103479600D01*
%TO.C,R5*%
X137720400Y-104392464D02*
X137720400Y-103938336D01*
X139190400Y-104392464D02*
X139190400Y-103938336D01*
%TO.C,D3*%
X136788750Y-109450200D02*
X136788750Y-110920200D01*
X136788750Y-110920200D02*
X139248750Y-110920200D01*
X139248750Y-109450200D02*
X136788750Y-109450200D01*
%TO.C,R9*%
X125630000Y-105995736D02*
X125630000Y-106449864D01*
X127100000Y-105995736D02*
X127100000Y-106449864D01*
%TO.C,J18*%
X104080000Y-88601000D02*
X105410000Y-88601000D01*
X104080000Y-89931000D02*
X104080000Y-88601000D01*
X104080000Y-91201000D02*
X104080000Y-96341000D01*
X104080000Y-91201000D02*
X106740000Y-91201000D01*
X104080000Y-96341000D02*
X106740000Y-96341000D01*
X106740000Y-91201000D02*
X106740000Y-96341000D01*
D14*
%TO.C,SW2*%
X159560000Y-107490000D02*
X161493200Y-107490000D01*
X159560000Y-113490000D02*
X159560000Y-107490000D01*
X161493200Y-113490000D02*
X159560000Y-113490000D01*
X163626800Y-107490000D02*
X165560000Y-107490000D01*
X165560000Y-107490000D02*
X165560000Y-113490000D01*
X165560000Y-113490000D02*
X163626800Y-113490000D01*
D16*
%TO.C,R2*%
X161825000Y-102843064D02*
X161825000Y-102388936D01*
X163295000Y-102843064D02*
X163295000Y-102388936D01*
%TO.C,R17*%
X119661000Y-102594936D02*
X119661000Y-103049064D01*
X121131000Y-102594936D02*
X121131000Y-103049064D01*
%TO.C,C8*%
X91332000Y-89094437D02*
X91332000Y-94850000D01*
X91332000Y-94850000D02*
X93682000Y-94850000D01*
X92396437Y-88030000D02*
X91332000Y-89094437D01*
X92396437Y-88030000D02*
X93682000Y-88030000D01*
X96589500Y-87002500D02*
X96589500Y-87790000D01*
X96983250Y-87396250D02*
X96195750Y-87396250D01*
X97087563Y-88030000D02*
X95802000Y-88030000D01*
X97087563Y-88030000D02*
X98152000Y-89094437D01*
X98152000Y-89094437D02*
X98152000Y-94850000D01*
X98152000Y-94850000D02*
X95802000Y-94850000D01*
%TO.C,D2*%
X128232000Y-107973800D02*
X130692000Y-107973800D01*
X130692000Y-106503800D02*
X128232000Y-106503800D01*
X130692000Y-107973800D02*
X130692000Y-106503800D01*
%TO.C,C1*%
X140362000Y-105809148D02*
X140362000Y-106331652D01*
X141832000Y-105809148D02*
X141832000Y-106331652D01*
D15*
%TO.C,TMC4*%
X88392000Y-83815000D02*
X108712000Y-83815000D01*
X88392000Y-99055000D02*
X88392000Y-83815000D01*
X108712000Y-83815000D02*
X108712000Y-86355000D01*
X108712000Y-99055000D02*
X88392000Y-99055000D01*
X108712000Y-99055000D02*
X108712000Y-96515000D01*
D16*
%TO.C,R16*%
X104725800Y-102541336D02*
X104725800Y-102995464D01*
X106195800Y-102541336D02*
X106195800Y-102995464D01*
%TO.C,D1*%
X137579200Y-107872200D02*
X140039200Y-107872200D01*
X140039200Y-106402200D02*
X137579200Y-106402200D01*
X140039200Y-107872200D02*
X140039200Y-106402200D01*
%TO.C,R8*%
X128322400Y-104494064D02*
X128322400Y-104039936D01*
X129792400Y-104494064D02*
X129792400Y-104039936D01*
%TO.C,J8*%
X165572000Y-76852000D02*
X165572000Y-78102000D01*
X165862000Y-77142000D02*
X165862000Y-83112000D01*
X165862000Y-83112000D02*
X173482000Y-83112000D01*
X165872000Y-77152000D02*
X165872000Y-77902000D01*
X165872000Y-77902000D02*
X167672000Y-77902000D01*
X165872000Y-79402000D02*
X166622000Y-79402000D01*
X166622000Y-79402000D02*
X166622000Y-82352000D01*
X166622000Y-82352000D02*
X169672000Y-82352000D01*
X166822000Y-76852000D02*
X165572000Y-76852000D01*
X167672000Y-77152000D02*
X165872000Y-77152000D01*
X167672000Y-77902000D02*
X167672000Y-77152000D01*
X169172000Y-77152000D02*
X169172000Y-77902000D01*
X169172000Y-77902000D02*
X170172000Y-77902000D01*
X170172000Y-77152000D02*
X169172000Y-77152000D01*
X170172000Y-77902000D02*
X170172000Y-77152000D01*
X171672000Y-77152000D02*
X171672000Y-77902000D01*
X171672000Y-77902000D02*
X173472000Y-77902000D01*
X172722000Y-79402000D02*
X172722000Y-82352000D01*
X172722000Y-82352000D02*
X169672000Y-82352000D01*
X173472000Y-77152000D02*
X171672000Y-77152000D01*
X173472000Y-77902000D02*
X173472000Y-77152000D01*
X173472000Y-79402000D02*
X172722000Y-79402000D01*
X173482000Y-77142000D02*
X165862000Y-77142000D01*
X173482000Y-83112000D02*
X173482000Y-77142000D01*
%TO.C,R12*%
X140355350Y-111402864D02*
X140355350Y-110948736D01*
X141825350Y-111402864D02*
X141825350Y-110948736D01*
%TO.C,R6*%
X135028000Y-105919536D02*
X135028000Y-106373664D01*
X136498000Y-105919536D02*
X136498000Y-106373664D01*
%TO.C,J15*%
X122398000Y-88601000D02*
X123728000Y-88601000D01*
X122398000Y-89931000D02*
X122398000Y-88601000D01*
X122398000Y-91201000D02*
X122398000Y-96341000D01*
X122398000Y-91201000D02*
X125058000Y-91201000D01*
X122398000Y-96341000D02*
X125058000Y-96341000D01*
X125058000Y-91201000D02*
X125058000Y-96341000D01*
%TO.C,R11*%
X137739150Y-112955336D02*
X137739150Y-113409464D01*
X139209150Y-112955336D02*
X139209150Y-113409464D01*
%TO.C,R13*%
X106656200Y-102541336D02*
X106656200Y-102995464D01*
X108126200Y-102541336D02*
X108126200Y-102995464D01*
%TO.C,J19*%
X100828800Y-88601000D02*
X102158800Y-88601000D01*
X100828800Y-89931000D02*
X100828800Y-88601000D01*
X100828800Y-91201000D02*
X100828800Y-96341000D01*
X100828800Y-91201000D02*
X103488800Y-91201000D01*
X100828800Y-96341000D02*
X103488800Y-96341000D01*
X103488800Y-91201000D02*
X103488800Y-96341000D01*
%TO.C,C6*%
X112871200Y-89094437D02*
X112871200Y-94850000D01*
X112871200Y-94850000D02*
X115221200Y-94850000D01*
X113935637Y-88030000D02*
X112871200Y-89094437D01*
X113935637Y-88030000D02*
X115221200Y-88030000D01*
X118128700Y-87002500D02*
X118128700Y-87790000D01*
X118522450Y-87396250D02*
X117734950Y-87396250D01*
X118626763Y-88030000D02*
X117341200Y-88030000D01*
X118626763Y-88030000D02*
X119691200Y-89094437D01*
X119691200Y-89094437D02*
X119691200Y-94850000D01*
X119691200Y-94850000D02*
X117341200Y-94850000D01*
%TO.C,R3*%
X170715000Y-102843064D02*
X170715000Y-102388936D01*
X172185000Y-102843064D02*
X172185000Y-102388936D01*
%TD*%
D17*
X129032000Y-85090000D03*
X126492000Y-85090000D03*
X123952000Y-85090000D03*
X121412000Y-85090000D03*
X118872000Y-85090000D03*
X116332000Y-85090000D03*
X113792000Y-85090000D03*
X111252000Y-85090000D03*
X111252000Y-92710000D03*
X111252000Y-95250000D03*
X111252000Y-97790000D03*
X113792000Y-97790000D03*
X116332000Y-97790000D03*
X118872000Y-97790000D03*
X121412000Y-97790000D03*
X123952000Y-97790000D03*
X126492000Y-97790000D03*
X129032000Y-97790000D03*
X87311222Y-70274168D03*
X125242000Y-79610400D03*
X127742000Y-79610400D03*
X134039600Y-79610400D03*
X136539600Y-79610400D03*
X139039600Y-79610400D03*
X141539600Y-79610400D03*
X87311222Y-120058168D03*
X172212000Y-85080000D03*
X169672000Y-85080000D03*
X167132000Y-85080000D03*
X164592000Y-85080000D03*
X162052000Y-85080000D03*
X159512000Y-85080000D03*
X156972000Y-85080000D03*
X154432000Y-85080000D03*
X154432000Y-92700000D03*
X154432000Y-95240000D03*
X154432000Y-97780000D03*
X156972000Y-97780000D03*
X159512000Y-97780000D03*
X162052000Y-97780000D03*
X164592000Y-97780000D03*
X167132000Y-97780000D03*
X169672000Y-97780000D03*
X172212000Y-97780000D03*
X166928800Y-89931000D03*
X166928800Y-92471000D03*
X166928800Y-95011000D03*
D18*
X95498400Y-114896400D03*
D17*
X101498400Y-111746400D03*
D18*
X95498400Y-101396400D03*
D17*
X101498400Y-104546400D03*
X146832000Y-79602000D03*
X149332000Y-79602000D03*
X150622000Y-85080000D03*
X148082000Y-85080000D03*
X145542000Y-85080000D03*
X143002000Y-85080000D03*
X140462000Y-85080000D03*
X137922000Y-85080000D03*
X135382000Y-85080000D03*
X132842000Y-85080000D03*
X132842000Y-92700000D03*
X132842000Y-95240000D03*
X132842000Y-97780000D03*
X135382000Y-97780000D03*
X137922000Y-97780000D03*
X140462000Y-97780000D03*
X143002000Y-97780000D03*
X145542000Y-97780000D03*
X148082000Y-97780000D03*
X150622000Y-97780000D03*
X170180000Y-89931000D03*
X170180000Y-92471000D03*
X170180000Y-95011000D03*
X112455000Y-79610400D03*
X114955000Y-79610400D03*
X117455000Y-79610400D03*
X119955000Y-79610400D03*
X155635000Y-79602000D03*
X158135000Y-79602000D03*
X160635000Y-79602000D03*
X163135000Y-79602000D03*
X148640800Y-89931000D03*
X148640800Y-92471000D03*
X148640800Y-95011000D03*
X103632000Y-79610400D03*
X106132000Y-79610400D03*
X126979200Y-89931000D03*
X126979200Y-92471000D03*
X126979200Y-95011000D03*
X145338800Y-89931000D03*
X145338800Y-92471000D03*
X145338800Y-95011000D03*
X90865000Y-79610400D03*
X93365000Y-79610400D03*
X95865000Y-79610400D03*
X98365000Y-79610400D03*
X146994800Y-103479600D03*
X144454800Y-103479600D03*
X174306222Y-70274168D03*
X105410000Y-89931000D03*
X105410000Y-92471000D03*
X105410000Y-95011000D03*
X107442000Y-85085000D03*
X104902000Y-85085000D03*
X102362000Y-85085000D03*
X99822000Y-85085000D03*
X97282000Y-85085000D03*
X94742000Y-85085000D03*
X92202000Y-85085000D03*
X89662000Y-85085000D03*
X89662000Y-92705000D03*
X89662000Y-95245000D03*
X89662000Y-97785000D03*
X92202000Y-97785000D03*
X94742000Y-97785000D03*
X97282000Y-97785000D03*
X99822000Y-97785000D03*
X102362000Y-97785000D03*
X104902000Y-97785000D03*
X107442000Y-97785000D03*
X174306222Y-120058168D03*
X168422000Y-79602000D03*
X170922000Y-79602000D03*
X123728000Y-89931000D03*
X123728000Y-92471000D03*
X123728000Y-95011000D03*
X102158800Y-89931000D03*
X102158800Y-92471000D03*
X102158800Y-95011000D03*
X144843222Y-117005168D03*
X144843222Y-119545168D03*
X147383222Y-117005168D03*
X147383222Y-119545168D03*
X149923222Y-117005168D03*
X149923222Y-119545168D03*
X152463222Y-117005168D03*
X152463222Y-119545168D03*
X155003222Y-117005168D03*
X155003222Y-119545168D03*
X157543222Y-117005168D03*
X157543222Y-119545168D03*
X135693222Y-73835168D03*
X135693222Y-71295168D03*
X133153222Y-73835168D03*
X133153222Y-71295168D03*
X130613222Y-73835168D03*
X130613222Y-71295168D03*
X128073222Y-73835168D03*
X128073222Y-71295168D03*
X125533222Y-73835168D03*
X125533222Y-71295168D03*
X122993222Y-73835168D03*
X122993222Y-71295168D03*
X120453222Y-73835168D03*
X120453222Y-71295168D03*
X117913222Y-73835168D03*
X117913222Y-71295168D03*
X115373222Y-73835168D03*
X115373222Y-71295168D03*
X112833222Y-73835168D03*
X112833222Y-71295168D03*
X157517222Y-73810168D03*
X157517222Y-71270168D03*
X154977222Y-73810168D03*
X154977222Y-71270168D03*
X152437222Y-73810168D03*
X152437222Y-71270168D03*
X149897222Y-73810168D03*
X149897222Y-71270168D03*
X147357222Y-73810168D03*
X147357222Y-71270168D03*
X144817222Y-73810168D03*
X144817222Y-71270168D03*
X142277222Y-73810168D03*
X142277222Y-71270168D03*
X139737222Y-73810168D03*
X139737222Y-71270168D03*
X121997222Y-117005168D03*
X121997222Y-119545168D03*
X124537222Y-117005168D03*
X124537222Y-119545168D03*
X127077222Y-117005168D03*
X127077222Y-119545168D03*
X129617222Y-117005168D03*
X129617222Y-119545168D03*
X132157222Y-117005168D03*
X132157222Y-119545168D03*
X134697222Y-117005168D03*
X134697222Y-119545168D03*
X137237222Y-117005168D03*
X137237222Y-119545168D03*
X139777222Y-117005168D03*
X139777222Y-119545168D03*
M02*
