%TF.GenerationSoftware,KiCad,Pcbnew,8.0.3*%
%TF.CreationDate,2024-06-30T11:50:48+02:00*%
%TF.ProjectId,StepperDriver-Shield_FRDM-MCXA153,53746570-7065-4724-9472-697665722d53,rev?*%
%TF.SameCoordinates,Original*%
%TF.FileFunction,Soldermask,Bot*%
%TF.FilePolarity,Negative*%
%FSLAX46Y46*%
G04 Gerber Fmt 4.6, Leading zero omitted, Abs format (unit mm)*
G04 Created by KiCad (PCBNEW 8.0.3) date 2024-06-30 11:50:48*
%MOMM*%
%LPD*%
G01*
G04 APERTURE LIST*
G04 Aperture macros list*
%AMRoundRect*
0 Rectangle with rounded corners*
0 $1 Rounding radius*
0 $2 $3 $4 $5 $6 $7 $8 $9 X,Y pos of 4 corners*
0 Add a 4 corners polygon primitive as box body*
4,1,4,$2,$3,$4,$5,$6,$7,$8,$9,$2,$3,0*
0 Add four circle primitives for the rounded corners*
1,1,$1+$1,$2,$3*
1,1,$1+$1,$4,$5*
1,1,$1+$1,$6,$7*
1,1,$1+$1,$8,$9*
0 Add four rect primitives between the rounded corners*
20,1,$1+$1,$2,$3,$4,$5,0*
20,1,$1+$1,$4,$5,$6,$7,0*
20,1,$1+$1,$6,$7,$8,$9,0*
20,1,$1+$1,$8,$9,$2,$3,0*%
G04 Aperture macros list end*
%ADD10RoundRect,0.102000X-0.900000X0.900000X-0.900000X-0.900000X0.900000X-0.900000X0.900000X0.900000X0*%
%ADD11C,2.004000*%
%ADD12C,3.200000*%
%ADD13RoundRect,0.250000X-0.600000X-0.750000X0.600000X-0.750000X0.600000X0.750000X-0.600000X0.750000X0*%
%ADD14O,1.700000X2.000000*%
%ADD15RoundRect,0.250000X-0.600000X-0.725000X0.600000X-0.725000X0.600000X0.725000X-0.600000X0.725000X0*%
%ADD16O,1.700000X1.950000*%
%ADD17R,1.700000X1.700000*%
%ADD18O,1.700000X1.700000*%
%ADD19O,2.604000X1.404000*%
%ADD20RoundRect,1.025000X1.025000X-1.025000X1.025000X1.025000X-1.025000X1.025000X-1.025000X-1.025000X0*%
%ADD21C,4.100000*%
G04 APERTURE END LIST*
D10*
%TO.C,TMC3*%
X129032000Y-85090000D03*
D11*
X126492000Y-85090000D03*
X123952000Y-85090000D03*
X121412000Y-85090000D03*
X118872000Y-85090000D03*
X116332000Y-85090000D03*
X113792000Y-85090000D03*
X111252000Y-85090000D03*
X111252000Y-92710000D03*
X111252000Y-95250000D03*
X111252000Y-97790000D03*
X113792000Y-97790000D03*
X116332000Y-97790000D03*
X118872000Y-97790000D03*
X121412000Y-97790000D03*
X123952000Y-97790000D03*
X126492000Y-97790000D03*
X129032000Y-97790000D03*
%TD*%
D12*
%TO.C,H1*%
X87311222Y-70274168D03*
%TD*%
D13*
%TO.C,J16*%
X125242000Y-79610400D03*
D14*
X127742000Y-79610400D03*
%TD*%
D15*
%TO.C,J13*%
X134039600Y-79610400D03*
D16*
X136539600Y-79610400D03*
X139039600Y-79610400D03*
X141539600Y-79610400D03*
%TD*%
D12*
%TO.C,H3*%
X87311222Y-120058168D03*
%TD*%
D10*
%TO.C,TMC1*%
X172212000Y-85080000D03*
D11*
X169672000Y-85080000D03*
X167132000Y-85080000D03*
X164592000Y-85080000D03*
X162052000Y-85080000D03*
X159512000Y-85080000D03*
X156972000Y-85080000D03*
X154432000Y-85080000D03*
X154432000Y-92700000D03*
X154432000Y-95240000D03*
X154432000Y-97780000D03*
X156972000Y-97780000D03*
X159512000Y-97780000D03*
X162052000Y-97780000D03*
X164592000Y-97780000D03*
X167132000Y-97780000D03*
X169672000Y-97780000D03*
X172212000Y-97780000D03*
%TD*%
D17*
%TO.C,J7*%
X166928800Y-89931000D03*
D18*
X166928800Y-92471000D03*
X166928800Y-95011000D03*
%TD*%
D19*
%TO.C,J1*%
X95498400Y-114896400D03*
D20*
X101498400Y-111746400D03*
D19*
X95498400Y-101396400D03*
D21*
X101498400Y-104546400D03*
%TD*%
D13*
%TO.C,J12*%
X146832000Y-79602000D03*
D14*
X149332000Y-79602000D03*
%TD*%
D10*
%TO.C,TMC2*%
X150622000Y-85080000D03*
D11*
X148082000Y-85080000D03*
X145542000Y-85080000D03*
X143002000Y-85080000D03*
X140462000Y-85080000D03*
X137922000Y-85080000D03*
X135382000Y-85080000D03*
X132842000Y-85080000D03*
X132842000Y-92700000D03*
X132842000Y-95240000D03*
X132842000Y-97780000D03*
X135382000Y-97780000D03*
X137922000Y-97780000D03*
X140462000Y-97780000D03*
X143002000Y-97780000D03*
X145542000Y-97780000D03*
X148082000Y-97780000D03*
X150622000Y-97780000D03*
%TD*%
D17*
%TO.C,J6*%
X170180000Y-89931000D03*
D18*
X170180000Y-92471000D03*
X170180000Y-95011000D03*
%TD*%
D15*
%TO.C,J17*%
X112455000Y-79610400D03*
D16*
X114955000Y-79610400D03*
X117455000Y-79610400D03*
X119955000Y-79610400D03*
%TD*%
D15*
%TO.C,J9*%
X155635000Y-79602000D03*
D16*
X158135000Y-79602000D03*
X160635000Y-79602000D03*
X163135000Y-79602000D03*
%TD*%
D17*
%TO.C,J10*%
X148640800Y-89931000D03*
D18*
X148640800Y-92471000D03*
X148640800Y-95011000D03*
%TD*%
D13*
%TO.C,J20*%
X103632000Y-79610400D03*
D14*
X106132000Y-79610400D03*
%TD*%
D17*
%TO.C,J14*%
X126979200Y-89931000D03*
D18*
X126979200Y-92471000D03*
X126979200Y-95011000D03*
%TD*%
D17*
%TO.C,J11*%
X145338800Y-89931000D03*
D18*
X145338800Y-92471000D03*
X145338800Y-95011000D03*
%TD*%
D15*
%TO.C,J21*%
X90865000Y-79610400D03*
D16*
X93365000Y-79610400D03*
X95865000Y-79610400D03*
X98365000Y-79610400D03*
%TD*%
D17*
%TO.C,J22*%
X146994800Y-103479600D03*
D18*
X144454800Y-103479600D03*
%TD*%
D12*
%TO.C,H2*%
X174306222Y-70274168D03*
%TD*%
D17*
%TO.C,J18*%
X105410000Y-89931000D03*
D18*
X105410000Y-92471000D03*
X105410000Y-95011000D03*
%TD*%
D10*
%TO.C,TMC4*%
X107442000Y-85085000D03*
D11*
X104902000Y-85085000D03*
X102362000Y-85085000D03*
X99822000Y-85085000D03*
X97282000Y-85085000D03*
X94742000Y-85085000D03*
X92202000Y-85085000D03*
X89662000Y-85085000D03*
X89662000Y-92705000D03*
X89662000Y-95245000D03*
X89662000Y-97785000D03*
X92202000Y-97785000D03*
X94742000Y-97785000D03*
X97282000Y-97785000D03*
X99822000Y-97785000D03*
X102362000Y-97785000D03*
X104902000Y-97785000D03*
X107442000Y-97785000D03*
%TD*%
D12*
%TO.C,H4*%
X174306222Y-120058168D03*
%TD*%
D13*
%TO.C,J8*%
X168422000Y-79602000D03*
D14*
X170922000Y-79602000D03*
%TD*%
D17*
%TO.C,J15*%
X123728000Y-89931000D03*
D18*
X123728000Y-92471000D03*
X123728000Y-95011000D03*
%TD*%
D17*
%TO.C,J19*%
X102158800Y-89931000D03*
D18*
X102158800Y-92471000D03*
X102158800Y-95011000D03*
%TD*%
D17*
%TO.C,J2*%
X144843222Y-117005168D03*
D18*
X144843222Y-119545168D03*
X147383222Y-117005168D03*
X147383222Y-119545168D03*
X149923222Y-117005168D03*
X149923222Y-119545168D03*
X152463222Y-117005168D03*
X152463222Y-119545168D03*
X155003222Y-117005168D03*
X155003222Y-119545168D03*
X157543222Y-117005168D03*
X157543222Y-119545168D03*
%TD*%
D17*
%TO.C,J5*%
X135693222Y-73835168D03*
D18*
X135693222Y-71295168D03*
X133153222Y-73835168D03*
X133153222Y-71295168D03*
X130613222Y-73835168D03*
X130613222Y-71295168D03*
X128073222Y-73835168D03*
X128073222Y-71295168D03*
X125533222Y-73835168D03*
X125533222Y-71295168D03*
X122993222Y-73835168D03*
X122993222Y-71295168D03*
X120453222Y-73835168D03*
X120453222Y-71295168D03*
X117913222Y-73835168D03*
X117913222Y-71295168D03*
X115373222Y-73835168D03*
X115373222Y-71295168D03*
X112833222Y-73835168D03*
X112833222Y-71295168D03*
%TD*%
D17*
%TO.C,J4*%
X157517222Y-73810168D03*
D18*
X157517222Y-71270168D03*
X154977222Y-73810168D03*
X154977222Y-71270168D03*
X152437222Y-73810168D03*
X152437222Y-71270168D03*
X149897222Y-73810168D03*
X149897222Y-71270168D03*
X147357222Y-73810168D03*
X147357222Y-71270168D03*
X144817222Y-73810168D03*
X144817222Y-71270168D03*
X142277222Y-73810168D03*
X142277222Y-71270168D03*
X139737222Y-73810168D03*
X139737222Y-71270168D03*
%TD*%
D17*
%TO.C,J3*%
X121997222Y-117005168D03*
D18*
X121997222Y-119545168D03*
X124537222Y-117005168D03*
X124537222Y-119545168D03*
X127077222Y-117005168D03*
X127077222Y-119545168D03*
X129617222Y-117005168D03*
X129617222Y-119545168D03*
X132157222Y-117005168D03*
X132157222Y-119545168D03*
X134697222Y-117005168D03*
X134697222Y-119545168D03*
X137237222Y-117005168D03*
X137237222Y-119545168D03*
X139777222Y-117005168D03*
X139777222Y-119545168D03*
%TD*%
M02*
