M48
; DRILL file {KiCad 8.0.1} date 2024-04-25T12:31:51+0200
; FORMAT={-:-/ absolute / metric / decimal}
; #@! TF.CreationDate,2024-04-25T12:31:51+02:00
; #@! TF.GenerationSoftware,Kicad,Pcbnew,8.0.1
; #@! TF.FileFunction,MixedPlating,1,4
FMAT,2
METRIC
; #@! TA.AperFunction,Plated,PTH,ViaDrill
T1C0.300
; #@! TA.AperFunction,Plated,PTH,ComponentDrill
T2C0.600
; #@! TA.AperFunction,Plated,PTH,ComponentDrill
T3C0.950
; #@! TA.AperFunction,Plated,PTH,ComponentDrill
T4C1.000
; #@! TA.AperFunction,Plated,PTH,ComponentDrill
T5C2.700
; #@! TA.AperFunction,NonPlated,NPTH,ComponentDrill
T6C3.200
%
G90
G05
T1
X93.142Y-87.528
X93.142Y-88.341
X93.142Y-89.154
X93.142Y-89.967
X93.447Y-94.869
X93.447Y-93.523
X107.188Y-109.474
X109.22Y-111.76
X110.363Y-101.727
X114.259Y-103.361
X114.706Y-87.528
X114.706Y-88.341
X114.706Y-89.154
X114.706Y-89.967
X114.96Y-94.742
X115.011Y-93.497
X115.087Y-101.498
X118.11Y-101.6
X119.38Y-111.633
X121.412Y-106.565
X125.832Y-108.966
X127.0Y-105.0
X129.54Y-101.092
X129.631Y-107.061
X130.48Y-112.471
X131.496Y-107.95
X133.604Y-105.41
X134.468Y-112.48
X135.636Y-105.41
X136.296Y-87.528
X136.296Y-88.341
X136.296Y-89.154
X136.296Y-89.967
X136.601Y-93.472
X136.627Y-94.844
X136.904Y-112.48
X137.668Y-105.41
X139.929Y-108.968
X140.208Y-107.036
X140.968Y-112.356
X141.986Y-101.6
X145.532Y-108.763
X147.015Y-105.004
X151.028Y-99.843
X151.206Y-101.625
X152.4Y-106.147
X152.4Y-111.506
X156.058Y-103.632
X156.464Y-96.571
X157.759Y-87.528
X157.759Y-88.341
X157.759Y-89.154
X157.759Y-89.967
X158.217Y-93.472
X158.217Y-94.767
X162.56Y-112.014
X164.389Y-101.6
X171.45Y-111.76
X173.228Y-101.6
T3
X90.865Y-79.602
X93.365Y-79.602
X95.865Y-79.602
X98.365Y-79.602
X112.455Y-79.602
X114.955Y-79.602
X117.455Y-79.602
X119.955Y-79.602
X134.04Y-79.61
X136.54Y-79.61
X139.04Y-79.61
X141.54Y-79.61
X155.635Y-79.602
X158.135Y-79.602
X160.635Y-79.602
X163.135Y-79.602
T4
X89.662Y-85.085
X89.662Y-92.705
X89.662Y-95.245
X89.662Y-97.785
X92.202Y-85.085
X92.202Y-97.785
X94.742Y-85.085
X94.742Y-97.785
X97.282Y-85.085
X97.282Y-97.785
X99.822Y-85.085
X99.822Y-97.785
X100.178Y-89.931
X100.178Y-92.471
X100.178Y-95.011
X102.362Y-85.085
X102.362Y-97.785
X103.429Y-89.931
X103.429Y-92.471
X103.429Y-95.011
X103.632Y-79.619
X104.902Y-85.085
X104.902Y-97.785
X106.132Y-79.619
X106.68Y-89.931
X106.68Y-92.471
X106.68Y-95.011
X107.442Y-85.085
X107.442Y-97.785
X111.252Y-85.09
X111.252Y-92.71
X111.252Y-95.25
X111.252Y-97.79
X112.833Y-71.295
X112.833Y-73.835
X113.792Y-85.09
X113.792Y-97.79
X115.373Y-71.295
X115.373Y-73.835
X116.332Y-85.09
X116.332Y-97.79
X117.913Y-71.295
X117.913Y-73.835
X118.872Y-85.09
X118.872Y-97.79
X120.453Y-71.295
X120.453Y-73.835
X121.412Y-85.09
X121.412Y-97.79
X121.747Y-89.931
X121.747Y-92.471
X121.747Y-95.011
X121.997Y-117.005
X121.997Y-119.545
X122.993Y-71.295
X122.993Y-73.835
X123.952Y-85.09
X123.952Y-97.79
X124.537Y-117.005
X124.537Y-119.545
X124.998Y-89.931
X124.998Y-92.471
X124.998Y-95.011
X125.242Y-79.602
X125.533Y-71.295
X125.533Y-73.835
X126.492Y-85.09
X126.492Y-97.79
X127.077Y-117.005
X127.077Y-119.545
X127.742Y-79.602
X128.073Y-71.295
X128.073Y-73.835
X128.27Y-89.931
X128.27Y-92.471
X128.27Y-95.011
X129.032Y-85.09
X129.032Y-97.79
X129.617Y-117.005
X129.617Y-119.545
X130.613Y-71.295
X130.613Y-73.835
X132.157Y-117.005
X132.157Y-119.545
X132.842Y-85.08
X132.842Y-92.7
X132.842Y-95.24
X132.842Y-97.78
X133.153Y-71.295
X133.153Y-73.835
X134.697Y-117.005
X134.697Y-119.545
X135.382Y-85.08
X135.382Y-97.78
X135.693Y-71.295
X135.693Y-73.835
X137.237Y-117.005
X137.237Y-119.545
X137.922Y-85.08
X137.922Y-97.78
X139.737Y-71.27
X139.737Y-73.81
X139.777Y-117.005
X139.777Y-119.545
X140.462Y-85.08
X140.462Y-97.78
X142.277Y-71.27
X142.277Y-73.81
X143.002Y-85.08
X143.002Y-97.78
X143.358Y-89.931
X143.358Y-92.471
X143.358Y-95.011
X144.817Y-71.27
X144.817Y-73.81
X144.843Y-117.005
X144.843Y-119.545
X145.542Y-85.08
X145.542Y-97.78
X146.66Y-89.931
X146.66Y-92.471
X146.66Y-95.011
X146.832Y-79.602
X147.357Y-71.27
X147.357Y-73.81
X147.383Y-117.005
X147.383Y-119.545
X148.082Y-85.08
X148.082Y-97.78
X149.332Y-79.602
X149.897Y-71.27
X149.897Y-73.81
X149.923Y-117.005
X149.923Y-119.545
X149.962Y-89.931
X149.962Y-92.471
X149.962Y-95.011
X150.622Y-85.08
X150.622Y-97.78
X152.437Y-71.27
X152.437Y-73.81
X152.463Y-117.005
X152.463Y-119.545
X154.432Y-85.08
X154.432Y-92.7
X154.432Y-95.24
X154.432Y-97.78
X154.977Y-71.27
X154.977Y-73.81
X155.003Y-117.005
X155.003Y-119.545
X156.972Y-85.08
X156.972Y-97.78
X157.517Y-71.27
X157.517Y-73.81
X157.543Y-117.005
X157.543Y-119.545
X159.512Y-85.08
X159.512Y-97.78
X162.052Y-85.08
X162.052Y-97.78
X164.592Y-85.08
X164.592Y-97.78
X164.948Y-89.931
X164.948Y-92.471
X164.948Y-95.011
X167.132Y-85.08
X167.132Y-97.78
X168.199Y-89.931
X168.199Y-92.471
X168.199Y-95.011
X168.422Y-79.602
X169.672Y-85.08
X169.672Y-97.78
X170.922Y-79.602
X171.45Y-89.931
X171.45Y-92.471
X171.45Y-95.011
X172.212Y-85.08
X172.212Y-97.78
T5
X101.498Y-104.546
X101.498Y-111.746
T6
X87.311Y-70.274
X87.311Y-120.058
X174.306Y-70.274
X174.306Y-120.058
T2
G00X94.948Y-101.396
M15
G01X96.048Y-101.396
M16
G05
G00X94.948Y-114.896
M15
G01X96.048Y-114.896
M16
G05
M30
