M48
METRIC,TZ
T1C0.300
T2C0.600
T3C0.950
T4C1.000
T5C2.700
%
G90
G05
T1
X93142Y-87528
X93142Y-88341
X93142Y-89154
X93142Y-89967
X93447Y-94869
X93447Y-93523
X107188Y-109474
X109220Y-111760
X110363Y-101727
X114259Y-103361
X114706Y-87528
X114706Y-88341
X114706Y-89154
X114706Y-89967
X114960Y-94742
X115011Y-93497
X115087Y-101498
X118110Y-101600
X119380Y-111633
X121412Y-106565
X125832Y-108966
X127000Y-105000
X129540Y-101092
X129631Y-107061
X130480Y-112471
X131496Y-107950
X133604Y-105410
X134468Y-112480
X135636Y-105410
X136296Y-87528
X136296Y-88341
X136296Y-89154
X136296Y-89967
X136601Y-93472
X136627Y-94844
X136904Y-112480
X137668Y-105410
X139929Y-108968
X140208Y-107036
X140968Y-112356
X141986Y-101600
X145532Y-108763
X147015Y-105004
X151028Y-99843
X151206Y-101625
X152400Y-106147
X152400Y-111506
X156058Y-103632
X156464Y-96571
X157759Y-87528
X157759Y-88341
X157759Y-89154
X157759Y-89967
X158217Y-93472
X158217Y-94767
X162560Y-112014
X164389Y-101600
X171450Y-111760
X173228Y-101600
T3
X90865Y-79602
X93365Y-79602
X95865Y-79602
X98365Y-79602
X112455Y-79602
X114955Y-79602
X117455Y-79602
X119955Y-79602
X134040Y-79610
X136540Y-79610
X139040Y-79610
X141540Y-79610
X155635Y-79602
X158135Y-79602
X160635Y-79602
X163135Y-79602
T4
X89662Y-85085
X89662Y-92705
X89662Y-95245
X89662Y-97785
X92202Y-85085
X92202Y-97785
X94742Y-85085
X94742Y-97785
X97282Y-85085
X97282Y-97785
X99822Y-85085
X99822Y-97785
X100178Y-89931
X100178Y-92471
X100178Y-95011
X102362Y-85085
X102362Y-97785
X103429Y-89931
X103429Y-92471
X103429Y-95011
X103632Y-79619
X104902Y-85085
X104902Y-97785
X106132Y-79619
X106680Y-89931
X106680Y-92471
X106680Y-95011
X107442Y-85085
X107442Y-97785
X111252Y-85090
X111252Y-92710
X111252Y-95250
X111252Y-97790
X112833Y-71295
X112833Y-73835
X113792Y-85090
X113792Y-97790
X115373Y-71295
X115373Y-73835
X116332Y-85090
X116332Y-97790
X117913Y-71295
X117913Y-73835
X118872Y-85090
X118872Y-97790
X120453Y-71295
X120453Y-73835
X121412Y-85090
X121412Y-97790
X121747Y-89931
X121747Y-92471
X121747Y-95011
X121997Y-117005
X121997Y-119545
X122993Y-71295
X122993Y-73835
X123952Y-85090
X123952Y-97790
X124537Y-117005
X124537Y-119545
X124998Y-89931
X124998Y-92471
X124998Y-95011
X125242Y-79602
X125533Y-71295
X125533Y-73835
X126492Y-85090
X126492Y-97790
X127077Y-117005
X127077Y-119545
X127742Y-79602
X128073Y-71295
X128073Y-73835
X128270Y-89931
X128270Y-92471
X128270Y-95011
X129032Y-85090
X129032Y-97790
X129617Y-117005
X129617Y-119545
X130613Y-71295
X130613Y-73835
X132157Y-117005
X132157Y-119545
X132842Y-85080
X132842Y-92700
X132842Y-95240
X132842Y-97780
X133153Y-71295
X133153Y-73835
X134697Y-117005
X134697Y-119545
X135382Y-85080
X135382Y-97780
X135693Y-71295
X135693Y-73835
X137237Y-117005
X137237Y-119545
X137922Y-85080
X137922Y-97780
X139737Y-71270
X139737Y-73810
X139777Y-117005
X139777Y-119545
X140462Y-85080
X140462Y-97780
X142277Y-71270
X142277Y-73810
X143002Y-85080
X143002Y-97780
X143358Y-89931
X143358Y-92471
X143358Y-95011
X144817Y-71270
X144817Y-73810
X144843Y-117005
X144843Y-119545
X145542Y-85080
X145542Y-97780
X146660Y-89931
X146660Y-92471
X146660Y-95011
X146832Y-79602
X147357Y-71270
X147357Y-73810
X147383Y-117005
X147383Y-119545
X148082Y-85080
X148082Y-97780
X149332Y-79602
X149897Y-71270
X149897Y-73810
X149923Y-117005
X149923Y-119545
X149962Y-89931
X149962Y-92471
X149962Y-95011
X150622Y-85080
X150622Y-97780
X152437Y-71270
X152437Y-73810
X152463Y-117005
X152463Y-119545
X154432Y-85080
X154432Y-92700
X154432Y-95240
X154432Y-97780
X154977Y-71270
X154977Y-73810
X155003Y-117005
X155003Y-119545
X156972Y-85080
X156972Y-97780
X157517Y-71270
X157517Y-73810
X157543Y-117005
X157543Y-119545
X159512Y-85080
X159512Y-97780
X162052Y-85080
X162052Y-97780
X164592Y-85080
X164592Y-97780
X164948Y-89931
X164948Y-92471
X164948Y-95011
X167132Y-85080
X167132Y-97780
X168199Y-89931
X168199Y-92471
X168199Y-95011
X168422Y-79602
X169672Y-85080
X169672Y-97780
X170922Y-79602
X171450Y-89931
X171450Y-92471
X171450Y-95011
X172212Y-85080
X172212Y-97780
T5
X101498Y-104546
X101498Y-111746
T2
G00X94948Y-101396
M15
G01X96048Y-101396
M16
G05
G00X94948Y-114896
M15
G01X96048Y-114896
M16
G05
M30
