%TF.GenerationSoftware,KiCad,Pcbnew,8.0.3*%
%TF.CreationDate,2024-07-06T17:26:19+02:00*%
%TF.ProjectId,StepperDriver-Shield_FRDM-MCXA153,53746570-7065-4724-9472-697665722d53,rev?*%
%TF.SameCoordinates,Original*%
%TF.FileFunction,Soldermask,Top*%
%TF.FilePolarity,Negative*%
%FSLAX46Y46*%
G04 Gerber Fmt 4.6, Leading zero omitted, Abs format (unit mm)*
G04 Created by KiCad (PCBNEW 8.0.3) date 2024-07-06 17:26:19*
%MOMM*%
%LPD*%
G01*
G04 APERTURE LIST*
G04 Aperture macros list*
%AMRoundRect*
0 Rectangle with rounded corners*
0 $1 Rounding radius*
0 $2 $3 $4 $5 $6 $7 $8 $9 X,Y pos of 4 corners*
0 Add a 4 corners polygon primitive as box body*
4,1,4,$2,$3,$4,$5,$6,$7,$8,$9,$2,$3,0*
0 Add four circle primitives for the rounded corners*
1,1,$1+$1,$2,$3*
1,1,$1+$1,$4,$5*
1,1,$1+$1,$6,$7*
1,1,$1+$1,$8,$9*
0 Add four rect primitives between the rounded corners*
20,1,$1+$1,$2,$3,$4,$5,0*
20,1,$1+$1,$4,$5,$6,$7,0*
20,1,$1+$1,$6,$7,$8,$9,0*
20,1,$1+$1,$8,$9,$2,$3,0*%
G04 Aperture macros list end*
%ADD10C,0.000000*%
%ADD11RoundRect,0.102000X-0.900000X0.900000X-0.900000X-0.900000X0.900000X-0.900000X0.900000X0.900000X0*%
%ADD12C,2.004000*%
%ADD13RoundRect,0.250000X-0.450000X0.350000X-0.450000X-0.350000X0.450000X-0.350000X0.450000X0.350000X0*%
%ADD14RoundRect,0.250000X-0.475000X0.337500X-0.475000X-0.337500X0.475000X-0.337500X0.475000X0.337500X0*%
%ADD15C,3.200000*%
%ADD16RoundRect,0.250000X-0.337500X-0.475000X0.337500X-0.475000X0.337500X0.475000X-0.337500X0.475000X0*%
%ADD17RoundRect,0.250000X0.475000X-0.337500X0.475000X0.337500X-0.475000X0.337500X-0.475000X-0.337500X0*%
%ADD18RoundRect,0.250000X0.350000X0.450000X-0.350000X0.450000X-0.350000X-0.450000X0.350000X-0.450000X0*%
%ADD19RoundRect,0.250000X-0.600000X-0.750000X0.600000X-0.750000X0.600000X0.750000X-0.600000X0.750000X0*%
%ADD20O,1.700000X2.000000*%
%ADD21RoundRect,0.250000X-0.600000X-0.725000X0.600000X-0.725000X0.600000X0.725000X-0.600000X0.725000X0*%
%ADD22O,1.700000X1.950000*%
%ADD23R,1.100000X0.400000*%
%ADD24RoundRect,0.250000X0.450000X-0.350000X0.450000X0.350000X-0.450000X0.350000X-0.450000X-0.350000X0*%
%ADD25RoundRect,0.250000X-0.550000X1.500000X-0.550000X-1.500000X0.550000X-1.500000X0.550000X1.500000X0*%
%ADD26RoundRect,0.500000X-0.500000X0.500000X-0.500000X-0.500000X0.500000X-0.500000X0.500000X0.500000X0*%
%ADD27R,1.700000X1.700000*%
%ADD28O,1.700000X1.700000*%
%ADD29O,2.604000X1.404000*%
%ADD30RoundRect,1.025000X1.025000X-1.025000X1.025000X1.025000X-1.025000X1.025000X-1.025000X-1.025000X0*%
%ADD31C,4.100000*%
%ADD32RoundRect,0.237500X-0.287500X-0.237500X0.287500X-0.237500X0.287500X0.237500X-0.287500X0.237500X0*%
%ADD33RoundRect,0.500000X0.500000X-0.500000X0.500000X0.500000X-0.500000X0.500000X-0.500000X-0.500000X0*%
%ADD34R,1.500000X0.900000*%
%ADD35RoundRect,0.075000X0.075000X-0.425000X0.075000X0.425000X-0.075000X0.425000X-0.075000X-0.425000X0*%
%ADD36RoundRect,0.237500X0.287500X0.237500X-0.287500X0.237500X-0.287500X-0.237500X0.287500X-0.237500X0*%
G04 APERTURE END LIST*
D10*
%TO.C,Blub1*%
G36*
X96642611Y-73467663D02*
G01*
X96643330Y-73469784D01*
X96644913Y-73476011D01*
X96649631Y-73489965D01*
X96657440Y-73511526D01*
X96668293Y-73540573D01*
X96682145Y-73576984D01*
X96698952Y-73620640D01*
X96718667Y-73671419D01*
X96728232Y-73695938D01*
X96739537Y-73724942D01*
X96749885Y-73751616D01*
X96758858Y-73774870D01*
X96766037Y-73793614D01*
X96771002Y-73806757D01*
X96773335Y-73813209D01*
X96773403Y-73813432D01*
X96774114Y-73817401D01*
X96772601Y-73819539D01*
X96767653Y-73819722D01*
X96758056Y-73817828D01*
X96742599Y-73813733D01*
X96723777Y-73808381D01*
X96708466Y-73804163D01*
X96686561Y-73798382D01*
X96659701Y-73791459D01*
X96629525Y-73783813D01*
X96597673Y-73775862D01*
X96572487Y-73769664D01*
X96543203Y-73762402D01*
X96516806Y-73755660D01*
X96494359Y-73749724D01*
X96476926Y-73744882D01*
X96465568Y-73741421D01*
X96461349Y-73739629D01*
X96461344Y-73739601D01*
X96463542Y-73735228D01*
X96469645Y-73725143D01*
X96478827Y-73710660D01*
X96490264Y-73693091D01*
X96495907Y-73684559D01*
X96509879Y-73663320D01*
X96525391Y-73639380D01*
X96541815Y-73613747D01*
X96558520Y-73587430D01*
X96574877Y-73561435D01*
X96590257Y-73536772D01*
X96604031Y-73514448D01*
X96615568Y-73495471D01*
X96624240Y-73480850D01*
X96629417Y-73471592D01*
X96630628Y-73468789D01*
X96634067Y-73465587D01*
X96636979Y-73465183D01*
X96642611Y-73467663D01*
G37*
G36*
X106895751Y-72033090D02*
G01*
X106907077Y-72034593D01*
X106919087Y-72037472D01*
X106932903Y-72042111D01*
X106949649Y-72048896D01*
X106970451Y-72058211D01*
X106996430Y-72070439D01*
X107028712Y-72085966D01*
X107034235Y-72088636D01*
X107066424Y-72104691D01*
X107091959Y-72118748D01*
X107112115Y-72131791D01*
X107128165Y-72144803D01*
X107141383Y-72158766D01*
X107153041Y-72174663D01*
X107159835Y-72185569D01*
X107173729Y-72210430D01*
X107183409Y-72231827D01*
X107190079Y-72252809D01*
X107194356Y-72273020D01*
X107198080Y-72305530D01*
X107197676Y-72338940D01*
X107192916Y-72374179D01*
X107183573Y-72412175D01*
X107169420Y-72453858D01*
X107150230Y-72500156D01*
X107126451Y-72550630D01*
X107115559Y-72572915D01*
X107105841Y-72593201D01*
X107097993Y-72610004D01*
X107092712Y-72621835D01*
X107090852Y-72626560D01*
X107086939Y-72636463D01*
X107080736Y-72649656D01*
X107077588Y-72655770D01*
X107068403Y-72680581D01*
X107067437Y-72704400D01*
X107074457Y-72726759D01*
X107089231Y-72747188D01*
X107111525Y-72765218D01*
X107138979Y-72779495D01*
X107189849Y-72801792D01*
X107233339Y-72822902D01*
X107270318Y-72843542D01*
X107301657Y-72864431D01*
X107328227Y-72886287D01*
X107350897Y-72909826D01*
X107370538Y-72935767D01*
X107388021Y-72964826D01*
X107404215Y-72997723D01*
X107404556Y-72998480D01*
X107413915Y-73021387D01*
X107422999Y-73047234D01*
X107430308Y-73071635D01*
X107432356Y-73079817D01*
X107436527Y-73098431D01*
X107438889Y-73112140D01*
X107439518Y-73123960D01*
X107438489Y-73136908D01*
X107435880Y-73154001D01*
X107434450Y-73162449D01*
X107429507Y-73186161D01*
X107423172Y-73209039D01*
X107416431Y-73227596D01*
X107415257Y-73230193D01*
X107399149Y-73258188D01*
X107376158Y-73289012D01*
X107347068Y-73321899D01*
X107312666Y-73356082D01*
X107273735Y-73390797D01*
X107231059Y-73425276D01*
X107185423Y-73458753D01*
X107171268Y-73468489D01*
X107141995Y-73489548D01*
X107120246Y-73508040D01*
X107105612Y-73524347D01*
X107098797Y-73535967D01*
X107094070Y-73554636D01*
X107093387Y-73576298D01*
X107096756Y-73596501D01*
X107098665Y-73601866D01*
X107104779Y-73611928D01*
X107114624Y-73623741D01*
X107126233Y-73635409D01*
X107137643Y-73645032D01*
X107146887Y-73650712D01*
X107150018Y-73651480D01*
X107155630Y-73653814D01*
X107166884Y-73660262D01*
X107182549Y-73669996D01*
X107201391Y-73682186D01*
X107222179Y-73696004D01*
X107243681Y-73710620D01*
X107264663Y-73725206D01*
X107283893Y-73738932D01*
X107300139Y-73750970D01*
X107312168Y-73760490D01*
X107312521Y-73760787D01*
X107331777Y-73777995D01*
X107352000Y-73797660D01*
X107371413Y-73817914D01*
X107388240Y-73836891D01*
X107400705Y-73852723D01*
X107402621Y-73855502D01*
X107418421Y-73884765D01*
X107429875Y-73919069D01*
X107436246Y-73951025D01*
X107438402Y-73966432D01*
X107439303Y-73978781D01*
X107438762Y-73990602D01*
X107436589Y-74004424D01*
X107432597Y-74022778D01*
X107430143Y-74033250D01*
X107419229Y-74070689D01*
X107404188Y-74109851D01*
X107386297Y-74147919D01*
X107366831Y-74182073D01*
X107354706Y-74199813D01*
X107330860Y-74227757D01*
X107300964Y-74255304D01*
X107264466Y-74282862D01*
X107220814Y-74310843D01*
X107169456Y-74339654D01*
X107158566Y-74345368D01*
X107130856Y-74360395D01*
X107109912Y-74373419D01*
X107094569Y-74385410D01*
X107083665Y-74397339D01*
X107076036Y-74410176D01*
X107073392Y-74416428D01*
X107068651Y-74437411D01*
X107069038Y-74459488D01*
X107074288Y-74479421D01*
X107079282Y-74488479D01*
X107086422Y-74500858D01*
X107091227Y-74513268D01*
X107091251Y-74513366D01*
X107094595Y-74522421D01*
X107101026Y-74536535D01*
X107109458Y-74553396D01*
X107114715Y-74563299D01*
X107143445Y-74619192D01*
X107166038Y-74670053D01*
X107182601Y-74716569D01*
X107193243Y-74759427D01*
X107198072Y-74799315D01*
X107197197Y-74836917D01*
X107190726Y-74872922D01*
X107178766Y-74908015D01*
X107171566Y-74923809D01*
X107161148Y-74944290D01*
X107151008Y-74962033D01*
X107140318Y-74977717D01*
X107128250Y-74992018D01*
X107113977Y-75005612D01*
X107096671Y-75019176D01*
X107075505Y-75033388D01*
X107049651Y-75048923D01*
X107018282Y-75066460D01*
X106980570Y-75086674D01*
X106957672Y-75098733D01*
X106937453Y-75109068D01*
X106922314Y-75115912D01*
X106910011Y-75120022D01*
X106898299Y-75122157D01*
X106885694Y-75123045D01*
X106868991Y-75123341D01*
X106853852Y-75122987D01*
X106845247Y-75122262D01*
X106740060Y-75102566D01*
X106634369Y-75074626D01*
X106528088Y-75038411D01*
X106421126Y-74993885D01*
X106313397Y-74941015D01*
X106204812Y-74879767D01*
X106195322Y-74874042D01*
X106140879Y-74839718D01*
X106087843Y-74803508D01*
X106035309Y-74764664D01*
X105982368Y-74722442D01*
X105928114Y-74676098D01*
X105871640Y-74624884D01*
X105812038Y-74568057D01*
X105759195Y-74515743D01*
X105716705Y-74472679D01*
X105679363Y-74433939D01*
X105645998Y-74398207D01*
X105615439Y-74364167D01*
X105586517Y-74330505D01*
X105558061Y-74295907D01*
X105528900Y-74259056D01*
X105516770Y-74243382D01*
X105469124Y-74178776D01*
X105422016Y-74109707D01*
X105376174Y-74037485D01*
X105332326Y-73963421D01*
X105291201Y-73888827D01*
X105253527Y-73815015D01*
X105220032Y-73743294D01*
X105191446Y-73674977D01*
X105172764Y-73624134D01*
X105157442Y-73579294D01*
X105164438Y-73555052D01*
X105174939Y-73522808D01*
X105189394Y-73484646D01*
X105207224Y-73441802D01*
X105227852Y-73395512D01*
X105250699Y-73347011D01*
X105275187Y-73297534D01*
X105300737Y-73248318D01*
X105326772Y-73200597D01*
X105346180Y-73166683D01*
X105391484Y-73091770D01*
X105437304Y-73021269D01*
X105484652Y-72953888D01*
X105534540Y-72888333D01*
X105587978Y-72823312D01*
X105645979Y-72757534D01*
X105709554Y-72689705D01*
X105759195Y-72639027D01*
X105821863Y-72577140D01*
X105880706Y-72521393D01*
X105936759Y-72470991D01*
X105991051Y-72425136D01*
X106044617Y-72383032D01*
X106098488Y-72343882D01*
X106153697Y-72306890D01*
X106211276Y-72271259D01*
X106272257Y-72236192D01*
X106303290Y-72219192D01*
X106363855Y-72188057D01*
X106426490Y-72158796D01*
X106490169Y-72131746D01*
X106553867Y-72107243D01*
X106616556Y-72085625D01*
X106677212Y-72067230D01*
X106734807Y-72052395D01*
X106788315Y-72041458D01*
X106836711Y-72034755D01*
X106870652Y-72032675D01*
X106883984Y-72032579D01*
X106895751Y-72033090D01*
G37*
G36*
X100940880Y-69998752D02*
G01*
X101023597Y-70005604D01*
X101102279Y-70019885D01*
X101177014Y-70041626D01*
X101247890Y-70070859D01*
X101314995Y-70107617D01*
X101378416Y-70151930D01*
X101391455Y-70162346D01*
X101422847Y-70190417D01*
X101447392Y-70218405D01*
X101466396Y-70248388D01*
X101481167Y-70282445D01*
X101493011Y-70322653D01*
X101493493Y-70324630D01*
X101501527Y-70368716D01*
X101503449Y-70408882D01*
X101499330Y-70444589D01*
X101489237Y-70475301D01*
X101473239Y-70500479D01*
X101470599Y-70503459D01*
X101457074Y-70519682D01*
X101449128Y-70534084D01*
X101445460Y-70549782D01*
X101444731Y-70565352D01*
X101446517Y-70584501D01*
X101452728Y-70600642D01*
X101464643Y-70616475D01*
X101472961Y-70624949D01*
X101488965Y-70637860D01*
X101506037Y-70645950D01*
X101525781Y-70649490D01*
X101549801Y-70648754D01*
X101579702Y-70644011D01*
X101582337Y-70643479D01*
X101596814Y-70641095D01*
X101617538Y-70638448D01*
X101642302Y-70635783D01*
X101668900Y-70633345D01*
X101684965Y-70632083D01*
X101712818Y-70630220D01*
X101736445Y-70629148D01*
X101758290Y-70628895D01*
X101780796Y-70629486D01*
X101806406Y-70630948D01*
X101837564Y-70633308D01*
X101843742Y-70633813D01*
X101925554Y-70642412D01*
X101999569Y-70654102D01*
X102065885Y-70668912D01*
X102124601Y-70686871D01*
X102175813Y-70708005D01*
X102219620Y-70732343D01*
X102242018Y-70748206D01*
X102269834Y-70773107D01*
X102297872Y-70804166D01*
X102324529Y-70839270D01*
X102348205Y-70876308D01*
X102367298Y-70913166D01*
X102367568Y-70913766D01*
X102379831Y-70943785D01*
X102393055Y-70981011D01*
X102406928Y-71024280D01*
X102421138Y-71072426D01*
X102435372Y-71124286D01*
X102449318Y-71178694D01*
X102462663Y-71234485D01*
X102475095Y-71290496D01*
X102486302Y-71345562D01*
X102492903Y-71380974D01*
X102497397Y-71405616D01*
X102501107Y-71423571D01*
X102504691Y-71436496D01*
X102508806Y-71446050D01*
X102514111Y-71453889D01*
X102521262Y-71461672D01*
X102527251Y-71467523D01*
X102540387Y-71478839D01*
X102553181Y-71486098D01*
X102568066Y-71490088D01*
X102587473Y-71491593D01*
X102601886Y-71491635D01*
X102615018Y-71491809D01*
X102628441Y-71492839D01*
X102643595Y-71494984D01*
X102661918Y-71498503D01*
X102684851Y-71503657D01*
X102713833Y-71510705D01*
X102729762Y-71514698D01*
X102818663Y-71538149D01*
X102900186Y-71561878D01*
X102975418Y-71586283D01*
X103045446Y-71611764D01*
X103111359Y-71638719D01*
X103174245Y-71667546D01*
X103235192Y-71698643D01*
X103242080Y-71702358D01*
X103324856Y-71749905D01*
X103400461Y-71799134D01*
X103470175Y-71851117D01*
X103535272Y-71906928D01*
X103597030Y-71967639D01*
X103656726Y-72034323D01*
X103698579Y-72085908D01*
X103731976Y-72130832D01*
X103765233Y-72180085D01*
X103798793Y-72234420D01*
X103833099Y-72294585D01*
X103868592Y-72361333D01*
X103905715Y-72435415D01*
X103911301Y-72446896D01*
X103922527Y-72470463D01*
X103934854Y-72497055D01*
X103947842Y-72525648D01*
X103961050Y-72555221D01*
X103974036Y-72584749D01*
X103986359Y-72613211D01*
X103997579Y-72639583D01*
X104007254Y-72662842D01*
X104014942Y-72681966D01*
X104020203Y-72695930D01*
X104022596Y-72703713D01*
X104022592Y-72704957D01*
X104018022Y-72704695D01*
X104014792Y-72703583D01*
X104009103Y-72700386D01*
X103997824Y-72693416D01*
X103982413Y-72683596D01*
X103964329Y-72671845D01*
X103957633Y-72667444D01*
X103857364Y-72602069D01*
X103762464Y-72541727D01*
X103671957Y-72485845D01*
X103584867Y-72433849D01*
X103500219Y-72385165D01*
X103417036Y-72339220D01*
X103334342Y-72295438D01*
X103265367Y-72260326D01*
X103204035Y-72230067D01*
X103141111Y-72199871D01*
X103076004Y-72169486D01*
X103008121Y-72138657D01*
X102936870Y-72107133D01*
X102861659Y-72074659D01*
X102781897Y-72040984D01*
X102696990Y-72005853D01*
X102606348Y-71969014D01*
X102509378Y-71930214D01*
X102405488Y-71889200D01*
X102308475Y-71851310D01*
X102259716Y-71832350D01*
X102217903Y-71816089D01*
X102182086Y-71802156D01*
X102151318Y-71790182D01*
X102124650Y-71779796D01*
X102101135Y-71770628D01*
X102079824Y-71762309D01*
X102059769Y-71754468D01*
X102040023Y-71746736D01*
X102019638Y-71738742D01*
X101997665Y-71730117D01*
X101973156Y-71720491D01*
X101959166Y-71714995D01*
X101844839Y-71670482D01*
X101730553Y-71626776D01*
X101616963Y-71584106D01*
X101504722Y-71542698D01*
X101394483Y-71502782D01*
X101286901Y-71464584D01*
X101182629Y-71428333D01*
X101082321Y-71394256D01*
X100986630Y-71362582D01*
X100896210Y-71333538D01*
X100811715Y-71307352D01*
X100733799Y-71284252D01*
X100680487Y-71269204D01*
X100562672Y-71238216D01*
X100436534Y-71207820D01*
X100302200Y-71178038D01*
X100159794Y-71148898D01*
X100009443Y-71120423D01*
X99851273Y-71092639D01*
X99685410Y-71065572D01*
X99566934Y-71047384D01*
X99532377Y-71041463D01*
X99505684Y-71035191D01*
X99486254Y-71028426D01*
X99484371Y-71027568D01*
X99468925Y-71021643D01*
X99448928Y-71016477D01*
X99422905Y-71011733D01*
X99401807Y-71008681D01*
X99376758Y-71005510D01*
X99347586Y-71002124D01*
X99315754Y-70998663D01*
X99282725Y-70995269D01*
X99249964Y-70992080D01*
X99218934Y-70989237D01*
X99191099Y-70986881D01*
X99167923Y-70985151D01*
X99150869Y-70984188D01*
X99144510Y-70984036D01*
X99132895Y-70983300D01*
X99126047Y-70981418D01*
X99125183Y-70979967D01*
X99128853Y-70976509D01*
X99138743Y-70968497D01*
X99154241Y-70956388D01*
X99174739Y-70940634D01*
X99199625Y-70921692D01*
X99228291Y-70900014D01*
X99260125Y-70876056D01*
X99294519Y-70850272D01*
X99330861Y-70823116D01*
X99368543Y-70795044D01*
X99406953Y-70766509D01*
X99445483Y-70737966D01*
X99483521Y-70709870D01*
X99520458Y-70682674D01*
X99555685Y-70656834D01*
X99588590Y-70632804D01*
X99618564Y-70611038D01*
X99644997Y-70591991D01*
X99666498Y-70576669D01*
X99722523Y-70537943D01*
X99783832Y-70497178D01*
X99849286Y-70455045D01*
X99917750Y-70412213D01*
X99988086Y-70369354D01*
X100059156Y-70327137D01*
X100129824Y-70286232D01*
X100198953Y-70247310D01*
X100265405Y-70211042D01*
X100328043Y-70178096D01*
X100385731Y-70149144D01*
X100417976Y-70133743D01*
X100493081Y-70099957D01*
X100562622Y-70071438D01*
X100627479Y-70047957D01*
X100688534Y-70029287D01*
X100746668Y-70015201D01*
X100802760Y-70005471D01*
X100857692Y-69999870D01*
X100912345Y-69998171D01*
X100940880Y-69998752D01*
G37*
G36*
X101173752Y-73005937D02*
G01*
X101216922Y-73006370D01*
X101252899Y-73007621D01*
X101282934Y-73009864D01*
X101308279Y-73013273D01*
X101330183Y-73018019D01*
X101349898Y-73024275D01*
X101368675Y-73032216D01*
X101370657Y-73033161D01*
X101390773Y-73044131D01*
X101409302Y-73056502D01*
X101422530Y-73067644D01*
X101435269Y-73083207D01*
X101449060Y-73104496D01*
X101462601Y-73129104D01*
X101474589Y-73154623D01*
X101483722Y-73178645D01*
X101485257Y-73183619D01*
X101492360Y-73222666D01*
X101491454Y-73262821D01*
X101482810Y-73303420D01*
X101466700Y-73343801D01*
X101443395Y-73383302D01*
X101413167Y-73421258D01*
X101376288Y-73457008D01*
X101371610Y-73460967D01*
X101344919Y-73482516D01*
X101318562Y-73502459D01*
X101293805Y-73519929D01*
X101271914Y-73534055D01*
X101254154Y-73543971D01*
X101244912Y-73547923D01*
X101230871Y-73553548D01*
X101218750Y-73559887D01*
X101215274Y-73562261D01*
X101202953Y-73570336D01*
X101185276Y-73579893D01*
X101164027Y-73590176D01*
X101140987Y-73600428D01*
X101117940Y-73609892D01*
X101096668Y-73617813D01*
X101078955Y-73623433D01*
X101066581Y-73625997D01*
X101064894Y-73626076D01*
X101046057Y-73627638D01*
X101020931Y-73632060D01*
X100990708Y-73638946D01*
X100956582Y-73647899D01*
X100919747Y-73658524D01*
X100881394Y-73670423D01*
X100842717Y-73683202D01*
X100804910Y-73696462D01*
X100769165Y-73709809D01*
X100736675Y-73722846D01*
X100708633Y-73735177D01*
X100686232Y-73746405D01*
X100670666Y-73756134D01*
X100668725Y-73757659D01*
X100654728Y-73772783D01*
X100643626Y-73791486D01*
X100637083Y-73810589D01*
X100636029Y-73820198D01*
X100640012Y-73843279D01*
X100650954Y-73864731D01*
X100667349Y-73883060D01*
X100687689Y-73896775D01*
X100710468Y-73904383D01*
X100722117Y-73905430D01*
X100734179Y-73903530D01*
X100753007Y-73897889D01*
X100777891Y-73888740D01*
X100798329Y-73880458D01*
X100860677Y-73855447D01*
X100917279Y-73835075D01*
X100969307Y-73819092D01*
X101017928Y-73807248D01*
X101064313Y-73799295D01*
X101109632Y-73794981D01*
X101155054Y-73794058D01*
X101195014Y-73795779D01*
X101253235Y-73801465D01*
X101307323Y-73810032D01*
X101356557Y-73821261D01*
X101400216Y-73834933D01*
X101437579Y-73850830D01*
X101467925Y-73868732D01*
X101486637Y-73884321D01*
X101501819Y-73902299D01*
X101516849Y-73924819D01*
X101529688Y-73948497D01*
X101538302Y-73969954D01*
X101538402Y-73970284D01*
X101543258Y-73992779D01*
X101546357Y-74020091D01*
X101547449Y-74048704D01*
X101546282Y-74075102D01*
X101546025Y-74077545D01*
X101538276Y-74112906D01*
X101523542Y-74148577D01*
X101502971Y-74182525D01*
X101477713Y-74212713D01*
X101461001Y-74228001D01*
X101440520Y-74243043D01*
X101413442Y-74260280D01*
X101381115Y-74278980D01*
X101344889Y-74298414D01*
X101306112Y-74317849D01*
X101266133Y-74336555D01*
X101237263Y-74349205D01*
X101220970Y-74355404D01*
X101200866Y-74361966D01*
X101178565Y-74368491D01*
X101155678Y-74374576D01*
X101133820Y-74379823D01*
X101114604Y-74383829D01*
X101099641Y-74386193D01*
X101090546Y-74386515D01*
X101089016Y-74386052D01*
X101083604Y-74385661D01*
X101071589Y-74386275D01*
X101054761Y-74387762D01*
X101035351Y-74389941D01*
X101014734Y-74392162D01*
X100988078Y-74394570D01*
X100957802Y-74396971D01*
X100926326Y-74399174D01*
X100898540Y-74400850D01*
X100854830Y-74403269D01*
X100818760Y-74405339D01*
X100789511Y-74407148D01*
X100766264Y-74408782D01*
X100748203Y-74410330D01*
X100734508Y-74411879D01*
X100724363Y-74413516D01*
X100716949Y-74415330D01*
X100711448Y-74417407D01*
X100707043Y-74419836D01*
X100704396Y-74421632D01*
X100684714Y-74439146D01*
X100672515Y-74458984D01*
X100666839Y-74482817D01*
X100666436Y-74487664D01*
X100666728Y-74509177D01*
X100671341Y-74527517D01*
X100681296Y-74545447D01*
X100693505Y-74561020D01*
X100705333Y-74572531D01*
X100719440Y-74581224D01*
X100737495Y-74587754D01*
X100761165Y-74592775D01*
X100782104Y-74595758D01*
X100822566Y-74602011D01*
X100864095Y-74610649D01*
X100904653Y-74621112D01*
X100942205Y-74632839D01*
X100974716Y-74645268D01*
X100992936Y-74653852D01*
X101021183Y-74672696D01*
X101045212Y-74696773D01*
X101064596Y-74724804D01*
X101078907Y-74755508D01*
X101087716Y-74787606D01*
X101090596Y-74819819D01*
X101087118Y-74850866D01*
X101076855Y-74879466D01*
X101071517Y-74888761D01*
X101051451Y-74913390D01*
X101023688Y-74937185D01*
X100988987Y-74959727D01*
X100948109Y-74980597D01*
X100901815Y-74999375D01*
X100850864Y-75015641D01*
X100832912Y-75020449D01*
X100776832Y-75034039D01*
X100719515Y-75046565D01*
X100662878Y-75057667D01*
X100608843Y-75066988D01*
X100559328Y-75074170D01*
X100523827Y-75078174D01*
X100503465Y-75080124D01*
X100485023Y-75081942D01*
X100470876Y-75083389D01*
X100464551Y-75084084D01*
X100455819Y-75084256D01*
X100440575Y-75083689D01*
X100420732Y-75082485D01*
X100398204Y-75080750D01*
X100390455Y-75080073D01*
X100362936Y-75077427D01*
X100333121Y-75074282D01*
X100304562Y-75071027D01*
X100280813Y-75068052D01*
X100280370Y-75067993D01*
X100261600Y-75065594D01*
X100236418Y-75062561D01*
X100206832Y-75059128D01*
X100174855Y-75055525D01*
X100142495Y-75051985D01*
X100130062Y-75050656D01*
X100097302Y-75047146D01*
X100069151Y-75044018D01*
X100044083Y-75041055D01*
X100020570Y-75038039D01*
X99997085Y-75034750D01*
X99972103Y-75030972D01*
X99944096Y-75026486D01*
X99911537Y-75021074D01*
X99872899Y-75014518D01*
X99851687Y-75010890D01*
X99822674Y-75006025D01*
X99795676Y-75001693D01*
X99772064Y-74998098D01*
X99753210Y-74995445D01*
X99740484Y-74993939D01*
X99736310Y-74993671D01*
X99726503Y-74993185D01*
X99721604Y-74991992D01*
X99721477Y-74991739D01*
X99723267Y-74987566D01*
X99728302Y-74976847D01*
X99736077Y-74960630D01*
X99746087Y-74939962D01*
X99757829Y-74915890D01*
X99767869Y-74895415D01*
X99814874Y-74795196D01*
X99855186Y-74699227D01*
X99888991Y-74606817D01*
X99916474Y-74517277D01*
X99937819Y-74429915D01*
X99953213Y-74344043D01*
X99962840Y-74258969D01*
X99966886Y-74174004D01*
X99967048Y-74153188D01*
X99963567Y-74066346D01*
X99953366Y-73978220D01*
X99936823Y-73890825D01*
X99914314Y-73806175D01*
X99887999Y-73730770D01*
X99873347Y-73693623D01*
X99885901Y-73677844D01*
X99900062Y-73661586D01*
X99919996Y-73640923D01*
X99944793Y-73616649D01*
X99973545Y-73589558D01*
X100005340Y-73560447D01*
X100039270Y-73530110D01*
X100074424Y-73499342D01*
X100109892Y-73468937D01*
X100144766Y-73439691D01*
X100178135Y-73412399D01*
X100209090Y-73387855D01*
X100236720Y-73366854D01*
X100260117Y-73350192D01*
X100263434Y-73347964D01*
X100302414Y-73322499D01*
X100339568Y-73299286D01*
X100376002Y-73277770D01*
X100412824Y-73257397D01*
X100451141Y-73237612D01*
X100492062Y-73217861D01*
X100536693Y-73197589D01*
X100586142Y-73176241D01*
X100641517Y-73153264D01*
X100697423Y-73130699D01*
X100750733Y-73109595D01*
X100797592Y-73091520D01*
X100839281Y-73076045D01*
X100877081Y-73062744D01*
X100912272Y-73051190D01*
X100946135Y-73040954D01*
X100979950Y-73031611D01*
X101014997Y-73022733D01*
X101036146Y-73017686D01*
X101054211Y-73013590D01*
X101069640Y-73010559D01*
X101084260Y-73008439D01*
X101099899Y-73007072D01*
X101118385Y-73006303D01*
X101141545Y-73005975D01*
X101171207Y-73005933D01*
X101173752Y-73005937D01*
G37*
G36*
X95950970Y-69406312D02*
G01*
X95967428Y-69407744D01*
X95989283Y-69409606D01*
X96013491Y-69411639D01*
X96033629Y-69413309D01*
X96125699Y-69424088D01*
X96212281Y-69440789D01*
X96293211Y-69463358D01*
X96368327Y-69491743D01*
X96437465Y-69525890D01*
X96499311Y-69564928D01*
X96553389Y-69606992D01*
X96608054Y-69656624D01*
X96662613Y-69713022D01*
X96716372Y-69775383D01*
X96768637Y-69842906D01*
X96818713Y-69914788D01*
X96862952Y-69985249D01*
X96877654Y-70011301D01*
X96894513Y-70043498D01*
X96912687Y-70080066D01*
X96931334Y-70119230D01*
X96949610Y-70159217D01*
X96966674Y-70198253D01*
X96981683Y-70234563D01*
X96983382Y-70238845D01*
X96998835Y-70279460D01*
X97015830Y-70326690D01*
X97033854Y-70378935D01*
X97052398Y-70434595D01*
X97070950Y-70492068D01*
X97088999Y-70549755D01*
X97106034Y-70606054D01*
X97121544Y-70659366D01*
X97135017Y-70708090D01*
X97142926Y-70738461D01*
X97154424Y-70785594D01*
X97165831Y-70835217D01*
X97176890Y-70886006D01*
X97187342Y-70936638D01*
X97196930Y-70985789D01*
X97205396Y-71032135D01*
X97212483Y-71074354D01*
X97217933Y-71111121D01*
X97221487Y-71141113D01*
X97221648Y-71142812D01*
X97225915Y-71166786D01*
X97234606Y-71188142D01*
X97248774Y-71208699D01*
X97269467Y-71230274D01*
X97275252Y-71235564D01*
X97302523Y-71256122D01*
X97331548Y-71269744D01*
X97364499Y-71277331D01*
X97379900Y-71278925D01*
X97394140Y-71279776D01*
X97405330Y-71279560D01*
X97415828Y-71277762D01*
X97427993Y-71273865D01*
X97444183Y-71267353D01*
X97456266Y-71262209D01*
X97534782Y-71231148D01*
X97619437Y-71202384D01*
X97708273Y-71176385D01*
X97799330Y-71153622D01*
X97890649Y-71134565D01*
X97980271Y-71119684D01*
X98066237Y-71109448D01*
X98106158Y-71106289D01*
X98151883Y-71104248D01*
X98204981Y-71103498D01*
X98264460Y-71104003D01*
X98329327Y-71105728D01*
X98398592Y-71108636D01*
X98471262Y-71112692D01*
X98546347Y-71117859D01*
X98622856Y-71124101D01*
X98640154Y-71125650D01*
X98678145Y-71128891D01*
X98720424Y-71132135D01*
X98764115Y-71135186D01*
X98806340Y-71137846D01*
X98844222Y-71139919D01*
X98858094Y-71140565D01*
X98917574Y-71143182D01*
X98969551Y-71145543D01*
X99014984Y-71147705D01*
X99054832Y-71149721D01*
X99090054Y-71151647D01*
X99121609Y-71153539D01*
X99150457Y-71155451D01*
X99177556Y-71157437D01*
X99203866Y-71159555D01*
X99230345Y-71161857D01*
X99232445Y-71162046D01*
X99266205Y-71165120D01*
X99292654Y-71167652D01*
X99312916Y-71169830D01*
X99328118Y-71171840D01*
X99339385Y-71173869D01*
X99347842Y-71176103D01*
X99354614Y-71178731D01*
X99360827Y-71181939D01*
X99364290Y-71183944D01*
X99371704Y-71187146D01*
X99383790Y-71190559D01*
X99401304Y-71194334D01*
X99425003Y-71198617D01*
X99455642Y-71203558D01*
X99491846Y-71208993D01*
X99648801Y-71232679D01*
X99797856Y-71256644D01*
X99939581Y-71281010D01*
X100074544Y-71305897D01*
X100203312Y-71331430D01*
X100326454Y-71357728D01*
X100444537Y-71384915D01*
X100558131Y-71413112D01*
X100667803Y-71442442D01*
X100774120Y-71473025D01*
X100877652Y-71504985D01*
X100892189Y-71509651D01*
X101019202Y-71551387D01*
X101152093Y-71596521D01*
X101289262Y-71644481D01*
X101429109Y-71694691D01*
X101570033Y-71746576D01*
X101710435Y-71799562D01*
X101848714Y-71853074D01*
X101851198Y-71854048D01*
X101890697Y-71869522D01*
X101936123Y-71887287D01*
X101985507Y-71906574D01*
X102036880Y-71926616D01*
X102088273Y-71946645D01*
X102137717Y-71965891D01*
X102183242Y-71983589D01*
X102187805Y-71985360D01*
X102311496Y-72033635D01*
X102427702Y-72079526D01*
X102536977Y-72123309D01*
X102639873Y-72165258D01*
X102736947Y-72205647D01*
X102828753Y-72244750D01*
X102915844Y-72282842D01*
X102998776Y-72320196D01*
X103078102Y-72357088D01*
X103154377Y-72393791D01*
X103228156Y-72430580D01*
X103299993Y-72467728D01*
X103370441Y-72505510D01*
X103440057Y-72544201D01*
X103509393Y-72584075D01*
X103579005Y-72625405D01*
X103649446Y-72668466D01*
X103721272Y-72713533D01*
X103795036Y-72760879D01*
X103871293Y-72810779D01*
X103915292Y-72839941D01*
X103938182Y-72855205D01*
X103959506Y-72869506D01*
X103979968Y-72883338D01*
X104000268Y-72897194D01*
X104021109Y-72911567D01*
X104043191Y-72926950D01*
X104067217Y-72943836D01*
X104093887Y-72962719D01*
X104123904Y-72984091D01*
X104157969Y-73008446D01*
X104196783Y-73036276D01*
X104241049Y-73068076D01*
X104291466Y-73104337D01*
X104292122Y-73104808D01*
X104332622Y-73133836D01*
X104376520Y-73165101D01*
X104422235Y-73197491D01*
X104468187Y-73229892D01*
X104512795Y-73261191D01*
X104554480Y-73290275D01*
X104591660Y-73316032D01*
X104607558Y-73326965D01*
X104664423Y-73366185D01*
X104717027Y-73402927D01*
X104765074Y-73436968D01*
X104808269Y-73468087D01*
X104846317Y-73496063D01*
X104878922Y-73520675D01*
X104905790Y-73541700D01*
X104926625Y-73558917D01*
X104941132Y-73572105D01*
X104949017Y-73581042D01*
X104950450Y-73584371D01*
X104947585Y-73590513D01*
X104939337Y-73601653D01*
X104926470Y-73616960D01*
X104909744Y-73635603D01*
X104889922Y-73656752D01*
X104867765Y-73679577D01*
X104844034Y-73703247D01*
X104820922Y-73725576D01*
X104794904Y-73750345D01*
X104766294Y-73777654D01*
X104737174Y-73805513D01*
X104709623Y-73831931D01*
X104685722Y-73854917D01*
X104681542Y-73858948D01*
X104666474Y-73873278D01*
X104645888Y-73892545D01*
X104620571Y-73916034D01*
X104591308Y-73943029D01*
X104558885Y-73972814D01*
X104524089Y-74004673D01*
X104487706Y-74037890D01*
X104450522Y-74071750D01*
X104413324Y-74105536D01*
X104376897Y-74138532D01*
X104342029Y-74170024D01*
X104309504Y-74199293D01*
X104280110Y-74225626D01*
X104254632Y-74248306D01*
X104233857Y-74266617D01*
X104233155Y-74267230D01*
X104211722Y-74285587D01*
X104184348Y-74308425D01*
X104151835Y-74335107D01*
X104114988Y-74364995D01*
X104074611Y-74397452D01*
X104031509Y-74431842D01*
X103986486Y-74467527D01*
X103940346Y-74503871D01*
X103893893Y-74540236D01*
X103847932Y-74575984D01*
X103803267Y-74610480D01*
X103760701Y-74643085D01*
X103721039Y-74673164D01*
X103714737Y-74677910D01*
X103686203Y-74699131D01*
X103652642Y-74723689D01*
X103615467Y-74750581D01*
X103576089Y-74778807D01*
X103535917Y-74807364D01*
X103496364Y-74835252D01*
X103458840Y-74861468D01*
X103424756Y-74885012D01*
X103395523Y-74904881D01*
X103386038Y-74911221D01*
X103340309Y-74940932D01*
X103287389Y-74974099D01*
X103227707Y-75010476D01*
X103161686Y-75049819D01*
X103089755Y-75091883D01*
X103012339Y-75136421D01*
X102929864Y-75183189D01*
X102842757Y-75231941D01*
X102751444Y-75282432D01*
X102656351Y-75334417D01*
X102560400Y-75386308D01*
X102460101Y-75440242D01*
X102367049Y-75490221D01*
X102281055Y-75536347D01*
X102201933Y-75578718D01*
X102129493Y-75617434D01*
X102063548Y-75652595D01*
X102003910Y-75684300D01*
X101950391Y-75712650D01*
X101902804Y-75737743D01*
X101860959Y-75759680D01*
X101824669Y-75778561D01*
X101793747Y-75794485D01*
X101768003Y-75807552D01*
X101747251Y-75817861D01*
X101744210Y-75819344D01*
X101712580Y-75834256D01*
X101674406Y-75851454D01*
X101630455Y-75870640D01*
X101581493Y-75891514D01*
X101528286Y-75913777D01*
X101471600Y-75937129D01*
X101412200Y-75961270D01*
X101350853Y-75985901D01*
X101288324Y-76010722D01*
X101225380Y-76035434D01*
X101162786Y-76059737D01*
X101101309Y-76083332D01*
X101041714Y-76105920D01*
X100984768Y-76127200D01*
X100931235Y-76146873D01*
X100881883Y-76164640D01*
X100837478Y-76180201D01*
X100798784Y-76193256D01*
X100766568Y-76203506D01*
X100747958Y-76208942D01*
X100717881Y-76217073D01*
X100682127Y-76226438D01*
X100642284Y-76236647D01*
X100599943Y-76247308D01*
X100556693Y-76258028D01*
X100514124Y-76268416D01*
X100473824Y-76278080D01*
X100437385Y-76286628D01*
X100406394Y-76293668D01*
X100388361Y-76297581D01*
X100324641Y-76310545D01*
X100264061Y-76321853D01*
X100204529Y-76331826D01*
X100143950Y-76340781D01*
X100080231Y-76349037D01*
X100011277Y-76356913D01*
X99970817Y-76361152D01*
X99893250Y-76368897D01*
X99820934Y-76375751D01*
X99752051Y-76381849D01*
X99684786Y-76387330D01*
X99617323Y-76392332D01*
X99547844Y-76396992D01*
X99474534Y-76401448D01*
X99395577Y-76405837D01*
X99348881Y-76408283D01*
X99332658Y-76408920D01*
X99309269Y-76409556D01*
X99279549Y-76410185D01*
X99244333Y-76410799D01*
X99204455Y-76411394D01*
X99160751Y-76411963D01*
X99114055Y-76412499D01*
X99065202Y-76412996D01*
X99015027Y-76413448D01*
X98964364Y-76413849D01*
X98914049Y-76414192D01*
X98864916Y-76414471D01*
X98817800Y-76414680D01*
X98773536Y-76414812D01*
X98732958Y-76414862D01*
X98696903Y-76414823D01*
X98666203Y-76414688D01*
X98641694Y-76414452D01*
X98624212Y-76414109D01*
X98616393Y-76413788D01*
X98605420Y-76413172D01*
X98587549Y-76412252D01*
X98564341Y-76411103D01*
X98537356Y-76409802D01*
X98508156Y-76408426D01*
X98493605Y-76407752D01*
X98443129Y-76405108D01*
X98386451Y-76401576D01*
X98324766Y-76397264D01*
X98259270Y-76392281D01*
X98191158Y-76386739D01*
X98121627Y-76380744D01*
X98051872Y-76374408D01*
X97983087Y-76367839D01*
X97916470Y-76361146D01*
X97853215Y-76354439D01*
X97794519Y-76347828D01*
X97741576Y-76341421D01*
X97695583Y-76335327D01*
X97684904Y-76333807D01*
X97651755Y-76328792D01*
X97611409Y-76322330D01*
X97564975Y-76314622D01*
X97513564Y-76305867D01*
X97458285Y-76296267D01*
X97400247Y-76286021D01*
X97340560Y-76275328D01*
X97280334Y-76264391D01*
X97220678Y-76253408D01*
X97162702Y-76242579D01*
X97107515Y-76232106D01*
X97056226Y-76222187D01*
X97009947Y-76213024D01*
X96969785Y-76204816D01*
X96969351Y-76204726D01*
X96890422Y-76187456D01*
X96811294Y-76168620D01*
X96733398Y-76148615D01*
X96658165Y-76127836D01*
X96587028Y-76106679D01*
X96521417Y-76085539D01*
X96462764Y-76064813D01*
X96461267Y-76064254D01*
X96391801Y-76037935D01*
X96328725Y-76013246D01*
X96270303Y-75989435D01*
X96214799Y-75965747D01*
X96160477Y-75941432D01*
X96105602Y-75915735D01*
X96048437Y-75887905D01*
X96008029Y-75867709D01*
X95914090Y-75819006D01*
X95827320Y-75771171D01*
X95746567Y-75723501D01*
X95670679Y-75675295D01*
X95598504Y-75625853D01*
X95538645Y-75581899D01*
X95516682Y-75565263D01*
X95496141Y-75549710D01*
X95478308Y-75536212D01*
X95464463Y-75525740D01*
X95455891Y-75519264D01*
X95455132Y-75518692D01*
X95446371Y-75511588D01*
X95441394Y-75506577D01*
X95440972Y-75505715D01*
X95439041Y-75501316D01*
X95433811Y-75490873D01*
X95426007Y-75475795D01*
X95416351Y-75457490D01*
X95412717Y-75450673D01*
X95393319Y-75413315D01*
X95372208Y-75370793D01*
X95350382Y-75325255D01*
X95340428Y-75303811D01*
X99302307Y-75303811D01*
X99306007Y-75325223D01*
X99316000Y-75346670D01*
X99330622Y-75365716D01*
X99348209Y-75379929D01*
X99357349Y-75384370D01*
X99369797Y-75386677D01*
X99386509Y-75386909D01*
X99403584Y-75385246D01*
X99417124Y-75381869D01*
X99417821Y-75381580D01*
X99426551Y-75375868D01*
X99439796Y-75364658D01*
X99456586Y-75348909D01*
X99475957Y-75329577D01*
X99496939Y-75307621D01*
X99518567Y-75283997D01*
X99533760Y-75266766D01*
X99545421Y-75252860D01*
X99559066Y-75235868D01*
X99573665Y-75217161D01*
X99588187Y-75198107D01*
X99601600Y-75180078D01*
X99612874Y-75164442D01*
X99620978Y-75152570D01*
X99624880Y-75145830D01*
X99624971Y-75145582D01*
X99627838Y-75142969D01*
X99634887Y-75143321D01*
X99647844Y-75146761D01*
X99649773Y-75147355D01*
X99661268Y-75150268D01*
X99679364Y-75154063D01*
X99702282Y-75158403D01*
X99728245Y-75162951D01*
X99755349Y-75167351D01*
X99785920Y-75172190D01*
X99818397Y-75177467D01*
X99850039Y-75182727D01*
X99878099Y-75187517D01*
X99895072Y-75190513D01*
X99933490Y-75196984D01*
X99977790Y-75203675D01*
X100025403Y-75210234D01*
X100073763Y-75216310D01*
X100120301Y-75221553D01*
X100127945Y-75222347D01*
X100145050Y-75224183D01*
X100168715Y-75226846D01*
X100197097Y-75230122D01*
X100228352Y-75233797D01*
X100260637Y-75237657D01*
X100278253Y-75239792D01*
X100312958Y-75243934D01*
X100341272Y-75247038D01*
X100365196Y-75249214D01*
X100386728Y-75250575D01*
X100407868Y-75251233D01*
X100430616Y-75251299D01*
X100456971Y-75250886D01*
X100470902Y-75250564D01*
X100500690Y-75249687D01*
X100527040Y-75248492D01*
X100551469Y-75246788D01*
X100575495Y-75244381D01*
X100600635Y-75241078D01*
X100628408Y-75236687D01*
X100660332Y-75231014D01*
X100697923Y-75223866D01*
X100729178Y-75217733D01*
X100791154Y-75204937D01*
X100845705Y-75192442D01*
X100893846Y-75179895D01*
X100936595Y-75166944D01*
X100974970Y-75153237D01*
X101009987Y-75138423D01*
X101042664Y-75122149D01*
X101074017Y-75104063D01*
X101093305Y-75091740D01*
X101136207Y-75059843D01*
X101173983Y-75024568D01*
X101205811Y-74986895D01*
X101230867Y-74947801D01*
X101248326Y-74908268D01*
X101248795Y-74906873D01*
X101253544Y-74891604D01*
X101256757Y-74878039D01*
X101258728Y-74863811D01*
X101259754Y-74846553D01*
X101260129Y-74823896D01*
X101260159Y-74815841D01*
X101260074Y-74791993D01*
X101259482Y-74774195D01*
X101258042Y-74760029D01*
X101255413Y-74747077D01*
X101251255Y-74732924D01*
X101246478Y-74718760D01*
X101225886Y-74670603D01*
X101198340Y-74624014D01*
X101165307Y-74581471D01*
X101164756Y-74580852D01*
X101152596Y-74567060D01*
X101145525Y-74558287D01*
X101142909Y-74553316D01*
X101144112Y-74550927D01*
X101148499Y-74549901D01*
X101148614Y-74549886D01*
X101195578Y-74540980D01*
X101247371Y-74525697D01*
X101304230Y-74503965D01*
X101322308Y-74496178D01*
X101386674Y-74466427D01*
X101443366Y-74437209D01*
X101493112Y-74407991D01*
X101536642Y-74378242D01*
X101574681Y-74347432D01*
X101607959Y-74315030D01*
X101637203Y-74280503D01*
X101658072Y-74251165D01*
X101685270Y-74202375D01*
X101704571Y-74150734D01*
X101715888Y-74096665D01*
X101719135Y-74040590D01*
X101714224Y-73982930D01*
X101713807Y-73980292D01*
X101701124Y-73927239D01*
X101680847Y-73876235D01*
X101653694Y-73828315D01*
X101620385Y-73784517D01*
X101581638Y-73745876D01*
X101538172Y-73713428D01*
X101521920Y-73703694D01*
X101506886Y-73696046D01*
X101488034Y-73687621D01*
X101467334Y-73679167D01*
X101446761Y-73671431D01*
X101428286Y-73665159D01*
X101413882Y-73661101D01*
X101406452Y-73659948D01*
X101399532Y-73658309D01*
X101399755Y-73653288D01*
X101407231Y-73644732D01*
X101422068Y-73632489D01*
X101430272Y-73626390D01*
X101457926Y-73604697D01*
X101487545Y-73578754D01*
X101517041Y-73550585D01*
X101544325Y-73522214D01*
X101567309Y-73495665D01*
X101574051Y-73487045D01*
X101604179Y-73441830D01*
X101628958Y-73393540D01*
X101647685Y-73343909D01*
X101659656Y-73294672D01*
X101663227Y-73266973D01*
X101663340Y-73223022D01*
X101657049Y-73176036D01*
X101644880Y-73127852D01*
X101627355Y-73080309D01*
X101604998Y-73035243D01*
X101590562Y-73011775D01*
X101573298Y-72988650D01*
X101551694Y-72963962D01*
X101527974Y-72939972D01*
X101504361Y-72918942D01*
X101484919Y-72904335D01*
X101459300Y-72889081D01*
X101429858Y-72874319D01*
X101400209Y-72861739D01*
X101376986Y-72853865D01*
X101347122Y-72847101D01*
X101310133Y-72841649D01*
X101267280Y-72837627D01*
X101219821Y-72835154D01*
X101170360Y-72834348D01*
X101139995Y-72834473D01*
X101115948Y-72834942D01*
X101096074Y-72835939D01*
X101078224Y-72837651D01*
X101060251Y-72840262D01*
X101040007Y-72843957D01*
X101025561Y-72846836D01*
X100987569Y-72855031D01*
X100949776Y-72864249D01*
X100911199Y-72874814D01*
X100870856Y-72887050D01*
X100827765Y-72901282D01*
X100780943Y-72917835D01*
X100729407Y-72937033D01*
X100672176Y-72959199D01*
X100608508Y-72984563D01*
X100549264Y-73008705D01*
X100496833Y-73030756D01*
X100450005Y-73051325D01*
X100407568Y-73071026D01*
X100368313Y-73090468D01*
X100331027Y-73110265D01*
X100294499Y-73131027D01*
X100257519Y-73153367D01*
X100218876Y-73177895D01*
X100195689Y-73193059D01*
X100149269Y-73225300D01*
X100098334Y-73263674D01*
X100043560Y-73307625D01*
X99985625Y-73356593D01*
X99925205Y-73410024D01*
X99864755Y-73465686D01*
X99847037Y-73482102D01*
X99831310Y-73496274D01*
X99818656Y-73507259D01*
X99810156Y-73514114D01*
X99807048Y-73515991D01*
X99803680Y-73512367D01*
X99797988Y-73502628D01*
X99790910Y-73488473D01*
X99786557Y-73478943D01*
X99768601Y-73439335D01*
X99751309Y-73403084D01*
X99735119Y-73371012D01*
X99720467Y-73343943D01*
X99707790Y-73322699D01*
X99697526Y-73308103D01*
X99693359Y-73303483D01*
X99671214Y-73287208D01*
X99647965Y-73279163D01*
X99624399Y-73279326D01*
X99601304Y-73287672D01*
X99579466Y-73304178D01*
X99576713Y-73306972D01*
X99565453Y-73319728D01*
X99557577Y-73331687D01*
X99553186Y-73343995D01*
X99552380Y-73357797D01*
X99555260Y-73374238D01*
X99561925Y-73394463D01*
X99572475Y-73419617D01*
X99587010Y-73450845D01*
X99589799Y-73456661D01*
X99609906Y-73499428D01*
X99630551Y-73545074D01*
X99651235Y-73592378D01*
X99671463Y-73640116D01*
X99690738Y-73687067D01*
X99708562Y-73732008D01*
X99724438Y-73773718D01*
X99737869Y-73810973D01*
X99748358Y-73842551D01*
X99752880Y-73857719D01*
X99770331Y-73926218D01*
X99782852Y-73990922D01*
X99790824Y-74054633D01*
X99794626Y-74120150D01*
X99795015Y-74168033D01*
X99791585Y-74248113D01*
X99782712Y-74328131D01*
X99768191Y-74408818D01*
X99747819Y-74490907D01*
X99721394Y-74575130D01*
X99688711Y-74662219D01*
X99649567Y-74752906D01*
X99608967Y-74837563D01*
X99568408Y-74915423D01*
X99528186Y-74985956D01*
X99487580Y-75050235D01*
X99445870Y-75109335D01*
X99402335Y-75164330D01*
X99356255Y-75216295D01*
X99351594Y-75221244D01*
X99333129Y-75241104D01*
X99319895Y-75256492D01*
X99311045Y-75268826D01*
X99305731Y-75279527D01*
X99303105Y-75290017D01*
X99302319Y-75301716D01*
X99302307Y-75303811D01*
X95340428Y-75303811D01*
X95328841Y-75278847D01*
X95308584Y-75233716D01*
X95290609Y-75192010D01*
X95277895Y-75160915D01*
X95248427Y-75081267D01*
X95223327Y-75001964D01*
X95202225Y-74921389D01*
X95184749Y-74837923D01*
X95170529Y-74749947D01*
X95159193Y-74655844D01*
X95156992Y-74633554D01*
X95150578Y-74546917D01*
X95148535Y-74465517D01*
X95151007Y-74387256D01*
X95158138Y-74310031D01*
X95170074Y-74231744D01*
X95186956Y-74150294D01*
X95191478Y-74131210D01*
X95207591Y-74070152D01*
X95224933Y-74016055D01*
X95244213Y-73967430D01*
X95266141Y-73922787D01*
X95291426Y-73880636D01*
X95320778Y-73839486D01*
X95344310Y-73810257D01*
X95357328Y-73795409D01*
X95373895Y-73777482D01*
X95392854Y-73757633D01*
X95413045Y-73737017D01*
X95433312Y-73716790D01*
X95452494Y-73698106D01*
X95469434Y-73682123D01*
X95482974Y-73669995D01*
X95491956Y-73662879D01*
X95492179Y-73662731D01*
X95496050Y-73660601D01*
X95500579Y-73659521D01*
X95506931Y-73659727D01*
X95516273Y-73661453D01*
X95529771Y-73664938D01*
X95548589Y-73670416D01*
X95573894Y-73678124D01*
X95584883Y-73681511D01*
X95624274Y-73693441D01*
X95670504Y-73707051D01*
X95722429Y-73722029D01*
X95778903Y-73738064D01*
X95838783Y-73754844D01*
X95900925Y-73772058D01*
X95964184Y-73789393D01*
X96027417Y-73806537D01*
X96089479Y-73823180D01*
X96149227Y-73839009D01*
X96205516Y-73853712D01*
X96257201Y-73866979D01*
X96303140Y-73878496D01*
X96342187Y-73887953D01*
X96344831Y-73888576D01*
X96377216Y-73896319D01*
X96416326Y-73905873D01*
X96460699Y-73916869D01*
X96508878Y-73928937D01*
X96559404Y-73941708D01*
X96610817Y-73954812D01*
X96661659Y-73967879D01*
X96710471Y-73980540D01*
X96755793Y-73992424D01*
X96778820Y-73998527D01*
X96826048Y-74010974D01*
X96872035Y-74022855D01*
X96915990Y-74033979D01*
X96957121Y-74044159D01*
X96994638Y-74053207D01*
X97027751Y-74060933D01*
X97055668Y-74067150D01*
X97077599Y-74071668D01*
X97092753Y-74074300D01*
X97099273Y-74074922D01*
X97113316Y-74073391D01*
X97124677Y-74070398D01*
X97138126Y-74062647D01*
X97152822Y-74050161D01*
X97165984Y-74035655D01*
X97174835Y-74021846D01*
X97175195Y-74021036D01*
X97180650Y-73998294D01*
X97178660Y-73974956D01*
X97169962Y-73952611D01*
X97155291Y-73932849D01*
X97135386Y-73917258D01*
X97124618Y-73911902D01*
X97114540Y-73908430D01*
X97098597Y-73903776D01*
X97078626Y-73898390D01*
X97056466Y-73892726D01*
X97033953Y-73887235D01*
X97012924Y-73882369D01*
X96995216Y-73878580D01*
X96982667Y-73876320D01*
X96978222Y-73875884D01*
X96971128Y-73874103D01*
X96969351Y-73871447D01*
X96967811Y-73866269D01*
X96963532Y-73854608D01*
X96957030Y-73837800D01*
X96948823Y-73817181D01*
X96940331Y-73796293D01*
X96929549Y-73769756D01*
X96916785Y-73737912D01*
X96903073Y-73703371D01*
X96889447Y-73668738D01*
X96876941Y-73636620D01*
X96876139Y-73634544D01*
X96862212Y-73598554D01*
X96847575Y-73560841D01*
X96831827Y-73520380D01*
X96814569Y-73476145D01*
X96795400Y-73427112D01*
X96773920Y-73372254D01*
X96749729Y-73310547D01*
X96749705Y-73310485D01*
X96740028Y-73286558D01*
X96732079Y-73268969D01*
X96724927Y-73256019D01*
X96717642Y-73246007D01*
X96710039Y-73237943D01*
X96698529Y-73227562D01*
X96687990Y-73219220D01*
X96682774Y-73215869D01*
X96670739Y-73212561D01*
X96654051Y-73211311D01*
X96636252Y-73212057D01*
X96620887Y-73214732D01*
X96614540Y-73217113D01*
X96609559Y-73219781D01*
X96605006Y-73222618D01*
X96600462Y-73226231D01*
X96595514Y-73231229D01*
X96589743Y-73238218D01*
X96582733Y-73247807D01*
X96574068Y-73260604D01*
X96563331Y-73277216D01*
X96550106Y-73298251D01*
X96533976Y-73324317D01*
X96514525Y-73356021D01*
X96491337Y-73393972D01*
X96475010Y-73420725D01*
X96459170Y-73446442D01*
X96440029Y-73477136D01*
X96418917Y-73510694D01*
X96397167Y-73545005D01*
X96376109Y-73577957D01*
X96364686Y-73595695D01*
X96347968Y-73621645D01*
X96332773Y-73645387D01*
X96319706Y-73665958D01*
X96309375Y-73682400D01*
X96302385Y-73693751D01*
X96299345Y-73699053D01*
X96299284Y-73699207D01*
X96295712Y-73701793D01*
X96287080Y-73699762D01*
X96285275Y-73699072D01*
X96277506Y-73696576D01*
X96262957Y-73692417D01*
X96243064Y-73686985D01*
X96219262Y-73680672D01*
X96192987Y-73673867D01*
X96186054Y-73672098D01*
X96160254Y-73665504D01*
X96137374Y-73659600D01*
X96118635Y-73654706D01*
X96105258Y-73651141D01*
X96098463Y-73649226D01*
X96097871Y-73649009D01*
X96097884Y-73644366D01*
X96099676Y-73632446D01*
X96103037Y-73614203D01*
X96107755Y-73590591D01*
X96113619Y-73562564D01*
X96120419Y-73531077D01*
X96127944Y-73497083D01*
X96135981Y-73461536D01*
X96144322Y-73425390D01*
X96152753Y-73389599D01*
X96161066Y-73355118D01*
X96169047Y-73322900D01*
X96175984Y-73295821D01*
X96222323Y-73128597D01*
X96273059Y-72965150D01*
X96328711Y-72804105D01*
X96339809Y-72775034D01*
X97344156Y-72775034D01*
X97344903Y-72812048D01*
X97347634Y-72843948D01*
X97352882Y-72873962D01*
X97361184Y-72905319D01*
X97370476Y-72933811D01*
X97387770Y-72977808D01*
X97408274Y-73017920D01*
X97433158Y-73055948D01*
X97463595Y-73093694D01*
X97498524Y-73130739D01*
X97552752Y-73179142D01*
X97611174Y-73220192D01*
X97673737Y-73253864D01*
X97740391Y-73280132D01*
X97811086Y-73298972D01*
X97853878Y-73306479D01*
X97881300Y-73309215D01*
X97914524Y-73310645D01*
X97950995Y-73310819D01*
X97988155Y-73309790D01*
X98023448Y-73307609D01*
X98054319Y-73304327D01*
X98067896Y-73302180D01*
X98129487Y-73287339D01*
X98191426Y-73265714D01*
X98251128Y-73238363D01*
X98306011Y-73206344D01*
X98312310Y-73202130D01*
X98353098Y-73171100D01*
X98392886Y-73134589D01*
X98430136Y-73094340D01*
X98463310Y-73052096D01*
X98490869Y-73009602D01*
X98504115Y-72984619D01*
X98527659Y-72926275D01*
X98543261Y-72866166D01*
X98550994Y-72805082D01*
X98550932Y-72743815D01*
X98543145Y-72683156D01*
X98527708Y-72623896D01*
X98504693Y-72566828D01*
X98474173Y-72512742D01*
X98458729Y-72490556D01*
X98412366Y-72434838D01*
X98360528Y-72385459D01*
X98303632Y-72342676D01*
X98242093Y-72306744D01*
X98176329Y-72277921D01*
X98106755Y-72256464D01*
X98063851Y-72247319D01*
X98029228Y-72242728D01*
X97989180Y-72240055D01*
X97946347Y-72239278D01*
X97903365Y-72240377D01*
X97862874Y-72243331D01*
X97827512Y-72248119D01*
X97821546Y-72249243D01*
X97775188Y-72260313D01*
X97728158Y-72274905D01*
X97683812Y-72291892D01*
X97655398Y-72304990D01*
X97601289Y-72336048D01*
X97549895Y-72373087D01*
X97502365Y-72414991D01*
X97459847Y-72460642D01*
X97423489Y-72508924D01*
X97394440Y-72558719D01*
X97394413Y-72558774D01*
X97373118Y-72606684D01*
X97358104Y-72653234D01*
X97348780Y-72700970D01*
X97344553Y-72752439D01*
X97344156Y-72775034D01*
X96339809Y-72775034D01*
X96389797Y-72644085D01*
X96456838Y-72483714D01*
X96530352Y-72321616D01*
X96590540Y-72197088D01*
X96636987Y-72105906D01*
X96682409Y-72022071D01*
X96727452Y-71944628D01*
X96772759Y-71872622D01*
X96818975Y-71805097D01*
X96866745Y-71741099D01*
X96916714Y-71679673D01*
X96969525Y-71619862D01*
X97006858Y-71580178D01*
X97050716Y-71534656D01*
X97055138Y-71499628D01*
X97056778Y-71481291D01*
X97058077Y-71456019D01*
X97059036Y-71425336D01*
X97059657Y-71390768D01*
X97059941Y-71353841D01*
X97059891Y-71316079D01*
X97059510Y-71279008D01*
X97058798Y-71244153D01*
X97057757Y-71213040D01*
X97056391Y-71187194D01*
X97054709Y-71168216D01*
X97047602Y-71117145D01*
X97038054Y-71059741D01*
X97026416Y-70997668D01*
X97013042Y-70932586D01*
X96998285Y-70866158D01*
X96982496Y-70800046D01*
X96966029Y-70735912D01*
X96952748Y-70687653D01*
X96925448Y-70593962D01*
X96898972Y-70507961D01*
X96873030Y-70428944D01*
X96847331Y-70356208D01*
X96821584Y-70289048D01*
X96795498Y-70226759D01*
X96768782Y-70168636D01*
X96741145Y-70113975D01*
X96712295Y-70062072D01*
X96681942Y-70012221D01*
X96659834Y-69978451D01*
X96607594Y-69905335D01*
X96554957Y-69840591D01*
X96501834Y-69784129D01*
X96448137Y-69735861D01*
X96393777Y-69695695D01*
X96362271Y-69676284D01*
X96303267Y-69646962D01*
X96238522Y-69622911D01*
X96168963Y-69604180D01*
X96095515Y-69590819D01*
X96019104Y-69582876D01*
X95940657Y-69580400D01*
X95861099Y-69583442D01*
X95781356Y-69592050D01*
X95702354Y-69606273D01*
X95625020Y-69626161D01*
X95595332Y-69635523D01*
X95553530Y-69650631D01*
X95509078Y-69668829D01*
X95464051Y-69689128D01*
X95420522Y-69710543D01*
X95380567Y-69732086D01*
X95346259Y-69752770D01*
X95339246Y-69757395D01*
X95290648Y-69793065D01*
X95239927Y-69835867D01*
X95187830Y-69884968D01*
X95135102Y-69939534D01*
X95082490Y-69998729D01*
X95030738Y-70061720D01*
X94980592Y-70127671D01*
X94932799Y-70195749D01*
X94893884Y-70255781D01*
X94875959Y-70284758D01*
X94859126Y-70312364D01*
X94843926Y-70337675D01*
X94830904Y-70359767D01*
X94820601Y-70377716D01*
X94813562Y-70390597D01*
X94810330Y-70397487D01*
X94810181Y-70398214D01*
X94813863Y-70401383D01*
X94823677Y-70407118D01*
X94838023Y-70414537D01*
X94851295Y-70420909D01*
X94914729Y-70454695D01*
X94976500Y-70495921D01*
X95035378Y-70543569D01*
X95090132Y-70596620D01*
X95139530Y-70654056D01*
X95150279Y-70668148D01*
X95194856Y-70733539D01*
X95231759Y-70800056D01*
X95261544Y-70869009D01*
X95284765Y-70941706D01*
X95301977Y-71019455D01*
X95303904Y-71030610D01*
X95307602Y-71060162D01*
X95310082Y-71095748D01*
X95311345Y-71135021D01*
X95311392Y-71175635D01*
X95310223Y-71215243D01*
X95307839Y-71251500D01*
X95304241Y-71282060D01*
X95303824Y-71284653D01*
X95286508Y-71366760D01*
X95262434Y-71443948D01*
X95231355Y-71516711D01*
X95193024Y-71585545D01*
X95147194Y-71650946D01*
X95093616Y-71713408D01*
X95085578Y-71721848D01*
X95031517Y-71774188D01*
X94977176Y-71818998D01*
X94921202Y-71857147D01*
X94862243Y-71889507D01*
X94798947Y-71916945D01*
X94761360Y-71930400D01*
X94720031Y-71943343D01*
X94682209Y-71953099D01*
X94645505Y-71960035D01*
X94607529Y-71964520D01*
X94565892Y-71966923D01*
X94519960Y-71967612D01*
X94472519Y-71966871D01*
X94431046Y-71964403D01*
X94393153Y-71959840D01*
X94356451Y-71952814D01*
X94318549Y-71942956D01*
X94278560Y-71930400D01*
X94212266Y-71905322D01*
X94151062Y-71875808D01*
X94093594Y-71840987D01*
X94038512Y-71799989D01*
X93984462Y-71751945D01*
X93954342Y-71721848D01*
X93899699Y-71659788D01*
X93852833Y-71594868D01*
X93813493Y-71526584D01*
X93781430Y-71454436D01*
X93756391Y-71377922D01*
X93738128Y-71296540D01*
X93736085Y-71284653D01*
X93732525Y-71256142D01*
X93730071Y-71221742D01*
X93728723Y-71183675D01*
X93728483Y-71144167D01*
X93729350Y-71105442D01*
X93731325Y-71069725D01*
X93734408Y-71039240D01*
X93736040Y-71028493D01*
X93753905Y-70947298D01*
X93778764Y-70869566D01*
X93810330Y-70795972D01*
X93848320Y-70727192D01*
X93887193Y-70670717D01*
X93942371Y-70604667D01*
X94001833Y-70545780D01*
X94065410Y-70494161D01*
X94132932Y-70449917D01*
X94204228Y-70413152D01*
X94279127Y-70383974D01*
X94357460Y-70362487D01*
X94395056Y-70355136D01*
X94419330Y-70352001D01*
X94449794Y-70349634D01*
X94484201Y-70348089D01*
X94520303Y-70347420D01*
X94555852Y-70347682D01*
X94588601Y-70348929D01*
X94604641Y-70350058D01*
X94642747Y-70353304D01*
X94648257Y-70340843D01*
X94652905Y-70331791D01*
X94661345Y-70316788D01*
X94672845Y-70297040D01*
X94686673Y-70273754D01*
X94702098Y-70248137D01*
X94718387Y-70221397D01*
X94734808Y-70194740D01*
X94750631Y-70169373D01*
X94765122Y-70146504D01*
X94777551Y-70127338D01*
X94779412Y-70124526D01*
X94798982Y-70095923D01*
X94822626Y-70062742D01*
X94848938Y-70026860D01*
X94876514Y-69990155D01*
X94903946Y-69954506D01*
X94929831Y-69921789D01*
X94945778Y-69902239D01*
X94964321Y-69880816D01*
X94987550Y-69855468D01*
X95014223Y-69827430D01*
X95043098Y-69797932D01*
X95072932Y-69768209D01*
X95102483Y-69739494D01*
X95130509Y-69713018D01*
X95155769Y-69690016D01*
X95177019Y-69671720D01*
X95182587Y-69667205D01*
X95256900Y-69613251D01*
X95336954Y-69564741D01*
X95421633Y-69522150D01*
X95509823Y-69485951D01*
X95600407Y-69456619D01*
X95692270Y-69434629D01*
X95754182Y-69424209D01*
X95806180Y-69417250D01*
X95850267Y-69411960D01*
X95886829Y-69408302D01*
X95916249Y-69406243D01*
X95938914Y-69405747D01*
X95950970Y-69406312D01*
G37*
%TD*%
D11*
%TO.C,TMC3*%
X129032000Y-85090000D03*
D12*
X126492000Y-85090000D03*
X123952000Y-85090000D03*
X121412000Y-85090000D03*
X118872000Y-85090000D03*
X116332000Y-85090000D03*
X113792000Y-85090000D03*
X111252000Y-85090000D03*
X111252000Y-92710000D03*
X111252000Y-95250000D03*
X111252000Y-97790000D03*
X113792000Y-97790000D03*
X116332000Y-97790000D03*
X118872000Y-97790000D03*
X121412000Y-97790000D03*
X123952000Y-97790000D03*
X126492000Y-97790000D03*
X129032000Y-97790000D03*
%TD*%
D13*
%TO.C,R7*%
X154432000Y-101616000D03*
X154432000Y-103616000D03*
%TD*%
D14*
%TO.C,C3*%
X131749800Y-105185300D03*
X131749800Y-107260300D03*
%TD*%
D15*
%TO.C,H1*%
X87311222Y-70274168D03*
%TD*%
D16*
%TO.C,C9*%
X160074700Y-116763800D03*
X162149700Y-116763800D03*
%TD*%
D17*
%TO.C,C5*%
X135781750Y-112238700D03*
X135781750Y-110163700D03*
%TD*%
D18*
%TO.C,R4*%
X164703000Y-71247000D03*
X162703000Y-71247000D03*
%TD*%
D19*
%TO.C,J16*%
X125242000Y-79610400D03*
D20*
X127742000Y-79610400D03*
%TD*%
D21*
%TO.C,J13*%
X134039600Y-79610400D03*
D22*
X136539600Y-79610400D03*
X139039600Y-79610400D03*
X141539600Y-79610400D03*
%TD*%
D23*
%TO.C,U1*%
X112912000Y-101514000D03*
X112912000Y-102164000D03*
X112912000Y-102814000D03*
X112912000Y-103464000D03*
X117212000Y-103464000D03*
X117212000Y-102814000D03*
X117212000Y-102164000D03*
X117212000Y-101514000D03*
%TD*%
D15*
%TO.C,H3*%
X87311222Y-120058168D03*
%TD*%
D24*
%TO.C,R15*%
X131669150Y-112173100D03*
X131669150Y-110173100D03*
%TD*%
D11*
%TO.C,TMC1*%
X172212000Y-85080000D03*
D12*
X169672000Y-85080000D03*
X167132000Y-85080000D03*
X164592000Y-85080000D03*
X162052000Y-85080000D03*
X159512000Y-85080000D03*
X156972000Y-85080000D03*
X154432000Y-85080000D03*
X154432000Y-92700000D03*
X154432000Y-95240000D03*
X154432000Y-97780000D03*
X156972000Y-97780000D03*
X159512000Y-97780000D03*
X162052000Y-97780000D03*
X164592000Y-97780000D03*
X167132000Y-97780000D03*
X169672000Y-97780000D03*
X172212000Y-97780000D03*
%TD*%
D25*
%TO.C,C4*%
X137922000Y-88740000D03*
X137922000Y-94140000D03*
%TD*%
D26*
%TO.C,SW3*%
X171450000Y-107490000D03*
X171450000Y-113490000D03*
%TD*%
D27*
%TO.C,J7*%
X166928800Y-89931000D03*
D28*
X166928800Y-92471000D03*
X166928800Y-95011000D03*
%TD*%
D29*
%TO.C,J1*%
X95498400Y-114896400D03*
D30*
X101498400Y-111746400D03*
D29*
X95498400Y-101396400D03*
D31*
X101498400Y-104546400D03*
%TD*%
D32*
%TO.C,D4*%
X128162350Y-110198300D03*
X129912350Y-110198300D03*
%TD*%
D19*
%TO.C,J12*%
X146832000Y-79602000D03*
D20*
X149332000Y-79602000D03*
%TD*%
D11*
%TO.C,TMC2*%
X150622000Y-85080000D03*
D12*
X148082000Y-85080000D03*
X145542000Y-85080000D03*
X143002000Y-85080000D03*
X140462000Y-85080000D03*
X137922000Y-85080000D03*
X135382000Y-85080000D03*
X132842000Y-85080000D03*
X132842000Y-92700000D03*
X132842000Y-95240000D03*
X132842000Y-97780000D03*
X135382000Y-97780000D03*
X137922000Y-97780000D03*
X140462000Y-97780000D03*
X143002000Y-97780000D03*
X145542000Y-97780000D03*
X148082000Y-97780000D03*
X150622000Y-97780000D03*
%TD*%
D33*
%TO.C,SW5*%
X109474000Y-113538000D03*
X109474000Y-107538000D03*
%TD*%
D13*
%TO.C,R14*%
X129052950Y-112179700D03*
X129052950Y-114179700D03*
%TD*%
D27*
%TO.C,J6*%
X170180000Y-89931000D03*
D28*
X170180000Y-92471000D03*
X170180000Y-95011000D03*
%TD*%
D17*
%TO.C,C11*%
X169468800Y-103628100D03*
X169468800Y-101553100D03*
%TD*%
D34*
%TO.C,D5*%
X164351800Y-116764800D03*
X164351800Y-120064800D03*
X169251800Y-120064800D03*
X169251800Y-116764800D03*
%TD*%
D26*
%TO.C,SW1*%
X152400000Y-107490000D03*
X152400000Y-113490000D03*
%TD*%
D24*
%TO.C,R1*%
X152400000Y-103616000D03*
X152400000Y-101616000D03*
%TD*%
D35*
%TO.C,P1*%
X166166600Y-104686300D03*
X166666600Y-104686300D03*
X167166600Y-104686300D03*
X167666600Y-104686300D03*
X167666600Y-101586300D03*
X167166600Y-101586300D03*
X166666600Y-101586300D03*
X166166600Y-101586300D03*
%TD*%
D13*
%TO.C,R10*%
X133832600Y-100777800D03*
X133832600Y-102777800D03*
%TD*%
%TO.C,R18*%
X109474000Y-101743000D03*
X109474000Y-103743000D03*
%TD*%
D21*
%TO.C,J17*%
X112455000Y-79610400D03*
D22*
X114955000Y-79610400D03*
X117455000Y-79610400D03*
X119955000Y-79610400D03*
%TD*%
D17*
%TO.C,C10*%
X164566600Y-103678900D03*
X164566600Y-101603900D03*
%TD*%
D21*
%TO.C,J9*%
X155635000Y-79602000D03*
D22*
X158135000Y-79602000D03*
X160635000Y-79602000D03*
X163135000Y-79602000D03*
%TD*%
D27*
%TO.C,J10*%
X148640800Y-89931000D03*
D28*
X148640800Y-92471000D03*
X148640800Y-95011000D03*
%TD*%
D19*
%TO.C,J20*%
X103632000Y-79610400D03*
D20*
X106132000Y-79610400D03*
%TD*%
D27*
%TO.C,J14*%
X126979200Y-89931000D03*
D28*
X126979200Y-92471000D03*
X126979200Y-95011000D03*
%TD*%
D17*
%TO.C,C7*%
X126385950Y-112261400D03*
X126385950Y-110186400D03*
%TD*%
D27*
%TO.C,J11*%
X145338800Y-89931000D03*
D28*
X145338800Y-92471000D03*
X145338800Y-95011000D03*
%TD*%
D33*
%TO.C,SW4*%
X120396000Y-113490000D03*
X120396000Y-107490000D03*
%TD*%
D21*
%TO.C,J21*%
X90865000Y-79610400D03*
D22*
X93365000Y-79610400D03*
X95865000Y-79610400D03*
X98365000Y-79610400D03*
%TD*%
D25*
%TO.C,C2*%
X159512000Y-88740000D03*
X159512000Y-94140000D03*
%TD*%
D27*
%TO.C,J22*%
X146994800Y-103479600D03*
D28*
X144454800Y-103479600D03*
%TD*%
D24*
%TO.C,R5*%
X138455400Y-105165400D03*
X138455400Y-103165400D03*
%TD*%
D32*
%TO.C,D3*%
X137573750Y-110185200D03*
X139323750Y-110185200D03*
%TD*%
D15*
%TO.C,H2*%
X174306222Y-70274168D03*
%TD*%
D13*
%TO.C,R9*%
X126365000Y-105222800D03*
X126365000Y-107222800D03*
%TD*%
D27*
%TO.C,J18*%
X105410000Y-89931000D03*
D28*
X105410000Y-92471000D03*
X105410000Y-95011000D03*
%TD*%
D26*
%TO.C,SW2*%
X162560000Y-107490000D03*
X162560000Y-113490000D03*
%TD*%
D24*
%TO.C,R2*%
X162560000Y-103616000D03*
X162560000Y-101616000D03*
%TD*%
D13*
%TO.C,R17*%
X120396000Y-101822000D03*
X120396000Y-103822000D03*
%TD*%
D25*
%TO.C,C8*%
X94742000Y-88740000D03*
X94742000Y-94140000D03*
%TD*%
D36*
%TO.C,D2*%
X129907000Y-107238800D03*
X128157000Y-107238800D03*
%TD*%
D14*
%TO.C,C1*%
X141097000Y-105032900D03*
X141097000Y-107107900D03*
%TD*%
D11*
%TO.C,TMC4*%
X107442000Y-85085000D03*
D12*
X104902000Y-85085000D03*
X102362000Y-85085000D03*
X99822000Y-85085000D03*
X97282000Y-85085000D03*
X94742000Y-85085000D03*
X92202000Y-85085000D03*
X89662000Y-85085000D03*
X89662000Y-92705000D03*
X89662000Y-95245000D03*
X89662000Y-97785000D03*
X92202000Y-97785000D03*
X94742000Y-97785000D03*
X97282000Y-97785000D03*
X99822000Y-97785000D03*
X102362000Y-97785000D03*
X104902000Y-97785000D03*
X107442000Y-97785000D03*
%TD*%
D13*
%TO.C,R16*%
X105460800Y-101768400D03*
X105460800Y-103768400D03*
%TD*%
D36*
%TO.C,D1*%
X139254200Y-107137200D03*
X137504200Y-107137200D03*
%TD*%
D15*
%TO.C,H4*%
X174306222Y-120058168D03*
%TD*%
D24*
%TO.C,R8*%
X129057400Y-105267000D03*
X129057400Y-103267000D03*
%TD*%
D19*
%TO.C,J8*%
X168422000Y-79602000D03*
D20*
X170922000Y-79602000D03*
%TD*%
D24*
%TO.C,R12*%
X141090350Y-112175800D03*
X141090350Y-110175800D03*
%TD*%
D13*
%TO.C,R6*%
X135763000Y-105146600D03*
X135763000Y-107146600D03*
%TD*%
D27*
%TO.C,J15*%
X123728000Y-89931000D03*
D28*
X123728000Y-92471000D03*
X123728000Y-95011000D03*
%TD*%
D13*
%TO.C,R11*%
X138474150Y-112182400D03*
X138474150Y-114182400D03*
%TD*%
%TO.C,R13*%
X107391200Y-101768400D03*
X107391200Y-103768400D03*
%TD*%
D27*
%TO.C,J19*%
X102158800Y-89931000D03*
D28*
X102158800Y-92471000D03*
X102158800Y-95011000D03*
%TD*%
D25*
%TO.C,C6*%
X116281200Y-88740000D03*
X116281200Y-94140000D03*
%TD*%
D24*
%TO.C,R3*%
X171450000Y-103616000D03*
X171450000Y-101616000D03*
%TD*%
D27*
%TO.C,J2*%
X144843222Y-117005168D03*
D28*
X144843222Y-119545168D03*
X147383222Y-117005168D03*
X147383222Y-119545168D03*
X149923222Y-117005168D03*
X149923222Y-119545168D03*
X152463222Y-117005168D03*
X152463222Y-119545168D03*
X155003222Y-117005168D03*
X155003222Y-119545168D03*
X157543222Y-117005168D03*
X157543222Y-119545168D03*
%TD*%
D27*
%TO.C,J5*%
X135693222Y-73835168D03*
D28*
X135693222Y-71295168D03*
X133153222Y-73835168D03*
X133153222Y-71295168D03*
X130613222Y-73835168D03*
X130613222Y-71295168D03*
X128073222Y-73835168D03*
X128073222Y-71295168D03*
X125533222Y-73835168D03*
X125533222Y-71295168D03*
X122993222Y-73835168D03*
X122993222Y-71295168D03*
X120453222Y-73835168D03*
X120453222Y-71295168D03*
X117913222Y-73835168D03*
X117913222Y-71295168D03*
X115373222Y-73835168D03*
X115373222Y-71295168D03*
X112833222Y-73835168D03*
X112833222Y-71295168D03*
%TD*%
D27*
%TO.C,J4*%
X157517222Y-73810168D03*
D28*
X157517222Y-71270168D03*
X154977222Y-73810168D03*
X154977222Y-71270168D03*
X152437222Y-73810168D03*
X152437222Y-71270168D03*
X149897222Y-73810168D03*
X149897222Y-71270168D03*
X147357222Y-73810168D03*
X147357222Y-71270168D03*
X144817222Y-73810168D03*
X144817222Y-71270168D03*
X142277222Y-73810168D03*
X142277222Y-71270168D03*
X139737222Y-73810168D03*
X139737222Y-71270168D03*
%TD*%
D27*
%TO.C,J3*%
X121997222Y-117005168D03*
D28*
X121997222Y-119545168D03*
X124537222Y-117005168D03*
X124537222Y-119545168D03*
X127077222Y-117005168D03*
X127077222Y-119545168D03*
X129617222Y-117005168D03*
X129617222Y-119545168D03*
X132157222Y-117005168D03*
X132157222Y-119545168D03*
X134697222Y-117005168D03*
X134697222Y-119545168D03*
X137237222Y-117005168D03*
X137237222Y-119545168D03*
X139777222Y-117005168D03*
X139777222Y-119545168D03*
%TD*%
M02*
