M48
METRIC,TZ
T1C0.300
T2C0.600
T3C0.950
T4C1.000
T5C2.700
%
G90
G05
T1
X93142Y-87528
X93142Y-88341
X93142Y-89154
X93142Y-89967
X93447Y-94869
X93447Y-93523
X105486Y-112928
X108941Y-99924
X109110Y-93472
X109601Y-94310
X110084Y-99924
X114706Y-87528
X114706Y-88341
X114706Y-89154
X114706Y-89967
X114960Y-94742
X115011Y-93497
X120396Y-100381
X124155Y-112217
X124917Y-103124
X124968Y-107213
X125603Y-114224
X127406Y-114198
X129057Y-101829
X129464Y-100076
X129923Y-94645
X130931Y-93935
X131301Y-95531
X131547Y-113462
X131699Y-103776
X133227Y-110148
X134176Y-112133
X135204Y-102794
X136296Y-87528
X136296Y-88341
X136296Y-89154
X136296Y-89967
X136601Y-93472
X136601Y-101270
X136627Y-94844
X136855Y-114351
X138430Y-101625
X141097Y-102006
X143060Y-110176
X144374Y-113436
X146152Y-108814
X150546Y-101067
X150724Y-109271
X150774Y-112751
X151181Y-99949
X151968Y-95809
X152400Y-111328
X152818Y-95811
X154432Y-105232
X157759Y-87528
X157759Y-88341
X157759Y-89154
X157759Y-89967
X158217Y-93472
X158217Y-94767
X162560Y-111277
X171450Y-111252
T3
X90865Y-79610
X93365Y-79610
X95865Y-79610
X98365Y-79610
X112455Y-79610
X114955Y-79610
X117455Y-79610
X119955Y-79610
X134040Y-79610
X136540Y-79610
X139040Y-79610
X141540Y-79610
X155635Y-79602
X158135Y-79602
X160635Y-79602
X163135Y-79602
T4
X89662Y-85085
X89662Y-92705
X89662Y-95245
X89662Y-97785
X92202Y-85085
X92202Y-97785
X94742Y-85085
X94742Y-97785
X97282Y-85085
X97282Y-97785
X99822Y-85085
X99822Y-97785
X102159Y-89931
X102159Y-92471
X102159Y-95011
X102362Y-85085
X102362Y-97785
X103632Y-79610
X104902Y-85085
X104902Y-97785
X105410Y-89931
X105410Y-92471
X105410Y-95011
X106132Y-79610
X107442Y-85085
X107442Y-97785
X111252Y-85090
X111252Y-92710
X111252Y-95250
X111252Y-97790
X112833Y-71295
X112833Y-73835
X113792Y-85090
X113792Y-97790
X115373Y-71295
X115373Y-73835
X116332Y-85090
X116332Y-97790
X117913Y-71295
X117913Y-73835
X118872Y-85090
X118872Y-97790
X120453Y-71295
X120453Y-73835
X121412Y-85090
X121412Y-97790
X121997Y-117005
X121997Y-119545
X122993Y-71295
X122993Y-73835
X123728Y-89931
X123728Y-92471
X123728Y-95011
X123952Y-85090
X123952Y-97790
X124537Y-117005
X124537Y-119545
X125242Y-79610
X125533Y-71295
X125533Y-73835
X126492Y-85090
X126492Y-97790
X126979Y-89931
X126979Y-92471
X126979Y-95011
X127077Y-117005
X127077Y-119545
X127742Y-79610
X128073Y-71295
X128073Y-73835
X129032Y-85090
X129032Y-97790
X129617Y-117005
X129617Y-119545
X130613Y-71295
X130613Y-73835
X132157Y-117005
X132157Y-119545
X132842Y-85080
X132842Y-92700
X132842Y-95240
X132842Y-97780
X133153Y-71295
X133153Y-73835
X134697Y-117005
X134697Y-119545
X135382Y-85080
X135382Y-97780
X135693Y-71295
X135693Y-73835
X137237Y-117005
X137237Y-119545
X137922Y-85080
X137922Y-97780
X139737Y-71270
X139737Y-73810
X139777Y-117005
X139777Y-119545
X140462Y-85080
X140462Y-97780
X142277Y-71270
X142277Y-73810
X143002Y-85080
X143002Y-97780
X144455Y-103480
X144817Y-71270
X144817Y-73810
X144843Y-117005
X144843Y-119545
X145339Y-89931
X145339Y-92471
X145339Y-95011
X145542Y-85080
X145542Y-97780
X146832Y-79602
X146995Y-103480
X147357Y-71270
X147357Y-73810
X147383Y-117005
X147383Y-119545
X148082Y-85080
X148082Y-97780
X148641Y-89931
X148641Y-92471
X148641Y-95011
X149332Y-79602
X149897Y-71270
X149897Y-73810
X149923Y-117005
X149923Y-119545
X150622Y-85080
X150622Y-97780
X152437Y-71270
X152437Y-73810
X152463Y-117005
X152463Y-119545
X154432Y-85080
X154432Y-92700
X154432Y-95240
X154432Y-97780
X154977Y-71270
X154977Y-73810
X155003Y-117005
X155003Y-119545
X156972Y-85080
X156972Y-97780
X157517Y-71270
X157517Y-73810
X157543Y-117005
X157543Y-119545
X159512Y-85080
X159512Y-97780
X162052Y-85080
X162052Y-97780
X164592Y-85080
X164592Y-97780
X166929Y-89931
X166929Y-92471
X166929Y-95011
X167132Y-85080
X167132Y-97780
X168422Y-79602
X169672Y-85080
X169672Y-97780
X170180Y-89931
X170180Y-92471
X170180Y-95011
X170922Y-79602
X172212Y-85080
X172212Y-97780
T5
X101498Y-104546
X101498Y-111746
T2
G00X94948Y-101396
M15
G01X96048Y-101396
M16
G05
G00X94948Y-114896
M15
G01X96048Y-114896
M16
G05
M30
